<svg xmlns="http://www.w3.org/2000/svg" width="491.1" height="334.8" viewBox="0 0 491.1 334.8">
  <path id="_001-delivery-truck" data-name="001-delivery-truck" d="M401.5,863.31a45.348,45.348,0,0,0-32,13.2,44.433,44.433,0,0,0,0,63.6,45.523,45.523,0,0,0,32,13.2c24.6,0,44.6-20.2,44.6-45S426.1,863.31,401.5,863.31Zm0,70c-13.8,0-25.4-11.4-25.4-25s11.6-25,25.4-25a25,25,0,0,1,0,50Zm11.6-219.9a9.711,9.711,0,0,0-6.7-2.6H355.1a10.029,10.029,0,0,0-10,10v82a10.029,10.029,0,0,0,10,10h81.4a10.029,10.029,0,0,0,10-10v-54.9a10.008,10.008,0,0,0-3.3-7.4Zm13.4,79.4H365.1v-62.1h37.4l24,21.6Zm-269.2,70.5a45.348,45.348,0,0,0-32,13.2,44.433,44.433,0,0,0,0,63.6,45.523,45.523,0,0,0,32,13.2c24.6,0,44.6-20.2,44.6-45S181.9,863.31,157.3,863.31Zm0,70c-13.8,0-25.4-11.4-25.4-25s11.6-25,25.4-25a25,25,0,0,1,0,50Zm-66.7-57.7H70.5v-26.6a10,10,0,0,0-20,0v36.6a10.029,10.029,0,0,0,10,10H90.6a10,10,0,0,0,0-20Zm50.7-54.5a10.029,10.029,0,0,0-10-10H10a10,10,0,0,0,0,20H131.3A9.965,9.965,0,0,0,141.3,821.11Zm-111-36.1,121.3.7a10.1,10.1,0,0,0,10.1-9.9,9.9,9.9,0,0,0-9.9-10.1l-121.3-.7h-.1a10,10,0,0,0-.1,20Zm20.4-45.4H172a10,10,0,0,0,0-20H50.7a10,10,0,0,0,0,20Zm436.7-13.5h0l-71.6-59.3a9.851,9.851,0,0,0-6.4-2.3H325.2v-36a10.029,10.029,0,0,0-10-10H60.5a10.029,10.029,0,0,0-10,10v73.2a10,10,0,0,0,20,0v-63.2H305.3v237.1h-82a10,10,0,1,0,0,20H345.4a10,10,0,0,0,0-20H325.3V684.51h80.6l65.2,54-.7,136.9H460a10,10,0,0,0,0,20h20.3a9.944,9.944,0,0,0,10-9.9l.8-151.6A10.563,10.563,0,0,0,487.4,726.11Z" transform="translate(0 -618.51)" fill="#2196f3"/>
</svg>
