<svg id="_001-business" data-name="001-business" xmlns="http://www.w3.org/2000/svg" width="511.999" height="511.999" viewBox="0 0 511.999 511.999">
  <g id="Group_23" data-name="Group 23">
    <g id="Group_22" data-name="Group 22">
      <path id="Path_38" data-name="Path 38" d="M502.56,202.731l-52.853-5.867a200.684,200.684,0,0,0-14.933-36l33.216-41.515a10.666,10.666,0,0,0-.789-14.2L406.849,44.864a10.666,10.666,0,0,0-14.2-.789l-41.516,33.2a200.611,200.611,0,0,0-36-14.933L309.269,9.494A10.666,10.666,0,0,0,298.667,0H213.334a10.667,10.667,0,0,0-10.6,9.493l-5.867,52.8a200.684,200.684,0,0,0-36,14.933L119.349,44.01a10.666,10.666,0,0,0-14.2.789L44.8,105.152a10.666,10.666,0,0,0-.779,14.2L77.28,160.864a200.611,200.611,0,0,0-14.933,36L9.494,202.731A10.666,10.666,0,0,0,0,213.333v85.333a10.667,10.667,0,0,0,9.493,10.6l52.8,5.867a200.684,200.684,0,0,0,14.933,36L44.01,392.651a10.666,10.666,0,0,0,.789,14.2L105.151,467.2a10.665,10.665,0,0,0,14.2.725l41.515-33.205a200.613,200.613,0,0,0,36,14.933l5.867,52.853a10.666,10.666,0,0,0,10.6,9.493h85.333a10.668,10.668,0,0,0,10.6-9.44l5.867-52.853a200.684,200.684,0,0,0,36-14.933l41.515,33.216a10.666,10.666,0,0,0,14.2-.789l60.288-60.352a10.666,10.666,0,0,0,.789-14.2L434.72,351.136a200.613,200.613,0,0,0,14.933-36l52.853-5.867a10.666,10.666,0,0,0,9.493-10.6V213.333A10.665,10.665,0,0,0,502.56,202.731ZM490.669,289.12h0l-50.421,5.611a10.667,10.667,0,0,0-9.131,7.861A180.254,180.254,0,0,1,412.8,346.859a10.667,10.667,0,0,0,.9,12.021l31.712,39.637-46.837,46.837-39.637-31.712a10.667,10.667,0,0,0-12.021-.9,180.293,180.293,0,0,1-44.267,18.315,10.666,10.666,0,0,0-7.861,9.131l-5.611,50.475h-66.24l-5.664-50.475a10.667,10.667,0,0,0-7.861-9.131,180.254,180.254,0,0,1-44.267-18.315,10.667,10.667,0,0,0-12.021.9l-39.637,31.712L66.647,398.517l31.712-39.584a10.667,10.667,0,0,0,.9-12.021A180.292,180.292,0,0,1,80.94,302.645a10.666,10.666,0,0,0-9.131-7.861l-50.475-5.611v-66.24l50.475-5.664a10.667,10.667,0,0,0,9.131-7.861,180.253,180.253,0,0,1,18.315-44.267,10.667,10.667,0,0,0-.9-12.021L66.647,113.483l46.837-46.837,39.691,31.712a10.667,10.667,0,0,0,12.021.9,180.292,180.292,0,0,1,44.267-18.315,10.666,10.666,0,0,0,7.861-9.131l5.611-50.475h66.187l5.611,50.475a10.667,10.667,0,0,0,7.861,9.131,180.253,180.253,0,0,1,44.267,18.315,10.667,10.667,0,0,0,12.021-.9l39.637-31.712,46.837,46.891-31.712,39.637a10.667,10.667,0,0,0-.9,12.021,180.293,180.293,0,0,1,18.315,44.267,10.666,10.666,0,0,0,9.131,7.861l50.475,5.611Z" fill="#2196f3"/>
    </g>
  </g>
  <g id="Group_25" data-name="Group 25">
    <g id="Group_24" data-name="Group 24">
      <path id="Path_39" data-name="Path 39" d="M386.294,183.083a149.332,149.332,0,1,0-260.64,145.834,10.667,10.667,0,0,0,16.843,2.336l69.685-69.685L236.8,294.4a10.668,10.668,0,0,0,16.075,1.141L320,228.416v38.251h21.333v-64h0A10.667,10.667,0,0,0,330.667,192h-64v21.333h38.251l-58.432,58.432-24.619-32.832a10.667,10.667,0,0,0-7.776-4.267,10.86,10.86,0,0,0-8.3,3.125L137.973,305.6a127.694,127.694,0,1,1,203.361,45.387V288H320v78.569a127.186,127.186,0,0,1-21.333,9.891V309.333H277.334v72.7A128.47,128.47,0,0,1,256,383.869V341.333H234.668v40.8a127.049,127.049,0,0,1-21.333-5.485V320H192v46.834a128.724,128.724,0,0,1-17.227-11.911L161.216,371.4a149.325,149.325,0,0,0,225.078-188.32Z" fill="#2196f3"/>
    </g>
  </g>
</svg>
