<svg xmlns="http://www.w3.org/2000/svg" width="520.322" height="520.322" viewBox="0 0 520.322 520.322">
  <g id="_001-resize" data-name="001-resize" transform="translate(-1 -1)">
    <g id="Group_186" data-name="Group 186" transform="translate(1 48.302)">
      <path id="Path_731" data-name="Path 731" d="M414.893,476.02H60.128A59.21,59.21,0,0,1,1,416.893V62.128A59.21,59.21,0,0,1,60.128,3H272.987a11.826,11.826,0,0,1,0,23.651H60.128A35.52,35.52,0,0,0,24.651,62.128V416.893a35.52,35.52,0,0,0,35.477,35.477H414.893a35.52,35.52,0,0,0,35.477-35.477V204.034a11.826,11.826,0,0,1,23.651,0V416.893A59.21,59.21,0,0,1,414.893,476.02Z" transform="translate(-1 -3)" fill="#2196f3"/>
    </g>
    <g id="Group_187" data-name="Group 187" transform="translate(332.114 1)">
      <path id="Path_732" data-name="Path 732" d="M192.383,190.208a11.83,11.83,0,0,1-11.826-11.826V24.651H26.826A11.826,11.826,0,0,1,26.826,1H192.383a11.83,11.83,0,0,1,11.826,11.825V178.383A11.83,11.83,0,0,1,192.383,190.208Z" transform="translate(-15 -1)" fill="#2196f3"/>
    </g>
    <g id="Group_188" data-name="Group 188" transform="translate(213.853 1.018)">
      <path id="Path_733" data-name="Path 733" d="M21.831,308.446a11.814,11.814,0,0,1-8.372-20.174L297.271,4.46a11.824,11.824,0,0,1,16.721,16.721L30.18,304.993a11.783,11.783,0,0,1-8.349,3.453Z" transform="translate(-10 -1.001)" fill="#2196f3"/>
    </g>
  </g>
</svg>
