<svg xmlns="http://www.w3.org/2000/svg" width="392.599" height="512.109" viewBox="0 0 392.599 512.109">
  <g id="_001-robotics" data-name="001-robotics" transform="translate(-0.053 0)">
    <path id="Path_5" data-name="Path 5" d="M367.051,112.25V49.734a25.6,25.6,0,1,0-17.066,0v61.3H337.227a144.877,144.877,0,0,0-281.64,0h-12.8v-61.3a25.6,25.6,0,1,0-17.066,0V112.25a34.138,34.138,0,0,0-25.6,32.922v51.2a34.139,34.139,0,0,0,34.137,34.137H52.532a34.131,34.131,0,0,0,32.922,25.6h68.266v17.066H67.633a25.6,25.6,0,0,0-23.891,34.793l11.945,31.086L42.282,348.6a25.6,25.6,0,1,0-12.246,44.691l10.582,16.656a26.1,26.1,0,1,0,14.91-8.32L44.918,384.891a24.689,24.689,0,0,0,5.863-21.383l11.238-8.016,11.254,29.262a25.764,25.764,0,0,0,23.9,16.418h30.941v68.266a8.346,8.346,0,0,0,1.469,4.508,29.807,29.807,0,0,0,28.4,21.094H167a33.833,33.833,0,0,0,58.777,0h9.012a29.807,29.807,0,0,0,28.4-21.094,8.346,8.346,0,0,0,1.469-4.508V401.172h30.941a25.771,25.771,0,0,0,23.895-16.41l11.254-29.27,11.238,8.016a24.689,24.689,0,0,0,5.863,21.383l-10.66,16.742a25.021,25.021,0,0,0-11.793.676,25.736,25.736,0,1,0,26.727,7.637L362.7,393.289a25.3,25.3,0,0,0,4.344.391,25.572,25.572,0,1,0-16.59-45.082l-13.379-9.547,11.945-31.1a25.6,25.6,0,0,0-23.883-34.781H239.051V256.105h68.27a34.138,34.138,0,0,0,32.922-25.6H358.52a34.135,34.135,0,0,0,34.133-34.137v-51.2a34.133,34.133,0,0,0-25.6-32.922ZM18.176,372.082a8.534,8.534,0,1,1,5.035,4.156,8.53,8.53,0,0,1-5.035-4.156ZM67.387,422.77a8.553,8.553,0,1,1-7.535-4.531,8.868,8.868,0,0,1,2.559.387,8.44,8.44,0,0,1,4.977,4.145Zm273.066,8.016a33.085,33.085,0,1,0,0,.008Zm24.1-70.828a8.385,8.385,0,0,1,2.5-.418,8.541,8.541,0,1,1-7.551,4.539,8.45,8.45,0,0,1,5.059-4.156ZM358.519,17.172a8.533,8.533,0,1,1-8.535,8.535A8.533,8.533,0,0,1,358.519,17.172Zm-324.266,0a8.533,8.533,0,1,1-8.535,8.535A8.533,8.533,0,0,1,34.253,17.172Zm-17.07,179.2v-51.2a17.069,17.069,0,0,1,17.07-17.066H51.32v85.332H34.253a17.069,17.069,0,0,1-17.07-17.066Zm140.8,281.6a12.8,12.8,0,0,1,0-25.6h4.27v25.6Zm38.4,17.066a17.066,17.066,0,0,1-17.066-17.066v-25.6a17.066,17.066,0,0,1,34.133,0v25.6A17.066,17.066,0,0,1,196.386,495.039Zm38.4-17.066h-4.266v-25.6h4.266a12.8,12.8,0,0,1,0,25.6Zm12.8-39.672a29.616,29.616,0,0,0-12.8-3h-9.012a33.837,33.837,0,0,0-58.777,0h-9.012a29.616,29.616,0,0,0-12.8,3V401.172h102.4Zm84.582-144.359a8.372,8.372,0,0,1,.93,7.887l-29.535,76.8a8.593,8.593,0,0,1-7.969,5.469H97.175a8.588,8.588,0,0,1-7.969-5.48l-29.535-76.8a8.537,8.537,0,0,1,7.961-11.582h257.5a8.419,8.419,0,0,1,7.031,3.7Zm-110.184-20.77h-51.2V256.106h51.2Zm85.336-34.133H85.452a17.066,17.066,0,0,1-17.066-17.066v-76.8a128,128,0,1,1,256,0v76.8A17.071,17.071,0,0,1,307.32,239.04Zm68.266-42.668a17.066,17.066,0,0,1-17.066,17.066H341.452V128.106h17.066a17.066,17.066,0,0,1,17.066,17.066Zm0,0" fill="#2196f3"/>
    <path id="Path_6" data-name="Path 6" d="M196.387,59.84c-50.973,0-102.4,23.746-102.4,76.8,0,44.023,36.371,68.266,102.4,68.266s102.4-24.242,102.4-68.266c0-53.055-51.43-76.8-102.4-76.8Zm0,128c-56.629,0-85.336-17.23-85.336-51.2,0-41.27,42.855-59.734,85.336-59.734s85.332,18.465,85.332,59.734C281.719,170.609,253.012,187.84,196.387,187.84Zm0,0" fill="#2196f3"/>
    <path id="Path_7" data-name="Path 7" d="M162.254,136.641a8.535,8.535,0,1,1-8.535-8.535A8.536,8.536,0,0,1,162.254,136.641Zm0,0" fill="#2196f3"/>
    <path id="Path_8" data-name="Path 8" d="M247.586,136.641a8.533,8.533,0,1,1-8.535-8.535A8.533,8.533,0,0,1,247.586,136.641Zm0,0" fill="#2196f3"/>
    <path id="Path_9" data-name="Path 9" d="M239.051,324.371h17.066a8.533,8.533,0,1,0,0-17.066H239.051a8.533,8.533,0,0,0,0,17.066Zm0,0" fill="#2196f3"/>
    <path id="Path_10" data-name="Path 10" d="M298.785,315.84a8.533,8.533,0,1,1-8.531-8.535A8.532,8.532,0,0,1,298.785,315.84Zm0,0" fill="#2196f3"/>
    <path id="Path_11" data-name="Path 11" d="M247.586,349.973a8.536,8.536,0,0,0,8.531,8.535h17.066a8.535,8.535,0,0,0,0-17.07H256.117A8.536,8.536,0,0,0,247.586,349.973Zm0,0" fill="#2196f3"/>
    <path id="Path_12" data-name="Path 12" d="M230.52,349.973a8.533,8.533,0,1,1-8.535-8.535A8.536,8.536,0,0,1,230.52,349.973Zm0,0" fill="#2196f3"/>
    <path id="Path_13" data-name="Path 13" d="M187.852,332.906H166.817l-14.5-21.8a8.871,8.871,0,0,0-14.2,0l-14.555,21.8H102.52a8.533,8.533,0,1,0,0,17.066h25.6a8.536,8.536,0,0,0,7.1-3.8l9.965-14.977,9.969,14.949a8.532,8.532,0,0,0,7.1,3.824h25.6a8.533,8.533,0,1,0,0-17.066Zm0,0" fill="#2196f3"/>
  </g>
</svg>
