<?xml version="1.0" encoding="utf-8"?>
<!-- Generator: Adobe Illustrator 16.0.0, SVG Export Plug-In . SVG Version: 6.00 Build 0)  -->
<!DOCTYPE svg PUBLIC "-//W3C//DTD SVG 1.1//EN" "http://www.w3.org/Graphics/SVG/1.1/DTD/svg11.dtd">
<svg version="1.1" id="Layer_1" xmlns="http://www.w3.org/2000/svg" xmlns:xlink="http://www.w3.org/1999/xlink" x="0px" y="0px"
	 width="79.41px" height="76.764px" viewBox="0 0 79.41 76.764" enable-background="new 0 0 79.41 76.764" xml:space="preserve">
<path id="_001-workflow" fill="#FFFFFF" d="M64.189,9.264h-9.926V0H25.146v21.176h29.118v-9.265h9.926
	c6.944,0.002,12.572,5.632,12.57,12.575c0,6.942-5.628,12.569-12.57,12.571h-9.43l3.475-9.265H29.117l-3.474,9.265H15.22
	C6.814,37.057,0,43.871,0,52.277c0,8.405,6.814,15.22,15.22,15.22h9.926v9.264h29.118V67.5h5.399
	c0.731,5.064,5.429,8.576,10.492,7.846c5.063-0.731,8.577-5.429,7.846-10.492c-0.731-5.064-5.429-8.577-10.493-7.846
	c-4.064,0.587-7.258,3.78-7.845,7.846h-5.399v-9.267H25.146v9.265H15.22c-6.944,0-12.573-5.63-12.573-12.573
	c0-6.944,5.629-12.573,12.573-12.573h9.43l-3.474,9.264h29.117l3.475-9.269h10.422c8.406,0,15.221-6.814,15.221-15.22
	c0-8.406-6.814-15.221-15.221-15.221V9.264z M50.29,17.205H29.117v-2.646h21.176L50.29,17.205z M50.29,11.911H29.117V9.264h21.176
	L50.29,11.911z M50.29,6.617H29.117V3.969h21.176L50.29,6.617z M65.787,65.239L67.5,66.95l4.357-4.358l1.871,1.872l-6.229,6.23
	l-3.583-3.583L65.787,65.239z M29.117,59.557h21.176V62.2H29.117V59.557z M29.117,64.851h21.176V67.5H29.117V64.851z M29.117,70.145
	h21.176v2.646H29.117V70.145z M46.322,45H27.793v-2.647h18.529V45z M48.969,39.7H30.44v-2.642h18.529V39.7z M51.616,34.406H33.087
	v-2.642h18.529V34.406z"/>
</svg>
