<svg xmlns="http://www.w3.org/2000/svg" width="79.41" height="76.763" viewBox="0 0 79.41 76.763">
  <path id="_001-workflow" data-name="001-workflow" d="M66.19,12.264H56.263V3H27.146V24.176H56.263V14.911H66.19a12.573,12.573,0,0,1,0,25.146H56.76l3.474-9.264H31.117l-3.474,9.264H17.22a15.22,15.22,0,0,0,0,30.44h9.926v9.264H56.263V70.5h5.4a9.264,9.264,0,1,0,0-2.647h-5.4V58.587H27.146v9.264H17.22a12.573,12.573,0,1,1,0-25.146h9.43l-3.474,9.264H52.293L55.767,42.7H66.19a15.22,15.22,0,0,0,0-30.44Zm-13.9,7.941H31.117V17.558H52.293Zm0-5.294H31.117V12.264H52.293Zm0-5.294H31.117V6.97H52.293ZM67.787,68.239,69.5,69.95l4.358-4.358,1.871,1.872-6.23,6.23-3.583-3.583Zm-36.67-5.682H52.293V65.2H31.117Zm0,5.294H52.293V70.5H31.117Zm0,5.294H52.293v2.647H31.117ZM48.322,48H29.793V45.352H48.322ZM50.969,42.7H32.44V40.058H50.969Zm2.647-5.294H35.087V34.764H53.616Z" transform="translate(-2 -3)" fill="#40a3ff"/>
</svg>
