<svg id="_001-application" data-name="001-application" xmlns="http://www.w3.org/2000/svg" width="352" height="496" viewBox="0 0 352 496">
  <path id="Path_715" data-name="Path 715" d="M312,224H300.672a87.3,87.3,0,0,0-7.375-17.984l8.359-8.359a7.99,7.99,0,0,0,0-11.312l-24-24a7.99,7.99,0,0,0-11.312,0l-8.359,8.359A87.3,87.3,0,0,0,240,163.328V152a8,8,0,0,0-8-8H200a8,8,0,0,0-8,8v11.328a87.3,87.3,0,0,0-17.984,7.375l-8.359-8.359a7.99,7.99,0,0,0-11.312,0l-24,24a7.99,7.99,0,0,0,0,11.313l8.359,8.359A87.3,87.3,0,0,0,131.328,224H120a8,8,0,0,0-8,8v32a7.99,7.99,0,0,0,8,8h11.328a87.481,87.481,0,0,0,7.375,17.984l-8.359,8.359a7.99,7.99,0,0,0,0,11.313l24,24a7.99,7.99,0,0,0,11.313,0l8.359-8.359A87.48,87.48,0,0,0,192,332.672V344a7.99,7.99,0,0,0,8,8h32a7.99,7.99,0,0,0,8-8V332.672a87.481,87.481,0,0,0,17.984-7.375l8.359,8.359a7.99,7.99,0,0,0,11.313,0l24-24a7.99,7.99,0,0,0,0-11.312l-8.359-8.359A87.48,87.48,0,0,0,300.672,272H312a7.99,7.99,0,0,0,8-8V232A8,8,0,0,0,312,224Zm-8,32h-9.609a8,8,0,0,0-7.84,6.414,71.147,71.147,0,0,1-10.031,24.5,7.993,7.993,0,0,0,1.074,9.984L284.687,304,272,316.688l-7.105-7.1a8.012,8.012,0,0,0-9.984-1.074,71.226,71.226,0,0,1-24.5,10.031A8.012,8.012,0,0,0,224,326.391V336H208v-9.609a8,8,0,0,0-6.414-7.84,71.147,71.147,0,0,1-24.5-10.031,8.016,8.016,0,0,0-9.984,1.074L160,316.688,147.312,304l7.1-7.105a7.994,7.994,0,0,0,1.074-9.984,71.226,71.226,0,0,1-10.031-24.5A8.012,8.012,0,0,0,137.609,256H128V240h9.609a8,8,0,0,0,7.84-6.406,71.023,71.023,0,0,1,10.031-24.5,8,8,0,0,0-1.074-9.992L147.312,192,160,179.313l7.105,7.1a7.99,7.99,0,0,0,9.992,1.066,71.053,71.053,0,0,1,24.5-10.031,8.01,8.01,0,0,0,6.406-7.84V160h16v9.609a8,8,0,0,0,6.406,7.84,71.28,71.28,0,0,1,24.5,10.031,7.991,7.991,0,0,0,9.992-1.066l7.105-7.1L284.687,192l-7.1,7.105a8,8,0,0,0-1.074,9.992,71.226,71.226,0,0,1,10.031,24.5A8.012,8.012,0,0,0,294.391,240H304Zm0,0" fill="#2196f3"/>
  <path id="Path_716" data-name="Path 716" d="M216,192a56,56,0,1,0,56,56A56.068,56.068,0,0,0,216,192Zm0,96a40,40,0,1,1,40-40A40.047,40.047,0,0,1,216,288Zm0,0" fill="#2196f3"/>
  <path id="Path_717" data-name="Path 717" d="M320,96H272V40A40.047,40.047,0,0,0,232,0H40A40.047,40.047,0,0,0,0,40V456a40.047,40.047,0,0,0,40,40H232a40.047,40.047,0,0,0,40-40V400h48a32.032,32.032,0,0,0,32-32V128A32.032,32.032,0,0,0,320,96ZM220.688,16l-32,32H83.313l-32-32ZM208,480H64v-8a8.005,8.005,0,0,1,8-8H200a8.005,8.005,0,0,1,8,8Zm48-24a24.031,24.031,0,0,1-24,24h-8v-8a24.031,24.031,0,0,0-24-24H72a24.031,24.031,0,0,0-24,24v8H40a24.031,24.031,0,0,1-24-24V40A24.031,24.031,0,0,1,30.609,17.922L74.344,61.656A7.964,7.964,0,0,0,80,64H192a7.964,7.964,0,0,0,5.656-2.344l43.734-43.734A24.032,24.032,0,0,1,256,40V96H112a32.032,32.032,0,0,0-32,32V368a32.032,32.032,0,0,0,32,32H256Zm80-88a16.016,16.016,0,0,1-16,16H112a16.016,16.016,0,0,1-16-16V128a16.016,16.016,0,0,1,16-16H320a16.016,16.016,0,0,1,16,16Zm0,0" fill="#2196f3"/>
</svg>
