<svg xmlns="http://www.w3.org/2000/svg" width="416.001" height="502.172" viewBox="0 0 416.001 502.172">
  <g id="_001-market" data-name="001-market" transform="translate(-43.085)">
    <g id="Group_190" data-name="Group 190">
      <g id="Group_189" data-name="Group 189">
        <path id="Path_739" data-name="Path 739" d="M421.15,162.556l30.928-8.208a208.389,208.389,0,0,0-11.664-32.624l-29.136,13.264A174.62,174.62,0,0,1,421.15,162.556Z" fill="#2196f3"/>
        <path id="Path_740" data-name="Path 740" d="M423.438,91.516a207.266,207.266,0,0,0-21.728-26.96l-23.168,22.08a176.62,176.62,0,0,1,18.4,22.816Z" fill="#2196f3"/>
        <path id="Path_741" data-name="Path 741" d="M458.158,188.4,426.3,191.4c.528,5.536.784,11.056.784,16.608A174.785,174.785,0,0,1,375.534,332.46L251.086,456.924,126.638,332.46A176,176,0,0,1,356.686,67.212l19.2-25.6c-91.9-68.925-222.275-50.3-291.2,41.6a207.983,207.983,0,0,0,19.328,271.872L251.086,502.172,398.158,355.084a206.53,206.53,0,0,0,60.928-147.072Q459.086,198.189,458.158,188.4Z" fill="#2196f3"/>
        <path id="Path_742" data-name="Path 742" d="M205.374,87.772l-43.344,72.24H123.086v32h17.872l10.752,85.952a48,48,0,0,0,47.632,42.048H302.83a48,48,0,0,0,47.632-42.048l10.752-85.952h17.872v-32H340.142L296.8,87.772l-27.424,16.48,33.456,55.76H199.342l33.456-55.76Zm123.584,104.24L318.718,274a16,16,0,0,1-15.888,14.016H199.342A16,16,0,0,1,183.454,274l-10.24-81.984Z" fill="#2196f3"/>
      </g>
    </g>
  </g>
</svg>
