<svg xmlns="http://www.w3.org/2000/svg" width="512" height="512" viewBox="0 0 512 512">
  <g id="_001-consulting" data-name="001-consulting" transform="translate(0.001)">
    <path id="Path_713" data-name="Path 713" d="M466.191,410.422l-20.668-7.176a49.909,49.909,0,0,0,19.012-39.191V348.906a49.988,49.988,0,0,0-99.977,0v15.148a49.913,49.913,0,0,0,19.016,39.191L362.9,410.422a68.076,68.076,0,0,0-32.383,23.82H274.683V412.207a68.214,68.214,0,0,0-45.809-64.395L208.2,340.637a49.913,49.913,0,0,0,19.016-39.191V286.3a49.988,49.988,0,0,0-99.977,0v15.148a49.921,49.921,0,0,0,19.012,39.191l-20.668,7.176a68.214,68.214,0,0,0-45.809,64.395v22.035H7.574A7.574,7.574,0,0,0,0,441.817v62.609A7.574,7.574,0,0,0,7.574,512H322.652a6.906,6.906,0,0,1,2.02,0H504.425A7.574,7.574,0,0,0,512,504.426V474.817a68.217,68.217,0,0,0-45.809-64.395Zm-86.484-61.516a34.84,34.84,0,0,1,69.68,0v15.148a34.84,34.84,0,0,1-69.68,0ZM142.391,286.3a34.84,34.84,0,1,1,69.68,0v15.148a34.84,34.84,0,1,1-69.68,0Zm50.73,65.137,7.359,2.555-23.25,40.34-23.25-40.34,7.359-2.555Zm-98.2,60.773a53.059,53.059,0,0,1,35.629-50.086l8.859-3.074,31.254,54.234a7.574,7.574,0,0,0,13.125,0l31.254-54.234,8.859,3.074a53.056,53.056,0,0,1,35.625,50.086v22.035H94.926ZM15.149,449.391H322.031a67.924,67.924,0,0,0-4.934,25.426v22.035H15.149Zm481.7,47.461h-164.6V474.816a53.06,53.06,0,0,1,35.625-50.086l30.785-10.687h31.781l30.785,10.688a53.058,53.058,0,0,1,35.629,50.086Zm0,0" fill="#2196f3"/>
    <path id="Path_714" data-name="Path 714" d="M464.031,54.531H387.094a7.574,7.574,0,0,0,0,15.148h76.938a32.858,32.858,0,0,1,32.82,32.824V207.527a32.857,32.857,0,0,1-32.82,32.82H360.015a7.574,7.574,0,0,0-7.574,7.574v32.211l-37.562-37.566a7.572,7.572,0,0,0-5.355-2.219h-61.6a32.86,32.86,0,0,1-32.824-32.82V102.5a32.858,32.858,0,0,1,32.824-32.82H351.683a7.574,7.574,0,1,0,0-15.148H312.047V47.969A48.024,48.024,0,0,0,264.078,0H47.969A48.024,48.024,0,0,0,0,47.969V64.715a7.574,7.574,0,0,0,15.148,0V47.969a32.857,32.857,0,0,1,32.82-32.82H264.078a32.857,32.857,0,0,1,32.82,32.82v6.563H247.921A48.024,48.024,0,0,0,199.953,102.5v83.313H120.679a7.574,7.574,0,0,0-7.574,7.574V225.6L75.542,188.031a7.572,7.572,0,0,0-5.355-2.219H47.968a32.857,32.857,0,0,1-32.82-32.82V99.934A7.574,7.574,0,0,0,0,99.934v53.059a48.022,48.022,0,0,0,47.969,47.969H67.046l48.277,48.277a7.575,7.575,0,0,0,12.93-5.355V200.961h71.7v6.566a48.021,48.021,0,0,0,47.969,47.965h58.465l48.273,48.277a7.575,7.575,0,0,0,12.93-5.355V255.492h96.441A48.021,48.021,0,0,0,512,207.527V102.5a48.024,48.024,0,0,0-47.969-47.969Zm0,0" fill="#2196f3"/>
  </g>
</svg>
