<svg xmlns="http://www.w3.org/2000/svg" width="475.57" height="476.554" viewBox="0 0 475.57 476.554">
  <g id="_001-analytics" data-name="001-analytics" transform="translate(-0.492)">
    <g id="Group_172" data-name="Group 172">
      <g id="Group_171" data-name="Group 171">
        <path id="Path_718" data-name="Path 718" d="M318.523,94.523,300.8,103.384c9.846,20.677,14.769,41.354,14.769,64a146.575,146.575,0,0,1-39.385,100.431,147.771,147.771,0,1,1-3.938-204.8L286.031,49.23A167.265,167.265,0,1,0,167.877,334.77c46.277,0,90.585-19.692,123.077-54.154A169.547,169.547,0,0,0,335.262,166.4,167.174,167.174,0,0,0,318.523,94.523Z" fill="#2196f3"/>
      </g>
    </g>
    <g id="Group_174" data-name="Group 174">
      <g id="Group_173" data-name="Group 173">
        <rect id="Rectangle_48" data-name="Rectangle 48" width="19.692" height="114.211" transform="translate(271.94 285.052) rotate(-44.485)" fill="#2196f3"/>
      </g>
    </g>
    <g id="Group_176" data-name="Group 176">
      <g id="Group_175" data-name="Group 175">
        <path id="Path_719" data-name="Path 719" d="M367.754,336.739,332.308,371.2,440.616,476.554l35.446-34.462ZM360.862,371.2l7.877-6.892,79.754,77.785-7.877,6.892Z" fill="#2196f3"/>
      </g>
    </g>
    <g id="Group_178" data-name="Group 178">
      <g id="Group_177" data-name="Group 177">
        <path id="Path_720" data-name="Path 720" d="M399.262,34.462,237.785,88.615v55.139l-79.754-30.523-11.815,56.123-19.693-67.938L70.4,203.815,17.231,140.8,2.462,153.6l70.892,84.677,47.262-85.662,28.553,98.462,22.647-111.262,85.661,32.493V102.4L406.154,53.169Z" fill="#2196f3"/>
      </g>
    </g>
    <g id="Group_180" data-name="Group 180">
      <g id="Group_179" data-name="Group 179">
        <path id="Path_721" data-name="Path 721" d="M358.892,10.831l-8.861,17.723,38.4,19.692-18.708,38.4,17.723,8.862,27.569-56.123Z" fill="#2196f3"/>
      </g>
    </g>
  </g>
</svg>
