<svg xmlns="http://www.w3.org/2000/svg" width="60" height="60" viewBox="0 0 60 60">
  <g id="Intelligence_Processing" data-name="Intelligence Processing" transform="translate(-2 -2)">
    <path id="Path_1" data-name="Path 1" d="M61.1,26,54,25.3a22.938,22.938,0,0,0-1.7-4.113l4.519-5.525a1,1,0,0,0-.067-1.34L49.678,7.251a1,1,0,0,0-1.34-.067L42.813,11.7A22.938,22.938,0,0,0,38.705,10L38,2.9A1,1,0,0,0,37,2H27a1,1,0,0,0-1,.9L25.3,10a22.938,22.938,0,0,0-4.113,1.7L15.662,7.184a1,1,0,0,0-1.34.067L7.251,14.322a1,1,0,0,0-.067,1.34L11.7,21.187A22.938,22.938,0,0,0,10,25.3l-7.1.71A1,1,0,0,0,2,27V37a1,1,0,0,0,.9.995l7.1.71a23.064,23.064,0,0,0,1.7,4.109L7.184,48.338a1,1,0,0,0,.067,1.34l7.071,7.071a1,1,0,0,0,1.34.067L21.187,52.3A22.937,22.937,0,0,0,25.3,54l.71,7.1a1,1,0,0,0,1,.9H37a1,1,0,0,0,.995-.9L38.7,54a22.938,22.938,0,0,0,4.108-1.7l5.525,4.519a1,1,0,0,0,1.34-.067l7.071-7.071a1,1,0,0,0,.067-1.34L52.3,42.814A23.064,23.064,0,0,0,54,38.7L61.1,38a1,1,0,0,0,.9-1V27a1,1,0,0,0-.9-1ZM60,36.1l-6.871.687a1,1,0,0,0-.865.733,20.976,20.976,0,0,1-2.037,4.911,1,1,0,0,0,.092,1.13L54.7,48.9l-5.8,5.8-5.347-4.376a1,1,0,0,0-1.13-.093,21.008,21.008,0,0,1-4.911,2.038,1,1,0,0,0-.733.865L36.1,60H27.91l-.687-6.871a1,1,0,0,0-.733-.865,21.008,21.008,0,0,1-4.911-2.038,1.006,1.006,0,0,0-1.13.093L15.1,54.7l-5.8-5.8,4.376-5.347a1,1,0,0,0,.092-1.13,20.976,20.976,0,0,1-2.037-4.911,1,1,0,0,0-.865-.733L4,36.1V27.91l6.871-.687a1,1,0,0,0,.865-.733,21.008,21.008,0,0,1,2.038-4.911,1,1,0,0,0-.093-1.13L9.305,15.1l5.8-5.8,5.347,4.376a1,1,0,0,0,1.13.093,21.008,21.008,0,0,1,4.911-2.038,1,1,0,0,0,.733-.865L27.905,4H36.1l.687,6.871a1,1,0,0,0,.733.865,21.008,21.008,0,0,1,4.911,2.038,1,1,0,0,0,1.13-.093L48.9,9.305l5.8,5.8-4.376,5.347a1,1,0,0,0-.093,1.13,21.008,21.008,0,0,1,2.038,4.911,1,1,0,0,0,.865.733L60,27.905Z" fill="#2196f3"/>
    <path id="Path_2" data-name="Path 2" d="M30,35h4a1,1,0,0,0,1-1V30a1,1,0,0,0-1-1H30a1,1,0,0,0-1,1v4A1,1,0,0,0,30,35Zm1-4h2v2H31Z" fill="#2196f3"/>
    <path id="Path_3" data-name="Path 3" d="M41.28,25.293,39.573,27H39V26a1,1,0,0,0-1-1H37v-.583l1.707-1.707A1,1,0,0,0,39,22V20H37v1.589L35.293,23.3A1,1,0,0,0,35,24v1H33V20H31v5H29v-.969a1,1,0,0,0-.293-.707L27,21.617V20H25v2.031a1,1,0,0,0,.293.707L27,24.445V25H26a1,1,0,0,0-1,1v1H23.631l-.724-1.447A1,1,0,0,0,22.013,25H20v2h1.4l.723,1.447a1,1,0,0,0,.9.553H25v2H20v2h5v2H23.013a1,1,0,0,0-.9.553L21.4,37H20v2h2.013a1,1,0,0,0,.894-.553L23.631,37H25v1a1,1,0,0,0,1,1h1v.555l-1.707,1.707a1,1,0,0,0-.293.707V44h2V42.383l1.707-1.707A1,1,0,0,0,29,39.969V39h2v5h2V39h2v1a1,1,0,0,0,.293.707L37,42.411V44h2V42a1,1,0,0,0-.293-.707L37,39.583V39h1a1,1,0,0,0,1-1V37h.573l1.707,1.707a1,1,0,0,0,.707.293H44V37H42.4l-1.707-1.707A1,1,0,0,0,39.987,35H39V33h5V31H39V29h.987a1,1,0,0,0,.707-.293L42.4,27H44V25H41.987a1,1,0,0,0-.707.293ZM37,37H27V27H37Z" fill="#2196f3"/>
    <path id="Path_4" data-name="Path 4" d="M45.4,20.019l2.162-2.162-1.414-1.414L43.986,18.6A17.9,17.9,0,0,0,33,14.051V11H31v3.051A17.9,17.9,0,0,0,20.019,18.6l-2.162-2.162-1.414,1.414,2.162,2.162A17.9,17.9,0,0,0,14.051,31H11v2h3.051a17.9,17.9,0,0,0,4.554,10.981l-2.162,2.162,1.414,1.414L20.019,45.4A17.9,17.9,0,0,0,31,49.949V53h2V49.949A17.9,17.9,0,0,0,43.981,45.4l2.162,2.162,1.414-1.414L45.4,43.981A17.9,17.9,0,0,0,49.949,33H53V31H49.949A17.9,17.9,0,0,0,45.4,20.019ZM32,48A16,16,0,1,1,48,32,16,16,0,0,1,32,48Z" fill="#2196f3"/>
  </g>
</svg>
