<svg xmlns="http://www.w3.org/2000/svg" width="506" height="471.107" viewBox="0 0 506 471.107">
  <g id="_002-wallet-with-card-sticking-out" data-name="002-wallet-with-card-sticking-out" transform="translate(0 -17.653)">
    <path id="Path_734" data-name="Path 734" d="M496.117,251.573h-5.93V117.167A39.577,39.577,0,0,0,452.981,77.71L442.828,35.772a23.716,23.716,0,0,0-28.6-17.45L168.077,77.912a7.891,7.891,0,0,0-2.046-.277H39.531A39.576,39.576,0,0,0,0,117.167V449.229a39.576,39.576,0,0,0,39.531,39.531H450.656a39.576,39.576,0,0,0,39.531-39.531V378.073h5.93A9.894,9.894,0,0,0,506,368.19V261.456A9.894,9.894,0,0,0,496.117,251.573ZM474.375,117.167v.017a39.392,39.392,0,0,0-13.427-6.56L457,94.317A23.756,23.756,0,0,1,474.375,117.167ZM39.531,93.448H103.9L37.955,109.414c-.042.008-.081.021-.122.03l-.163.04c-.021,0-.042.013-.062.019-.227.056-.45.123-.669.2l-.116.042c-.2.074-.4.154-.6.244l-.163.078c-.172.084-.341.173-.505.269-.068.04-.135.081-.2.124-.145.091-.289.186-.428.286-.074.053-.146.108-.218.163-.128.1-.253.2-.375.307-.071.062-.14.126-.209.19-.118.111-.231.223-.342.34-.062.065-.123.132-.182.2-.11.125-.216.253-.318.384-.051.065-.1.132-.149.2q-.153.211-.292.43c-.042.065-.081.131-.121.2q-.135.227-.253.463c-.036.071-.069.142-.1.213-.072.155-.139.311-.2.471-.033.084-.063.169-.093.254-.051.148-.1.3-.143.451-.031.107-.057.215-.083.324-.032.132-.061.265-.086.4s-.044.275-.063.412c-.015.113-.029.224-.039.338-.014.16-.021.322-.025.484,0,.065-.01.129-.01.2,0,.038,0,.073.006.111,0,.157.012.314.024.473.009.116.017.231.03.346.016.131.038.263.06.4s.047.277.078.413c.01.042.014.085.024.127.019.075.045.146.065.22.038.139.077.278.123.414s.087.246.134.367.089.227.139.339c.062.14.129.277.2.412.043.084.087.169.133.251.086.153.177.3.272.448.04.06.079.121.12.18q.163.236.343.458c.036.044.072.09.11.133q.193.228.4.442c.037.038.073.075.112.112.143.14.291.275.444.4l.126.1c.153.124.31.242.473.354.047.034.1.066.144.1.163.108.33.209.5.3l.154.084q.264.139.539.259c.048.021.1.042.146.062.195.081.392.152.594.217l.116.037c.22.067.443.125.669.172l.064.014c.247.05.5.088.749.115l.015,0a7.869,7.869,0,0,0,.8.041h.027c.1,0,.2,0,.295,0H411.125a7.906,7.906,0,0,0,0-15.812H105.81L417.949,33.69a7.884,7.884,0,0,1,9.51,5.8l16.889,69.763h-1.594a7.906,7.906,0,0,0,0,15.813h7.9c.8,0,1.582.042,2.358.118a7.9,7.9,0,0,0,.932.116,23.751,23.751,0,0,1,20.429,23.486v.027a39.322,39.322,0,0,0-23.719-7.928H39.531a23.719,23.719,0,1,1,0-47.437ZM474.375,449.229a23.746,23.746,0,0,1-23.719,23.719H39.531a23.746,23.746,0,0,1-23.719-23.719V148.77A39.322,39.322,0,0,0,39.531,156.7H450.656a23.746,23.746,0,0,1,23.719,23.719v71.156H358.748a10.886,10.886,0,0,0-10.873,10.873V367.2a10.886,10.886,0,0,0,10.873,10.873H474.375Zm15.813-86.969h-126.5V267.386H482.167c.039,0,.076.006.115.006s.076,0,.115-.006h7.792Z" transform="translate(0 0)" fill="#2196f3"/>
    <path id="Path_735" data-name="Path 735" d="M431.531,310.159a7.907,7.907,0,0,0-7.906,7.906,7.906,7.906,0,1,1-7.906-7.906,7.906,7.906,0,0,0,0-15.812,23.719,23.719,0,1,0,23.719,23.719A7.907,7.907,0,0,0,431.531,310.159Z" transform="translate(-4.594 -3.243)" fill="#2196f3"/>
  </g>
</svg>
