<svg xmlns="http://www.w3.org/2000/svg" width="512" height="436.318" viewBox="0 0 512 436.318">
  <g id="_002-speaker" data-name="002-speaker" transform="translate(0 -37.841)">
    <path id="Path_743" data-name="Path 743" d="M512,194.717l-62.85-34.795V37.841L248.24,131.392H98.189c-6.16,0-10.189-.186-15,.4C37.923,136.04,0,174.248,0,220.607s37.923,84.568,83.189,88.817l6.516.4,98.8,164.336H301.058L222.274,333.888l7.927-24.065h18.141L449.15,400.136V281.372l62.85-35ZM113.189,161.392H236.56V279.823H113.189ZM32.378,220.607A59.3,59.3,0,0,1,83.19,162V279.216a59.3,59.3,0,0,1-50.812-58.609ZM249.8,444.159h-44.33L124.709,309.823h73.907l-8.97,27.233ZM419.15,353.75,266.56,285.122V155.954L419.15,84.9ZM481,229.073l-31.85,17.89V194.4L481,212.454Z" fill="#2196f3"/>
  </g>
</svg>
