<svg xmlns="http://www.w3.org/2000/svg" width="74.156" height="82.278" viewBox="0 0 74.156 82.278">
  <g id="_002-innovation" data-name="002-innovation" transform="translate(-6.051 -3.361)">
    <path id="Path_610" data-name="Path 610" d="M14.916,3.361A14.25,14.25,0,0,0,9.767,5.975a13.046,13.046,0,0,0,2.567,1.489,22.128,22.128,0,0,1,2.582-4.1Z" transform="translate(1.588)" fill="#40a3ff"/>
    <path id="Path_611" data-name="Path 611" d="M17,19.012v3.519a19.145,19.145,0,0,0,2.148-3.3A13.238,13.238,0,0,0,17,19.012Z" transform="translate(4.68 6.69)" fill="#40a3ff"/>
    <path id="Path_612" data-name="Path 612" d="M11.758,14H6.051A14.2,14.2,0,0,0,9.29,21.7a15.905,15.905,0,0,1,3.55-2.116A22.04,22.04,0,0,1,11.758,14Z" transform="translate(0 4.548)" fill="#40a3ff"/>
    <path id="Path_613" data-name="Path 613" d="M9.768,21.253a14.216,14.216,0,0,0,5.149,2.614,21.936,21.936,0,0,1-2.581-4.1,13.093,13.093,0,0,0-2.568,1.49Z" transform="translate(1.589 7.011)" fill="#40a3ff"/>
    <path id="Path_614" data-name="Path 614" d="M15.643,22.531V19.012a13.4,13.4,0,0,0-2.148.221A19.156,19.156,0,0,0,15.643,22.531Z" transform="translate(3.182 6.69)" fill="#40a3ff"/>
    <path id="Path_615" data-name="Path 615" d="M21.212,14H17v4.3a16.154,16.154,0,0,1,3.269.407A19.126,19.126,0,0,0,21.212,14Z" transform="translate(4.68 4.548)" fill="#40a3ff"/>
    <path id="Path_616" data-name="Path 616" d="M27.982,14H22.275a22.042,22.042,0,0,1-1.083,5.584,15.873,15.873,0,0,1,3.55,2.116A14.192,14.192,0,0,0,27.982,14Z" transform="translate(6.472 4.548)" fill="#40a3ff"/>
    <path id="Path_617" data-name="Path 617" d="M18.626,23.868a14.25,14.25,0,0,0,5.149-2.614,13.046,13.046,0,0,0-2.567-1.489,22.128,22.128,0,0,1-2.582,4.1Z" transform="translate(5.375 7.012)" fill="#40a3ff"/>
    <path id="Path_618" data-name="Path 618" d="M22.275,14.306h5.707a14.2,14.2,0,0,0-3.239-7.7,15.905,15.905,0,0,1-3.55,2.116A22.04,22.04,0,0,1,22.275,14.306Z" transform="translate(6.473 1.387)" fill="#40a3ff"/>
    <path id="Path_619" data-name="Path 619" d="M20.269,8.7A16.053,16.053,0,0,1,17,9.11v4.3h4.212A19.126,19.126,0,0,0,20.269,8.7Z" transform="translate(4.68 2.284)" fill="#40a3ff"/>
    <path id="Path_620" data-name="Path 620" d="M17,4.523V8.042a13.4,13.4,0,0,0,2.148-.221A19.156,19.156,0,0,0,17,4.523Z" transform="translate(4.68 0.497)" fill="#40a3ff"/>
    <path id="Path_621" data-name="Path 621" d="M23.774,5.976a14.216,14.216,0,0,0-5.149-2.614,21.936,21.936,0,0,1,2.581,4.1A13.094,13.094,0,0,0,23.774,5.976Z" transform="translate(5.375 0)" fill="#40a3ff"/>
    <path id="Path_622" data-name="Path 622" d="M12.84,8.722A15.927,15.927,0,0,1,9.29,6.606a14.2,14.2,0,0,0-3.239,7.7h5.707A22.04,22.04,0,0,1,12.84,8.722Z" transform="translate(0 1.387)" fill="#40a3ff"/>
    <path id="Path_623" data-name="Path 623" d="M68.816,30.412h-5.71a1.428,1.428,0,0,1-1.427-1.427v-.836l-.418.418a1.426,1.426,0,0,1-2.018,0L54.96,24.284a1.426,1.426,0,0,1,0-2.018l.418-.418h-.836a1.428,1.428,0,0,1-1.427-1.427V14.71a1.428,1.428,0,0,1,1.427-1.427h.836l-.418-.418a1.4,1.4,0,0,1-.358-1.32A27.178,27.178,0,0,0,43.122,9a26.885,26.885,0,0,0-10.383,2.1A17.089,17.089,0,0,1,16.374,31.821a26.813,26.813,0,0,0,14.544,28.5,1.428,1.428,0,0,1,.784,1.275V66.1h2.855V48.133l-2.448-2.448a4.212,4.212,0,0,1-1.834.43,4.282,4.282,0,1,1,4.282-4.282,4.212,4.212,0,0,1-.43,1.834l2.866,2.866a1.421,1.421,0,0,1,.418,1.009V66.1h4.282V37.347a5.71,5.71,0,1,1,2.855,0V66.1H47.4V47.542a1.421,1.421,0,0,1,.418-1.009l2.866-2.866a4.212,4.212,0,0,1-.43-1.834,4.282,4.282,0,1,1,4.282,4.282,4.212,4.212,0,0,1-1.834-.43l-2.448,2.448V66.1h4.282V61.592a1.428,1.428,0,0,1,.784-1.275,26.985,26.985,0,0,0,14.24-30.148,1.393,1.393,0,0,1-.749.243Z" transform="translate(4.253 2.41)" fill="#40a3ff"/>
    <circle id="Ellipse_23" data-name="Ellipse 23" cx="2.855" cy="2.855" r="2.855" transform="translate(44.52 31.395)" fill="#40a3ff"/>
    <circle id="Ellipse_24" data-name="Ellipse 24" cx="1.427" cy="1.427" r="1.427" transform="translate(57.367 42.815)" fill="#40a3ff"/>
    <circle id="Ellipse_25" data-name="Ellipse 25" cx="1.427" cy="1.427" r="1.427" transform="translate(33.1 42.815)" fill="#40a3ff"/>
    <circle id="Ellipse_26" data-name="Ellipse 26" cx="2.855" cy="2.855" r="2.855" transform="translate(67.359 17.12)" fill="#40a3ff"/>
    <path id="Path_624" data-name="Path 624" d="M63.565,16.565A1.427,1.427,0,0,1,62.2,15.544a8.579,8.579,0,0,0-.6-1.485,1.428,1.428,0,0,1,.258-1.666l.111-.111L59.7,10.018l-.113.113a1.428,1.428,0,0,1-1.666.258,8.468,8.468,0,0,0-1.485-.6A1.431,1.431,0,0,1,55.42,8.42V8H52.565v.42a1.427,1.427,0,0,1-1.021,1.368,8.58,8.58,0,0,0-1.485.6,1.43,1.43,0,0,1-1.666-.258l-.111-.111-2.264,2.264.113.113a1.428,1.428,0,0,1,.258,1.666,8.468,8.468,0,0,0-.6,1.485,1.431,1.431,0,0,1-1.369,1.019H44V19.42h.42a1.427,1.427,0,0,1,1.368,1.021,8.58,8.58,0,0,0,.6,1.485,1.428,1.428,0,0,1-.258,1.666l-.111.111,2.264,2.264.113-.113a1.428,1.428,0,0,1,1.666-.258,8.468,8.468,0,0,0,1.485.6,1.431,1.431,0,0,1,1.019,1.369v.42H55.42v-.42A1.427,1.427,0,0,1,56.44,26.2a8.58,8.58,0,0,0,1.485-.6,1.426,1.426,0,0,1,1.666.258l.111.111L61.966,23.7l-.113-.113a1.428,1.428,0,0,1-.258-1.666,8.467,8.467,0,0,0,.6-1.485,1.431,1.431,0,0,1,1.369-1.019h.42V16.565ZM53.992,23.7a5.71,5.71,0,1,1,5.71-5.71A5.716,5.716,0,0,1,53.992,23.7Z" transform="translate(16.222 1.983)" fill="#40a3ff"/>
    <path id="Path_625" data-name="Path 625" d="M29,51H46.13v2.855H29Z" transform="translate(9.81 20.364)" fill="#40a3ff"/>
    <path id="Path_626" data-name="Path 626" d="M15.643,8.042V4.523a19.145,19.145,0,0,0-2.148,3.3A13.238,13.238,0,0,0,15.643,8.042Z" transform="translate(3.182 0.497)" fill="#40a3ff"/>
    <path id="Path_627" data-name="Path 627" d="M12.993,18.706a16.167,16.167,0,0,1,3.269-.407V14H12.049A19.126,19.126,0,0,0,12.993,18.706Z" transform="translate(2.564 4.548)" fill="#40a3ff"/>
    <path id="Path_628" data-name="Path 628" d="M12.049,13.409h4.212V9.11A16.154,16.154,0,0,1,12.993,8.7,19.126,19.126,0,0,0,12.049,13.409Z" transform="translate(2.564 2.284)" fill="#40a3ff"/>
    <path id="Path_629" data-name="Path 629" d="M31,60.427a1.429,1.429,0,0,0,1.427,1.427h8.565a1.429,1.429,0,0,0,1.427-1.427V59H31Z" transform="translate(10.665 23.784)" fill="#40a3ff"/>
    <path id="Path_630" data-name="Path 630" d="M31,55H42.42v2.855H31Z" transform="translate(10.665 22.074)" fill="#40a3ff"/>
  </g>
</svg>
