<svg xmlns="http://www.w3.org/2000/svg" width="327.6" height="472.2" viewBox="0 0 327.6 472.2">
  <g id="_002-ear" data-name="002-ear" transform="translate(-72.3)">
    <g id="Group_182" data-name="Group 182">
      <g id="Group_181" data-name="Group 181">
        <path id="Path_722" data-name="Path 722" d="M236.1,0C145.8,0,72.3,73.5,72.3,163.8a8,8,0,0,0,16,0C88.3,82.3,154.6,16,236.1,16S383.9,82.3,383.9,163.8c0,10.4,0,42.1-66.6,160.4-5,8.9-8,21.6-11.4,36.4-9.9,42.6-22.3,95.6-89.2,95.6h-.1c-40.8,0-72.7-30.6-72.7-69.8a8,8,0,0,0-16,0,83.864,83.864,0,0,0,26.2,61.2c16.6,15.9,38.9,24.6,62.5,24.6h.1c79.5,0,94.7-64.9,104.7-107.9,3.2-13.6,5.9-25.3,9.8-32.2,29.5-52.4,68.7-126.7,68.7-168.2C399.9,73.4,326.4,0,236.1,0Z" fill="#2196f3"/>
      </g>
    </g>
    <g id="Group_184" data-name="Group 184">
      <g id="Group_183" data-name="Group 183">
        <path id="Path_723" data-name="Path 723" d="M304.9,140a74.751,74.751,0,0,0-143.5,29.4,8,8,0,0,0,16,0,58.807,58.807,0,1,1,81.7,54.2c-.7.3-67.9,36.5-65.9,82.8v24.5a8,8,0,0,0,16,0V305.8c-1.8-31.8,46.4-62.7,56.3-67.7A74.756,74.756,0,0,0,304.9,140Z" fill="#2196f3"/>
      </g>
    </g>
  </g>
</svg>
