<svg xmlns="http://www.w3.org/2000/svg" width="512" height="389.668" viewBox="0 0 512 389.668">
  <g id="_002-demand" data-name="002-demand" transform="translate(0 -122.332)">
    <path id="Path_141" data-name="Path 141" d="M502,452H476V342.168a10,10,0,0,0-20,0V452H404V142.332h52V252.164a10,10,0,0,0,20,0V132.332a10,10,0,0,0-10-10H394a10,10,0,0,0-10,10V452H360V207.668a10,10,0,0,0-10-10H278a10,10,0,0,0-10,10V452H243.668V327a10,10,0,0,0-10-10h-72a10,10,0,0,0-10,10V452H128V390a10,10,0,0,0-10-10H46a10,10,0,0,0-10,10v62H10A10,10,0,0,0,0,462v40a10,10,0,0,0,10,10H502a10,10,0,0,0,10-10V462A10,10,0,0,0,502,452ZM288,217.668h52V452H288ZM171.668,337h52V452h-52ZM56,400h52v52H56Zm436,92H20V472H492Zm0,0" fill="#2196f3"/>
    <path id="Path_143" data-name="Path 143" d="M466,287.172a10,10,0,1,0,7.07,2.93A10.03,10.03,0,0,0,466,287.172Zm0,0" fill="#2196f3"/>
  </g>
</svg>
