<svg xmlns="http://www.w3.org/2000/svg" width="494.856" height="496" viewBox="0 0 494.856 496">
  <g id="_002-customer-service" data-name="002-customer-service" transform="translate(-0.572)">
    <g id="Group_27" data-name="Group 27">
      <g id="Group_26" data-name="Group 26">
        <path id="Path_40" data-name="Path 40" d="M402.524,432,384,376.432a56,56,0,0,0-43.112-37.384l-53.464-9.728v-4.144A80.513,80.513,0,0,0,311.276,304h16.152a24.029,24.029,0,0,0,24-24V184a104,104,0,0,0-208,0v56a32.052,32.052,0,0,0,25.512,31.336,80.15,80.15,0,0,0,38.488,53.84v4.144l-53.472,9.728a55.99,55.99,0,0,0-43.1,37.384l-3.2,9.608L80.4,358.792a8.015,8.015,0,0,1,0-11.32L112,315.88,52.692,256.568,16.98,292.28a56,56,0,0,0,0,79.192L125.1,479.592a55.973,55.973,0,0,0,78.944.24l38.968-35.7L230.86,432Zm-67.1-152a8.008,8.008,0,0,1-8,8H320.7a79.46,79.46,0,0,0,5.216-16.664,31.69,31.69,0,0,0,9.512-3.784Zm-8-26.224V226.224a15.861,15.861,0,0,1,0,27.552Zm-160,0a15.861,15.861,0,0,1,0-27.552Zm0-53.776v9.136a31.731,31.731,0,0,0-8,3.312V184a88,88,0,1,1,176,0v28.448a31.44,31.44,0,0,0-8-3.312V200h-8A88.019,88.019,0,0,1,256.8,174.056l-9.368-9.368-9.368,9.368A88.019,88.019,0,0,1,175.428,200Zm16,56V215.7a103.72,103.72,0,0,0,64-28.432,103.676,103.676,0,0,0,64,28.432V256a63.518,63.518,0,0,1-8.656,32H247.428v16H289.62a63.9,63.9,0,0,1-106.192-48Zm88,76.312v.376l-24,24-24-24v-.376a79.935,79.935,0,0,0,48,0ZM126.02,381.488a40.014,40.014,0,0,1,30.792-26.712l55.92-10.16,34.7,34.7,34.688-34.688,55.912,10.16A40,40,0,0,1,368.82,381.5L380.332,416H214.86L183.7,384.84l-34.624,31.32a8.171,8.171,0,0,1-11.312,0l-17.472-17.472Zm-73.336-102.3L89.372,315.88l-8.688,8.688L44,287.88Zm140.28,189.1a40.008,40.008,0,0,1-56.568-.016L28.276,360.168a40.008,40.008,0,0,1,0-56.568l4.4-4.4,36.688,36.688-.288.288a24.041,24.041,0,0,0,0,33.944l57.368,57.368a23.875,23.875,0,0,0,16.976,7.032,23.555,23.555,0,0,0,16.68-6.752l.6-.536,36.856,36.856Zm16.4-15.04L172.588,416.48l10.568-9.552,36.712,36.712Z" fill="#2196f3"/>
      </g>
    </g>
    <g id="Group_29" data-name="Group 29">
      <g id="Group_28" data-name="Group 28">
        <path id="Path_41" data-name="Path 41" d="M471.428,0h-112a24.029,24.029,0,0,0-24,24V88a24.029,24.029,0,0,0,24,24H380.8l-8.272,48.248L449.724,112h21.7a24.029,24.029,0,0,0,24-24V24A24.029,24.029,0,0,0,471.428,0Zm8,88a8.013,8.013,0,0,1-8,8h-26.3l-50.808,31.752L399.772,96H359.428a8.013,8.013,0,0,1-8-8V24a8.013,8.013,0,0,1,8-8h112a8.013,8.013,0,0,1,8,8Z" fill="#2196f3"/>
      </g>
    </g>
    <g id="Group_31" data-name="Group 31">
      <g id="Group_30" data-name="Group 30">
        <rect id="Rectangle_4" data-name="Rectangle 4" width="96" height="16" transform="translate(367.428 32)" fill="#2196f3"/>
      </g>
    </g>
    <g id="Group_33" data-name="Group 33">
      <g id="Group_32" data-name="Group 32">
        <rect id="Rectangle_5" data-name="Rectangle 5" width="64" height="16" transform="translate(367.428 64)" fill="#2196f3"/>
      </g>
    </g>
    <g id="Group_35" data-name="Group 35">
      <g id="Group_34" data-name="Group 34">
        <rect id="Rectangle_6" data-name="Rectangle 6" width="16" height="16" transform="translate(447.428 64)" fill="#2196f3"/>
      </g>
    </g>
    <g id="Group_37" data-name="Group 37">
      <g id="Group_36" data-name="Group 36">
        <path id="Path_42" data-name="Path 42" d="M247.428,24A223.857,223.857,0,0,0,29.452,197.16l-15.16-25.272L.572,180.12l28.12,46.856,46.856-28.12-8.232-13.72-21.68,13.008A208.055,208.055,0,0,1,309.06,49.28L313.8,34A223.855,223.855,0,0,0,247.428,24Z" fill="#2196f3"/>
      </g>
    </g>
    <g id="Group_39" data-name="Group 39">
      <g id="Group_38" data-name="Group 38">
        <path id="Path_43" data-name="Path 43" d="M491.54,177.136l-46.856-28.12L416.572,195.88l13.72,8.232,14-23.336A208.177,208.177,0,0,1,409.036,378.96l12.424,10.08A224.03,224.03,0,0,0,459.8,176.752l23.512,14.1Z" fill="#2196f3"/>
      </g>
    </g>
  </g>
</svg>
