<?xml version="1.0" encoding="utf-8"?>
<!-- Generator: Adobe Illustrator 16.0.0, SVG Export Plug-In . SVG Version: 6.00 Build 0)  -->
<!DOCTYPE svg PUBLIC "-//W3C//DTD SVG 1.1//EN" "http://www.w3.org/Graphics/SVG/1.1/DTD/svg11.dtd">
<svg version="1.1" id="Layer_1" xmlns="http://www.w3.org/2000/svg" xmlns:xlink="http://www.w3.org/1999/xlink" x="0px" y="0px"
	 width="74.156px" height="82.277px" viewBox="0 0 74.156 82.277" enable-background="new 0 0 74.156 82.277" xml:space="preserve">
<g id="_002-innovation" transform="translate(-6.051 -3.361)">
	<path id="Path_610" fill="#FFFFFF" d="M16.504,3.361c-1.877,0.511-3.629,1.4-5.148,2.613c0.796,0.593,1.657,1.093,2.566,1.489
		c0.708-1.457,1.574-2.832,2.582-4.1V3.361z"/>
	<path id="Path_611" fill="#FFFFFF" d="M21.68,25.702v3.519c0.828-1.022,1.548-2.129,2.148-3.3
		C23.119,25.79,22.4,25.717,21.68,25.702z"/>
	<path id="Path_612" fill="#FFFFFF" d="M11.758,18.548H6.051c0.283,2.834,1.412,5.517,3.239,7.7c1.086-0.856,2.279-1.568,3.55-2.116
		C12.239,22.325,11.876,20.448,11.758,18.548z"/>
	<path id="Path_613" fill="#FFFFFF" d="M11.357,28.264c1.519,1.215,3.271,2.104,5.148,2.614c-1.009-1.267-1.875-2.642-2.581-4.1
		c-0.909,0.397-1.771,0.897-2.567,1.49V28.264z"/>
	<path id="Path_614" fill="#FFFFFF" d="M18.825,29.221v-3.519c-0.721,0.016-1.439,0.09-2.148,0.221
		C17.278,27.094,17.998,28.198,18.825,29.221z"/>
	<path id="Path_615" fill="#FFFFFF" d="M25.892,18.548H21.68v4.3c1.101,0.024,2.196,0.161,3.27,0.407
		C25.46,21.731,25.776,20.15,25.892,18.548z"/>
	<path id="Path_616" fill="#FFFFFF" d="M34.454,18.548h-5.707c-0.118,1.9-0.482,3.777-1.083,5.584
		c1.271,0.548,2.464,1.259,3.55,2.116C33.042,24.064,34.171,21.382,34.454,18.548z"/>
	<path id="Path_617" fill="#FFFFFF" d="M24.001,30.88c1.877-0.511,3.629-1.4,5.149-2.613c-0.797-0.593-1.658-1.093-2.567-1.489
		c-0.708,1.457-1.574,2.832-2.582,4.1V30.88z"/>
	<path id="Path_618" fill="#FFFFFF" d="M28.748,15.693h5.707c-0.283-2.834-1.412-5.517-3.239-7.7
		c-1.086,0.856-2.279,1.568-3.55,2.116C28.267,11.916,28.63,13.793,28.748,15.693z"/>
	<path id="Path_619" fill="#FFFFFF" d="M24.949,10.984c-1.073,0.248-2.168,0.386-3.27,0.41v4.3h4.212
		C25.777,14.091,25.46,12.508,24.949,10.984z"/>
	<path id="Path_620" fill="#FFFFFF" d="M21.68,5.02v3.519c0.721-0.016,1.439-0.09,2.148-0.221C23.228,7.147,22.508,6.043,21.68,5.02
		z"/>
	<path id="Path_621" fill="#FFFFFF" d="M29.149,5.976C27.63,4.762,25.877,3.872,24,3.362c1.009,1.267,1.875,2.642,2.581,4.1
		C27.49,7.065,28.353,6.567,29.149,5.976z"/>
	<path id="Path_622" fill="#FFFFFF" d="M12.84,10.109c-1.271-0.549-2.464-1.26-3.55-2.116c-1.827,2.184-2.956,4.866-3.239,7.7h5.707
		C11.876,13.793,12.239,11.916,12.84,10.109z"/>
	<path id="Path_623" fill="#FFFFFF" d="M73.069,32.822h-5.71c-0.788-0.001-1.427-0.64-1.428-1.427v-0.837l-0.418,0.419
		c-0.557,0.557-1.459,0.558-2.017,0.001c0-0.001-0.001-0.001-0.001-0.001l-4.283-4.283c-0.557-0.557-0.558-1.46-0.001-2.017
		c0-0.001,0.001-0.001,0.001-0.002l0.418-0.418h-0.836c-0.788,0-1.427-0.639-1.427-1.427V17.12c0-0.788,0.639-1.427,1.427-1.427
		h0.836l-0.418-0.418c-0.341-0.348-0.477-0.848-0.357-1.32c-3.596-1.676-7.514-2.545-11.48-2.545
		c-3.566,0.004-7.096,0.718-10.383,2.1C39,22.732,33.151,31.836,23.93,33.843c-1.086,0.236-2.191,0.366-3.303,0.389
		c-1.973,11.668,3.938,23.25,14.544,28.5c0.481,0.242,0.784,0.735,0.784,1.274v4.504h2.854V50.543l-2.447-2.448
		c-0.571,0.28-1.198,0.428-1.834,0.431c-2.365,0-4.282-1.917-4.282-4.282s1.917-4.282,4.282-4.282c2.364,0,4.281,1.917,4.281,4.282
		c-0.003,0.636-0.149,1.263-0.43,1.834l2.866,2.866c0.269,0.267,0.419,0.63,0.418,1.009V68.51h4.282V39.757
		c-3.054-0.788-4.89-3.902-4.102-6.956s3.903-4.89,6.956-4.102c3.054,0.789,4.89,3.903,4.102,6.957
		c-0.52,2.011-2.09,3.581-4.102,4.101V68.51h2.853V49.952c-0.001-0.379,0.149-0.742,0.418-1.009l2.866-2.866
		c-0.28-0.571-0.428-1.198-0.431-1.834c0-2.365,1.917-4.282,4.282-4.282s4.282,1.917,4.282,4.282s-1.917,4.282-4.282,4.282
		c-0.636-0.003-1.263-0.15-1.834-0.431l-2.448,2.448V68.51h4.282v-4.508c0-0.539,0.303-1.032,0.784-1.274
		c11.13-5.564,17.012-18.018,14.24-30.148c-0.222,0.151-0.481,0.235-0.749,0.243H73.069z"/>
	<circle id="Ellipse_23" fill="#FFFFFF" cx="47.375" cy="34.25" r="2.855"/>
	<circle id="Ellipse_24" fill="#FFFFFF" cx="58.794" cy="44.242" r="1.427"/>
	<circle id="Ellipse_25" fill="#FFFFFF" cx="34.527" cy="44.242" r="1.427"/>
	<circle id="Ellipse_26" fill="#FFFFFF" cx="70.214" cy="19.975" r="2.855"/>
	<path id="Path_624" fill="#FFFFFF" d="M79.787,18.548c-0.631-0.001-1.186-0.416-1.365-1.021c-0.153-0.513-0.354-1.01-0.6-1.485
		c-0.286-0.552-0.182-1.226,0.258-1.666l0.111-0.111l-2.27-2.264l-0.113,0.113c-0.439,0.439-1.113,0.544-1.666,0.258
		c-0.475-0.246-0.972-0.447-1.484-0.6c-0.604-0.184-1.016-0.739-1.017-1.369v-0.42h-2.854v0.42c0,0.632-0.415,1.188-1.021,1.368
		c-0.513,0.153-1.01,0.354-1.484,0.6c-0.553,0.285-1.226,0.181-1.666-0.258l-0.111-0.111l-2.264,2.264l0.112,0.113
		c0.44,0.44,0.545,1.114,0.259,1.666c-0.247,0.475-0.447,0.973-0.601,1.485c-0.182,0.604-0.737,1.019-1.369,1.019h-0.42v2.854h0.42
		c0.632,0,1.188,0.415,1.368,1.021c0.153,0.513,0.354,1.01,0.601,1.485c0.285,0.552,0.182,1.226-0.259,1.666l-0.11,0.111
		l2.264,2.264l0.113-0.113c0.439-0.439,1.113-0.544,1.666-0.258c0.475,0.246,0.972,0.447,1.484,0.6
		c0.604,0.182,1.019,0.738,1.02,1.369v0.42h2.854v-0.42c0.002-0.63,0.416-1.185,1.021-1.365c0.513-0.152,1.01-0.354,1.485-0.6
		c0.552-0.286,1.226-0.183,1.666,0.258l0.11,0.111l2.265-2.27l-0.113-0.112c-0.439-0.44-0.544-1.114-0.258-1.666
		c0.246-0.476,0.447-0.973,0.6-1.485c0.182-0.604,0.738-1.019,1.369-1.019h0.42v-2.853H79.787z M70.214,25.683
		c-3.153,0-5.71-2.556-5.71-5.71c0-3.153,2.557-5.71,5.71-5.71s5.71,2.557,5.71,5.71l0,0C75.921,23.125,73.366,25.68,70.214,25.683z
		"/>
	<path id="Path_625" fill="#FFFFFF" d="M38.81,71.364H55.94v2.854H38.81V71.364z"/>
	<path id="Path_626" fill="#FFFFFF" d="M18.825,8.539V5.02c-0.828,1.022-1.548,2.129-2.148,3.3
		C17.386,8.451,18.104,8.524,18.825,8.539z"/>
	<path id="Path_627" fill="#FFFFFF" d="M15.557,23.254c1.073-0.246,2.169-0.383,3.27-0.407v-4.299h-4.213
		C14.728,20.15,15.046,21.731,15.557,23.254z"/>
	<path id="Path_628" fill="#FFFFFF" d="M14.613,15.693h4.212v-4.299c-1.101-0.025-2.195-0.163-3.269-0.41
		C15.046,12.508,14.728,14.09,14.613,15.693z"/>
	<path id="Path_629" fill="#FFFFFF" d="M41.665,84.211c0.001,0.788,0.64,1.426,1.427,1.427h8.565
		c0.787-0.001,1.426-0.639,1.427-1.427v-1.427H41.665V84.211z"/>
	<path id="Path_630" fill="#FFFFFF" d="M41.665,77.074h11.42v2.854h-11.42V77.074z"/>
</g>
</svg>
