<svg xmlns="http://www.w3.org/2000/svg" width="512.001" height="512.001" viewBox="0 0 512.001 512.001">
  <g id="_003-technical-support" data-name="003-technical-support" transform="translate(0 0.001)">
    <path id="Path_25" data-name="Path 25" d="M90.051,395.949A41.749,41.749,0,0,0,69.879,401.1,236.432,236.432,0,0,1,20,256C20,125.866,125.867,20,256,20a237.784,237.784,0,0,1,47,4.68,10,10,0,0,0,3.961-19.606A257.9,257.9,0,0,0,256,0,256,256,0,0,0,55.089,414.652a42.017,42.017,0,1,0,34.961-18.7ZM105.605,453.5a22,22,0,1,1,6.445-15.555A21.847,21.847,0,0,1,105.605,453.5Zm0,0" fill="#2196f3"/>
    <path id="Path_26" data-name="Path 26" d="M456.9,97.336A41.912,41.912,0,1,0,442.121,110.9,236.44,236.44,0,0,1,492,256c0,130.133-105.867,236-236,236a237.725,237.725,0,0,1-46.551-4.59,10,10,0,0,0-3.926,19.613A258.08,258.08,0,0,0,256,512,256,256,0,0,0,456.9,97.336Zm-50.508-7.727a22.006,22.006,0,1,1,15.555,6.441,21.856,21.856,0,0,1-15.555-6.441Zm0,0" fill="#2196f3"/>
    <path id="Path_27" data-name="Path 27" d="M214.734,428a10,10,0,0,0,10,10h62.527a10,10,0,0,0,10-10V408.613a156.6,156.6,0,0,0,37.531-15.555l13.688,13.688a10,10,0,0,0,14.145,0l44.2-44.227a10,10,0,0,0,0-14.141L393.148,334.7A156.6,156.6,0,0,0,408.7,297.172h19.313a10,10,0,0,0,10-10V224.645a10,10,0,0,0-10-10H408.7a156.622,156.622,0,0,0-15.551-37.527l13.6-13.6a10,10,0,0,0,0-14.148l-44.23-44.2a10,10,0,0,0-14.141,0l-13.578,13.582a156.6,156.6,0,0,0-37.531-15.555V84a10,10,0,0,0-10-10H224.734a10,10,0,0,0-10,10v19.211a156.463,156.463,0,0,0-37.527,15.551L163.625,105.18a10,10,0,0,0-14.141,0l-44.227,44.2a10,10,0,0,0,0,14.145l13.6,13.6A156.57,156.57,0,0,0,103.3,214.645H84.019a10,10,0,0,0-10,10l-.035,62.527a10,10,0,0,0,10,10H103.3A156.6,156.6,0,0,0,118.851,334.7l-13.672,13.672a10,10,0,0,0,0,14.141l44.2,44.227a10,10,0,0,0,7.07,2.934h0a10,10,0,0,0,7.07-2.93L177.2,393.059a156.728,156.728,0,0,0,37.531,15.555Zm-33.609-55.973a10,10,0,0,0-12.5,1.328l-12.176,12.176L126.39,355.449l12.164-12.168a10,10,0,0,0,1.328-12.5,136.876,136.876,0,0,1-18.941-45.715,10,10,0,0,0-9.777-7.9H93.988l.023-42.527h17.152a10,10,0,0,0,9.777-7.9,136.888,136.888,0,0,1,18.941-45.711,10,10,0,0,0-1.328-12.5l-12.086-12.09,30.082-30.059,12.074,12.078a10.007,10.007,0,0,0,12.5,1.328,136.822,136.822,0,0,1,45.711-18.941,10.006,10.006,0,0,0,7.9-9.777V94h42.527v17.074a10,10,0,0,0,7.9,9.777,136.935,136.935,0,0,1,45.711,18.941,9.992,9.992,0,0,0,12.5-1.328l12.078-12.074,30.082,30.059-12.086,12.086a10,10,0,0,0-1.328,12.5,136.97,136.97,0,0,1,18.941,45.711,10,10,0,0,0,9.777,7.9h17.184v42.527H400.831a10,10,0,0,0-9.777,7.9,136.854,136.854,0,0,1-18.941,45.711,10,10,0,0,0,1.328,12.5L385.6,355.445l-30.059,30.082-12.176-12.172a10,10,0,0,0-12.5-1.328,136.97,136.97,0,0,1-45.711,18.941,10,10,0,0,0-7.9,9.777V418H234.734V400.746a10.006,10.006,0,0,0-7.9-9.777,136.888,136.888,0,0,1-45.711-18.941Zm0,0" fill="#2196f3"/>
    <path id="Path_28" data-name="Path 28" d="M338.629,256A82.629,82.629,0,1,0,256,338.629,82.722,82.722,0,0,0,338.629,256Zm-145.258,0A62.629,62.629,0,1,1,256,318.629,62.7,62.7,0,0,1,193.371,256Zm0,0" fill="#2196f3"/>
    <path id="Path_29" data-name="Path 29" d="M348.078,37.82a10.009,10.009,0,1,0-7.066-2.93A10.073,10.073,0,0,0,348.078,37.82Zm0,0" fill="#2196f3"/>
    <path id="Path_30" data-name="Path 30" d="M164.359,474.359a10,10,0,1,0,7.07,2.93A10.08,10.08,0,0,0,164.359,474.359Zm0,0" fill="#2196f3"/>
  </g>
</svg>
