<?xml version="1.0" encoding="utf-8"?>
<!-- Generator: Adobe Illustrator 16.0.0, SVG Export Plug-In . SVG Version: 6.00 Build 0)  -->
<!DOCTYPE svg PUBLIC "-//W3C//DTD SVG 1.1//EN" "http://www.w3.org/Graphics/SVG/1.1/DTD/svg11.dtd">
<svg version="1.1" id="Layer_1" xmlns="http://www.w3.org/2000/svg" xmlns:xlink="http://www.w3.org/1999/xlink" x="0px" y="0px"
	 width="76.762px" height="76.764px" viewBox="0 0 76.762 76.764" enable-background="new 0 0 76.762 76.764" xml:space="preserve">
<g id="_003-concept" transform="translate(-0.007 0)">
	<path id="Path_631" fill="#FFFFFF" d="M54.383,65.536l0.916-0.548l5.377,5.377l9.7-9.7L65,55.288l0.549-0.916
		c1.501-2.532,2.637-5.265,3.373-8.115l0.264-1.023h7.586V31.526h-7.59L68.917,30.5c-0.736-2.851-1.871-5.582-3.373-8.115
		l-0.549-0.916l5.378-5.377l-9.7-9.699L55.3,11.77l-0.916-0.548c-2.532-1.502-5.264-2.638-8.114-3.373l-1.027-0.264V0H31.534v7.585
		l-1.027,0.267c-2.851,0.735-5.582,1.871-8.115,3.373l-0.915,0.548L16.1,6.393L6.4,16.093l5.377,5.377l-0.548,0.916
		c-1.502,2.532-2.638,5.264-3.373,8.114l-0.265,1.027H0.007v13.707h7.586l0.267,1.026c0.736,2.851,1.871,5.583,3.373,8.115
		l0.548,0.916L6.4,60.668l9.699,9.7l5.378-5.377l0.916,0.548c2.019,1.191,4.165,2.151,6.399,2.861v-5.348h2.741v-1.409
		c0.004-0.568-0.35-1.078-0.884-1.272c-12.138-4.274-18.513-17.578-14.238-29.716c4.273-12.138,17.578-18.513,29.716-14.238
		c12.138,4.273,18.513,17.578,14.238,29.716c-2.343,6.653-7.573,11.887-14.225,14.233c-0.54,0.192-0.9,0.704-0.899,1.278v1.41h2.741
		V68.4C50.218,67.69,52.364,66.729,54.383,65.536L54.383,65.536z M71.283,37.01h2.741v2.741h-2.739L71.283,37.01z M5.49,39.751
		H2.749v-2.742H5.49V39.751z M16.09,62.612l-1.934,1.938l-1.938-1.938l1.938-1.938L16.09,62.612z M14.156,16.086l-1.938-1.938
		l1.938-1.938l1.938,1.938L14.156,16.086z M39.756,5.486h-2.739V2.741h2.741L39.756,5.486z M60.678,14.151l1.938-1.938l1.938,1.938
		l-1.938,1.938L60.678,14.151z M62.616,60.677l1.938,1.938l-1.935,1.935l-1.938-1.938L62.616,60.677z"/>
	<path id="Path_632" fill="#FFFFFF" d="M45.241,65.795H31.534v5.483h13.707V65.795z M35.641,69.907H32.9v-2.741h2.74V69.907z
		 M39.753,69.907h-2.741v-2.741h2.741V69.907z M43.865,69.907h-2.739v-2.741h2.741L43.865,69.907z"/>
	<path id="Path_633" fill="#FFFFFF" d="M47.983,37.01v-1.37h-1.371c-3.784,0.004-6.851,3.07-6.854,6.854v1.371h1.371
		C44.913,43.859,47.978,40.794,47.983,37.01z"/>
	<path id="Path_634" fill="#FFFFFF" d="M34.51,74.019c0.756,2.142,3.105,3.265,5.246,2.509c1.173-0.414,2.096-1.337,2.509-2.509
		H34.51z"/>
	<path id="Path_635" fill="#FFFFFF" d="M30.164,35.639h-1.371v1.37c0.004,3.784,3.07,6.851,6.854,6.854h1.371v-1.371
		C37.014,38.71,33.947,35.643,30.164,35.639z"/>
	<path id="Path_636" fill="#FFFFFF" d="M58.927,37.437C58.4,26.094,48.777,17.325,37.434,17.852
		C26.091,18.38,17.322,28.002,17.85,39.345c0.389,8.366,5.813,15.66,13.713,18.44c1.63,0.582,2.717,2.127,2.714,3.857v1.409h2.743
		V46.605h-1.371c-5.301-0.004-9.597-4.3-9.601-9.601v-4.111h4.112c3.373,0.006,6.495,1.782,8.224,4.678
		c1.729-2.896,4.852-4.672,8.225-4.678h4.111v4.111c-0.003,5.301-4.299,9.597-9.6,9.601h-1.361V63.05H42.5V61.64
		c0.001-1.736,1.094-3.283,2.729-3.863c8.572-2.992,14.149-11.274,13.699-20.343L58.927,37.437z"/>
</g>
</svg>
