<svg xmlns="http://www.w3.org/2000/svg" width="76.761" height="76.763" viewBox="0 0 76.761 76.763">
  <g id="_003-concept" data-name="003-concept" transform="translate(-0.007 0)">
    <path id="Path_631" data-name="Path 631" d="M54.383,65.536l.916-.548,5.377,5.377,9.7-9.7L65,55.288l.549-.916a31.251,31.251,0,0,0,3.373-8.115l.263-1.024h7.586V31.526H69.182L68.917,30.5a31.219,31.219,0,0,0-3.373-8.115l-.549-.916,5.378-5.377-9.7-9.7L55.3,11.77l-.916-.548a31.205,31.205,0,0,0-8.115-3.373l-1.027-.263V0H31.534V7.585l-1.027.266a31.2,31.2,0,0,0-8.115,3.373l-.916.548L16.1,6.393l-9.7,9.7,5.377,5.377-.548.916A31.173,31.173,0,0,0,7.856,30.5l-.264,1.027H.007V45.234H7.593l.266,1.027a31.228,31.228,0,0,0,3.373,8.115l.548.916L6.4,60.668l9.7,9.7,5.377-5.377.916.548a31.113,31.113,0,0,0,6.4,2.861V63.053h2.741v-1.41a1.343,1.343,0,0,0-.884-1.272,23.3,23.3,0,1,1,15.492-.005,1.354,1.354,0,0,0-.9,1.278v1.41h2.741V68.4a31.1,31.1,0,0,0,6.4-2.863Zm16.9-28.526h2.741v2.741H71.285ZM5.49,39.751H2.749V37.009H5.49Zm10.6,22.861L14.156,64.55l-1.938-1.938,1.938-1.938ZM14.156,16.086l-1.938-1.938,1.938-1.938,1.938,1.938Zm25.6-10.6H37.017V2.741h2.741Zm20.922,8.665,1.938-1.938,1.938,1.938-1.938,1.938Zm1.938,46.526,1.938,1.938L62.619,64.55l-1.938-1.938Zm0,0" fill="#40a3ff"/>
    <path id="Path_632" data-name="Path 632" d="M197.715,384H184.008v5.483h13.707Zm-9.6,4.112h-2.741v-2.741h2.741Zm4.112,0h-2.741v-2.741h2.741Zm4.112,0H193.6v-2.741h2.741Zm0,0" transform="translate(-152.474 -318.205)" fill="#40a3ff"/>
    <path id="Path_633" data-name="Path 633" d="M240.232,209.371V208h-1.371a6.861,6.861,0,0,0-6.854,6.854v1.371h1.371A6.862,6.862,0,0,0,240.232,209.371Zm0,0" transform="translate(-192.249 -172.361)" fill="#40a3ff"/>
    <path id="Path_634" data-name="Path 634" d="M201.375,432a4.112,4.112,0,0,0,7.755,0Zm0,0" transform="translate(-166.865 -357.981)" fill="#40a3ff"/>
    <path id="Path_635" data-name="Path 635" d="M169.379,208h-1.371v1.371a6.861,6.861,0,0,0,6.854,6.854h1.371v-1.371A6.862,6.862,0,0,0,169.379,208Zm0,0" transform="translate(-139.215 -172.361)" fill="#40a3ff"/>
    <path id="Path_636" data-name="Path 636" d="M145.108,123.587a20.561,20.561,0,1,0-27.365,20.349,4.088,4.088,0,0,1,2.714,3.857v1.41H123.2V132.755h-1.371a9.606,9.606,0,0,1-9.6-9.6v-4.112h4.112a9.6,9.6,0,0,1,8.224,4.678,9.6,9.6,0,0,1,8.224-4.678h4.112v4.112a9.606,9.606,0,0,1-9.6,9.6H125.94V149.2h2.741v-1.41a4.1,4.1,0,0,1,2.729-3.863,20.472,20.472,0,0,0,13.7-20.343Zm0,0" transform="translate(-86.181 -86.15)" fill="#40a3ff"/>
  </g>
</svg>
