<?xml version="1.0" encoding="utf-8"?>
<!-- Generator: Adobe Illustrator 16.0.0, SVG Export Plug-In . SVG Version: 6.00 Build 0)  -->
<!DOCTYPE svg PUBLIC "-//W3C//DTD SVG 1.1//EN" "http://www.w3.org/Graphics/SVG/1.1/DTD/svg11.dtd">
<svg version="1.1" id="Layer_1" xmlns="http://www.w3.org/2000/svg" xmlns:xlink="http://www.w3.org/1999/xlink" x="0px" y="0px"
	 width="196.311px" height="157.618px" viewBox="0 0 196.311 157.618" enable-background="new 0 0 196.311 157.618"
	 xml:space="preserve">
<g>
	<path fill="#FFFFFF" d="M114.919,130.604c11.846,2.649,24.005-2.598,35.713-10.58c9.605-6.549,19.831-12.197,29.808-18.203
		c6.021-3.623,11.22-2.79,14.38,2.203c2.957,4.668,1.493,9.537-4.188,13.539c-14.697,10.346-29.428,20.645-44.132,30.98
		c-9.477,6.661-20.018,9.703-31.537,8.966c-24.253-1.552-48.504-3.165-72.735-5.026c-3.069-0.236-5.273-0.178-7.998,1.688
		c-2.219,1.521-5.66,1.428-8.592,1.694c-4.473,0.407-8.974,0.71-13.462,0.688c-5.785-0.031-9.843-3.709-10.212-9.484
		c-0.816-12.79-1.48-25.596-1.953-38.404c-0.218-5.922,3.225-9.863,9.176-10.424c6.288-0.592,12.632-0.608,18.955-0.768
		c1.118-0.029,2.714,0.09,3.298,0.795c3.594,4.342,7.694,2.155,11.756,1.254c12.042-2.672,23.976-1.629,35.394,2.524
		c13.978,5.086,28.398,6.813,43.063,7.581c1.994,0.104,4.008,0.15,5.971,0.475c4.585,0.756,7.487,4.021,7.342,8.043
		c-0.157,4.309-3.418,7.36-8.336,7.515c-9.486,0.294-18.978,0.46-28.465,0.68c-0.999,0.022-2.105-0.211-2.97,0.144
		c-1.047,0.43-1.89,1.356-2.82,2.068c0.972,0.686,1.924,1.928,2.917,1.961C100.943,130.703,106.608,130.604,114.919,130.604z"/>
	<path fill="#FFFFFF" d="M96.326,78.21c-3.853,0-6.842,0.03-9.829-0.006c-6.919-0.085-10.614-3.02-10.685-8.444
		c-0.069-5.463,3.631-8.54,10.452-8.633c3.127-0.043,6.255-0.008,9.961-0.008c0-4.091-0.08-7.703,0.02-11.31
		c0.158-5.816,3.64-9.426,8.815-9.298c5.021,0.124,8.049,3.526,8.174,9.31c0.075,3.466,0.015,6.936,0.015,11.297
		c4.143,0,7.887-0.056,11.629,0.012c6.338,0.115,10.157,3.374,10.132,8.543c-0.025,5.162-3.853,8.38-10.188,8.532
		c-3.324,0.08-6.65,0.102-9.976,0.188c-0.292,0.007-0.576,0.294-1.462,0.776c0,3.29,0.093,6.916-0.021,10.534
		c-0.18,5.679-3.404,9.071-8.436,9.067c-4.987-0.004-8.334-3.438-8.571-9.056C96.202,86.099,96.326,82.468,96.326,78.21z"/>
	<path fill="#FFFFFF" d="M157.038,26.296c3.507,0,6.311-0.097,9.104,0.022c3.932,0.168,6.326,2.276,6.251,6.252
		c-0.075,3.936-2.475,6.009-6.425,6.101c-2.786,0.065-5.574,0.013-8.935,0.013c0,3.217,0.053,5.995-0.013,8.769
		c-0.096,4.158-2.33,6.756-6.409,6.747c-3.874-0.007-5.968-2.64-6.163-6.493c-0.143-2.791-0.027-5.594-0.027-9.013
		c-3.084,0-5.69-0.013-8.298,0.003c-4.079,0.021-6.766-1.701-7.063-5.993c-0.271-3.917,2.368-6.232,7.14-6.414
		c2.466-0.094,4.938-0.017,8.205-0.017c0-3.188-0.101-5.942,0.024-8.687c0.181-4.003,2.086-6.866,6.328-6.833
		c4.188,0.033,6.176,2.771,6.269,6.856C157.086,20.255,157.038,22.904,157.038,26.296z"/>
	<path fill="#FFFFFF" d="M71.757,12.555c1.588-4.628-2.263-12.71,6.088-12.552c7.873,0.148,4.176,7.874,5.758,13.055
		c2.025,0,4.274-0.062,6.52,0.015c3.612,0.121,6.258,1.559,6.129,5.616c-0.119,3.749-2.569,5.127-6.051,5.103
		c-2.141-0.015-4.279-0.003-7.134-0.003c0,2.777,0.039,5.203-0.009,7.626c-0.071,3.587-2.016,5.785-5.512,5.764
		c-3.26-0.019-5.119-2.216-5.303-5.501c-0.138-2.443-0.026-4.901-0.026-7.063C67.48,22.237,59.154,26.98,59.27,18.37
		C59.379,10.298,67.149,14.254,71.757,12.555z"/>
	<path fill="#FFFFFF" d="M140.957,119.194c-0.74-3.162-1.292-5.523-2.016-8.616c9.373-4.736,18.834-9.751,28.543-14.228
		c1.979-0.914,4.893,0.194,7.373,0.371c0.101,0.567,0.199,1.137,0.3,1.703C163.958,105.226,152.758,112.028,140.957,119.194z"/>
	<path fill="#FFFFFF" d="M157.443,95.515c-7.081,3.538-13.979,7.56-21.343,10.362c-2.663,1.015-6.435-0.884-9.778-1.95
		c10.354-3.064,19.441-10.072,30.585-10.311C157.085,94.25,157.264,94.881,157.443,95.515z"/>
</g>
</svg>
