<svg xmlns="http://www.w3.org/2000/svg" width="512.014" height="511.999" viewBox="0 0 512.014 511.999">
  <g id="_004-planning" data-name="004-planning" transform="translate(0 -0.008)">
    <g id="Group_2" data-name="Group 2">
      <g id="Group_1" data-name="Group 1">
        <rect id="Rectangle_1" data-name="Rectangle 1" width="21.333" height="74.67" transform="translate(352.01 42.674)" fill="#2196f3"/>
      </g>
    </g>
    <g id="Group_4" data-name="Group 4">
      <g id="Group_3" data-name="Group 3">
        <path id="Path_31" data-name="Path 31" d="M458.68,234.674h-192a10.667,10.667,0,0,0-10.667,10.667v42.667h21.333v-32H448.013v32h21.333V245.341A10.665,10.665,0,0,0,458.68,234.674Z" fill="#2196f3"/>
      </g>
    </g>
    <g id="Group_6" data-name="Group 6">
      <g id="Group_5" data-name="Group 5">
        <rect id="Rectangle_2" data-name="Rectangle 2" width="64" height="21.333" transform="translate(266.68 138.671)" fill="#2196f3"/>
      </g>
    </g>
    <g id="Group_8" data-name="Group 8">
      <g id="Group_7" data-name="Group 7">
        <path id="Path_32" data-name="Path 32" d="M448.227,371.208c-.1.491-9.344,44.8-42.88,44.8a10.667,10.667,0,0,0-10.667,10.667v64H192.014V416.008c0-33.749-20.928-42.667-32-42.667h-64a20.1,20.1,0,0,1-21.333-21.333V312.243a10.666,10.666,0,0,0-3.6-7.989,61.62,61.62,0,0,0-39.072-16.245l-.142.016a9.367,9.367,0,0,1-10.3-8.326l51.787-93.867a10.74,10.74,0,0,0,1.323-5.152V160.008A138.826,138.826,0,0,1,213.347,21.341h64V.008h-64a160.182,160.182,0,0,0-160,160v17.931L1.336,272.189a10.74,10.74,0,0,0-1.323,5.152q-.027.909,0,1.819a31.1,31.1,0,0,0,32,30.181,38.194,38.194,0,0,1,21.333,7.989v34.677q-.036,1.223,0,2.447a41.462,41.462,0,0,0,42.667,40.22h63.7c1.824.117,10.965,1.707,10.965,21.333V501.34a10.667,10.667,0,0,0,10.667,10.667h224a10.667,10.667,0,0,0,10.667-10.667V436.316c33.344-6.3,49.237-41.483,53.12-60.928Z" fill="#2196f3"/>
      </g>
    </g>
    <g id="Group_10" data-name="Group 10">
      <g id="Group_9" data-name="Group 9">
        <path id="Path_33" data-name="Path 33" d="M405.347.008H320.014a10.667,10.667,0,0,0-10.667,10.667V53.341a10.667,10.667,0,0,0,10.667,10.667h85.333a10.667,10.667,0,0,0,10.667-10.667V10.674A10.666,10.666,0,0,0,405.347.008ZM394.68,42.674h-64V21.341h64Z" fill="#2196f3"/>
      </g>
    </g>
    <g id="Group_12" data-name="Group 12">
      <g id="Group_11" data-name="Group 11">
        <path id="Path_34" data-name="Path 34" d="M309.347,277.341H224.014a10.667,10.667,0,0,0-10.667,10.667v42.667a10.667,10.667,0,0,0,10.667,10.667h85.333a10.667,10.667,0,0,0,10.667-10.667V288.008A10.667,10.667,0,0,0,309.347,277.341ZM298.68,320.008h-64V298.675h64Z" fill="#2196f3"/>
      </g>
    </g>
    <g id="Group_14" data-name="Group 14">
      <g id="Group_13" data-name="Group 13">
        <path id="Path_35" data-name="Path 35" d="M266.68,117.341H181.347a10.667,10.667,0,0,0-10.667,10.667v42.667a10.667,10.667,0,0,0,10.667,10.667H266.68a10.667,10.667,0,0,0,10.667-10.667V128.008A10.667,10.667,0,0,0,266.68,117.341Zm-10.667,42.667h-64V138.675h64Z" fill="#2196f3"/>
      </g>
    </g>
    <g id="Group_16" data-name="Group 16">
      <g id="Group_15" data-name="Group 15">
        <path id="Path_36" data-name="Path 36" d="M501.347,277.341H416.014a10.667,10.667,0,0,0-10.667,10.667v42.667a10.667,10.667,0,0,0,10.667,10.667h85.333a10.667,10.667,0,0,0,10.667-10.667V288.008A10.667,10.667,0,0,0,501.347,277.341ZM490.68,320.008h-64V298.675h64Z" fill="#2196f3"/>
      </g>
    </g>
    <g id="Group_18" data-name="Group 18">
      <g id="Group_17" data-name="Group 17">
        <path id="Path_37" data-name="Path 37" d="M362.68,106.674a42.667,42.667,0,1,0,42.667,42.667A42.667,42.667,0,0,0,362.68,106.674Zm0,64a21.333,21.333,0,1,1,21.333-21.333A21.333,21.333,0,0,1,362.68,170.674Z" fill="#2196f3"/>
      </g>
    </g>
    <g id="Group_20" data-name="Group 20">
      <g id="Group_19" data-name="Group 19">
        <rect id="Rectangle_3" data-name="Rectangle 3" width="21.333" height="64" transform="translate(352.01 181.341)" fill="#2196f3"/>
      </g>
    </g>
  </g>
</svg>
