<svg xmlns="http://www.w3.org/2000/svg" width="511.918" height="436.414" viewBox="0 0 511.918 436.414">
  <g id="_005-artificial-intelligence" data-name="005-artificial-intelligence" transform="translate(0 -37.751)">
    <path id="Path_48" data-name="Path 48" d="M107.335,171.945a7.5,7.5,0,0,0-7.5,7.5v6.205a7.5,7.5,0,1,0,15,0v-6.205A7.5,7.5,0,0,0,107.335,171.945Z" fill="#2196f3"/>
    <path id="Path_49" data-name="Path 49" d="M107.335,318.768a7.5,7.5,0,0,0-7.5,7.5v6.2a7.5,7.5,0,1,0,15,0v-6.2A7.5,7.5,0,0,0,107.335,318.768Z" fill="#2196f3"/>
    <path id="Path_50" data-name="Path 50" d="M187.512,118.994H178.3a7.5,7.5,0,1,0,0,15h9.208a22.308,22.308,0,0,1,22.283,22.283V185.65a7.5,7.5,0,1,0,15,0V156.277A37.325,37.325,0,0,0,187.512,118.994Z" fill="#2196f3"/>
    <path id="Path_51" data-name="Path 51" d="M154.149,200.735a9.059,9.059,0,0,1-9.049-9.049V166.894a7.5,7.5,0,0,0-15,0v24.792a24.076,24.076,0,0,0,24.049,24.049,7.5,7.5,0,0,0,0-15Z" fill="#2196f3"/>
    <path id="Path_52" data-name="Path 52" d="M217.295,318.768a7.5,7.5,0,0,0-7.5,7.5v29.373a22.308,22.308,0,0,1-22.283,22.283H178.3a7.5,7.5,0,0,0,0,15h9.208a37.325,37.325,0,0,0,37.283-37.283V326.268A7.5,7.5,0,0,0,217.295,318.768Z" fill="#2196f3"/>
    <path id="Path_53" data-name="Path 53" d="M154.149,296.183A24.076,24.076,0,0,0,130.1,320.232v24.792a7.5,7.5,0,0,0,15,0V320.232a9.059,9.059,0,0,1,9.049-9.049,7.5,7.5,0,0,0,0-15Z" fill="#2196f3"/>
    <path id="Path_54" data-name="Path 54" d="M311.105,187.518a7.5,7.5,0,0,0,0,15h11.553a7.5,7.5,0,0,0,0-15Z" fill="#2196f3"/>
    <path id="Path_55" data-name="Path 55" d="M382.817,187.518h-28.2a7.5,7.5,0,0,0,0,15h31.3a7.5,7.5,0,0,0,5.3-2.2l42.38-42.381a21.528,21.528,0,1,0-11.687-9.526Zm57.611-56.35a6.451,6.451,0,1,1-6.452,6.451A6.458,6.458,0,0,1,440.428,131.168Z" fill="#2196f3"/>
    <path id="Path_56" data-name="Path 56" d="M490.467,255.813A21.466,21.466,0,0,0,470.4,269.764H263.767V246.2H422.621a7.5,7.5,0,0,0,5.3-2.2l16.223-16.223a21.473,21.473,0,1,0-11.509-9.7L419.514,231.2H263.767v-28.68h15.376a7.5,7.5,0,0,0,0-15H263.767v-31.1h68.268a7.5,7.5,0,0,0,5.3-2.2L356.1,135.449a21.518,21.518,0,1,0-11.65-9.563l-15.525,15.525H263.767V88.622a50.884,50.884,0,0,0-96.218-23.1,50.755,50.755,0,0,0-67.383,42.132h-4.18A48.976,48.976,0,0,0,54.92,183.325a75.493,75.493,0,0,0,0,145.266,48.976,48.976,0,0,0,41.066,75.668h4.18a50.755,50.755,0,0,0,67.383,42.132,50.884,50.884,0,0,0,96.218-23.1V370.5h65.161l15.525,15.525a21.52,21.52,0,1,0,11.65-9.563L337.338,357.7a7.5,7.5,0,0,0-5.3-2.2H263.767V324.4h26.552a7.5,7.5,0,0,0,0-15H263.767V284.764H470.4a21.441,21.441,0,1,0,20.072-28.951Zm-39.132-54.672a6.451,6.451,0,1,1-6.452,6.451A6.458,6.458,0,0,1,451.335,201.141ZM363,108.707a6.451,6.451,0,1,1-6.451,6.451A6.458,6.458,0,0,1,363,108.707ZM369.45,396.76A6.451,6.451,0,1,1,363,390.309,6.458,6.458,0,0,1,369.45,396.76ZM248.767,423.3A35.875,35.875,0,0,1,178.7,434.135a7.5,7.5,0,0,0-10.787-4.3,35.765,35.765,0,0,1-53.073-31.3V364.4a7.5,7.5,0,1,0-15,0V389.26H95.986a33.971,33.971,0,0,1-21.956-59.9,7.5,7.5,0,0,0-4.164-13.188,60.474,60.474,0,0,1,0-120.426,7.5,7.5,0,0,0,4.164-13.188,33.971,33.971,0,0,1,21.956-59.9h3.849v24.864a7.5,7.5,0,1,0,15,0V113.375a35.765,35.765,0,0,1,53.073-31.3,7.5,7.5,0,0,0,10.787-4.3,35.875,35.875,0,0,1,70.072,10.839Zm241.7-139.58a6.451,6.451,0,1,1,6.451-6.452A6.459,6.459,0,0,1,490.467,283.716Z" fill="#2196f3"/>
    <path id="Path_57" data-name="Path 57" d="M440.428,352.847a21.313,21.313,0,0,0-6.821,1.131L391.227,311.6a7.5,7.5,0,0,0-5.3-2.2H322.282a7.5,7.5,0,0,0,0,15h60.536l39.1,39.1a21.432,21.432,0,1,0,18.506-10.657Zm0,27.9a6.451,6.451,0,1,1,6.451-6.451A6.459,6.459,0,0,1,440.428,380.75Z" fill="#2196f3"/>
  </g>
</svg>
