<svg xmlns="http://www.w3.org/2000/svg" width="510.008" height="512" viewBox="0 0 510.008 512">
  <g id="_006-artificial-intelligence-1" data-name="006-artificial-intelligence-1" transform="translate(-0.996)">
    <path id="Path_58" data-name="Path 58" d="M134.522,161.175h26.242v26.4H116.642a10,10,0,0,0,0,20h44.122v26.4H134.522a10,10,0,0,0,0,20h26.242v9.353a10,10,0,0,0,10,10h9.327v26.209a10,10,0,0,0,20,0V273.32h26.4v44.115a10,10,0,0,0,20,0V273.32h26.4v26.209a10,10,0,0,0,20,0V273.32h9.327a10,10,0,0,0,10-10v-9.353h26.242a10,10,0,0,0,0-20H312.224v-26.4h44.122a10,10,0,0,0,0-20H312.224v-26.4h26.242a10,10,0,0,0,0-20H312.224V131.85a10,10,0,0,0-10-10H292.9V95.613a10,10,0,0,0-20,0V121.85h-26.4V77.736a10,10,0,0,0-20,0v44.115h-26.4V95.613a10,10,0,0,0-20,0V121.85h-9.327a10,10,0,0,0-10,10v9.325H134.522a10,10,0,0,0,0,20Zm46.243-19.324h111.46V253.322H180.765Z" fill="#2196f3"/>
    <path id="Path_59" data-name="Path 59" d="M479.122,199.286a31.865,31.865,0,1,0-30.239-41.85H420.236a190.972,190.972,0,0,0-23.191-50.176h82.077a9.992,9.992,0,0,0,9.973-9.461,5.323,5.323,0,0,0,.027-.539V62.114a31.858,31.858,0,1,0-20,0V87.26H382.068q-2.725-3.195-5.594-6.3A193.005,193.005,0,0,0,142.628,42.975a10,10,0,1,0,9.614,17.538A172.366,172.366,0,0,1,241.519,39.49C336.732,43,411.427,123.339,408.025,218.584c0,.127-.007.254-.006.381a172.892,172.892,0,0,1-43.226,114.791,10,10,0,0,0-2.5,6.61V492H311.459V408.027a31.877,31.877,0,1,0-20,0V492H211.246V448.1a31.858,31.858,0,1,0-20,0V492H148.868l-9.576-40.441c-3.384-14.414-12.259-21.42-27.133-21.42H82.841c-7.32,0-11.752-6.645-12.348-13.212L60.474,306.994a10,10,0,0,0-9.958-9.092H22.661c.2-.479.427-1,.679-1.578l38.229-86.833a9.992,9.992,0,0,0,.841-3.658,172.745,172.745,0,0,1,27.9-88.01,10,10,0,1,0-16.748-10.932A192.735,192.735,0,0,0,42.5,203.157L5.029,288.278c-2.763,6.3-6.547,14.929-1.707,22.336C8.084,317.9,17.591,317.9,21.169,317.9H41.384l9.19,100.836c1.624,17.9,15.495,31.4,32.266,31.4h29.317c6.045,0,6.5,1.047,7.667,6.01l10.018,42.306c1.945,8.229,8.071,13.545,15.606,13.545H366.421A15.879,15.879,0,0,0,382.3,496.154V344.084a192.9,192.9,0,0,0,43.639-96.473h43.186v25.12a31.877,31.877,0,1,0,20,0V237.611a6.869,6.869,0,0,0-.036-.722,9.992,9.992,0,0,0-9.964-9.278H427.842q.18-4.242.175-8.506A194.728,194.728,0,0,0,425,177.435h23.887a31.906,31.906,0,0,0,30.237,21.851Zm0-43.729a11.865,11.865,0,1,1-11.853,11.879A11.894,11.894,0,0,1,479.122,155.557ZM467.269,31.85a11.867,11.867,0,1,1,11.853,11.879A11.865,11.865,0,0,1,467.269,31.85ZM201.246,429.712a11.865,11.865,0,1,1,11.882-11.85A11.865,11.865,0,0,1,201.246,429.712Zm100.212-40.068a11.864,11.864,0,1,1,11.853-11.85A11.879,11.879,0,0,1,301.458,389.644Zm177.664-98.53a11.879,11.879,0,1,1-11.853,11.878A11.894,11.894,0,0,1,479.122,291.114Z" fill="#2196f3"/>
    <path id="Path_60" data-name="Path 60" d="M110.711,88.218a9.966,9.966,0,0,0,7.071-2.929l.028-.028a10,10,0,1,0-7.1,2.957Z" fill="#2196f3"/>
  </g>
</svg>
