<svg id="_007-cloud" data-name="007-cloud" xmlns="http://www.w3.org/2000/svg" width="425.107" height="425.469" viewBox="0 0 425.107 425.469">
  <path id="Path_61" data-name="Path 61" d="M323.266,282.009a6.854,6.854,0,0,0,6.854-6.854v-8.04A82.189,82.189,0,0,0,377.7,111.176a70.33,70.33,0,0,0,.4-7.375,75.4,75.4,0,0,0-99.81-71.345,82.25,82.25,0,0,0-129.379,0A75.4,75.4,0,0,0,49.1,103.8a70.337,70.337,0,0,0,.4,7.375,82.168,82.168,0,0,0,47.575,155.94v8.04a6.854,6.854,0,0,0,6.854,6.854h10.61a102.126,102.126,0,0,0,9.651,23.215l-7.54,7.54a6.854,6.854,0,0,0,0,9.692l9.692,9.685L71.472,386.817a20.837,20.837,0,1,0,9.767,9.658l54.833-54.614,9.671,9.664a7.053,7.053,0,0,0,9.692,0l7.54-7.54a101.961,101.961,0,0,0,23.208,9.664v10.61a6.854,6.854,0,0,0,6.854,6.854h41.125a6.854,6.854,0,0,0,6.854-6.854v-10.61A101.961,101.961,0,0,0,264.238,344l7.54,7.54a6.854,6.854,0,0,0,9.692,0l9.637-9.63,54.854,54.566a20.323,20.323,0,0,0-2.132,8.91,20.562,20.562,0,1,0,20.562-20.563,20.356,20.356,0,0,0-8.677,1.988L300.778,332.2l9.76-9.754a6.854,6.854,0,0,0,0-9.692l-7.54-7.54a102.128,102.128,0,0,0,9.657-23.208ZM62.809,412.239a6.854,6.854,0,1,1,6.854-6.854A6.854,6.854,0,0,1,62.809,412.239Zm308.437-6.854a6.854,6.854,0,1,1-6.854-6.854A6.854,6.854,0,0,1,371.245,405.385ZM83.371,254.593A68.5,68.5,0,0,1,59.423,121.9a6.854,6.854,0,0,0,4.352-7.54,61.659,61.659,0,0,1,84.882-67.329A6.854,6.854,0,0,0,157,44.594a68.541,68.541,0,0,1,113.2,0,6.854,6.854,0,0,0,8.341,2.44,61.472,61.472,0,0,1,84.882,67.294,6.854,6.854,0,0,0,4.352,7.54,68.377,68.377,0,0,1-37.657,131.189V234.03a6.854,6.854,0,0,0-6.854-6.854h-10.61a102.127,102.127,0,0,0-9.651-23.215l7.54-7.54a6.854,6.854,0,0,0,0-9.692l-9.7-9.7,20.467-20.453a20.323,20.323,0,0,0,8.808,2.056,20.563,20.563,0,1,0-20.562-20.563,20.323,20.323,0,0,0,2.056,8.808l-20.473,20.473-9.685-9.692a7.046,7.046,0,0,0-9.692,0l-7.54,7.54a101.962,101.962,0,0,0-23.208-9.664v-10.61a6.854,6.854,0,0,0-6.854-6.854H220.454V81.977a20.562,20.562,0,1,0-13.708,0v56.095H193.038a6.854,6.854,0,0,0-6.854,6.854v10.61a101.962,101.962,0,0,0-23.222,9.651l-7.54-7.54a6.854,6.854,0,0,0-9.692,0l-9.7,9.692-20.446-20.46a20.227,20.227,0,0,0,2.056-8.808,20.562,20.562,0,1,0-20.562,20.563,20.322,20.322,0,0,0,8.808-2.056l20.473,20.473-9.7,9.685a6.854,6.854,0,0,0,0,9.692l7.54,7.54a102.127,102.127,0,0,0-9.658,23.208h-10.61a6.854,6.854,0,0,0-6.854,6.854v19.02a68.465,68.465,0,0,1-13.708,1.542Zm239.9-116.521a6.854,6.854,0,1,1,6.854,6.854A6.854,6.854,0,0,1,323.266,138.072Zm-116.521-75.4A6.854,6.854,0,1,1,213.6,69.53,6.854,6.854,0,0,1,206.746,62.675ZM97.079,144.926a6.854,6.854,0,1,1,6.854-6.854A6.854,6.854,0,0,1,97.079,144.926ZM300.6,273.688a88.42,88.42,0,0,1-12.008,28.884,6.854,6.854,0,0,0,.925,8.554l6.477,6.47-19.39,19.39-6.47-6.477a6.854,6.854,0,0,0-8.554-.925,88.151,88.151,0,0,1-28.89,12,6.854,6.854,0,0,0-5.387,6.7v9.123h-27.41v-9.123a6.854,6.854,0,0,0-5.388-6.7,88.151,88.151,0,0,1-28.882-12,6.854,6.854,0,0,0-8.547.925l-6.47,6.477-19.39-19.39,6.477-6.47a6.854,6.854,0,0,0,.918-8.554A88.419,88.419,0,0,1,126.6,273.688a6.854,6.854,0,0,0-6.7-5.387h-9.116V240.884H119.9a6.854,6.854,0,0,0,6.7-5.388,88.419,88.419,0,0,1,12.008-28.882,6.854,6.854,0,0,0-.925-8.554l-6.477-6.47L150.6,172.2l6.47,6.477a6.854,6.854,0,0,0,8.554.925,88.193,88.193,0,0,1,28.89-12.009,6.854,6.854,0,0,0,5.381-6.7V151.78h27.417V160.9a6.854,6.854,0,0,0,5.388,6.7A88.192,88.192,0,0,1,261.579,179.6a6.854,6.854,0,0,0,8.547-.925l6.47-6.477,19.39,19.391-6.477,6.47a6.854,6.854,0,0,0-.918,8.554A88.42,88.42,0,0,1,300.6,235.5a6.854,6.854,0,0,0,6.7,5.387h9.116V268.3H307.3a6.854,6.854,0,0,0-6.7,5.388Z" transform="translate(-0.979 -1.002)" fill="#2196f3"/>
  <path id="Path_62" data-name="Path 62" d="M96.4,27a75.4,75.4,0,1,0,75.4,75.4A75.4,75.4,0,0,0,96.4,27Zm0,13.708A61.756,61.756,0,0,1,158.083,102.2a102,102,0,0,1-123.375,0A61.756,61.756,0,0,1,96.4,40.708Zm0,123.375A61.8,61.8,0,0,1,37.45,120.512a115.691,115.691,0,0,0,117.933,0A61.8,61.8,0,0,1,96.4,164.084Z" transform="translate(116.225 151.195)" fill="#2196f3"/>
</svg>
