<svg id="_008-brain" data-name="008-brain" xmlns="http://www.w3.org/2000/svg" width="424.958" height="425.333" viewBox="0 0 424.958 425.333">
  <path id="Path_63" data-name="Path 63" d="M354.585,138.374A75.513,75.513,0,0,0,316.291,91.7V65.61l25.463-25.456a19.829,19.829,0,0,0,17.615,0l27.519,27.52a20.227,20.227,0,0,0-2.056,8.808A20.562,20.562,0,1,0,405.4,55.918a20.226,20.226,0,0,0-8.808,2.056l-27.519-27.52a20.228,20.228,0,0,0,2.056-8.808,20.562,20.562,0,1,0-41.125,0,20.226,20.226,0,0,0,2.056,8.808L304.591,57.926a6.854,6.854,0,0,0-2.008,4.846V86.255a71.694,71.694,0,0,0-30.439-2.193A75.815,75.815,0,0,0,247.75,64.239v-23.3a20.562,20.562,0,1,0-13.708,0V58.824a73.86,73.86,0,0,0-41.125,0V40.948a20.562,20.562,0,1,0-13.708,0v23.3a75.814,75.814,0,0,0-24.394,19.822,71.694,71.694,0,0,0-30.439,2.193v-23.5a6.853,6.853,0,0,0-2.007-4.845L94.9,30.455a20.227,20.227,0,0,0,2.056-8.808,20.562,20.562,0,1,0-41.125,0,20.227,20.227,0,0,0,2.056,8.808L30.37,57.974a20.226,20.226,0,0,0-8.808-2.056A20.563,20.563,0,1,0,42.125,76.48a20.227,20.227,0,0,0-2.056-8.808l27.519-27.52a19.829,19.829,0,0,0,17.615,0L110.667,65.61V91.656a75.636,75.636,0,0,0-38.253,46.711A75.348,75.348,0,0,0,76.4,288.96h50.515a95.958,95.958,0,1,0,173.136,0h50.515a75.348,75.348,0,0,0,4.023-150.587ZM405.4,69.626a6.854,6.854,0,1,1-6.854,6.854A6.854,6.854,0,0,1,405.4,69.626ZM350.562,14.793a6.854,6.854,0,1,1-6.854,6.854A6.854,6.854,0,0,1,350.562,14.793Zm-109.666,0a6.854,6.854,0,1,1-6.854,6.854A6.854,6.854,0,0,1,240.9,14.793Zm-54.833,0a6.854,6.854,0,1,1-6.854,6.854A6.854,6.854,0,0,1,186.062,14.793ZM21.563,83.335a6.854,6.854,0,1,1,6.854-6.854A6.854,6.854,0,0,1,21.563,83.335ZM76.4,28.5a6.854,6.854,0,1,1,6.854-6.854A6.854,6.854,0,0,1,76.4,28.5ZM213.479,412.336a82.25,82.25,0,1,1,82.25-82.25,82.25,82.25,0,0,1-82.25,82.25ZM353.262,275.115l-16.409-16.409V240.981H323.145v20.563a6.853,6.853,0,0,0,2.007,4.845l8.863,8.864h-41.9A96.246,96.246,0,0,0,240.9,238.171V209.548l18.554-18.554-9.692-9.692L229.2,201.864a6.854,6.854,0,0,0-2.008,4.846v28.513a86.224,86.224,0,0,0-27.417,0V206.71a6.853,6.853,0,0,0-2.007-4.845L177.2,181.3l-9.692,9.692,18.554,18.554v28.623a96.246,96.246,0,0,0-51.221,37.081h-41.9l8.862-8.862a6.854,6.854,0,0,0,2.008-4.846V240.981H90.1v17.725L73.7,275.115a61.687,61.687,0,0,1-58.582-54.7H42.125a6.853,6.853,0,0,0,4.845-2.007l20.563-20.564-9.692-9.692L39.288,206.71H15.113a61.783,61.783,0,0,1,54.758-54.477c-.185,2.145-.329,4.3-.329,6.5a75.485,75.485,0,0,0,75.4,75.4V220.418A61.687,61.687,0,0,1,93.682,193h23.839a6.853,6.853,0,0,0,4.845-2.007l13.709-13.709-9.692-9.692-11.7,11.7H86.848a61.359,61.359,0,0,1,23.818-71.818v37.547h13.708V100.642a61.248,61.248,0,0,1,20.562-3.6c.48,0,.96.055,1.439.069a74.814,74.814,0,0,0-8.294,34.2h13.708a61.688,61.688,0,0,1,27.417-51.256v51.256h13.708V73.225a60.549,60.549,0,0,1,41.125,0v58.089H247.75V80.058a61.688,61.688,0,0,1,27.417,51.256h13.708a74.814,74.814,0,0,0-8.294-34.2c.48,0,.96-.069,1.439-.069a61.275,61.275,0,0,1,20.562,3.564v44.415h13.708V107.516a61.3,61.3,0,0,1,23.818,71.777H312.275l-11.7-11.7-9.692,9.692,13.708,13.708A6.854,6.854,0,0,0,309.437,193h23.839a61.687,61.687,0,0,1-51.255,27.417v13.708a75.485,75.485,0,0,0,75.4-75.4c0-2.173-.144-4.339-.329-6.5a61.783,61.783,0,0,1,54.758,54.477H387.67l-18.554-18.554-9.692,9.692,20.562,20.563a6.854,6.854,0,0,0,4.846,2.008h27.012a61.688,61.688,0,0,1-58.582,54.7Z" transform="translate(-1 -0.986)" fill="#2196f3"/>
  <path id="Path_64" data-name="Path 64" d="M132.666,60.563a6.854,6.854,0,0,0-6.854-6.854h-6.854V40H105.25V53.708H91.542V40H77.833V53.708H64.125V40H50.417V53.708H43.562a6.854,6.854,0,0,0-6.854,6.854v6.854H23V81.125H36.708V94.833H23v13.708H36.708V122.25H23v13.708H36.708v6.854a6.854,6.854,0,0,0,6.854,6.854h6.854v13.708H64.125V149.667H77.833v13.708H91.542V149.667H105.25v13.708h13.708V149.667h6.854a6.854,6.854,0,0,0,6.854-6.854v-6.854h13.708V122.25H132.666V108.542h13.708V94.833H132.666V81.125h13.708V67.417H132.666Zm-13.708,75.4H50.417V67.417h68.542Z" transform="translate(127.792 227.412)" fill="#2196f3"/>
  <path id="Path_65" data-name="Path 65" d="M35.854,87.125H63.271a6.854,6.854,0,0,0,6.854-6.854V52.854A6.854,6.854,0,0,0,63.271,46H35.854A6.854,6.854,0,0,0,29,52.854V80.271A6.854,6.854,0,0,0,35.854,87.125Zm6.854-27.417H56.417V73.417H42.708Z" transform="translate(162.917 262.537)" fill="#2196f3"/>
</svg>
