<svg id="_009-artificial-intelligence-2" data-name="009-artificial-intelligence-2" xmlns="http://www.w3.org/2000/svg" width="496" height="496" viewBox="0 0 496 496">
  <g id="Group_89" data-name="Group 89">
    <g id="Group_88" data-name="Group 88">
      <path id="Path_66" data-name="Path 66" d="M248,136a72,72,0,1,0,72,72A72.083,72.083,0,0,0,248,136Zm0,80a8,8,0,1,1,8-8A8.008,8.008,0,0,1,248,216Zm8,47.36V230.528a24,24,0,1,0-16,0V263.36a56,56,0,1,1,16,0Z" fill="#2196f3"/>
      <path id="Path_67" data-name="Path 67" d="M342.96,250.24q1.116-2.484,2.08-4.976l38.96-6.48v-61.56l-38.96-6.488c-1.216-3.144-2.616-6.288-4.184-9.4l-14.288,7.2A86.121,86.121,0,0,1,331.5,180.36l1.512,4.584L368,190.784v34.44l-34.984,5.832L331.5,235.64a86.959,86.959,0,0,1-4.936,11.824l-2.176,4.32,20.64,28.888-24.352,24.36-28.9-20.64-4.312,2.168A87.475,87.475,0,0,1,275.64,291.5l-4.584,1.512L265.224,328H230.776l-5.832-34.984L220.36,291.5a87.13,87.13,0,0,1-11.824-4.936l-4.32-2.168-28.9,20.64-29.152-29.152L134.856,287.2,173.6,325.92l32.16-22.968q2.484,1.116,4.968,2.08l6.5,38.968h61.552l6.5-38.968c1.656-.64,3.32-1.336,4.976-2.08l32.16,22.968,43.528-43.512Z" fill="#2196f3"/>
      <path id="Path_68" data-name="Path 68" d="M112,177.216v61.56l38.96,6.488c1.216,3.144,2.616,6.288,4.184,9.4l14.288-7.2A86.125,86.125,0,0,1,164.5,235.64l-1.512-4.584L128,225.216v-34.44l34.984-5.832,1.512-4.584a86.959,86.959,0,0,1,4.936-11.824l2.176-4.32-20.64-28.888,24.352-24.36,28.9,20.64,4.32-2.176A86.988,86.988,0,0,1,220.36,124.5l4.584-1.512L230.776,88h34.448l5.832,34.984,4.584,1.512a86.321,86.321,0,0,1,11.824,4.928l4.32,2.176,28.9-20.64,29.152,29.152L361.144,128.8,322.4,90.064,290.24,113.04c-1.656-.744-3.312-1.432-4.976-2.08L278.776,72H217.224l-6.5,38.96c-1.664.648-3.328,1.344-4.976,2.08l-32.16-22.976-43.528,43.528L153.04,165.76q-1.116,2.484-2.08,4.976Z" fill="#2196f3"/>
      <rect id="Rectangle_27" data-name="Rectangle 27" width="16" height="16" transform="translate(240 104)" fill="#2196f3"/>
      <rect id="Rectangle_28" data-name="Rectangle 28" width="16" height="16" transform="translate(168.799 140.117) rotate(-45)" fill="#2196f3"/>
      <rect id="Rectangle_29" data-name="Rectangle 29" width="16" height="16" transform="translate(144 200)" fill="#2196f3"/>
      <rect id="Rectangle_30" data-name="Rectangle 30" width="16" height="16" transform="translate(191.428 275.872) rotate(135)" fill="#2196f3"/>
      <rect id="Rectangle_31" data-name="Rectangle 31" width="16" height="16" transform="translate(240 296)" fill="#2196f3"/>
      <rect id="Rectangle_32" data-name="Rectangle 32" width="16" height="16" transform="translate(327.193 275.876) rotate(135)" fill="#2196f3"/>
      <rect id="Rectangle_33" data-name="Rectangle 33" width="16" height="16" transform="translate(336 200)" fill="#2196f3"/>
      <rect id="Rectangle_34" data-name="Rectangle 34" width="16" height="16" transform="translate(304.562 140.121) rotate(-45)" fill="#2196f3"/>
      <path id="Path_69" data-name="Path 69" d="M248,448a24,24,0,1,0,24,24A24.029,24.029,0,0,0,248,448Zm0,32a8,8,0,1,1,8-8A8.008,8.008,0,0,1,248,480Z" fill="#2196f3"/>
      <path id="Path_70" data-name="Path 70" d="M472,448a24,24,0,1,0,24,24A24.029,24.029,0,0,0,472,448Zm0,32a8,8,0,1,1,8-8A8.008,8.008,0,0,1,472,480Z" fill="#2196f3"/>
      <path id="Path_71" data-name="Path 71" d="M24,448a24,24,0,1,0,24,24A24.029,24.029,0,0,0,24,448Zm0,32a8,8,0,1,1,8-8A8.008,8.008,0,0,1,24,480Z" fill="#2196f3"/>
      <path id="Path_72" data-name="Path 72" d="M24,368a24,24,0,1,0,24,24A24.029,24.029,0,0,0,24,368Zm0,32a8,8,0,1,1,8-8A8.008,8.008,0,0,1,24,400Z" fill="#2196f3"/>
      <rect id="Rectangle_35" data-name="Rectangle 35" width="16" height="72" transform="translate(240 360)" fill="#2196f3"/>
      <path id="Path_73" data-name="Path 73" d="M152,424a40.045,40.045,0,0,1-40,40H64v16h48a56.067,56.067,0,0,0,56-56V328H152Z" fill="#2196f3"/>
      <path id="Path_74" data-name="Path 74" d="M104,376a8.008,8.008,0,0,1-8,8H64v16H96a24.029,24.029,0,0,0,24-24V256H104Z" fill="#2196f3"/>
      <path id="Path_75" data-name="Path 75" d="M472,368a24,24,0,1,0,24,24A24.029,24.029,0,0,0,472,368Zm0,32a8,8,0,1,1,8-8A8.008,8.008,0,0,1,472,400Z" fill="#2196f3"/>
      <path id="Path_76" data-name="Path 76" d="M344,424V328H328v96a56.067,56.067,0,0,0,56,56h48V464H384A40.045,40.045,0,0,1,344,424Z" fill="#2196f3"/>
      <path id="Path_77" data-name="Path 77" d="M392,376V256H376V376a24.029,24.029,0,0,0,24,24h32V384H400A8.008,8.008,0,0,1,392,376Z" fill="#2196f3"/>
      <path id="Path_78" data-name="Path 78" d="M496,176a63.6,63.6,0,0,0-72.376-63.392A71.849,71.849,0,0,0,328.3,52.072a87.945,87.945,0,0,0-160.592,0,71.845,71.845,0,0,0-95.32,60.5A62.1,62.1,0,0,0,64,112a64,64,0,0,0,0,128H96V224H64a48,48,0,1,1,41.168-72.7l13.712-8.248a64.287,64.287,0,0,0-30.72-26.272,55.95,55.95,0,0,1,92.864-38.8l10.576-12a71.681,71.681,0,0,0-9.472-7.008,71.964,71.964,0,0,1,131.752.04,71.834,71.834,0,0,0-15.888,13.36l11.992,10.592a55.955,55.955,0,0,1,97.848,33.744A63.761,63.761,0,0,0,387.208,130.3l11.2,11.424A48,48,0,1,1,432,224H400v16h32A64.075,64.075,0,0,0,496,176Z" fill="#2196f3"/>
    </g>
  </g>
</svg>
