<svg xmlns="http://www.w3.org/2000/svg" width="375.824" height="512" viewBox="0 0 375.824 512">
  <g id="_011-system" data-name="011-system" transform="translate(-68.088)">
    <path id="Path_84" data-name="Path 84" d="M300.077,187.913A44.077,44.077,0,1,0,256,231.99,44.127,44.127,0,0,0,300.077,187.913Zm-73.154,0A29.077,29.077,0,1,1,256,216.99,29.11,29.11,0,0,1,226.923,187.913Z" fill="#2196f3"/>
    <path id="Path_85" data-name="Path 85" d="M428.072,153.1l-14.917-4.188a7.5,7.5,0,0,0-4.055,14.442l14.917,4.188a6.733,6.733,0,0,1,4.9,6.459V201.82a6.732,6.732,0,0,1-4.9,6.459l-31.034,8.714A21.7,21.7,0,0,0,378.376,230.7a129.121,129.121,0,0,1-5.578,13.458,21.7,21.7,0,0,0,.624,20.043l15.786,28.112a6.733,6.733,0,0,1-1.105,8.029l-19.668,19.667a6.729,6.729,0,0,1-8.029,1.106L332.3,305.333c-5.994-3.366-17.674-4.537-23.081.789-10.034,4.522-20.765,6.783-24.132,18.772l-8.714,31.034a6.734,6.734,0,0,1-6.459,4.9H242.1a6.732,6.732,0,0,1-6.459-4.895l-8.714-31.035c-3.112-11.082-12.454-13.757-21.893-17.8V279.768a7.494,7.494,0,0,0,2.423-13.7A92.015,92.015,0,1,1,256,279.9a92.867,92.867,0,0,1-17.371-1.636A7.5,7.5,0,0,0,235.816,293a107,107,0,1,0-86.808-105.09,106.324,106.324,0,0,0,41.021,84.24v30.415a21.676,21.676,0,0,0-10.32,2.767L151.6,321.12a6.731,6.731,0,0,1-8.029-1.105L123.9,300.347a6.73,6.73,0,0,1-1.105-8.029l15.786-28.112a21.7,21.7,0,0,0,.624-20.042,129.275,129.275,0,0,1-5.579-13.459A21.691,21.691,0,0,0,119.02,217l-31.034-8.714a6.733,6.733,0,0,1-4.9-6.459V174.007a6.732,6.732,0,0,1,4.9-6.459l31.034-8.714a21.7,21.7,0,0,0,14.607-13.711,129.033,129.033,0,0,1,5.578-13.458,21.7,21.7,0,0,0-.624-20.043L122.8,83.51a6.732,6.732,0,0,1,1.105-8.028l19.668-19.668a6.735,6.735,0,0,1,8.029-1.106l28.111,15.786a21.706,21.706,0,0,0,20.043.625,129.4,129.4,0,0,1,13.458-5.579A21.693,21.693,0,0,0,226.92,50.934L235.634,19.9a6.734,6.734,0,0,1,6.459-4.9h27.814a6.732,6.732,0,0,1,6.459,4.9l8.714,31.035A21.693,21.693,0,0,0,298.791,65.54a129.328,129.328,0,0,1,13.459,5.579,21.7,21.7,0,0,0,20.042-.625L360.4,54.708a6.733,6.733,0,0,1,8.029,1.106L388.1,75.482A6.729,6.729,0,0,1,389.2,83.51l-15.786,28.112a21.7,21.7,0,0,0-.624,20.042c1.556,3.226,2.993,6.553,4.271,9.89a7.5,7.5,0,0,0,14.008-5.367c-1.428-3.726-3.032-7.441-4.77-11.042a6.693,6.693,0,0,1,.193-6.18l15.785-28.112A21.781,21.781,0,0,0,398.7,64.874L379.04,45.205a21.783,21.783,0,0,0-25.98-3.579L324.949,57.412a6.693,6.693,0,0,1-6.18.194,144.33,144.33,0,0,0-15.027-6.229,6.684,6.684,0,0,1-4.22-4.5L290.808,15.84A21.785,21.785,0,0,0,269.907,0H242.093a21.785,21.785,0,0,0-20.9,15.84l-8.714,31.034a6.679,6.679,0,0,1-4.221,4.5,144.187,144.187,0,0,0-15.026,6.229,6.693,6.693,0,0,1-6.18-.194L158.939,41.625A21.785,21.785,0,0,0,132.96,45.2L113.292,64.871a21.783,21.783,0,0,0-3.578,25.98L125.5,118.962a6.691,6.691,0,0,1,.193,6.18,144.212,144.212,0,0,0-6.228,15.026,6.682,6.682,0,0,1-4.5,4.22L83.929,153.1A21.784,21.784,0,0,0,68.088,174v27.815a21.784,21.784,0,0,0,15.841,20.9l31.034,8.714a6.681,6.681,0,0,1,4.5,4.219,144.052,144.052,0,0,0,6.229,15.027,6.693,6.693,0,0,1-.193,6.18l-15.785,28.112a21.783,21.783,0,0,0,3.578,25.98l19.668,19.668a21.789,21.789,0,0,0,25.98,3.578l28.111-15.786a6.684,6.684,0,0,1,2.976-.846v76.855h-48.97a20.68,20.68,0,1,0,0,15h56.47a7.5,7.5,0,0,0,7.5-7.5V323.262c3.149,1.187,6.425,2.03,7.451,5.683l8.714,31.035a21.686,21.686,0,0,0,8.531,11.927v72.2h-48.97a20.68,20.68,0,1,0,0,15h56.47a7.5,7.5,0,0,0,7.5-7.5V375.819h22.554v115.5a7.5,7.5,0,0,0,7.5,7.5h56.47a20.68,20.68,0,1,0,0-15h-48.97V371.912a21.683,21.683,0,0,0,8.531-11.928l8.714-31.034c1.026-3.653,4.3-4.5,7.451-5.683V441.634a7.5,7.5,0,0,0,7.5,7.5h56.47a20.68,20.68,0,1,0,0-15h-48.97V317.568a6.686,6.686,0,0,1,2.976.845L353.062,334.2a21.784,21.784,0,0,0,25.98-3.578l19.668-19.668a21.785,21.785,0,0,0,3.578-25.98L386.5,256.861a6.691,6.691,0,0,1-.193-6.18,144.207,144.207,0,0,0,6.228-15.026,6.684,6.684,0,0,1,4.5-4.22l31.034-8.714a21.784,21.784,0,0,0,15.841-20.9V174.006a21.784,21.784,0,0,0-15.84-20.9ZM121.806,407.6a5.68,5.68,0,1,1,5.68-5.68A5.686,5.686,0,0,1,121.806,407.6Zm39.7,49.686a5.68,5.68,0,1,1,5.68-5.68A5.686,5.686,0,0,1,161.5,457.289Zm189,28.351a5.68,5.68,0,1,1-5.68,5.68A5.686,5.686,0,0,1,350.5,485.64Zm39.7-49.686a5.68,5.68,0,1,1-5.68,5.68A5.686,5.686,0,0,1,390.194,435.954Z" fill="#2196f3"/>
  </g>
</svg>
