<svg xmlns="http://www.w3.org/2000/svg" width="512.216" height="512.243" viewBox="0 0 512.216 512.243">
  <g id="_012-system-1" data-name="012-system-1" transform="translate(-0.012)">
    <g id="Group_91" data-name="Group 91">
      <g id="Group_90" data-name="Group 90">
        <path id="Path_86" data-name="Path 86" d="M318.26,376.722a58.451,58.451,0,1,0-41.35-17.1,58.3,58.3,0,0,0,41.35,17.1Zm-30.743-89.194a43.477,43.477,0,1,1,0,61.486,43.337,43.337,0,0,1,0-61.486Z" fill="#2196f3"/>
        <path id="Path_87" data-name="Path 87" d="M250.187,250.2a95.894,95.894,0,0,0-20.552,105.726,7.5,7.5,0,0,0,13.807-5.861,81.293,81.293,0,1,1,75.3,49.476h-.489a80.767,80.767,0,0,1-56.721-23.076A7.5,7.5,0,1,0,251.06,387.2a95.659,95.659,0,0,0,67.19,27.337c.193,0,.387,0,.58,0A96.27,96.27,0,1,0,250.187,250.2Z" fill="#2196f3"/>
        <path id="Path_88" data-name="Path 88" d="M497.865,284.6H471.178a155.258,155.258,0,0,0-20.963-50.66l18.854-18.855a14.362,14.362,0,0,0,0-20.313l-27.31-27.309a14.362,14.362,0,0,0-20.313,0l-18.855,18.856a155.237,155.237,0,0,0-50.659-20.964V138.665A14.38,14.38,0,0,0,337.57,124.3H298.949a14.34,14.34,0,0,0-11.091,5.248h-4.9a126.845,126.845,0,0,0-16.263-39.3l14.425-14.425a13.063,13.063,0,0,0,0-18.451L259.047,35.3a13.046,13.046,0,0,0-18.451,0L226.17,49.725a126.843,126.843,0,0,0-39.3-16.263V13.047A13.06,13.06,0,0,0,173.822,0H142.608a13.062,13.062,0,0,0-13.047,13.047V33.463a126.877,126.877,0,0,0-39.3,16.263L75.836,35.3a13.048,13.048,0,0,0-18.453,0L35.313,57.373a13.063,13.063,0,0,0,0,18.451L49.738,90.249a126.853,126.853,0,0,0-16.263,39.3H13.059A13.062,13.062,0,0,0,.012,142.6v31.214a13.062,13.062,0,0,0,13.047,13.047H33.475a126.833,126.833,0,0,0,16.263,39.3L35.313,240.586a13.062,13.062,0,0,0,0,18.451l22.071,22.072a13.063,13.063,0,0,0,18.452,0l14.425-14.425a126.819,126.819,0,0,0,39.3,16.263v4.908a14.337,14.337,0,0,0-5.271,11.108v38.622a14.379,14.379,0,0,0,14.363,14.363h26.687a155.274,155.274,0,0,0,20.963,50.66L167.45,421.463a14.362,14.362,0,0,0,0,20.313l27.31,27.309a14.362,14.362,0,0,0,20.313,0l18.854-18.856a155.223,155.223,0,0,0,50.66,20.963V497.88a14.379,14.379,0,0,0,14.363,14.363H337.57a14.379,14.379,0,0,0,14.363-14.363V471.19a155.24,155.24,0,0,0,50.66-20.963l18.855,18.856a14.362,14.362,0,0,0,20.312,0l27.309-27.309a14.362,14.362,0,0,0,0-20.313l-18.855-18.856a155.266,155.266,0,0,0,20.963-50.66h26.687a14.379,14.379,0,0,0,14.363-14.363V298.96A14.378,14.378,0,0,0,497.865,284.6ZM134.241,268.619a111.959,111.959,0,0,1-37.164-15.378,13.131,13.131,0,0,0-16.312,1.723L66.61,269.12,47.3,249.81l14.156-14.157a13.132,13.132,0,0,0,1.722-16.312A111.949,111.949,0,0,1,47.8,182.176a13.134,13.134,0,0,0-12.753-10.319H15.012V144.55H35.047A13.137,13.137,0,0,0,47.8,134.228,111.942,111.942,0,0,1,63.179,97.065a13.131,13.131,0,0,0-1.722-16.311L47.3,66.6l19.31-19.31L80.766,61.444a13.13,13.13,0,0,0,16.313,1.722,111.946,111.946,0,0,1,37.162-15.378,13.134,13.134,0,0,0,10.321-12.754V15H171.87V35.035a13.134,13.134,0,0,0,10.321,12.754,111.978,111.978,0,0,1,37.163,15.377,13.131,13.131,0,0,0,16.313-1.722l14.155-14.156,19.31,19.31L254.977,80.753a13.128,13.128,0,0,0-1.723,16.312,111.944,111.944,0,0,1,15.378,37.163,13.133,13.133,0,0,0,12.754,10.322h3.2v20.8a155.224,155.224,0,0,0-50.659,20.964L215.072,167.46c-.224-.224-.462-.426-.7-.633a56.824,56.824,0,0,0-76.083-61.874A7.5,7.5,0,0,0,143.541,119a41.815,41.815,0,0,1,56.04,45.276,14.338,14.338,0,0,0-4.821,3.179l-27.309,27.309a14.319,14.319,0,0,0-3.184,4.83,42,42,0,0,1-6.05.451A41.857,41.857,0,0,1,121.7,137.737a7.5,7.5,0,0,0-13.08-7.342A56.813,56.813,0,0,0,166.8,214.364c.213.243.422.489.653.719L186.3,233.939a155.261,155.261,0,0,0-20.963,50.66H144.562v-3.225a13.135,13.135,0,0,0-10.321-12.755Zm362.988,68.326H470.66a14.462,14.462,0,0,0-14.041,11.367,140.308,140.308,0,0,1-19.27,46.57,14.456,14.456,0,0,0,1.892,17.96l18.773,18.774-26.409,26.409L412.832,439.25a14.457,14.457,0,0,0-17.959-1.893A140.316,140.316,0,0,1,348.3,456.628a14.461,14.461,0,0,0-11.366,14.041v26.569H299.587V470.669a14.463,14.463,0,0,0-11.367-14.041,140.307,140.307,0,0,1-46.571-19.271,14.459,14.459,0,0,0-17.96,1.893l-18.772,18.774-26.409-26.409,18.772-18.774a14.454,14.454,0,0,0,1.894-17.96A140.314,140.314,0,0,1,179.9,348.31a14.463,14.463,0,0,0-14.041-11.367H139.293V299.595h26.569A14.462,14.462,0,0,0,179.9,288.228a140.307,140.307,0,0,1,19.27-46.57,14.453,14.453,0,0,0-1.892-17.96l-18.773-18.774,26.409-26.409,18.772,18.774a14.459,14.459,0,0,0,17.96,1.894,140.316,140.316,0,0,1,46.571-19.271,14.461,14.461,0,0,0,11.367-14.041V139.3h37.348V165.87A14.461,14.461,0,0,0,348.3,179.911a140.3,140.3,0,0,1,46.572,19.271,14.457,14.457,0,0,0,17.96-1.894l18.772-18.774,26.409,26.409L439.241,223.7a14.452,14.452,0,0,0-1.894,17.959,140.319,140.319,0,0,1,19.271,46.572A14.463,14.463,0,0,0,470.659,299.6h26.569v37.347Z" fill="#2196f3"/>
      </g>
    </g>
  </g>
</svg>
