<svg xmlns="http://www.w3.org/2000/svg" width="399.999" height="480.016" viewBox="0 0 399.999 480.016">
  <g id="_013-solution-1" data-name="013-solution-1" transform="translate(-0.008)">
    <path id="Path_89" data-name="Path 89" d="M192.246,294.055l-16,64A8,8,0,0,0,184.008,368a8.16,8.16,0,0,0,1.945-.238l32-8a8,8,0,1,0-3.891-15.523L195.008,349l12.762-51.055a8,8,0,1,0-15.523-3.891Zm0,0" fill="#2196f3"/>
    <path id="Path_90" data-name="Path 90" d="M161.969,272.258a8,8,0,0,0-9.723,5.781c-.062.266-6.832,25.961-24.238,25.961s-24.176-25.7-24.238-25.961a8,8,0,1,0-15.523,3.906C88.641,283.5,98.106,320,128.008,320s39.367-36.5,39.762-38.055a8,8,0,0,0-5.8-9.687Zm0,0" fill="#2196f3"/>
    <path id="Path_91" data-name="Path 91" d="M272.008,320c29.9,0,39.367-36.5,39.762-38.055a8,8,0,0,0-15.523-3.906c-.062.266-6.832,25.961-24.238,25.961s-24.176-25.7-24.238-25.961a8,8,0,0,0-15.523,3.906C232.641,283.5,242.106,320,272.008,320Zm0,0" fill="#2196f3"/>
    <path id="Path_92" data-name="Path 92" d="M200.008,128a32,32,0,1,0-32-32A32,32,0,0,0,200.008,128Zm0-48a16,16,0,1,1-16,16A16,16,0,0,1,200.008,80Zm0,0" fill="#2196f3"/>
    <path id="Path_93" data-name="Path 93" d="M368.008,232.969V184c0-21.191-46.168-31.2-89.91-36,0-.375.1-.734.1-1.113a16,16,0,0,0-4.7-11.367l-14.473-14.8c0-.07.32-.672.344-.742h20.57a16.086,16.086,0,0,0,16.07-16.047V88.07A16.086,16.086,0,0,0,279.938,72H259.481l-.52-1.031,14.527-14.535a16.081,16.081,0,0,0,0-22.738l-11.2-11.2a16.457,16.457,0,0,0-22.738,0l-14.8,14.473c-.07,0-.672-.32-.742-.344V16.07A16.086,16.086,0,0,0,207.938,0H192.078a16.086,16.086,0,0,0-16.07,16.07V36.527l-1.031.52L160.465,22.52a16.457,16.457,0,0,0-22.738,0l-11.2,11.2a16.081,16.081,0,0,0,0,22.738L141,71.258c0,.07-.32.672-.344.742H120.078a16.086,16.086,0,0,0-16.07,16.07V103.93A16.086,16.086,0,0,0,120.078,120h20.457l.52,1.031-14.527,14.535a15.963,15.963,0,0,0-4.711,11.371c0,.375.078.734.1,1.109C78.176,152.8,32.008,162.809,32.008,184v48.969C13.777,237.434.008,256.8.008,280c0,23.5,14.16,43.07,32.8,47.2a167.912,167.912,0,0,0,334.464,0c18.574-4.129,32.734-23.7,32.734-47.2,0-23.2-13.77-42.566-32-47.031Zm-336,77.063a32.682,32.682,0,0,1-16-30.031,32.682,32.682,0,0,1,16-30.031ZM152.367,132.32A16.8,16.8,0,0,0,140.648,104l-20.641-.07.07-15.93h20.57a16.8,16.8,0,0,0,11.719-28.32L137.84,45.031l11.313-11.2L163.687,48.36a16.8,16.8,0,0,0,28.32-11.719L192.078,16l15.93.07v20.57a16.8,16.8,0,0,0,28.32,11.719l14.648-14.527,11.2,11.313L247.648,59.68A16.8,16.8,0,0,0,259.367,88l20.641.07V103.93l-20.641.07a16.8,16.8,0,0,0-11.719,28.32l14.527,14.648-11.312,11.2-14.535-14.527a16.8,16.8,0,0,0-28.32,11.719L207.937,176l-15.93-.07V155.36a16.348,16.348,0,0,0-10.449-15.047A17.137,17.137,0,0,0,175.023,139a16.006,16.006,0,0,0-11.336,4.641l-14.648,14.527-11.2-11.312ZM352.008,312a152,152,0,0,1-304,0V202.9C88.879,223.688,194.481,224,200.008,224s111.129-.312,152-21.105Zm-152-104c-94.4,0-148.184-15.535-152-23.543v-.16c2.1-4.648,25.129-15.535,83.383-21.152l6.336,6.336a16.472,16.472,0,0,0,22.738,0l14.8-14.473c.07,0,.672.32.742.344v20.57A16.085,16.085,0,0,0,192.078,192h15.859a16.086,16.086,0,0,0,16.07-16.07V155.473l1.031-.52,14.535,14.527a16.472,16.472,0,0,0,22.738,0l6.336-6.344c58.617,5.648,81.6,16.625,83.438,20.473C348.528,192.368,294.7,208,200.008,208Zm168,102.031V249.969a32.682,32.682,0,0,1,16,30.031,32.682,32.682,0,0,1-16,30.031Zm0,0" fill="#2196f3"/>
  </g>
</svg>
