<svg id="_014-lightbulb-1" data-name="014-lightbulb-1" xmlns="http://www.w3.org/2000/svg" width="512.003" height="512" viewBox="0 0 512.003 512">
  <path id="Path_94" data-name="Path 94" d="M505.543,392.3l-17.505-2.487a77.621,77.621,0,0,0-5.154-12.451l10.625-14.153a7.514,7.514,0,0,0-.694-9.823l-19.328-19.344a7.515,7.515,0,0,0-9.833-.694L449.52,343.98a77.674,77.674,0,0,0-12.432-5.154L434.6,321.3a7.514,7.514,0,0,0-7.44-6.459H399.83a7.514,7.514,0,0,0-7.44,6.459L389.9,338.826a77.717,77.717,0,0,0-12.432,5.154l-12.252-9.214a130.026,130.026,0,0,0,33.1-72.116H401.5a7.515,7.515,0,1,0,0-15.03h-2.2c0-.43.016-.858.016-1.288a132.094,132.094,0,0,0-4.537-34.4,7.515,7.515,0,0,0-14.511,3.915,117.087,117.087,0,0,1,4.019,30.482,115.65,115.65,0,0,1-36.154,84.443c-.042.041-.085.082-.126.124-.949.948-23.311,23.5-30.04,47.085-1.486,5.211-2.355,13.01-2.863,20.517a7.5,7.5,0,0,0-.108,1.243v.424c-.284,4.632-.436,9.066-.517,12.613H293.162c-.82-10.379-2.17-31.321-1.777-52.954.21-11.612.869-21.171,1.8-29.034,9.765-1.489,20.354-4.081,27.881-8.594,13.652-8.185,16.54-24.783,10.673-35.148-4.623-8.167-15.968-14.531-32.724-5.593-8.568,4.57-14.526,15.045-18.213,32.02q-.393,1.809-.753,3.723c-5.11.425-9.516.587-12.3.572-2.767.011-7.166-.142-12.272-.565q-.36-1.917-.753-3.729c-3.687-16.976-9.644-27.45-18.213-32.021-16.757-8.937-28.1-2.573-32.725,5.593a24.754,24.754,0,0,0-1.9,18.758,27.833,27.833,0,0,0,12.576,16.39c7.527,4.513,18.118,7.106,27.881,8.6.935,7.863,1.593,17.421,1.8,29.034.393,21.634-.957,42.576-1.777,52.954H221.06c-.22-9.673-.968-25.958-3.489-34.8-6.691-23.46-29.077-46.119-30.026-47.072-.045-.046-.093-.092-.139-.137a115.646,115.646,0,0,1-36.154-84.443c0-64.3,52.269-116.619,116.516-116.619a116.678,116.678,0,0,1,101.888,60,7.515,7.515,0,1,0,13.136-7.3,131.651,131.651,0,0,0-29.371-35.959H362.2a7.515,7.515,0,1,0,0-15.03h-10.02a7.515,7.515,0,0,0-7.515,7.515c0,.215.014.427.032.638a131.528,131.528,0,0,0-69.7-24.673l-23.087-3.28a112.4,112.4,0,0,0-9.221-22.278l17.288-23.027a7.514,7.514,0,0,0-.693-9.823L230.408,27.6a7.515,7.515,0,0,0-9.833-.694l-23,17.3a112.231,112.231,0,0,0-22.251-9.225L171.279,6.46A7.516,7.516,0,0,0,163.838,0H123.01a7.515,7.515,0,0,0-7.44,6.459l-4.045,28.516A112.257,112.257,0,0,0,89.274,44.2l-23-17.3a7.516,7.516,0,0,0-9.833.694L27.57,56.49a7.514,7.514,0,0,0-.693,9.823L44.165,89.341a112.452,112.452,0,0,0-9.221,22.277L6.457,115.665A7.518,7.518,0,0,0,0,123.106v40.862a7.514,7.514,0,0,0,6.458,7.44l28.487,4.047a112.332,112.332,0,0,0,9.221,22.277L26.877,220.76a7.514,7.514,0,0,0,.694,9.823l28.87,28.894a7.517,7.517,0,0,0,9.833.694l23-17.3a112.257,112.257,0,0,0,22.251,9.225l4.045,28.516a7.514,7.514,0,0,0,7.44,6.459h19.582a130.836,130.836,0,0,0,34.361,54.5c1.149,1.168,20.655,21.214,26.164,40.53,2.5,8.753,3.014,30.526,3,38.177V445.44a34.4,34.4,0,0,0,27.5,33.666,34.3,34.3,0,0,0,33.549,27.426h1.2a34.3,34.3,0,0,0,33.549-27.426,34.4,34.4,0,0,0,27.5-33.666v-9.77l9.541,1.356a77.735,77.735,0,0,0,5.154,12.451L333.486,463.63a7.514,7.514,0,0,0,.693,9.823L353.507,492.8a7.516,7.516,0,0,0,9.833.694l14.134-10.629a77.637,77.637,0,0,0,12.432,5.154l2.486,17.525a7.514,7.514,0,0,0,7.44,6.459h27.334a7.514,7.514,0,0,0,7.44-6.459l2.485-17.524a77.678,77.678,0,0,0,12.432-5.154l14.134,10.629a7.515,7.515,0,0,0,9.833-.694l19.328-19.344a7.515,7.515,0,0,0,.694-9.823l-10.625-14.153a77.839,77.839,0,0,0,5.154-12.451l17.505-2.487A7.514,7.514,0,0,0,512,427.1V399.744a7.52,7.52,0,0,0-6.46-7.441ZM306.091,294.716c1.821-.972,5.245-2.557,8.186-2.557a4.664,4.664,0,0,1,4.385,2.293c2.058,3.636,1.029,11.046-5.322,14.855-4.416,2.648-10.8,4.506-17.491,5.793,3.578-15.285,8.281-19.338,10.242-20.384Zm-83.9,14.591c-6.351-3.809-7.381-11.219-5.322-14.855a4.665,4.665,0,0,1,4.386-2.293c2.941,0,6.365,1.585,8.186,2.557,1.961,1.046,6.665,5.1,10.244,20.392C233,313.821,226.62,311.96,222.2,309.307Zm-92.661-37.262-3.825-26.967a7.514,7.514,0,0,0-5.654-6.244,97.269,97.269,0,0,1-27.427-11.371,7.513,7.513,0,0,0-8.419.416L62.457,244.236,42.808,224.572l16.352-21.78a7.517,7.517,0,0,0,.415-8.41,97.451,97.451,0,0,1-11.363-27.454,7.514,7.514,0,0,0-6.243-5.656l-26.94-3.827V129.628L41.97,125.8a7.515,7.515,0,0,0,6.243-5.656A97.433,97.433,0,0,1,59.576,92.691a7.517,7.517,0,0,0-.415-8.41L42.809,62.5,62.458,42.838,84.21,59.2a7.513,7.513,0,0,0,8.419.416A97.286,97.286,0,0,1,120.056,48.24,7.514,7.514,0,0,0,125.71,42l3.825-26.967h27.78L161.14,42a7.515,7.515,0,0,0,5.654,6.244,97.318,97.318,0,0,1,27.427,11.372,7.515,7.515,0,0,0,8.419-.416l21.751-16.357L244.04,62.5,227.689,84.281a7.513,7.513,0,0,0-.415,8.41,97.394,97.394,0,0,1,10.812,25.371,130.635,130.635,0,0,0-34.96,13.649A59.486,59.486,0,0,0,94.475,105.678,7.515,7.515,0,1,0,106.99,114a44.468,44.468,0,0,1,81.522,24.632c0,.9-.033,1.831-.1,2.772a132.589,132.589,0,0,0-35.523,40.848,44.452,44.452,0,0,1-53.327-43.621,7.515,7.515,0,0,0-15.03,0,59.591,59.591,0,0,0,59.5,59.545c.435,0,.87-.012,1.3-.022a131.07,131.07,0,0,0-9.12,48.175,133.679,133.679,0,0,0,2.486,25.713h-9.174ZM344.11,377.365a77.733,77.733,0,0,0-5.154,12.451l-8.094,1.15a59.439,59.439,0,0,1,1.555-8.86,64.444,64.444,0,0,1,5.509-12.978ZM259.179,359.68c-.178-9.987-.693-19.1-1.537-27.258,5.711.371,9.653.386,10.113.377s4.42-.006,10.137-.378c-.845,8.162-1.359,17.271-1.537,27.258-.386,21.633.871,42.122,1.723,53.1H257.456c.853-10.977,2.109-31.466,1.723-53.1ZM268.367,491.5h-1.2a19.233,19.233,0,0,1-17.675-11.712h36.549A19.228,19.228,0,0,1,268.367,491.5Zm46.018-46.063a19.332,19.332,0,0,1-19.3,19.321H240.448a19.331,19.331,0,0,1-19.3-19.321V427.809h93.236V445.44Zm182.586-24.864-15.9,2.259a7.514,7.514,0,0,0-6.243,5.657,62.77,62.77,0,0,1-7.318,17.681,7.517,7.517,0,0,0,.415,8.41l9.654,12.858L467.47,477.556,454.633,467.9a7.51,7.51,0,0,0-8.419-.416,62.633,62.633,0,0,1-17.663,7.323,7.517,7.517,0,0,0-5.654,6.244l-2.257,15.918H406.354L404.1,481.052a7.514,7.514,0,0,0-5.654-6.244,62.648,62.648,0,0,1-17.663-7.322,7.517,7.517,0,0,0-8.419.416l-12.838,9.654-10.107-10.115,9.654-12.858a7.517,7.517,0,0,0,.415-8.41,62.8,62.8,0,0,1-7.318-17.681,7.515,7.515,0,0,0-6.243-5.657l-15.9-2.259V406.265l15.9-2.259a7.514,7.514,0,0,0,6.243-5.657,62.783,62.783,0,0,1,7.318-17.681,7.515,7.515,0,0,0-.415-8.41L349.415,359.4l10.107-10.115,12.838,9.654a7.515,7.515,0,0,0,8.419.416,62.633,62.633,0,0,1,17.663-7.323,7.517,7.517,0,0,0,5.654-6.244l2.258-15.918H420.64l2.257,15.918a7.514,7.514,0,0,0,5.654,6.244,62.692,62.692,0,0,1,17.663,7.323,7.513,7.513,0,0,0,8.419-.416l12.838-9.654L477.577,359.4l-9.654,12.858a7.517,7.517,0,0,0-.415,8.41,62.758,62.758,0,0,1,7.318,17.681,7.515,7.515,0,0,0,6.243,5.657l15.9,2.259Z" fill="#2196f3"/>
  <path id="Path_95" data-name="Path 95" d="M413.5,369.3a44.155,44.155,0,0,0-44.09,44.12,7.515,7.515,0,0,0,15.03,0,29.074,29.074,0,1,1,9.8,21.786,7.515,7.515,0,0,0-9.971,11.245A44.107,44.107,0,1,0,413.5,369.3Z" fill="#2196f3"/>
  <path id="Path_96" data-name="Path 96" d="M387.247,146.45h10.02a7.515,7.515,0,1,0,0-15.03h-10.02a7.515,7.515,0,1,0,0,15.03Z" fill="#2196f3"/>
  <path id="Path_97" data-name="Path 97" d="M451.954,153.709a50.958,50.958,0,0,1,7.039,5.135,7.515,7.515,0,0,0,9.867-11.337,65.97,65.97,0,0,0-9.124-6.657,7.515,7.515,0,0,0-7.782,12.859Z" fill="#2196f3"/>
  <path id="Path_98" data-name="Path 98" d="M422.315,146.45c3.171,0,6.291.128,9.457.337a7.592,7.592,0,0,0,8.016-6.667,7.514,7.514,0,0,0-6.641-8.3,97.92,97.92,0,0,0-10.832-.4,7.514,7.514,0,1,0,0,15.029Z" fill="#2196f3"/>
  <path id="Path_99" data-name="Path 99" d="M435.136,246.77a50.968,50.968,0,0,1-8.674.846,7.515,7.515,0,0,0,.086,15.029h.09a65.979,65.979,0,0,0,11.238-1.1,7.514,7.514,0,0,0-2.74-14.777Z" fill="#2196f3"/>
  <path id="Path_100" data-name="Path 100" d="M461.689,232.7a50.976,50.976,0,0,1-6.651,5.636,7.515,7.515,0,1,0,8.7,12.258,65.991,65.991,0,0,0,8.616-7.3A7.515,7.515,0,0,0,461.689,232.7Z" fill="#2196f3"/>
  <path id="Path_101" data-name="Path 101" d="M477.782,224.1a7.585,7.585,0,0,0,9.642-4.47,65.383,65.383,0,0,0,2.955-10.913,7.515,7.515,0,0,0-14.793-2.658,50.291,50.291,0,0,1-2.275,8.4A7.517,7.517,0,0,0,477.782,224.1Z" fill="#2196f3"/>
  <path id="Path_102" data-name="Path 102" d="M471.92,176.206a50.326,50.326,0,0,1,2.885,8.213,7.515,7.515,0,1,0,14.559-3.732,65.44,65.44,0,0,0-3.749-10.673,7.515,7.515,0,1,0-13.7,6.192Z" fill="#2196f3"/>
  <path id="Path_103" data-name="Path 103" d="M35.47,310.028a7.516,7.516,0,0,0-9.695,4.353,65.508,65.508,0,0,0-3.088,10.876,7.515,7.515,0,1,0,14.759,2.837,50.371,50.371,0,0,1,2.376-8.37A7.514,7.514,0,0,0,35.47,310.028Z" fill="#2196f3"/>
  <path id="Path_104" data-name="Path 104" d="M60.451,380.722a50.918,50.918,0,0,1-6.979-5.221,7.515,7.515,0,0,0-10,11.219,66.157,66.157,0,0,0,9.043,6.765,7.515,7.515,0,1,0,7.937-12.763Z" fill="#2196f3"/>
  <path id="Path_105" data-name="Path 105" d="M124.978,388.3h-10.02a7.515,7.515,0,0,0,0,15.03h10.02a7.515,7.515,0,0,0,0-15.03Z" fill="#2196f3"/>
  <path id="Path_106" data-name="Path 106" d="M160.047,388.3h-10.02a7.515,7.515,0,0,0,0,15.03h10.02a7.515,7.515,0,0,0,0-15.03Z" fill="#2196f3"/>
  <path id="Path_107" data-name="Path 107" d="M195.115,388.3H185.1a7.515,7.515,0,0,0,0,15.03h10.02a7.515,7.515,0,0,0,0-15.03Z" fill="#2196f3"/>
  <path id="Path_108" data-name="Path 108" d="M40.755,357.988a50.475,50.475,0,0,1-2.785-8.249,7.515,7.515,0,1,0-14.6,3.557,65.489,65.489,0,0,0,3.619,10.716,7.515,7.515,0,1,0,13.769-6.024Z" fill="#2196f3"/>
  <path id="Path_109" data-name="Path 109" d="M89.91,388.3a73.814,73.814,0,0,1-9.08-.382,7.515,7.515,0,0,0-1.837,14.917,89.07,89.07,0,0,0,10.918.494,7.515,7.515,0,1,0,0-15.029Z" fill="#2196f3"/>
  <path id="Path_110" data-name="Path 110" d="M46.4,303.775a7.487,7.487,0,0,0,5.267-2.156,50.92,50.92,0,0,1,6.718-5.555A7.515,7.515,0,0,0,49.835,283.7a66.081,66.081,0,0,0-8.7,7.2A7.575,7.575,0,0,0,46.4,303.775Z" fill="#2196f3"/>
  <path id="Path_111" data-name="Path 111" d="M78.386,287.872a51.034,51.034,0,0,1,8.685-.743,7.515,7.515,0,0,0,0-15.03,66.131,66.131,0,0,0-11.249.963,7.515,7.515,0,0,0,2.564,14.81Z" fill="#2196f3"/>
</svg>
