<svg xmlns="http://www.w3.org/2000/svg" width="512.003" height="450.585" viewBox="0 0 512.003 450.585">
  <g id="_015-presentation" data-name="015-presentation" transform="translate(-2 -6.197)">
    <path id="Path_112" data-name="Path 112" d="M331.06,243.993H41.72a15.814,15.814,0,0,1-15.792-15.8V115.048a7.314,7.314,0,0,1,14.629,0V228.194a1.156,1.156,0,0,0,1.163,1.17H331.06a1.156,1.156,0,0,0,1.17-1.17V29.054H40.557v42.24a7.314,7.314,0,0,1-14.629,0V21.739a7.314,7.314,0,0,1,7.314-7.314H339.508a7.314,7.314,0,0,1,7.314,7.314V228.194a15.814,15.814,0,0,1-15.762,15.8Z" transform="translate(151.089 51.954)" fill="#2196f3"/>
    <path id="Path_113" data-name="Path 113" d="M58.464,107.369A50.586,50.586,0,1,1,109.057,56.78,50.584,50.584,0,0,1,58.464,107.369Zm0-86.521a35.957,35.957,0,1,0,35.965,35.96,35.956,35.956,0,0,0-35.965-35.96Z" transform="translate(37.16 0)" fill="#2196f3"/>
    <path id="Path_114" data-name="Path 114" d="M39.237,235.818A32.11,32.11,0,0,1,7.054,203.847V48.505a7.314,7.314,0,1,1,14.629,0V203.862A17.489,17.489,0,0,0,40.3,221.189a16.823,16.823,0,0,0,12.434-7.058,18.454,18.454,0,0,0,3.05-9.231c.388-4.242.592-8.558.592-12.829V74.691a7.314,7.314,0,1,1,14.629,0V192.064c0,4.718-.219,9.509-.651,14.175a32.71,32.71,0,0,1-5.786,16.494,31.407,31.407,0,0,1-23.406,13.056C40.546,235.818,39.888,235.818,39.237,235.818Z" transform="translate(31.913 220.964)" fill="#2196f3"/>
    <path id="Path_115" data-name="Path 115" d="M120.112,362.048c-.651,0-1.309,0-1.96-.059A31.408,31.408,0,0,1,94.746,348.94a32.7,32.7,0,0,1-5.793-16.494c-.432-4.7-.651-9.465-.651-14.168V200.92a7.314,7.314,0,1,1,14.629,0V318.293c0,4.257.2,8.572.585,12.829a18.446,18.446,0,0,0,3.057,9.231,16.823,16.823,0,0,0,12.456,7.066,17.5,17.5,0,0,0,18.564-17.313V85.932a21,21,0,0,1,20.97-20.978H228.89a14.694,14.694,0,0,0,10.335-4.279,14.4,14.4,0,0,0,4.191-10.24A14.578,14.578,0,0,0,228.89,35.807H55.095A38.5,38.5,0,0,0,16.629,74.295V177.427a11.235,11.235,0,0,0,11.293,11.147A10.745,10.745,0,0,0,39,177.953V86.458a7.314,7.314,0,0,1,14.629,0v91.495A25.278,25.278,0,0,1,28.368,203.2,25.98,25.98,0,0,1,2,177.427V74.295A53.153,53.153,0,0,1,55.095,21.2H228.912a29.191,29.191,0,1,1,0,58.383H158.585a6.349,6.349,0,0,0-6.342,6.349V330.1A32.125,32.125,0,0,1,120.112,362.048Z" transform="translate(0 94.734)" fill="#2196f3"/>
    <path id="Path_116" data-name="Path 116" d="M369.472,29.054H31.045a7.314,7.314,0,1,1,0-14.629H369.472a7.314,7.314,0,0,1,0,14.629Z" transform="translate(137.217 51.954)" fill="#2196f3"/>
    <path id="Path_117" data-name="Path 117" d="M369.472,58.44H31.045a7.314,7.314,0,1,1,0-14.629H369.472a7.314,7.314,0,0,1,0,14.629Z" transform="translate(137.217 237.507)" fill="#2196f3"/>
    <path id="Path_118" data-name="Path 118" d="M286.427,210.768H241.744a7.314,7.314,0,0,1-5.537-2.531l-74.438-86.243L87.295,208.237a7.314,7.314,0,0,1-5.537,2.531H37.14a7.314,7.314,0,0,1-5.5-12.134L125.146,91.844V51.125a7.314,7.314,0,0,1,7.314-7.314h58.683a7.314,7.314,0,0,1,7.314,7.314V91.354l93.484,107.287a7.314,7.314,0,0,1-5.515,12.12Zm-41.3-14.629h25.22L185.6,98.932a7.314,7.314,0,0,1-1.8-4.806V58.44H139.739V94.565a7.314,7.314,0,0,1-1.813,4.819L53.232,196.139H78.408l77.824-90.12a7.563,7.563,0,0,1,11.074,0Z" transform="translate(175.71 237.507)" fill="#2196f3"/>
  </g>
</svg>
