<svg xmlns="http://www.w3.org/2000/svg" width="480.002" height="480" viewBox="0 0 480.002 480">
  <g id="_016-infrastructure" data-name="016-infrastructure" transform="translate(-15.999 -16)">
    <path id="Path_119" data-name="Path 119" d="M472.249,152.788a95.987,95.987,0,0,0-53.379-30.9C402.119,60.921,346.211,16,280,16A144.026,144.026,0,0,0,158.907,82.036a55.986,55.986,0,0,0-69.286,40.6A96.007,96.007,0,0,0,37.946,277.094l12.336-10.188A80,80,0,0,1,112,136c2.43,0,4.88.109,7.282.326l1.436-15.936c-2.878-.259-5.812-.391-8.718-.391q-2.369,0-4.71.117a39.979,39.979,0,0,1,43.417-23.548c-2.01,4.1-3.854,8.3-5.48,12.607l14.971,5.648A128.023,128.023,0,0,1,408,160h16a144.471,144.471,0,0,0-1.5-20.746A80.4,80.4,0,0,1,480,216a79.479,79.479,0,0,1-14.541,46l13.082,9.213a96.014,96.014,0,0,0-6.292-118.427Z" fill="#2196f3"/>
    <circle id="Ellipse_1" data-name="Ellipse 1" cx="8" cy="8" r="8" transform="translate(80 352)" fill="#2196f3"/>
    <circle id="Ellipse_2" data-name="Ellipse 2" cx="8" cy="8" r="8" transform="translate(104 352)" fill="#2196f3"/>
    <circle id="Ellipse_3" data-name="Ellipse 3" cx="8" cy="8" r="8" transform="translate(128 352)" fill="#2196f3"/>
    <rect id="Rectangle_40" data-name="Rectangle 40" width="48" height="16" transform="translate(160 352)" fill="#2196f3"/>
    <circle id="Ellipse_4" data-name="Ellipse 4" cx="8" cy="8" r="8" transform="translate(80 288)" fill="#2196f3"/>
    <circle id="Ellipse_5" data-name="Ellipse 5" cx="8" cy="8" r="8" transform="translate(104 288)" fill="#2196f3"/>
    <circle id="Ellipse_6" data-name="Ellipse 6" cx="8" cy="8" r="8" transform="translate(128 288)" fill="#2196f3"/>
    <rect id="Rectangle_41" data-name="Rectangle 41" width="48" height="16" transform="translate(160 288)" fill="#2196f3"/>
    <path id="Path_120" data-name="Path 120" d="M208,192H88a32.037,32.037,0,0,0-32,32v16a31.927,31.927,0,0,0,10.871,24A31.925,31.925,0,0,0,56,288v16a31.927,31.927,0,0,0,10.871,24A31.925,31.925,0,0,0,56,352v16a32.037,32.037,0,0,0,32,32H208a32.037,32.037,0,0,0,32-32V352a31.927,31.927,0,0,0-10.871-24A31.925,31.925,0,0,0,240,304V288a31.927,31.927,0,0,0-10.871-24A31.925,31.925,0,0,0,240,240V224A32.037,32.037,0,0,0,208,192Zm16,160v16a16.018,16.018,0,0,1-16,16H88a16.018,16.018,0,0,1-16-16V352a16.018,16.018,0,0,1,16-16H208a16.018,16.018,0,0,1,16,16Zm0-64v16a16.018,16.018,0,0,1-16,16H88a16.018,16.018,0,0,1-16-16V288a16.018,16.018,0,0,1,16-16H208A16.018,16.018,0,0,1,224,288ZM88,256a16.018,16.018,0,0,1-16-16V224a16.018,16.018,0,0,1,16-16H208a16.018,16.018,0,0,1,16,16v16a16.018,16.018,0,0,1-16,16Z" fill="#2196f3"/>
    <circle id="Ellipse_7" data-name="Ellipse 7" cx="8" cy="8" r="8" transform="translate(80 224)" fill="#2196f3"/>
    <circle id="Ellipse_8" data-name="Ellipse 8" cx="8" cy="8" r="8" transform="translate(104 224)" fill="#2196f3"/>
    <circle id="Ellipse_9" data-name="Ellipse 9" cx="8" cy="8" r="8" transform="translate(128 224)" fill="#2196f3"/>
    <rect id="Rectangle_42" data-name="Rectangle 42" width="48" height="16" transform="translate(160 224)" fill="#2196f3"/>
    <path id="Path_121" data-name="Path 121" d="M424,232H360a32.037,32.037,0,0,0-32,32v48a32.037,32.037,0,0,0,32,32h64a32.037,32.037,0,0,0,32-32V264a32.037,32.037,0,0,0-32-32Zm16,32v4.305A31.792,31.792,0,0,0,424,264H406.833a15.911,15.911,0,0,1-14.31-8.844l-2.733-5.468c-.288-.577-.6-1.135-.919-1.688H424a16.018,16.018,0,0,1,16,16Zm0,48a16.018,16.018,0,0,1-16,16H360a16.018,16.018,0,0,1-16-16V264a16.018,16.018,0,0,1,16-16h1.167a15.911,15.911,0,0,1,14.311,8.844l2.733,5.468A31.826,31.826,0,0,0,406.833,280H424a16.018,16.018,0,0,1,16,16Z" fill="#2196f3"/>
    <path id="Path_122" data-name="Path 122" d="M424,384H360a32.037,32.037,0,0,0-32,32v48a32.037,32.037,0,0,0,32,32h64a32.037,32.037,0,0,0,32-32V416a32.037,32.037,0,0,0-32-32Zm16,32v4.305A31.792,31.792,0,0,0,424,416H406.833a15.911,15.911,0,0,1-14.31-8.844l-2.733-5.468c-.288-.577-.6-1.135-.919-1.688H424a16.018,16.018,0,0,1,16,16Zm0,48a16.018,16.018,0,0,1-16,16H360a16.018,16.018,0,0,1-16-16V416a16.018,16.018,0,0,1,16-16h1.167a15.911,15.911,0,0,1,14.311,8.844l2.733,5.468A31.826,31.826,0,0,0,406.833,432H424a16.018,16.018,0,0,1,16,16Z" fill="#2196f3"/>
    <path id="Path_123" data-name="Path 123" d="M248,280v16h24V448a8,8,0,0,0,8,8h32V440H288V296h24V280Z" fill="#2196f3"/>
  </g>
</svg>
