<svg xmlns="http://www.w3.org/2000/svg" width="512" height="511.989" viewBox="0 0 512 511.989">
  <g id="_017-visual" data-name="017-visual" transform="translate(0 -0.006)">
    <g id="Group_93" data-name="Group 93">
      <g id="Group_92" data-name="Group 92">
        <path id="Path_124" data-name="Path 124" d="M336.023,277.284,263.892,184.4a10,10,0,0,0-15.8,0l-72.131,92.882a10,10,0,0,0,3.838,15.272L251.934,324.6a10,10,0,0,0,8.12,0l72.131-32.048a10,10,0,0,0,3.838-15.272Zm-90.1,22.763-46.326-20.582,46.326-59.654Zm20,.066V219.619l46.475,59.844Z" fill="#2196f3"/>
      </g>
    </g>
    <g id="Group_95" data-name="Group 95">
      <g id="Group_94" data-name="Group 94">
        <path id="Path_125" data-name="Path 125" d="M217.979,28.006H76v-18a10,10,0,0,0-10-10H10a10,10,0,0,0-10,10V66A10,10,0,0,0,10,76H28v77a10,10,0,0,0,20,0V76H66A10,10,0,0,0,76,66V48H217.979a10,10,0,1,0,0-20ZM56,56.006H20v-36H56Z" fill="#2196f3"/>
      </g>
    </g>
    <g id="Group_97" data-name="Group 97">
      <g id="Group_96" data-name="Group 96">
        <path id="Path_126" data-name="Path 126" d="M502,.007H446a10,10,0,0,0-10,10v18H293.659a10,10,0,1,0,0,20H436v18a10,10,0,0,0,10,10h18v77a10,10,0,0,0,20,0V76h18a10,10,0,0,0,10-10v-56A10,10,0,0,0,502,.007Zm-10,56H456v-36h36Z" fill="#2196f3"/>
      </g>
    </g>
    <g id="Group_99" data-name="Group 99">
      <g id="Group_98" data-name="Group 98">
        <path id="Path_127" data-name="Path 127" d="M502,435.995H484V352a10,10,0,1,0-20,0v84H446a10,10,0,0,0-10,10v18H293.659a10,10,0,1,0,0,20H436v18a10,10,0,0,0,10,10h56a10,10,0,0,0,10-10V446A10,10,0,0,0,502,435.995Zm-10,56H456v-36h36Z" fill="#2196f3"/>
      </g>
    </g>
    <g id="Group_101" data-name="Group 101">
      <g id="Group_100" data-name="Group 100">
        <path id="Path_128" data-name="Path 128" d="M217.979,463.994H76v-18a10,10,0,0,0-10-10H48V352a10,10,0,0,0-20,0v84H10a10,10,0,0,0-10,10v56a10,10,0,0,0,10,10H66a10,10,0,0,0,10-10v-18H217.979a10,10,0,1,0,0-20ZM56,491.994H20v-36H56Z" fill="#2196f3"/>
      </g>
    </g>
    <g id="Group_103" data-name="Group 103">
      <g id="Group_102" data-name="Group 102">
        <path id="Path_129" data-name="Path 129" d="M263.062,466.924a9.991,9.991,0,1,0,2.931,7.07A10.067,10.067,0,0,0,263.062,466.924Z" fill="#2196f3"/>
      </g>
    </g>
    <g id="Group_105" data-name="Group 105">
      <g id="Group_104" data-name="Group 104">
        <path id="Path_130" data-name="Path 130" d="M263.062,30.936a9.991,9.991,0,1,0,2.931,7.07A10.072,10.072,0,0,0,263.062,30.936Z" fill="#2196f3"/>
      </g>
    </g>
    <g id="Group_107" data-name="Group 107">
      <g id="Group_106" data-name="Group 106">
        <path id="Path_131" data-name="Path 131" d="M510.685,251.068a292.614,292.614,0,0,0-509.384,0,10,10,0,0,0,0,9.863,294.139,294.139,0,0,0,105.231,107.5,292.842,292.842,0,0,0,298.922,0,294.154,294.154,0,0,0,105.231-107.5A10,10,0,0,0,510.685,251.068ZM255.993,389.442A273.309,273.309,0,0,1,21.562,256a272.645,272.645,0,0,1,468.862,0A273.307,273.307,0,0,1,255.993,389.442Z" fill="#2196f3"/>
      </g>
    </g>
    <g id="Group_109" data-name="Group 109">
      <g id="Group_108" data-name="Group 108">
        <path id="Path_132" data-name="Path 132" d="M255.993,138a118,118,0,1,0,118,118A118.132,118.132,0,0,0,255.993,138Zm0,215.994a98,98,0,1,1,98-98A98.108,98.108,0,0,1,255.993,354Z" fill="#2196f3"/>
      </g>
    </g>
    <g id="Group_111" data-name="Group 111">
      <g id="Group_110" data-name="Group 110">
        <path id="Path_133" data-name="Path 133" d="M468.056,248.93a9.991,9.991,0,1,0,2.931,7.07A10.072,10.072,0,0,0,468.056,248.93Z" fill="#2196f3"/>
      </g>
    </g>
    <g id="Group_113" data-name="Group 113">
      <g id="Group_112" data-name="Group 112">
        <path id="Path_134" data-name="Path 134" d="M435.127,248.93a9.994,9.994,0,1,0,2.93,7.07A10.092,10.092,0,0,0,435.127,248.93Z" fill="#2196f3"/>
      </g>
    </g>
    <g id="Group_115" data-name="Group 115">
      <g id="Group_114" data-name="Group 114">
        <path id="Path_135" data-name="Path 135" d="M403.149,248.93a9.994,9.994,0,1,0,2.93,7.07A10.076,10.076,0,0,0,403.149,248.93Z" fill="#2196f3"/>
      </g>
    </g>
    <g id="Group_117" data-name="Group 117">
      <g id="Group_116" data-name="Group 116">
        <path id="Path_136" data-name="Path 136" d="M124.066,248.93A9.991,9.991,0,1,0,127,256,10.072,10.072,0,0,0,124.066,248.93Z" fill="#2196f3"/>
      </g>
    </g>
    <g id="Group_119" data-name="Group 119">
      <g id="Group_118" data-name="Group 118">
        <path id="Path_137" data-name="Path 137" d="M90.078,248.93a9.994,9.994,0,1,0,2.93,7.07A10.076,10.076,0,0,0,90.078,248.93Z" fill="#2196f3"/>
      </g>
    </g>
    <g id="Group_121" data-name="Group 121">
      <g id="Group_120" data-name="Group 120">
        <path id="Path_138" data-name="Path 138" d="M57.067,248.93A9.991,9.991,0,1,0,60,256,10.067,10.067,0,0,0,57.067,248.93Z" fill="#2196f3"/>
      </g>
    </g>
  </g>
</svg>
