<svg xmlns="http://www.w3.org/2000/svg" width="460" height="512" viewBox="0 0 460 512">
  <g id="_018-parachute" data-name="018-parachute" transform="translate(-26)">
    <path id="Path_139" data-name="Path 139" d="M236,449H196a10,10,0,0,0,0,20h40a10,10,0,0,0,0-20Z" fill="#2196f3"/>
    <path id="Path_140" data-name="Path 140" d="M30.926,238.617,179.313,326H156a10,10,0,0,0-10,10V502a10,10,0,0,0,10,10h55a10,10,0,1,0,0-20H166V386h40v30a10,10,0,0,0,17.071,7.072L256,390.142l32.929,32.929A10,10,0,0,0,306,416V386h40V492H301a10,10,0,0,0,0,20h55a10,10,0,0,0,10-10V336a10,10,0,0,0-10-10H332.687l148.387-87.383A10.041,10.041,0,0,0,486,230C486,102.889,383.131,0,256,0h-.178C128.792.094,26,102.937,26,230a10.046,10.046,0,0,0,4.926,8.617ZM206,366H166V346h40ZM54.751,229.437C63.651,224.873,77.485,220,96,220c31.523,0,49.458,14.1,52.6,16.8l65.08,86.231Zm114.439,1.439C179.6,221.475,205.019,203,246,200.338V326h-5.019ZM286,391.858l-22.929-22.929a10,10,0,0,0-14.143,0L226,391.858V346h60ZM271.019,326H266V200.337c40.916,2.667,66.372,21.16,76.8,30.554ZM346,346v20H306V346Zm-47.684-22.969,65.074-86.223C366.657,234.009,384.578,220,416,220c18.524,0,32.35,4.871,41.249,9.437Zm166.84-111.944A110.016,110.016,0,0,0,416,200c-22,0-38.861,5.833-50.163,11.6C363.7,142.459,336.813,73.6,284.3,21.914,380.608,34.946,456.4,113.5,465.156,211.087ZM255.919,23.034c71.767,61.06,87.308,139.15,89.68,184.448C328.327,195.04,298.634,180,256,180c-42.774,0-72.531,15.151-89.78,27.615,2.341-45.281,17.832-123.46,89.7-184.581Zm-28.41-1.094c-52.051,51.242-79.342,119.833-81.516,189.57C134.692,205.774,117.888,200,96,200a110.032,110.032,0,0,0-49.155,11.087C55.589,113.586,131.3,35.052,227.509,21.94Z" fill="#2196f3"/>
    <circle id="Ellipse_10" data-name="Ellipse 10" cx="10" cy="10" r="10" transform="translate(246 492)" fill="#2196f3"/>
  </g>
</svg>
