<svg id="_019-analytics" data-name="019-analytics" xmlns="http://www.w3.org/2000/svg" width="512" height="512" viewBox="0 0 512 512">
  <path id="Path_141" data-name="Path 141" d="M502,452H476V342.168a10,10,0,0,0-20,0V452H404V142.332h52V252.164a10,10,0,0,0,20,0V132.332a10,10,0,0,0-10-10H394a10,10,0,0,0-10,10V452H360V207.668a10,10,0,0,0-10-10H278a10,10,0,0,0-10,10V452H243.668V327a10,10,0,0,0-10-10h-72a10,10,0,0,0-10,10V452H128V390a10,10,0,0,0-10-10H46a10,10,0,0,0-10,10v62H10A10,10,0,0,0,0,462v40a10,10,0,0,0,10,10H502a10,10,0,0,0,10-10V462A10,10,0,0,0,502,452ZM288,217.668h52V452H288ZM171.668,337h52V452h-52ZM56,400h52v52H56Zm436,92H20V472H492Zm0,0" fill="#2196f3"/>
  <path id="Path_142" data-name="Path 142" d="M46,180.16H89.07a535.713,535.713,0,0,0,118.609-13.316A534.016,534.016,0,0,0,456.624,33.86v5.68a10,10,0,0,0,20,0V10a10,10,0,0,0-10-10H437.085a10,10,0,1,0,0,20h5.094A514.112,514.112,0,0,1,203.245,147.344,515.783,515.783,0,0,1,89.069,160.161H46a10,10,0,0,0,0,20Zm0,0" fill="#2196f3"/>
  <path id="Path_143" data-name="Path 143" d="M466,287.172a10,10,0,1,0,7.07,2.93A10.03,10.03,0,0,0,466,287.172Zm0,0" fill="#2196f3"/>
</svg>
