<svg xmlns="http://www.w3.org/2000/svg" width="497.44" height="496" viewBox="0 0 497.44 496">
  <g id="_020-analytics-1" data-name="020-analytics-1" transform="translate(0 -0.72)">
    <g id="Group_123" data-name="Group 123">
      <g id="Group_122" data-name="Group 122">
        <path id="Path_144" data-name="Path 144" d="M83.448,295.408a39.656,39.656,0,0,0,9.712,16.336L127.1,345.688a23.828,23.828,0,0,0,16.976,7.032h34.744a23.855,23.855,0,0,0,16.976-7.032l33.944-33.944a39.627,39.627,0,0,0,9.488-15.608,31.847,31.847,0,0,0,10.208-58.968V200.72A32.052,32.052,0,0,0,222.4,169.1a65.482,65.482,0,0,0-56.736-32.384H161.44a88.1,88.1,0,0,0-88,88v14.2a30.85,30.85,0,0,0,10.008,56.488ZM241.44,250.944a15.861,15.861,0,0,1,0,27.552Zm-16,32.528a24.155,24.155,0,0,1-7.024,16.96l-33.944,33.944a7.95,7.95,0,0,1-5.664,2.344H144.064a7.964,7.964,0,0,1-5.664-2.344l-33.944-33.944a24.188,24.188,0,0,1-7.024-16.968V248.72h29.5a71.527,71.527,0,0,0,50.912-21.088l6.744-6.736a72.411,72.411,0,0,0,40.856,25.992Zm-136-58.752a72.088,72.088,0,0,1,72-72h4.224A49.624,49.624,0,0,1,210.288,180.3l2.208,4.424h4.944a16.016,16.016,0,0,1,16,16v31.352a56.273,56.273,0,0,1-36.8-21.752L186.3,196.544,166.528,216.32a55.635,55.635,0,0,1-39.6,16.4H89.44Zm-8,27.976v24.848a14.913,14.913,0,0,1,0-24.848Z" fill="#2196f3"/>
        <path id="Path_145" data-name="Path 145" d="M259.992,374.216,217.44,362.608V352.72h-16v15.208L196.088,394.7,172.1,376.72H150.768L126.792,394.7l-5.352-26.776V352.72h-16v9.888L62.888,374.216A72.182,72.182,0,0,0,10.816,431.84L0,496.72H322.888l-10.816-64.872A72.2,72.2,0,0,0,259.992,374.216Zm-136.8,106.5H74.664l6.7-46.864-15.832-2.264L58.5,480.72H18.888l7.7-46.248a56.154,56.154,0,0,1,40.5-44.816L107.28,378.7l8.808,44.04,12.28-9.208,8.456,12.688Zm16.5,0,14.376-57.5-12.88-19.312L156.1,392.72h10.664L181.7,403.912l-12.88,19.312,14.376,57.5Zm124.688,0-7.016-49.136-15.832,2.264,6.7,46.864H199.7l-13.624-54.5,8.456-12.688,12.28,9.208,8.808-44.04,40.184,10.96a56.164,56.164,0,0,1,40.5,44.824l7.688,46.248H264.376Z" fill="#2196f3"/>
        <path id="Path_146" data-name="Path 146" d="M473.44.72h-320a24,24,0,0,0,0,48h320a24,24,0,0,0,0-48Zm0,32h-320a8,8,0,1,1,0-16h320a8,8,0,0,1,0,16Z" fill="#2196f3"/>
        <path id="Path_147" data-name="Path 147" d="M465.44,296.72h-208v16h224v-248h-16Z" fill="#2196f3"/>
        <rect id="Rectangle_43" data-name="Rectangle 43" width="16" height="56" transform="translate(145.44 64.72)" fill="#2196f3"/>
        <path id="Path_148" data-name="Path 148" d="M237.88,167.376l29.256-19.5a23.605,23.605,0,0,0,28.2.344L338.4,178.36a23.97,23.97,0,1,0,43.368-6.248L417.616,127.3a23.746,23.746,0,0,0,7.824,1.416,24,24,0,1,0-24-24,23.753,23.753,0,0,0,3.672,12.608l-35.848,44.808a23.2,23.2,0,0,0-21.72,3.088L304.48,135.08a23.956,23.956,0,1,0-47.04-6.36,23.5,23.5,0,0,0,.808,5.848l-29.24,19.5ZM425.44,96.72a8,8,0,1,1-8,8A8.013,8.013,0,0,1,425.44,96.72Zm-64,80a8,8,0,1,1-8,8A8.013,8.013,0,0,1,361.44,176.72Zm-80-56a8,8,0,1,1-8,8A8.013,8.013,0,0,1,281.44,120.72Z" fill="#2196f3"/>
        <rect id="Rectangle_44" data-name="Rectangle 44" width="112" height="16" transform="translate(337.44 264.72)" fill="#2196f3"/>
        <rect id="Rectangle_45" data-name="Rectangle 45" width="80" height="16" transform="translate(337.44 232.72)" fill="#2196f3"/>
        <rect id="Rectangle_46" data-name="Rectangle 46" width="16" height="16" transform="translate(433.44 232.72)" fill="#2196f3"/>
      </g>
    </g>
  </g>
</svg>
