<svg xmlns="http://www.w3.org/2000/svg" width="512" height="493.9" viewBox="0 0 512 493.9">
  <g id="_021-health-insurance" data-name="021-health-insurance" transform="translate(0 -9.05)">
    <g id="Group_125" data-name="Group 125">
      <g id="Group_124" data-name="Group 124">
        <path id="Path_149" data-name="Path 149" d="M237.3,446.379H112.756a7.5,7.5,0,1,0,0,15H237.3a7.5,7.5,0,1,0,0-15Z" fill="#2196f3"/>
      </g>
    </g>
    <g id="Group_127" data-name="Group 127">
      <g id="Group_126" data-name="Group 126">
        <path id="Path_150" data-name="Path 150" d="M431.78,191.576a7.5,7.5,0,0,0,7.5-7.5V51.853a42.794,42.794,0,0,0-42.8-42.8H42.817A42.859,42.859,0,0,0,0,51.853v72.115a7.5,7.5,0,0,0,7.5,7.5H48.119a7.5,7.5,0,0,0,0-15H15V51.853a27.81,27.81,0,1,1,55.619,0v443.6a7.5,7.5,0,0,0,7.5,7.5H431.777a7.5,7.5,0,0,0,7.5-7.5v-25.7a7.5,7.5,0,0,0-15,0v18.2H85.619V51.853c0-.681-.018-1.36-.049-2.036-.01-.224-.03-.447-.044-.671-.028-.451-.057-.9-.1-1.351-.024-.262-.057-.521-.086-.782-.046-.41-.093-.819-.15-1.225-.038-.272-.083-.543-.126-.814-.063-.392-.129-.782-.2-1.171-.052-.275-.108-.549-.165-.823q-.12-.574-.256-1.144c-.065-.271-.131-.542-.2-.811-.1-.382-.205-.762-.315-1.14-.076-.26-.15-.521-.23-.78-.121-.391-.252-.778-.384-1.164-.083-.241-.162-.483-.249-.723-.153-.422-.318-.839-.484-1.255-.079-.2-.153-.4-.235-.6q-.36-.864-.759-1.712c-.016-.034-.03-.07-.046-.1-.284-.6-.585-1.194-.9-1.782-.094-.177-.2-.35-.293-.526-.223-.405-.448-.809-.685-1.208-.13-.219-.268-.433-.4-.65-.216-.349-.433-.7-.66-1.041-.152-.23-.309-.457-.466-.684-.223-.323-.447-.645-.679-.963-.169-.231-.341-.459-.514-.687q-.351-.46-.713-.913c-.183-.227-.367-.453-.555-.677-.1-.122-.2-.248-.3-.369H396.478a27.8,27.8,0,0,1,27.8,27.8V184.076A7.5,7.5,0,0,0,431.78,191.576Z" fill="#2196f3"/>
      </g>
    </g>
    <g id="Group_129" data-name="Group 129">
      <g id="Group_128" data-name="Group 128">
        <path id="Path_151" data-name="Path 151" d="M511.8,270.085a7.5,7.5,0,0,0-6.2-7.061,68.463,68.463,0,0,1-53.731-48.357,7.5,7.5,0,0,0-7.211-5.438H322.269a7.5,7.5,0,0,0-7.211,5.438,67.419,67.419,0,0,1-7.429,16.81H112.756a7.5,7.5,0,0,0,0,15h182.38a68.013,68.013,0,0,1-33.809,16.548,7.5,7.5,0,0,0-6.2,7.061c-.136,3.115-.205,6.192-.205,9.146a208.339,208.339,0,0,0,1.376,23.88H112.756a7.5,7.5,0,0,0,0,15H258.582a206.774,206.774,0,0,0,19.624,56.635H112.756a7.5,7.5,0,0,0,0,15H286.808a207.023,207.023,0,0,0,93.7,79.931,7.508,7.508,0,0,0,5.91,0A206.993,206.993,0,0,0,512,279.23C512,276.277,511.931,273.2,511.8,270.085ZM383.458,454.593A192,192,0,0,1,297.7,378.821a7.486,7.486,0,0,0-.556-.913,191.971,191.971,0,0,1-27.221-98.677q0-1.342.021-2.719A83.686,83.686,0,0,0,317.444,243.8a7.552,7.552,0,0,0,.738-1.055,82.592,82.592,0,0,0,9.537-18.516H439.2a83.691,83.691,0,0,0,57.779,52.282q.021,1.375.021,2.719A191.992,191.992,0,0,1,383.458,454.593Z" fill="#2196f3"/>
      </g>
    </g>
    <g id="Group_131" data-name="Group 131">
      <g id="Group_130" data-name="Group 130">
        <path id="Path_152" data-name="Path 152" d="M436.717,302.76H411.145V277.188a7.5,7.5,0,0,0-7.5-7.5H363.273a7.5,7.5,0,0,0-7.5,7.5V302.76H330.2a7.5,7.5,0,0,0-7.5,7.5v40.372a7.5,7.5,0,0,0,7.5,7.5h25.572V383.7a7.5,7.5,0,0,0,7.5,7.5h40.372a7.5,7.5,0,0,0,7.5-7.5V358.132h25.572a7.5,7.5,0,0,0,7.5-7.5V310.26A7.5,7.5,0,0,0,436.717,302.76Zm-33.072,40.372a7.5,7.5,0,0,0-7.5,7.5V376.2H370.773V350.632a7.5,7.5,0,0,0-7.5-7.5H337.7V317.76h25.572a7.5,7.5,0,0,0,7.5-7.5V284.688h25.372V310.26a7.5,7.5,0,0,0,7.5,7.5h25.572v25.372H403.645Z" fill="#2196f3"/>
      </g>
    </g>
    <g id="Group_133" data-name="Group 133">
      <g id="Group_132" data-name="Group 132">
        <path id="Path_153" data-name="Path 153" d="M179.843,45.862a74.582,74.582,0,1,0,0,149.164q2.487,0,4.959-.164a74.582,74.582,0,0,0-4.959-149ZM206.187,173.9c-.074.036-.149.07-.223.107q-1.32.645-2.669,1.223c-.094.04-.187.084-.282.124-.924.39-1.859.751-2.8,1.093l-.511.185q-1.391.49-2.8.913c-.165.049-.332.1-.5.143-.976.281-1.958.545-2.948.776-.059.014-.12.025-.179.039-.972.224-1.952.42-2.936.6-.133.024-.265.051-.4.073-.981.168-1.968.307-2.958.426-.186.023-.373.044-.56.065q-1.478.163-2.966.256c-.16.01-.32.015-.48.024-1.04.055-2.083.09-3.129.09s-2.09-.04-3.13-.094c-.16-.008-.32-.014-.479-.024-.992-.06-1.98-.147-2.965-.255l-.561-.065c-.989-.119-1.975-.258-2.955-.426-.135-.023-.27-.05-.4-.074-.977-.174-1.95-.369-2.916-.592-.066-.015-.133-.028-.2-.044-.984-.23-1.961-.492-2.931-.771-.172-.05-.345-.1-.517-.149q-1.4-.419-2.786-.906c-.179-.063-.358-.129-.537-.194-.934-.34-1.862-.7-2.778-1.084-.1-.044-.207-.092-.311-.137q-1.329-.57-2.63-1.205l-.241-.115V169.1a26.381,26.381,0,0,1,9.4-20.16c.076.051.157.093.234.143.462.3.932.585,1.408.859.149.085.3.172.447.255.562.31,1.132.6,1.711.879.121.057.245.108.367.164q.726.331,1.467.623c.178.07.356.141.535.208.593.221,1.191.428,1.8.612.121.037.244.067.366.1q.771.224,1.555.4.3.069.592.134c.621.132,1.245.251,1.877.345.1.015.209.024.313.039q.831.114,1.673.183c.207.017.415.033.624.046.6.038,1.2.062,1.809.066.056,0,.111.006.167.006s.109-.006.164-.006c.607,0,1.211-.028,1.812-.066q.308-.02.614-.045c.581-.048,1.16-.109,1.735-.189.085-.012.17-.02.255-.032.634-.094,1.26-.214,1.884-.346.189-.04.378-.083.566-.127.559-.13,1.114-.273,1.663-.433.084-.024.169-.044.253-.07.615-.186,1.22-.4,1.82-.62.174-.065.347-.133.52-.2.521-.205,1.036-.422,1.544-.655.1-.044.192-.083.287-.127.576-.271,1.141-.565,1.7-.873.169-.093.336-.189.5-.285q.69-.4,1.36-.829c.089-.058.183-.107.272-.166q.867.729,1.674,1.537a26.166,26.166,0,0,1,7.716,18.626V173.9Zm-42.148-50.7V109.608a15.8,15.8,0,1,1,31.608,0V123.2a15.681,15.681,0,0,1-4.54,11.09l-.087.087c-.329.329-.674.635-1.027.931-.053.045-.1.1-.157.139-.322.264-.658.505-1,.74-.087.061-.169.129-.258.188-.321.214-.655.4-.989.593-.113.064-.221.137-.336.2-.333.177-.677.331-1.021.483-.122.054-.24.118-.364.169-.369.152-.748.28-1.128.4-.1.034-.206.078-.311.11-.446.134-.9.244-1.358.339-.043.009-.085.023-.128.032a15.991,15.991,0,0,1-3.1.3,15.723,15.723,0,0,1-7.545-1.912,15.955,15.955,0,0,1-3.694-2.777l0,0A15.714,15.714,0,0,1,164.039,123.2Zm56.784,40.473a41.024,41.024,0,0,0-11.746-23.806q-1.036-1.035-2.14-1.99a30.656,30.656,0,0,0,3.71-14.677V109.608a30.8,30.8,0,0,0-61.608,0V123.2a30.662,30.662,0,0,0,3.715,14.686,41.443,41.443,0,0,0-13.891,25.789,59.588,59.588,0,1,1,81.96,0Z" fill="#2196f3"/>
      </g>
    </g>
    <g id="Group_135" data-name="Group 135">
      <g id="Group_134" data-name="Group 134">
        <path id="Path_154" data-name="Path 154" d="M397.141,85.256H282.748a7.5,7.5,0,0,0-7.5,7.5v55.375a7.5,7.5,0,0,0,7.5,7.5H397.141a7.5,7.5,0,0,0,7.5-7.5V92.756A7.5,7.5,0,0,0,397.141,85.256Zm-7.5,55.375H290.248V100.256h99.393Z" fill="#2196f3"/>
      </g>
    </g>
  </g>
</svg>
