<svg xmlns="http://www.w3.org/2000/svg" width="512" height="511.98" viewBox="0 0 512 511.98">
  <g id="_022-financial" data-name="022-financial" transform="translate(0 -0.009)">
    <g id="Group_137" data-name="Group 137">
      <g id="Group_136" data-name="Group 136">
        <path id="Path_155" data-name="Path 155" d="M399.958,164.532a173.208,173.208,0,0,0-52.575-52.554A170.33,170.33,0,0,0,218.825,89.507a165.978,165.978,0,0,0-54.275,22.521A172.944,172.944,0,0,0,112,164.611a169.156,169.156,0,0,0-22.483,128.55,166.158,166.158,0,0,0,22.525,54.288A173.106,173.106,0,0,0,164.617,400a169.209,169.209,0,0,0,128.558,22.475,166.009,166.009,0,0,0,54.275-22.525A172.986,172.986,0,0,0,400,347.37a169.156,169.156,0,0,0,22.483-128.55A166.137,166.137,0,0,0,399.958,164.532Zm5.925,124.646h0a149.535,149.535,0,0,1-20.258,49,155.959,155.959,0,0,1-47.367,47.4,153.277,153.277,0,0,1-115.442,20.3,149.8,149.8,0,0,1-49-20.254,155.942,155.942,0,0,1-47.4-47.375,152.088,152.088,0,0,1-20.3-115.446,149.535,149.535,0,0,1,20.258-49,155.91,155.91,0,0,1,47.375-47.4,152.224,152.224,0,0,1,115.458-20.3,149.712,149.712,0,0,1,48.975,20.254,156.043,156.043,0,0,1,47.4,47.379A152.081,152.081,0,0,1,405.883,289.178Z" fill="#2196f3"/>
        <path id="Path_156" data-name="Path 156" d="M282.108,372.482a119.159,119.159,0,0,1-89.85-15.579,121.943,121.943,0,0,1-37.058-37,115.9,115.9,0,0,1-15.7-37.8,117.321,117.321,0,0,1-2.967-26.112,8.533,8.533,0,1,0-17.066,0,133.987,133.987,0,0,0,3.383,29.85A132.637,132.637,0,0,0,140.825,329.1a138.928,138.928,0,0,0,42.242,42.175,133.5,133.5,0,0,0,43.667,17.987A130.823,130.823,0,0,0,256,392.525a133.835,133.835,0,0,0,29.925-3.408,8.534,8.534,0,1,0-3.818-16.635Z" fill="#2196f3"/>
        <path id="Path_157" data-name="Path 157" d="M328.933,140.7a136.181,136.181,0,0,0-102.858-17.829,8.533,8.533,0,0,0,3.816,16.633,119.105,119.105,0,0,1,89.842,15.571,121.91,121.91,0,0,1,37.067,37,115.737,115.737,0,0,1,15.683,37.733,8.533,8.533,0,0,0,16.667-3.667,132.616,132.616,0,0,0-17.975-43.263A139.04,139.04,0,0,0,328.933,140.7Z" fill="#2196f3"/>
        <path id="Path_158" data-name="Path 158" d="M508.108,211.82a8.532,8.532,0,0,0-8.4-7.029H454.233a199.524,199.524,0,0,0-21.875-52.758l32.175-32.175a8.527,8.527,0,0,0,.958-10.921A251.51,251.51,0,0,0,403.049,46.5a8.52,8.52,0,0,0-10.917.962L359.957,79.637A199.524,199.524,0,0,0,307.2,57.762V12.278a8.531,8.531,0,0,0-7.033-8.4,254.058,254.058,0,0,0-88.333,0,8.531,8.531,0,0,0-7.033,8.4V57.761a199.524,199.524,0,0,0-52.758,21.875L119.867,47.461A8.52,8.52,0,0,0,108.95,46.5a251.51,251.51,0,0,0-62.442,62.437,8.528,8.528,0,0,0,.958,10.921l32.175,32.175A199.524,199.524,0,0,0,57.766,204.79H12.292a8.532,8.532,0,0,0-8.4,7.029,252.614,252.614,0,0,0,0,88.342,8.532,8.532,0,0,0,8.4,7.029H57.767a199.524,199.524,0,0,0,21.875,52.758L47.467,392.123a8.527,8.527,0,0,0-.958,10.921,251.493,251.493,0,0,0,62.442,62.437,8.541,8.541,0,0,0,10.917-.962l32.175-32.175A199.524,199.524,0,0,0,204.8,454.219V499.7a8.531,8.531,0,0,0,7.033,8.4,252.852,252.852,0,0,0,88.333,0,8.531,8.531,0,0,0,7.033-8.4V454.22a199.524,199.524,0,0,0,52.758-21.875l32.175,32.175a8.538,8.538,0,0,0,10.917.962,251.5,251.5,0,0,0,62.442-62.438,8.528,8.528,0,0,0-.958-10.921l-32.175-32.175a199.524,199.524,0,0,0,21.875-52.758h45.475a8.532,8.532,0,0,0,8.4-7.029A252.632,252.632,0,0,0,508.108,211.82Zm-15.658,78.3H447.492a8.529,8.529,0,0,0-8.333,6.7A182.719,182.719,0,0,1,414.367,356.6a8.532,8.532,0,0,0,1.15,10.646l31.817,31.817a234.6,234.6,0,0,1-48.267,48.263L367.25,415.5a8.549,8.549,0,0,0-10.65-1.146,182.69,182.69,0,0,1-59.767,24.788,8.533,8.533,0,0,0-6.7,8.333V492.45a237.824,237.824,0,0,1-68.267,0V447.479a8.532,8.532,0,0,0-6.7-8.333A182.656,182.656,0,0,1,155.4,414.358a8.525,8.525,0,0,0-10.65,1.146l-31.817,31.817a234.572,234.572,0,0,1-48.267-48.263l31.817-31.817a8.532,8.532,0,0,0,1.15-10.646A182.719,182.719,0,0,1,72.84,296.824a8.529,8.529,0,0,0-8.334-6.7H19.55a235.832,235.832,0,0,1,0-68.267H64.508a8.529,8.529,0,0,0,8.333-6.7,182.719,182.719,0,0,1,24.792-59.771,8.532,8.532,0,0,0-1.15-10.646L64.666,112.923a234.568,234.568,0,0,1,48.267-48.262L144.75,96.478a8.528,8.528,0,0,0,10.65,1.146,182.69,182.69,0,0,1,59.767-24.788,8.533,8.533,0,0,0,6.7-8.333V19.532a237.823,237.823,0,0,1,68.267,0V64.5a8.532,8.532,0,0,0,6.7,8.333A182.646,182.646,0,0,1,356.6,97.624a8.552,8.552,0,0,0,10.65-1.146l31.817-31.817a234.573,234.573,0,0,1,48.267,48.263l-31.817,31.817a8.532,8.532,0,0,0-1.15,10.646,182.719,182.719,0,0,1,24.792,59.771,8.53,8.53,0,0,0,8.334,6.7h44.958A235.889,235.889,0,0,1,492.45,290.124Z" fill="#2196f3"/>
        <path id="Path_159" data-name="Path 159" d="M330.3,193.757a8.532,8.532,0,0,0-12.066-12.066l-8.157,8.157a49.422,49.422,0,0,0-64.659.947,44.19,44.19,0,0,0-12.45,35.325,56.159,56.159,0,0,0,11.477,29.36l-42.411,42.411a31.967,31.967,0,0,1,.834-40.417A8.533,8.533,0,1,0,190.8,245.407a49.419,49.419,0,0,0-.945,64.662l-8.155,8.155a8.532,8.532,0,1,0,12.066,12.066l8.092-8.092a55.846,55.846,0,0,0,33.283,11.546,43.157,43.157,0,0,0,43.891-47.884,56.159,56.159,0,0,0-11.477-29.36l42.411-42.411a31.967,31.967,0,0,1-.834,40.417A8.533,8.533,0,1,0,321.2,266.573a49.419,49.419,0,0,0,.945-64.662ZM254.516,309.12a31.973,31.973,0,0,1-40.417.837L255.354,268.7a38.672,38.672,0,0,1,6.662,18.467h0A27.4,27.4,0,0,1,254.516,309.12Zm2.129-65.842a38.672,38.672,0,0,1-6.662-18.467h0a27.406,27.406,0,0,1,7.5-21.95,31.944,31.944,0,0,1,40.417-.837Z" fill="#2196f3"/>
      </g>
    </g>
  </g>
</svg>
