<?xml version="1.0" encoding="utf-8"?>
<!-- Generator: Adobe Illustrator 16.0.0, SVG Export Plug-In . SVG Version: 6.00 Build 0)  -->
<!DOCTYPE svg PUBLIC "-//W3C//DTD SVG 1.1//EN" "http://www.w3.org/Graphics/SVG/1.1/DTD/svg11.dtd">
<svg version="1.1" id="Layer_1" xmlns="http://www.w3.org/2000/svg" xmlns:xlink="http://www.w3.org/1999/xlink" x="0px" y="0px"
	 width="464.043px" height="496.001px" viewBox="7.966 8 464.043 496.001" enable-background="new 7.966 8 464.043 496.001"
	 xml:space="preserve">
<g id="Ai-7">
	<path fill="#FFFFFF" d="M160,152c-13.255,0-24-10.745-24-24c0-4.418-3.582-8-8-8c-4.419,0-8,3.582-8,8
		c0.026,22.081,17.919,39.974,40,40c4.418,0,8-3.582,8-8S164.418,152,160,152z"/>
	<path fill="#FFFFFF" d="M80,280c-4.419,0-8,3.582-8,8s3.581,8,8,8c13.255,0,24,10.745,24,24c0,4.418,3.581,8,8,8
		c4.418,0,8-3.582,8-8C119.974,297.92,102.08,280.026,80,280z"/>
	<path fill="#FFFFFF" d="M160,360c-17.674,0-32,14.326-32,32c0,4.418,3.581,8,8,8c4.418,0,8-3.582,8-8c0-8.836,7.163-16,16-16
		c4.418,0,8-3.582,8-8S164.418,360,160,360z"/>
	<path fill="#FFFFFF" d="M184,216c0,4.418,3.581,8,8,8c9.768,0,16,4.736,16,8c0,4.418,3.581,8,8,8c4.418,0,8-3.582,8-8
		c0-13.464-14.057-24-32-24C187.581,208,184,211.582,184,216z"/>
	<path fill="#FFFFFF" d="M216,296c-8.837,0-16-7.164-16-16c0-4.418-3.582-8-8-8c-4.419,0-8,3.582-8,8c0,17.673,14.326,32,32,32
		c4.418,0,8-3.582,8-8S220.418,296,216,296z"/>
	<path fill="#FFFFFF" d="M208,400c-17.648,0-32,17.944-32,40c0,4.418,3.581,8,8,8c4.418,0,8-3.582,8-8c0-13.008,7.328-24,16-24
		c4.418,0,8-3.582,8-8S212.418,400,208,400z"/>
	<path fill="#FFFFFF" d="M184,168h8c4.418,0,8-3.582,8-8s-3.582-8-8-8h-8c-4.419,0-8,3.582-8,8S179.581,168,184,168z"/>
	<path fill="#FFFFFF" d="M160,208h-8c-4.419,0-8,3.582-8,8s3.581,8,8,8h8c4.418,0,8-3.582,8-8S164.418,208,160,208z"/>
	<path fill="#FFFFFF" d="M224,80c0,4.418,3.581,8,8,8c4.418,0,8-3.582,8-8V48c0-4.418-3.582-8-8-8c-4.419,0-8,3.582-8,8V80z"/>
	<path fill="#FFFFFF" d="M232,320c-4.419,0-8,3.582-8,8v32c0,4.418,3.581,8,8,8c4.418,0,8-3.582,8-8v-32
		C240,323.582,236.418,320,232,320z"/>
	<path fill="#FFFFFF" d="M104,232c4.418,0,8-3.582,8-8s-3.582-8-8-8c-8.837,0-16-7.164-16-16c0-4.418-3.582-8-8-8
		c-4.419,0-8,3.582-8,8C72,217.673,86.326,232,104,232z"/>
	<path fill="#FFFFFF" d="M440,168c-14.634,0.051-27.369,10.022-30.929,24.216c-0.352-0.096-0.71-0.168-1.071-0.216h-24
		c-1.731,0-3.416,0.562-4.801,1.6L328,232v-60.688l23.264-23.264c11.176,13.56,31.228,15.492,44.787,4.316
		s15.491-31.228,4.315-44.787c-11.176-13.56-31.228-15.492-44.787-4.316C348.196,109.347,343.944,118.432,344,128
		c0.046,1.427,0.19,2.849,0.432,4.256l-30.088,30.088c-1.501,1.5-2.344,3.535-2.344,5.656v60.688l-16,16V56c0-4.418-3.582-8-8-8
		c-4.419,0-8,3.582-8,8v204.688L276.688,264H264V26.08c0.002-2.598-1.257-5.035-3.376-6.536C249.914,11.98,237.112,7.945,224,8
		c-26.156,0.005-49.677,15.927-59.4,40.208c-1.504-0.136-3-0.208-4.6-0.208c-26.499,0.026-47.974,21.501-48,48
		c-9.49-0.037-18.865,2.083-27.416,6.2c-31.417,14.881-45.181,52.141-30.984,83.872c-29.781,18.964-38.55,58.479-19.586,88.261
		c1.464,2.299,3.073,4.501,4.818,6.595c-34.855,27.116-41.13,77.354-14.015,112.209c20.571,26.442,55.443,37.257,87.366,27.096
		C114.406,444.991,135.141,463.972,160,464c1.6,0,3.096-0.072,4.6-0.208c9.724,24.281,33.244,40.202,59.4,40.208
		c13.111,0.056,25.914-3.98,36.624-11.544c2.119-1.501,3.378-3.938,3.376-6.536V280h16v168c0,4.418,3.581,8,8,8c4.418,0,8-3.582,8-8
		V267.313l16-16V376c0,2.121,0.843,4.156,2.344,5.656l30.088,30.088c-0.241,1.407-0.386,2.829-0.432,4.256
		c-0.221,17.893,14.105,32.576,31.998,32.796c17.893,0.221,32.576-14.106,32.797-31.999c0.22-17.893-14.106-32.576-31.999-32.796
		c-9.889-0.122-19.292,4.28-25.532,11.951L328,372.688v-81.375l26.344,26.344c1.5,1.5,3.534,2.344,5.656,2.344h16
		c0.361-0.048,0.72-0.12,1.071-0.216c4.299,17.142,21.681,27.554,38.823,23.255s27.554-21.681,23.255-38.823
		c-4.299-17.142-21.681-27.554-38.823-23.255c-11.446,2.871-20.384,11.809-23.255,23.255c-0.352-0.096-0.71-0.168-1.071-0.216
		h-12.688L328,268.688V252l58.663-44H408c0.361-0.048,0.72-0.12,1.071-0.216c4.326,17.108,21.701,27.471,38.81,23.145
		s27.471-21.701,23.146-38.809C467.436,177.918,454.648,167.978,440,168z M376,112c8.836,0,16,7.164,16,16s-7.164,16-16,16
		c-8.837,0-16-7.164-16-16S367.163,112,376,112z M248,481.6c-7.285,4.238-15.572,6.448-24,6.4
		c-21.636,0.004-40.594-14.483-46.272-35.36c-1.164-4.262-5.563-6.772-9.825-5.608c-0.011,0.003-0.021,0.006-0.03,0.009
		c-2.569,0.669-5.217,0.992-7.872,0.96c-17.674,0-32-14.327-32-32c-0.021-2.088,0.187-4.172,0.616-6.216
		c0.926-4.32-1.825-8.573-6.146-9.499c-1.801-0.387-3.68-0.14-5.319,0.699c-31.572,15.892-70.049,3.18-85.94-28.393
		c-15.031-29.862-4.546-66.263,24.068-83.552c3.801-2.253,5.055-7.161,2.802-10.962c-0.435-0.732-0.983-1.391-1.625-1.95
		c-19.97-17.375-22.072-47.648-4.696-67.617c4.402-5.06,9.817-9.14,15.896-11.975c4.008-1.861,5.747-6.618,3.887-10.625
		c-0.137-0.294-0.291-0.58-0.462-0.854c-13.865-22.512-6.855-52.001,15.656-65.866c1.521-0.937,3.095-1.789,4.711-2.55
		c6.409-3.089,13.438-4.676,20.553-4.64c2.498-0.02,4.992,0.2,7.447,0.656c4.339,0.835,8.533-2.005,9.369-6.344
		c0.207-1.077,0.19-2.186-0.049-3.256c-3.853-17.293,7.043-34.436,24.336-38.289c2.265-0.504,4.576-0.762,6.896-0.768
		c2.656-0.022,5.304,0.312,7.872,0.992c4.257,1.181,8.666-1.313,9.848-5.57c0.003-0.01,0.005-0.021,0.008-0.03
		C183.395,38.502,202.356,24,224,24c8.428-0.048,16.715,2.162,24,6.4V481.6z M376,400c8.836,0,16,7.163,16,16s-7.164,16-16,16
		c-8.837,0-16-7.163-16-16S367.163,400,376,400z M408,296c8.836,0,16,7.164,16,16s-7.164,16-16,16c-8.837,0-16-7.164-16-16
		S399.163,296,408,296z M440,216c-8.837,0-16-7.164-16-16s7.163-16,16-16c8.836,0,16,7.164,16,16S448.836,216,440,216z"/>
	<path fill="#FFFFFF" d="M424,136h16c4.418,0,8-3.582,8-8s-3.582-8-8-8h-16c-4.419,0-8,3.582-8,8S419.581,136,424,136z"/>
	<path fill="#FFFFFF" d="M432,408h-8c-4.419,0-8,3.582-8,8s3.581,8,8,8h8c4.418,0,8-3.582,8-8S436.418,408,432,408z"/>
	<path fill="#FFFFFF" d="M320,104c4.418,0,8-3.582,8-8V48c0-4.418-3.582-8-8-8c-4.419,0-8,3.582-8,8v48
		C312,100.418,315.581,104,320,104z"/>
	<path fill="#FFFFFF" d="M320,416c-4.419,0-8,3.582-8,8v32c0,4.418,3.581,8,8,8c4.418,0,8-3.582,8-8v-32
		C328,419.582,324.418,416,320,416z"/>
</g>
</svg>
