<svg xmlns="http://www.w3.org/2000/svg" width="472.13" height="472.2" viewBox="0 0 472.13 472.2">
  <g id="Analysis-report-document-develop-infromation" transform="translate(-2.009 -2)">
    <path id="Path_724" data-name="Path 724" d="M471.857,90.852l-86.57-86.57A8.13,8.13,0,0,0,379.7,2H182.949a23.681,23.681,0,0,0-23.61,23.61V73.224a165.058,165.058,0,0,0,0,329.753V450.59a23.681,23.681,0,0,0,23.61,23.61h267.58a23.681,23.681,0,0,0,23.61-23.61V96.44a8.13,8.13,0,0,0-2.282-5.588ZM387.569,28.837,447.3,88.57H395.439a7.87,7.87,0,0,1-7.87-7.87ZM17.679,238.1A149.711,149.711,0,0,1,159.339,88.806V234.873l-103.1,103.1A148.578,148.578,0,0,1,17.679,238.1Zm49.66,110.967,103.1-103.1H316.5a149.239,149.239,0,0,1-249.164,103.1ZM458.4,450.59a7.87,7.87,0,0,1-7.87,7.87H182.949a7.87,7.87,0,0,1-7.87-7.87V402.977A165.38,165.38,0,0,0,332.479,238.1a7.87,7.87,0,0,0-7.87-7.87H175.079V25.61a7.87,7.87,0,0,1,7.87-7.87h188.88V80.7a23.681,23.681,0,0,0,23.61,23.61H458.4Z" fill="#2196f3"/>
    <path id="Path_725" data-name="Path 725" d="M33.87,7A7.87,7.87,0,0,0,26,14.87v157.4a7.87,7.87,0,0,0,7.87,7.87h157.4a7.87,7.87,0,0,0,7.87-7.87A165.451,165.451,0,0,0,33.87,7Zm7.87,157.4V22.976A149.664,149.664,0,0,1,183.164,164.4Z" transform="translate(164.819 34.35)" fill="#2196f3"/>
    <path id="Path_726" data-name="Path 726" d="M110.83,40a70.83,70.83,0,1,0,70.83,70.83A70.83,70.83,0,0,0,110.83,40Zm0,125.92a55.09,55.09,0,1,1,55.09-55.09A55.09,55.09,0,0,1,110.83,165.92Z" transform="translate(260.999 261.06)" fill="#2196f3"/>
    <path id="Path_727" data-name="Path 727" d="M72.467,86.949,54.421,68.9,43.293,80.031l23.61,23.61a7.87,7.87,0,0,0,11.128,0l47.22-47.22L114.123,45.293Z" transform="translate(283.622 297.423)" fill="#2196f3"/>
    <path id="Path_728" data-name="Path 728" d="M50,19h62.96V34.74H50Z" transform="translate(329.699 116.79)" fill="#2196f3"/>
    <path id="Path_729" data-name="Path 729" d="M50,25h62.96V40.74H50Z" transform="translate(329.699 158.01)" fill="#2196f3"/>
    <path id="Path_730" data-name="Path 730" d="M50,31h62.96V46.74H50Z" transform="translate(329.699 199.23)" fill="#2196f3"/>
  </g>
</svg>
