<?xml version="1.0" encoding="utf-8"?>
<!-- Generator: Adobe Illustrator 16.0.0, SVG Export Plug-In . SVG Version: 6.00 Build 0)  -->
<!DOCTYPE svg PUBLIC "-//W3C//DTD SVG 1.1//EN" "http://www.w3.org/Graphics/SVG/1.1/DTD/svg11.dtd">
<svg version="1.1" id="Layer_1" xmlns="http://www.w3.org/2000/svg" xmlns:xlink="http://www.w3.org/1999/xlink" x="0px" y="0px"
	 width="595.281px" height="595.276px" viewBox="0 124.466 595.281 595.276" enable-background="new 0 124.466 595.281 595.276"
	 xml:space="preserve">
<path fill="#FFFFFF" d="M86.214,276.821c26.041-50.943,77.647-82.594,134.688-82.594c6.422,0,11.626-5.205,11.626-11.626
	s-5.204-11.627-11.626-11.627c-67.171,0-126.262,38.272-155.394,95.266c-2.92,5.718-0.652,12.721,5.064,15.646
	C76.285,284.805,83.293,282.539,86.214,276.821z"/>
<path fill="#FFFFFF" d="M66.853,311.351c0,4.819-3.906,8.72-8.721,8.72c-4.818,0-8.72-3.901-8.72-8.72c0-4.814,3.9-8.72,8.72-8.72
	C62.947,302.631,66.853,306.537,66.853,311.351z"/>
<path fill="#FFFFFF" d="M570.547,596.656c-0.396-0.336-0.813-0.646-1.253-0.922l-57.271-36.521
	c-35.302-22.513-78.396-58.346-108.771-88.303c25.556-36.938,39.017-80.019,39.017-125.24c0-121.974-99.303-221.205-221.367-221.205
	C99.094,124.467,0,223.566,0,345.368c0,121.975,99.304,221.205,221.368,221.205c44.499,0,87.018-13.075,123.609-37.899
	c30.333,30.655,68.405,74.237,91.373,110.229l34.982,54.831c0.282,0.437,0.592,0.854,0.928,1.254
	c28.484,33.667,80.817,33.049,108.413-2.203C602.77,664.576,600.113,621.635,570.547,596.656z M339.297,504.193
	c-34.326,25.597-75.105,39.126-117.929,39.126c-109.24,0-198.115-88.799-198.115-197.952c0-108.981,88.666-197.647,197.647-197.647
	c109.244,0,198.114,88.798,198.114,197.951C419.015,411.104,387.265,468.414,339.297,504.193z M363.653,514.498
	c9.074-7.662,17.521-16.036,25.274-25.062c11.468,11.204,24.516,23.08,38.071,34.657l-28.234,28.23
	C387.392,539.377,375.357,526.411,363.653,514.498z M562.367,678.451c-18.181,23.226-52.614,24.134-71.872,2.08l-34.543-54.138
	c-10.578-16.576-25.007-35.909-42.02-56.348l31.033-31.033c19.411,15.669,38.122,29.325,54.559,39.809l56.575,36.073
	C574.508,630.964,577.359,659.308,562.367,678.451z"/>
<path fill="#FFFFFF" d="M337.166,427.916h-11.627V230.27c0-6.422-5.204-11.627-11.627-11.627h-69.759
	c-6.422,0-11.627,5.205-11.627,11.627v58.133h-58.128c-6.422,0-11.627,5.205-11.627,11.626v58.133h-58.133
	c-6.423,0-11.627,5.205-11.627,11.626v58.128H81.386c-6.423,0-11.628,5.21-11.628,11.627c0,6.422,5.205,11.627,11.628,11.627h255.78
	c6.422,0,11.626-5.205,11.626-11.627C348.792,433.126,343.589,427.916,337.166,427.916z M162.772,427.916h-46.506v-46.501h46.506
	V427.916z M232.527,427.916h-46.502c0-31.505,0-97.704,0-116.261h46.502V427.916z M302.286,427.916H255.78
	c0-22.521,0-163.503,0-186.02h46.507L302.286,427.916L302.286,427.916z"/>
</svg>
