<?xml version="1.0" encoding="utf-8"?>
<!-- Generator: Adobe Illustrator 16.0.0, SVG Export Plug-In . SVG Version: 6.00 Build 0)  -->
<!DOCTYPE svg PUBLIC "-//W3C//DTD SVG 1.1//EN" "http://www.w3.org/Graphics/SVG/1.1/DTD/svg11.dtd">
<svg version="1.1" id="Capa_1" xmlns="http://www.w3.org/2000/svg" xmlns:xlink="http://www.w3.org/1999/xlink" x="0px" y="0px"
	 width="595.281px" height="595.281px" viewBox="0 123.305 595.281 595.281" enable-background="new 0 123.305 595.281 595.281"
	 xml:space="preserve">
<g>
	<path fill="#FFFFFF" d="M568.222,339.771h-40.929c-2.862-8.096-6.16-16.042-9.879-23.804l28.952-28.954
		c10.567-10.564,10.567-27.699,0-38.266l-76.528-76.531c-10.565-10.567-27.698-10.567-38.267,0l-28.954,28.952
		c-7.762-3.716-15.706-7.012-23.804-9.878v-40.926c0-14.943-12.115-27.059-27.059-27.059H243.524
		c-14.943,0-27.06,12.115-27.06,27.059v40.928c-8.096,2.864-16.041,6.16-23.802,9.876l-28.954-28.952
		c-10.564-10.569-27.697-10.567-38.266,0L48.91,248.747c-5.074,5.075-7.926,11.956-7.926,19.132c0,7.176,2.85,14.059,7.926,19.132
		l28.954,28.954c-3.716,7.764-7.014,15.708-9.878,23.804H27.058C12.115,339.769,0,351.884,0,366.827V475.06
		c0,14.943,12.114,27.06,27.059,27.06h40.929c2.864,8.096,6.162,16.042,9.878,23.804L48.91,554.876
		c-5.074,5.074-7.926,11.956-7.926,19.132s2.85,14.061,7.926,19.132l76.535,76.531c10.567,10.569,27.698,10.565,38.266,0
		l28.954-28.952c7.76,3.716,15.704,7.013,23.8,9.877v40.933c0,14.942,12.115,27.058,27.06,27.058h108.232
		c14.942,0,27.059-12.114,27.059-27.058v-40.93c8.098-2.865,16.044-6.161,23.804-9.878l28.954,28.952
		c10.565,10.565,27.698,10.565,38.267,0l76.53-76.531c10.567-10.564,10.567-27.697,0-38.266l-28.951-28.954
		c3.718-7.764,7.016-15.708,9.878-23.804h40.927c14.942,0,27.058-12.115,27.058-27.06V366.827
		C595.28,351.885,583.165,339.771,568.222,339.771z M541.163,448.003h-33.878c-12.348,0-23.13,8.359-26.205,20.317
		c-4.395,17.086-11.208,33.509-20.253,48.813c-6.279,10.632-4.567,24.164,4.164,32.896l23.98,23.98l-38.266,38.267l-23.98-23.98
		c-8.731-8.73-22.264-10.44-32.897-4.164c-15.295,9.039-31.72,15.854-48.815,20.254c-11.957,3.078-20.313,13.859-20.313,26.203
		v33.879h-54.116V630.59c0-12.346-8.356-23.125-20.313-26.203c-17.094-4.4-33.516-11.215-48.813-20.254
		c-10.634-6.281-24.165-4.568-32.896,4.164l-23.98,23.98l-38.27-38.267l23.979-23.98c8.733-8.73,10.445-22.266,4.164-32.896
		c-9.039-15.298-15.854-31.725-20.254-48.817c-3.076-11.956-13.856-20.313-26.203-20.313H54.116v-54.116h33.879
		c12.346,0,23.125-8.357,26.203-20.313c4.399-17.093,11.215-33.518,20.254-48.818c6.281-10.632,4.569-24.167-4.164-32.896
		l-23.979-23.98l38.268-38.266l23.98,23.981c8.73,8.731,22.27,10.444,32.896,4.163c15.295-9.039,31.72-15.852,48.814-20.254
		c11.955-3.075,20.313-13.857,20.313-26.203v-33.878h54.116V211.3c0,12.346,8.357,23.126,20.313,26.203
		c17.097,4.402,33.521,11.215,48.815,20.254c10.63,6.278,24.164,4.569,32.897-4.163l23.979-23.98l38.267,38.266l-23.982,23.98
		c-8.731,8.732-10.443,22.267-4.163,32.897c9.044,15.302,15.855,31.727,20.252,48.813c3.075,11.958,13.859,20.317,26.205,20.317
		h33.88v54.117H541.163z"/>
	<path fill="#FFFFFF" d="M367.901,398l-86.586-54.117c-8.341-5.215-18.855-5.489-27.458-0.722
		c-8.604,4.77-13.942,13.831-13.942,23.667v108.232c0,9.838,5.338,18.899,13.942,23.667c4.087,2.265,8.604,3.393,13.115,3.393
		c4.985,0,9.963-1.377,14.341-4.113l86.586-54.116c7.912-4.943,12.718-13.615,12.718-22.944
		C380.616,411.615,375.813,402.944,367.901,398z"/>
</g>
</svg>
