<svg xmlns="http://www.w3.org/2000/svg" width="60" height="60.042" viewBox="0 0 60 60.042">
  <g id="Bar_graph" data-name="Bar graph" transform="translate(-2 -1.958)">
    <path id="Path_14" data-name="Path 14" d="M61,56H58V15a1,1,0,0,0-1-1H49a1,1,0,0,0-1,1V56H44V23a1,1,0,0,0-1-1H35a1,1,0,0,0-1,1V56H30V29a1,1,0,0,0-1-1H21a1,1,0,0,0-1,1V56H16V35a1,1,0,0,0-1-1H7a1,1,0,0,0-1,1V56H3a1,1,0,0,0,0,2H61a1,1,0,0,0,0-2ZM14,56H8V36h6Zm14,0H22V30h6Zm14,0H36V24h6Zm14,0H50V16h6Z" fill="#2196f3"/>
    <path id="Path_15" data-name="Path 15" d="M8,60H7a1,1,0,0,0,0,2H8a1,1,0,0,0,0-2Z" fill="#2196f3"/>
    <path id="Path_16" data-name="Path 16" d="M15,60H11a1,1,0,0,0,0,2h4a1,1,0,0,0,0-2Z" fill="#2196f3"/>
    <path id="Path_17" data-name="Path 17" d="M22,60H21a1,1,0,0,0,0,2h1a1,1,0,0,0,0-2Z" fill="#2196f3"/>
    <path id="Path_18" data-name="Path 18" d="M29,60H25a1,1,0,0,0,0,2h4a1,1,0,0,0,0-2Z" fill="#2196f3"/>
    <path id="Path_19" data-name="Path 19" d="M36,60H35a1,1,0,0,0,0,2h1a1,1,0,0,0,0-2Z" fill="#2196f3"/>
    <path id="Path_20" data-name="Path 20" d="M43,60H39a1,1,0,0,0,0,2h4a1,1,0,0,0,0-2Z" fill="#2196f3"/>
    <path id="Path_21" data-name="Path 21" d="M50,60H49a1,1,0,0,0,0,2h1a1,1,0,0,0,0-2Z" fill="#2196f3"/>
    <path id="Path_22" data-name="Path 22" d="M57,60H53a1,1,0,0,0,0,2h4a1,1,0,0,0,0-2Z" fill="#2196f3"/>
    <path id="Path_23" data-name="Path 23" d="M7.242,23.757a.993.993,0,0,0,.707-.293l7.779-7.778,5.657,5.657a1,1,0,0,0,1.414,0l8.485-8.485,6.364,6.364a1,1,0,0,0,1.414,0L52.953,5.33,53,8.018A1,1,0,0,0,54,9h.018A1,1,0,0,0,55,7.982l-.088-5.041a1,1,0,0,0-1-.983H53.9L48.991,2A1,1,0,1,0,49,4h.009l2.468-.021L38.355,17.1l-6.364-6.364a1,1,0,0,0-1.414,0l-8.485,8.485-5.657-5.657a1,1,0,0,0-1.414,0L6.535,22.05a1,1,0,0,0,.707,1.707Z" fill="#2196f3"/>
    <path id="Path_24" data-name="Path 24" d="M3,28a1,1,0,0,0,.707-.293l1.414-1.414a1,1,0,1,0-1.414-1.414L2.293,26.293A1,1,0,0,0,3,28Z" fill="#2196f3"/>
  </g>
</svg>
