<?xml version="1.0" encoding="utf-8"?>
<!-- Generator: Adobe Illustrator 16.0.0, SVG Export Plug-In . SVG Version: 6.00 Build 0)  -->
<!DOCTYPE svg PUBLIC "-//W3C//DTD SVG 1.1//EN" "http://www.w3.org/Graphics/SVG/1.1/DTD/svg11.dtd">
<svg version="1.1" id="Layer_1" xmlns="http://www.w3.org/2000/svg" xmlns:xlink="http://www.w3.org/1999/xlink" x="0px" y="0px"
	 width="512px" height="512px" viewBox="0 0 512 512" enable-background="new 0 0 512 512" xml:space="preserve">
<path fill="#FFFFFF" d="M391,82.168L251,1.34c-3.094-1.785-6.906-1.785-10,0L101,82.168c-3.094,1.789-5,5.09-5,8.66v72.117
	c0,3.57,1.906,6.875,5,8.66l34.359,19.836L101,211.285c-3.094,1.785-5,5.086-5,8.656v72.117c0,3.57,1.906,6.875,5,8.66
	l34.359,19.836L101,340.395c-3.094,1.785-5,5.09-5,8.66v72.117c0,3.57,1.906,6.875,5,8.66l140,80.828c1.547,0.895,3.273,1.34,5,1.34
	s3.453-0.445,5-1.34l140-80.828c3.094-1.785,5-5.09,5-8.66v-72.117c0-3.57-1.906-6.875-5-8.66l-34.363-19.836L391,300.719
	c3.094-1.785,5-5.09,5-8.66v-72.117c0-3.57-1.906-6.871-5-8.656l-34.359-19.84L391,171.605c3.094-1.785,5-5.086,5-8.66V90.832
	C396,87.258,394.094,83.957,391,82.168z M246,21.547l120,69.285l-120,69.281L126,90.832L246,21.547z M116,108.148l120,69.285v49.02
	l-120-69.281V108.148z M116,237.262l120,69.285v49.02l-120-69.281V237.262z M116,366.375l120,69.281v49.023l-120-69.281V366.375z
	 M256,484.68v-49.02l120-69.285v49.023L256,484.68z M366,349.055l-120,69.281l-120-69.281l29.359-16.953L241,381.547
	c1.547,0.895,3.273,1.34,5,1.34s3.453-0.445,5-1.34l85.637-49.441L366,349.055z M256,355.566v-49.02l120-69.281v49.02L256,355.566z
	 M366,219.941l-120,69.285l-120-69.285l29.359-16.949L241,252.434c1.547,0.895,3.273,1.34,5,1.34s3.453-0.445,5-1.34l85.641-49.441
	L366,219.941z M256,226.457v-49.023l120-69.281v49.02L256,226.457z"/>
<path fill="#FFFFFF" d="M458,259.891c-2.629,0-5.211,1.063-7.07,2.93c-1.859,1.859-2.93,4.43-2.93,7.07
	c0,2.629,1.07,5.211,2.93,7.07s4.441,2.93,7.07,2.93s5.211-1.07,7.07-2.93s2.93-4.441,2.93-7.07c0-2.641-1.07-5.219-2.93-7.07
	C463.211,260.953,460.629,259.891,458,259.891z"/>
<path fill="#FFFFFF" d="M492,104.496c0-18.746-15.25-34-34-34c-18.746,0-34,15.254-34,34c0,15.27,10.117,28.219,24,32.5v87.891
	c0,5.523,4.477,10,10,10s10-4.477,10-10v-87.891C481.883,132.715,492,119.766,492,104.496z M458,118.496c-7.719,0-14-6.277-14-14
	c0-7.719,6.281-14,14-14s14,6.281,14,14C472,112.219,465.719,118.496,458,118.496z"/>
<path fill="#FFFFFF" d="M34,454.871c-5.523,0-10,4.48-10,10V502c0,5.523,4.477,10,10,10s10-4.477,10-10v-37.129
	C44,459.348,39.524,454.871,34,454.871z"/>
<path fill="#FFFFFF" d="M34,265.48c-18.746,0-34,15.254-34,34c0,15.27,10.117,28.219,24,32.496v82.949c0,5.523,4.477,10,10,10
	s10-4.477,10-10v-82.949c13.883-4.281,24-17.227,24-32.496C68,280.734,52.75,265.48,34,265.48z M34,313.48c-7.719,0-14-6.277-14-14
	c0-7.719,6.281-14,14-14s14,6.281,14,14C48,307.203,41.719,313.48,34,313.48z"/>
</svg>
