<?xml version="1.0" encoding="iso-8859-1"?>
<!-- Generator: Adobe Illustrator 19.0.0, SVG Export Plug-In . SVG Version: 6.00 Build 0)  -->
<svg version="1.1" id="Capa_1" xmlns="http://www.w3.org/2000/svg" xmlns:xlink="http://www.w3.org/1999/xlink" x="0px" y="0px"
	 viewBox="0 0 512 512" style="enable-background:new 0 0 512 512;" xml:space="preserve">
<g>
	<g>
		<path d="M501.333,128H394.667c-5.896,0-10.667,4.771-10.667,10.667V160c0,5.896,4.771,10.667,10.667,10.667h42.279L255.72,333.966
			L32.286,130.781c-4.357-3.961-11.111-3.655-15.089,0.682L2.794,147.171c-3.978,4.339-3.672,11.068,0.685,15.03l237.773,216.231
			c4.078,3.72,9.241,5.569,14.405,5.569c5.131,0,10.263-1.829,14.331-5.506l199.345-179.639v46.479
			c0,5.896,4.771,10.667,10.667,10.667h21.333c5.896,0,10.667-4.771,10.667-10.667V138.667C512,132.771,507.229,128,501.333,128z"/>
	</g>
</g>
<g>
</g>
<g>
</g>
<g>
</g>
<g>
</g>
<g>
</g>
<g>
</g>
<g>
</g>
<g>
</g>
<g>
</g>
<g>
</g>
<g>
</g>
<g>
</g>
<g>
</g>
<g>
</g>
<g>
</g>
</svg>
