<?xml version="1.0" encoding="utf-8"?>
<!-- Generator: Adobe Illustrator 16.0.0, SVG Export Plug-In . SVG Version: 6.00 Build 0)  -->
<!DOCTYPE svg PUBLIC "-//W3C//DTD SVG 1.1//EN" "http://www.w3.org/Graphics/SVG/1.1/DTD/svg11.dtd">
<svg version="1.1" id="Capa_1" xmlns="http://www.w3.org/2000/svg" xmlns:xlink="http://www.w3.org/1999/xlink" x="0px" y="0px"
	 width="595.279px" height="841.891px" viewBox="0 0 595.279 841.891" enable-background="new 0 0 595.279 841.891"
	 xml:space="preserve">
<g>
	<g>
		<path fill="#37B8CB" d="M355.773,219.806c-6.418,0-11.627,5.208-11.627,11.626c0,6.417,5.209,11.626,11.627,11.626
			s11.627-5.209,11.627-11.626C367.4,225.014,362.191,219.806,355.773,219.806z"/>
	</g>
</g>
<g>
	<g>
		<path fill="#37B8CB" d="M239.507,219.806c-6.418,0-11.626,5.208-11.626,11.626c0,6.417,5.208,11.626,11.626,11.626
			s11.627-5.209,11.627-11.626C251.134,225.014,245.925,219.806,239.507,219.806z"/>
	</g>
</g>
<g>
	<g>
		<path fill="#2E4161" d="M550.079,470.802c9.979-14.977,14.973-33.664,14.973-49.855c0-24.411-10.845-47.091-29.452-62.471
			c4.118-9.841,6.199-20.076,6.199-30.542c0-32.386-18.9-62.555-47.001-76.643c4.264-35.361-18.777-67.773-52.925-76.041
			c-13.364-30.896-43.11-51.944-74.474-51.944c-29.194,0-55.379,17.028-69.761,41.875c-14.382-24.846-40.565-41.875-69.759-41.875
			c-31.365,0-61.111,21.049-74.475,51.945c-34.352,8.32-57.176,40.894-52.924,76.04c-28.101,14.087-47,44.257-47,76.643
			c0,10.466,2.081,20.701,6.198,30.542c-18.607,15.38-29.452,38.06-29.452,62.471c0,16.276,5.033,34.938,14.972,49.854
			c-9.71,13.708-14.972,29.954-14.972,46.646c0,21.645,8.775,42.263,24.299,57.571c-7.98,48.241,30.491,97.063,80.341,97.063
			c0.36,0,0.715-0.006,1.063-0.017c16.527,28.511,47.205,46.521,80.323,46.521c34.518,0,65.36-20.719,81.386-50.568
			c16.026,29.851,46.87,50.568,81.387,50.568c33.118,0,63.797-18.012,80.323-46.521c0.349,0.011,0.702,0.017,1.063,0.017
			c44.116,0,81.388-38.868,81.388-84.874c0-3.917-0.346-7.945-1.047-12.188c15.523-15.31,24.3-35.927,24.3-57.571
			C565.052,500.755,559.79,484.509,550.079,470.802z M286.014,299.309c-6.847-3.97-14.786-6.256-23.254-6.256
			c-6.422,0-11.627,5.205-11.627,11.626c0,6.421,5.205,11.627,11.627,11.627c12.821,0,23.254,10.431,23.254,23.253V560.66
			c-17.059-19.349-41.999-31.588-69.761-31.588c-6.421,0-11.627,5.205-11.627,11.627c0,6.421,5.206,11.626,11.627,11.626
			c38.467,0,69.761,31.294,69.761,69.76c0,39.703-31.946,73.247-69.761,73.247c-26.918,0-51.696-15.918-63.131-40.554
			c-2.107-4.54-6.882-7.219-11.858-6.657c-0.822,0.095-1.641,0.203-2.457,0.314c-33.09,4.524-70.353-32.943-60.266-74.859
			c1.036-4.305-0.464-8.823-3.867-11.655c-13.468-11.207-21.191-27.418-21.191-44.476c0-10.546,2.98-20.867,8.531-29.917
			c13.943,11.429,31.29,18.291,49.602,18.291c6.421,0,11.626-5.205,11.626-11.627s-5.205-11.628-11.626-11.628
			c-31.554,0-58.133-28.799-58.133-61.619c0-19.911,10.147-38.228,27.148-48.998c5.238-3.318,6.951-10.163,3.893-15.556
			c-5.168-9.114-7.788-18.69-7.788-28.459c0-31.38,25.58-61.621,58.133-61.621c30.969,0,58.133,28.796,58.133,61.621
			c0,6.421,5.205,11.626,11.626,11.626c6.422,0,11.627-5.205,11.627-11.626c0-46.006-37.271-84.874-81.386-84.874
			c-3.893,0-7.765,0.315-11.598,0.912c-0.006-0.306-0.029-0.604-0.029-0.912c0-25.947,21.064-46.506,46.507-46.506
			c12.419,0,24.103,4.838,32.895,13.621c4.542,4.538,11.902,4.533,16.441-0.008c4.538-4.543,4.534-11.904-0.009-16.442
			c-10.605-10.596-24.021-17.353-38.562-19.592c10.254-15.22,27.304-27.572,47.366-27.572c30.969,0,58.134,28.794,58.134,61.621
			V299.309z M483.665,505.819c18.313,0,35.657-6.863,49.604-18.288c5.548,9.049,8.53,19.369,8.53,29.914
			c0,17.058-7.726,33.269-21.192,44.476c-3.404,2.832-4.902,7.353-3.866,11.655c1.232,5.119,1.807,9.45,1.807,13.628
			c0,36.089-32.643,65.255-62.071,61.231c-0.817-0.111-1.636-0.223-2.458-0.314c-4.984-0.563-9.752,2.117-11.857,6.657
			c-11.434,24.636-36.216,40.554-63.133,40.554c-37.813,0-69.759-33.544-69.759-73.247c0-38.466,31.294-69.76,69.759-69.76
			c6.421,0,11.627-5.205,11.627-11.626c0-6.422-5.206-11.627-11.627-11.627c-27.761,0-52.702,12.24-69.759,31.588V339.559
			c0-12.822,10.431-23.253,23.253-23.253c6.42,0,11.626-5.206,11.626-11.627c0-6.421-5.206-11.626-11.626-11.626
			c-8.468,0-16.407,2.286-23.253,6.256v-91.13c0-32.826,27.164-61.621,58.133-61.621c20.063,0,37.111,12.352,47.365,27.571
			c-14.538,2.239-27.953,8.997-38.562,19.592c-4.544,4.538-4.549,11.899-0.011,16.442s11.901,4.547,16.442,0.009
			c8.796-8.783,20.477-13.621,32.896-13.621c25.57,0,46.506,20.68,46.506,46.506c0,0.307-0.022,0.605-0.028,0.912
			c-3.833-0.597-7.705-0.912-11.599-0.912c-44.114,0-81.386,38.868-81.386,84.874c0,6.421,5.207,11.626,11.627,11.626
			s11.626-5.205,11.626-11.626c0-32.825,27.165-61.621,58.133-61.621c32.534,0,58.135,30.226,58.135,61.621
			c0,9.77-2.621,19.345-7.789,28.459c-3.059,5.394-1.347,12.238,3.893,15.556c17,10.77,27.149,29.086,27.149,48.998
			c0,32.938-26.673,61.619-58.134,61.619c-6.421,0-11.627,5.206-11.627,11.628C472.038,500.614,477.244,505.819,483.665,505.819z"/>
	</g>
</g>
<g>
	<g>
		<path fill="#37B8CB" d="M259.799,372.175c-4.28-4.786-11.63-5.195-16.417-0.914c-37.283,33.352-96.888,6.697-96.888-43.329
			c0-6.421-5.205-11.626-11.626-11.626c-6.422,0-11.627,5.205-11.627,11.626c0,40.361,29.54,73.939,68.132,80.289
			c-4.477,14.103-17.688,24.351-33.252,24.351c-6.421,0-11.627,5.205-11.627,11.627c0,6.421,5.206,11.627,11.627,11.627
			c28.318,0,51.959-20.358,57.089-47.207c16.169-2.114,31.388-9.033,43.676-20.026C263.671,384.311,264.08,376.96,259.799,372.175z"
			/>
	</g>
</g>
<g>
	<g>
		<path fill="#37B8CB" d="M134.868,575.578c-6.422,0-11.627,5.205-11.627,11.627c0,6.421,5.205,11.627,11.627,11.627
			c30.969,0,58.133,28.795,58.133,61.62c0,6.422,5.205,11.627,11.626,11.627c6.422,0,11.627-5.205,11.627-11.627
			C216.254,614.446,178.984,575.578,134.868,575.578z"/>
	</g>
</g>
<g>
	<g>
		<path fill="#37B8CB" d="M227.881,482.565c-39.397,0-73.225,21.607-91.035,53.026c-3.166,5.586-1.205,12.683,4.381,15.849
			s12.681,1.206,15.848-4.382c13.877-24.479,40.206-41.239,70.808-41.239c6.422,0,11.626-5.205,11.626-11.627
			C239.507,487.771,234.302,482.565,227.881,482.565z"/>
	</g>
</g>
<g>
	<g>
		<path fill="#37B8CB" d="M437.158,432.571c-15.563,0-28.774-10.248-33.252-24.351c38.592-6.35,68.132-39.928,68.132-80.289
			c0-6.421-5.205-11.626-11.627-11.626c-6.42,0-11.626,5.205-11.626,11.626c0,32.054-26.078,58.133-58.133,58.133
			c-14.319,0-28.082-5.258-38.755-14.804c-4.784-4.281-12.136-3.873-16.417,0.914c-4.282,4.785-3.871,12.136,0.914,16.417
			c12.288,10.993,27.507,17.912,43.675,20.026c5.13,26.849,28.771,47.207,57.089,47.207c6.421,0,11.627-5.206,11.627-11.627
			C448.785,437.776,443.579,432.571,437.158,432.571z"/>
	</g>
</g>
<g>
	<g>
		<path fill="#37B8CB" d="M460.411,575.578c-44.114,0-81.386,38.868-81.386,84.874c0,6.422,5.207,11.627,11.627,11.627
			s11.626-5.205,11.626-11.627c0-32.825,27.165-61.62,58.133-61.62c6.422,0,11.627-5.206,11.627-11.627
			C472.038,580.783,466.832,575.578,460.411,575.578z"/>
	</g>
</g>
<g>
	<g>
		<path fill="#37B8CB" d="M458.436,535.594c-17.77-31.345-51.548-53.027-91.036-53.027c-6.421,0-11.627,5.205-11.627,11.627
			s5.206,11.627,11.627,11.627c30.579,0,56.928,16.755,70.805,41.239c3.171,5.595,10.271,7.546,15.849,4.383
			C459.639,548.275,461.6,541.18,458.436,535.594z"/>
	</g>
</g>
</svg>
