<?xml version="1.0" encoding="utf-8"?>
<!-- Generator: Adobe Illustrator 16.0.0, SVG Export Plug-In . SVG Version: 6.00 Build 0)  -->
<!DOCTYPE svg PUBLIC "-//W3C//DTD SVG 1.1//EN" "http://www.w3.org/Graphics/SVG/1.1/DTD/svg11.dtd">
<svg version="1.1" id="Layer_1" xmlns="http://www.w3.org/2000/svg" xmlns:xlink="http://www.w3.org/1999/xlink" x="0px" y="0px"
	 width="612px" height="792px" viewBox="0 0 612 792" enable-background="new 0 0 612 792" xml:space="preserve">
<g>
	<g>
		<path d="M365.23,580.937h-46.377c-6.601,0-11.951,5.351-11.951,11.952s5.351,11.952,11.951,11.952h46.377
			c7.157,0,12.981,5.822,12.981,12.979S372.39,630.8,365.23,630.8H240.388c-18.767,0-36.414-8.273-48.415-22.701l-29.855-35.886
			c-16.02-19.256-39.334-30.534-64.28-31.247v-70.604h44.006c21.702,0,42.251,8.3,57.863,23.37l64.437,62.198
			c4.556,4.397,4.768,11.761,0.474,16.413c-4.377,4.74-11.808,5.05-16.563,0.69l-50.589-46.373
			c-4.863-4.46-12.425-4.132-16.885,0.734c-4.461,4.865-4.132,12.426,0.734,16.886l50.589,46.373
			c6.823,6.254,15.457,9.343,24.068,9.343c9.615,0,19.203-3.851,26.211-11.441c13.036-14.123,12.392-36.473-1.437-49.822
			l-64.437-62.197c-20.092-19.396-46.537-30.077-74.464-30.077H95.516c-4.497-10.643-15.043-18.131-27.305-18.131H11.952
			C5.352,428.328,0,433.678,0,440.279v87.397c0,6.601,5.352,11.952,11.952,11.952c6.6,0,11.952-5.35,11.952-11.952V452.23h44.309
			c3.155,0,5.722,2.567,5.722,5.722v95.796c0,3.154-2.566,5.722-5.722,5.722H55.799c-6.601,0-11.952,5.351-11.952,11.952
			c0,6.601,5.351,11.952,11.952,11.952h12.412c12.427,0,23.083-7.693,27.476-18.564c18.632,0.106,36.13,8.357,48.055,22.691
			l29.855,35.886c16.558,19.903,40.901,31.317,66.791,31.317H365.23c20.337,0,36.884-16.546,36.884-36.884
			S385.567,580.937,365.23,580.937z"/>
	</g>
</g>
<g>
	<g>
		<path d="M600.047,247.702c-6.601,0-11.952,5.35-11.952,11.952v80.116h-44.309c-3.155,0-5.722-2.567-5.722-5.722v-95.796
			c0-3.154,2.566-5.722,5.722-5.722h11.536c6.601,0,11.951-5.351,11.951-11.952c0-6.601-5.351-11.952-11.951-11.952h-11.536
			c-12.427,0-23.083,7.693-27.476,18.564c-18.633-0.106-36.131-8.357-48.055-22.691L438.4,168.614
			c-16.557-19.903-40.901-31.318-66.792-31.318h-124.84c-20.337,0-36.883,16.545-36.883,36.883
			c0,20.337,16.546,36.882,36.883,36.882h51.049c6.601,0,11.952-5.35,11.952-11.952c0-6.602-5.352-11.952-11.952-11.952h-51.049
			c-7.157,0-12.981-5.822-12.981-12.98c0-7.156,5.822-12.98,12.981-12.98H371.61c18.768,0,36.415,8.274,48.416,22.702l29.854,35.884
			c16.019,19.256,39.335,30.534,64.28,31.249v70.604h-44.006c-21.702,0-42.251-8.3-57.863-23.371l-64.437-62.198
			c-4.556-4.397-4.768-11.759-0.474-16.413c4.378-4.742,11.808-5.05,16.563-0.691l50.591,46.373
			c4.866,4.459,12.424,4.132,16.886-0.734c4.46-4.866,4.131-12.426-0.734-16.886l-50.591-46.372
			c-14.439-13.235-36.992-12.292-50.279,2.099c-13.036,14.124-12.392,36.474,1.437,49.822l64.437,62.198
			c20.092,19.395,46.537,30.077,74.465,30.077h46.327c4.497,10.643,15.043,18.131,27.305,18.131h56.261
			c6.601,0,11.952-5.35,11.952-11.952v-92.068C611.999,253.052,606.647,247.702,600.047,247.702z"/>
	</g>
</g>
<g>
	<g>
		<path d="M385.892,543.791c-2.718-6.015-9.782-8.698-15.792-5.981c-6.054,2.636-8.822,9.679-6.187,15.729
			c1.958,4.498,6.353,7.183,10.964,7.183c1.593,0,3.212-0.32,4.766-0.997c0.05-0.021,0.208-0.092,0.257-0.113
			C385.915,556.895,388.608,549.808,385.892,543.791z"/>
	</g>
</g>
<g>
	<g>
		<path d="M415.601,523.669c-3.907-5.307-11.417-6.411-16.73-2.521c-5.325,3.898-6.482,11.378-2.583,16.703
			c2.342,3.197,5.971,4.893,9.652,4.893c2.45,0,4.923-0.751,7.051-2.309c0.02-0.013,0.132-0.097,0.149-0.109
			C418.434,536.404,419.507,528.975,415.601,523.669z"/>
	</g>
</g>
<g>
	<g>
		<path d="M352.478,557.209c-1.361-6.438-7.681-10.559-14.123-9.227c-6.436,1.277-10.644,7.511-9.41,13.966
			c1.095,5.726,6.104,9.709,11.727,9.709c0.743,0,1.5-0.07,2.257-0.215c0.077-0.016,0.273-0.055,0.353-0.072
			C349.734,570.002,353.844,563.664,352.478,557.209z"/>
	</g>
</g>
<g>
	<g>
		<path d="M440.568,497.674c-4.9-4.42-12.456-4.032-16.879,0.87c-0.059,0.065-0.196,0.221-0.253,0.287
			c-4.313,4.997-3.756,12.545,1.241,16.856c2.259,1.948,5.036,2.901,7.801,2.901c3.319,0,6.62-1.374,8.979-4.057
			C445.859,509.631,445.464,502.088,440.568,497.674z M433.895,507.751l-1.33-1.202l1.439,1.298L433.895,507.751z"/>
	</g>
</g>
<g>
	<g>
		<path d="M470.989,432.902c-6.316-1.916-12.998,1.688-14.914,8.005c-1.941,6.309,1.6,12.996,7.908,14.938
			c1.171,0.361,2.354,0.532,3.518,0.532c5.109,0,9.839-3.302,11.419-8.44l0.051-0.163
			C480.885,441.456,477.306,434.817,470.989,432.902z"/>
	</g>
</g>
<g>
	<g>
		<path d="M486.298,371.217c-0.026-0.151-0.056-0.303-0.088-0.455c-1.349-6.459-7.68-10.592-14.137-9.245
			c-6.435,1.341-10.571,7.633-9.275,14.066c1.096,5.703,6.094,9.694,11.722,9.694c0.699,0,1.409-0.061,2.12-0.188
			C483.138,383.926,487.461,377.715,486.298,371.217z"/>
	</g>
</g>
<g>
	<g>
		<path d="M475.337,397.149c-6.554-0.579-12.375,4.28-12.955,10.854c-0.011,0.116-0.027,0.352-0.034,0.468
			c-0.388,6.589,4.639,12.245,11.229,12.633c0.239,0.015,0.476,0.021,0.712,0.021c6.223,0,11.452-4.813,11.91-11.079
			C486.743,403.496,481.893,397.728,475.337,397.149z"/>
	</g>
</g>
<g>
	<g>
		<path d="M459.29,466.911c-5.738-3.252-13.036-1.237-16.29,4.507l-0.166,0.299c-3.147,5.802-1.023,13.108,4.777,16.256
			c1.825,0.989,3.789,1.459,5.725,1.459c4.218,0,8.293-2.237,10.45-6.215l-10.39-5.907l10.398,5.893
			C467.05,477.459,465.033,470.166,459.29,466.911z"/>
	</g>
</g>
<g>
	<g>
		<path d="M242.522,239.294c-2.951-5.905-10.134-8.299-16.034-5.346l-0.106,0.053c-5.905,2.953-8.244,10.104-5.292,16.007
			c2.091,4.183,6.327,6.59,10.719,6.59c1.81,0,3.646-0.409,5.368-1.27C243.082,252.378,245.474,245.199,242.522,239.294z"/>
	</g>
</g>
<g>
	<g>
		<path d="M277.099,229.329c-1.555-6.413-8.007-10.355-14.432-8.799c-0.055,0.013-0.225,0.056-0.28,0.07
			c-6.393,1.647-10.264,8.17-8.618,14.562c1.39,5.393,6.228,8.978,11.545,8.978c0.985,0,1.987-0.123,2.986-0.38
			C274.714,242.205,278.654,235.744,277.099,229.329z"/>
	</g>
</g>
<g>
	<g>
		<path d="M210.919,256.529c-4.133-5.136-11.659-5.943-16.801-1.819l7.41,9.377l-7.446-9.35c-5.164,4.112-6.016,11.63-1.905,16.794
			c2.362,2.964,5.844,4.507,9.359,4.507c2.608,0,5.236-0.851,7.437-2.602l0.158-0.126
			C214.259,269.168,215.053,261.666,210.919,256.529z"/>
	</g>
</g>
<g>
	<g>
		<path d="M147.194,341.566c-6.369-1.736-12.938,2.016-14.675,8.385c-0.03,0.109-0.087,0.335-0.115,0.445
			c-1.554,6.413,2.386,12.861,8.798,14.419c0.946,0.229,1.893,0.339,2.826,0.339c5.362,0,10.234-3.638,11.592-9.062
			C157.259,349.772,153.514,343.29,147.194,341.566z"/>
	</g>
</g>
<g>
	<g>
		<path d="M139.58,376.683c-6.606-0.367-12.241,4.652-12.624,11.241c-0.009,0.154-0.015,0.307-0.02,0.46
			c-0.194,6.594,4.995,12.089,11.591,12.287c0.122,0.003,0.242,0.006,0.362,0.006c6.407,0,11.701-5.084,11.938-11.52
			C151.125,382.632,146.12,377.063,139.58,376.683z"/>
	</g>
</g>
<g>
	<g>
		<path d="M162.236,308.904c-5.846-3.067-13.069-0.814-16.135,5.031l-0.195,0.385c-2.913,5.92-0.47,13.071,5.449,15.986
			c1.695,0.836,3.492,1.23,5.264,1.23c4.389,0,8.615-2.429,10.709-6.612C170.304,319.099,168.042,311.951,162.236,308.904z"/>
	</g>
</g>
<g>
	<g>
		<path d="M183.821,280.149c-5.079-4.216-12.614-3.517-16.83,1.561c-0.057,0.07-0.189,0.233-0.246,0.304
			c-4.098,5.172-3.221,12.676,1.948,16.776c2.195,1.742,4.813,2.585,7.414,2.585c3.506,0,6.981-1.535,9.342-4.478
			C189.589,291.821,188.872,284.343,183.821,280.149z"/>
	</g>
</g>
<g>
	<g>
		<path d="M153.087,422.33c-1.163-6.498-7.377-10.821-13.872-9.657c-6.498,1.164-10.821,7.374-9.658,13.871l0.021,0.117
			c1.035,5.777,6.052,9.79,11.719,9.79c0.706,0,1.422-0.063,2.142-0.191C149.938,435.097,154.251,428.827,153.087,422.33z"/>
	</g>
</g>
<g>
	<g>
		<path fill="#40A3FF" d="M347.037,331.602c-15.558,0-29.972,6.416-40.243,17.241c-10.272-10.826-24.685-17.241-40.242-17.241
			c-30.604,0-55.5,24.897-55.5,55.5c0,16.514,7.283,32.055,19.979,42.641c0.077,0.064,0.155,0.128,0.234,0.191l68.11,53.923
			c2.173,1.721,4.795,2.58,7.418,2.58c2.635,0,5.27-0.867,7.447-2.604l70.995-56.55c0.348-0.276,0.679-0.572,0.993-0.886
			c10.518-10.488,16.309-24.444,16.309-39.296C402.537,356.499,377.641,331.602,347.037,331.602z"/>
	</g>
</g>
<g>
	<g>
		<circle cx="11.952" cy="571.423" r="11.91"/>
	</g>
</g>
<g>
	<g>
		<circle cx="600.046" cy="220.576" r="11.91"/>
	</g>
</g>
</svg>
