<svg height="512" viewBox="0 0 64 64" width="512" xmlns="http://www.w3.org/2000/svg"><g id="Cheque"><path d="m44 24a1 1 0 0 1 -1-1v-8a3 3 0 0 1 3-3h2a1 1 0 0 1 0 2h-2a1 1 0 0 0 -1 1v8a1 1 0 0 1 -1 1z" fill="#ed1c24"/><path d="m11 57a4 4 0 0 0 -4-4 4 4 0 0 0 -4 4v-30a4 4 0 0 1 4-4 4 4 0 0 1 4 4z" fill="#ee8700"/><path d="m7 53a4 4 0 0 0 0 8h50v-4h-46a4 4 0 0 0 -4-4z" fill="#ff5023"/><path d="m11 27v1 29h46 4v-30z" fill="#ffeb99"/><path d="m48 39h6 1v-12-14h-8v14 12z" fill="#006df0"/><path d="m47 9h8v4h-8z" fill="#d1d3d4"/><path d="m55 7a4 4 0 0 0 -8 0v2h8z" fill="#005ece"/><path d="m48 43h1 4 1v-4h-6z" fill="#939598"/><path d="m26 57h35v-30c0 16.582-15.654 30-35 30z" fill="#ffde55"/><path d="m51 51 2-8h-4z" fill="#ee8700"/><path d="m20 39c1.221 0 2 .592 2 1a1 1 0 0 0 2 0c0-1.421-1.259-2.571-3-2.9v-1.1a1 1 0 0 0 -2 0v1.1c-1.741.327-3 1.477-3 2.9 0 1.682 1.757 3 4 3 1.221 0 2 .592 2 1s-.779 1-2 1-2-.592-2-1a1 1 0 0 0 -2 0c0 1.421 1.259 2.571 3 2.9v1.1a1 1 0 0 0 2 0v-1.1c1.741-.327 3-1.477 3-2.9 0-1.682-1.757-3-4-3-1.221 0-2-.592-2-1s.779-1 2-1z" fill="#ff5023"/><g fill="#a7a9ac"><path d="m29 34h14a1 1 0 0 0 0-2h-14a1 1 0 0 0 0 2z"/><path d="m29 38h14a1 1 0 0 0 0-2h-14a1 1 0 0 0 0 2z"/><path d="m29 48h17a1 1 0 0 0 0-2h-17a1 1 0 0 0 0 2z"/><path d="m47 50h-18a1 1 0 0 0 0 2h18a1 1 0 0 0 0-2z"/><path d="m55 50a1 1 0 0 0 0 2h2a1 1 0 0 0 0-2z"/></g></g></svg>