<?xml version="1.0" encoding="utf-8"?>
<!-- Generator: Adobe Illustrator 16.0.0, SVG Export Plug-In . SVG Version: 6.00 Build 0)  -->
<!DOCTYPE svg PUBLIC "-//W3C//DTD SVG 1.1//EN" "http://www.w3.org/Graphics/SVG/1.1/DTD/svg11.dtd">
<svg version="1.1" id="Layer_1" xmlns="http://www.w3.org/2000/svg" xmlns:xlink="http://www.w3.org/1999/xlink" x="0px" y="0px"
	 width="479.989px" height="463.992px" viewBox="15.96 16.008 479.989 463.992"
	 enable-background="new 15.96 16.008 479.989 463.992" xml:space="preserve">
<g id="Cloud_service">
	<path fill="#FFFFFF" d="M256,248c-44.184,0-80,35.816-80,80s35.816,80,80,80c44.183,0,80-35.816,80-80
		C335.95,283.838,300.162,248.048,256,248z M256,392c-35.348,0-64-28.654-64-64s28.652-64,64-64c35.346,0,64,28.654,64,64
		C319.96,363.33,291.329,391.961,256,392z"/>
	<path fill="#FFFFFF" d="M256,288c-22.092,0-40,17.908-40,40s17.908,40,40,40c22.091,0,40-17.908,40-40
		C295.974,305.92,278.08,288.025,256,288z M256,352c-13.255,0-24-10.745-24-24s10.745-24,24-24s24,10.745,24,24S269.255,352,256,352
		z"/>
	<path fill="#FFFFFF" d="M440,152.8c0-0.256,0-0.504,0-0.76c-0.063-30.99-25.235-56.062-56.226-56
		c-4.729,0.009-9.438,0.617-14.016,1.808C348.665,35.02,280.635,1.188,217.808,22.28c-35.635,11.964-63.604,39.934-75.566,75.568
		c-29.992-7.803-60.631,10.185-68.434,40.176C72.62,142.588,72.013,147.284,72,152c0,0.256,0,0.504,0,0.76
		c-48.177,22.043-69.362,78.967-47.319,127.143c14.43,31.537,44.757,52.83,79.319,55.689V352c0,4.418,3.581,8,8,8h28.304
		c2.623,9.499,6.414,18.635,11.288,27.2l-20.048,20c-3.123,3.124-3.123,8.188,0,11.312l33.92,33.92
		c3.124,3.123,8.188,3.123,11.312,0l20.024-20.022c8.563,4.873,17.701,8.665,27.2,11.288V472c0,4.418,3.581,8,8,8h48
		c4.418,0,8-3.582,8-8v-28.304c9.498-2.624,18.635-6.416,27.198-11.288l20,20.048c3.172,3.005,8.142,3.005,11.313,0l33.92-33.92
		c3.123-3.124,3.123-8.188,0-11.313L360.406,387.2c4.874-8.565,8.666-17.701,11.288-27.2H400c4.418,0,8-3.582,8-8v-16.393
		c0.23,0,0.479,0,0.712-0.039c52.772-4.816,91.649-51.502,86.834-104.275C492.423,197.069,471.236,167.129,440,152.8z M392,344
		H365.44c-3.759,0-7.012,2.616-7.816,6.288c-2.63,12.007-7.385,23.448-14.038,33.784c-2.034,3.168-1.585,7.324,1.078,9.984
		l18.824,18.822l-22.606,22.608l-18.824-18.824c-2.66-2.657-6.813-3.104-9.978-1.072c-10.347,6.637-21.79,11.38-33.8,14.008
		c-3.677,0.811-6.292,4.075-6.278,7.842V464h-32v-26.56c-0.003-3.755-2.614-7.001-6.28-7.81c-12.01-2.639-23.455-7.393-33.8-14.04
		c-3.164-2.031-7.316-1.585-9.978,1.072l-18.822,18.824l-22.608-22.608l18.824-18.822c2.664-2.66,3.113-6.816,1.08-9.984
		c-6.646-10.338-11.395-21.778-14.018-33.784c-0.806-3.681-4.07-6.3-7.84-6.288H120v-32h26.56c3.759,0,7.012-2.616,7.816-6.288
		c2.63-12.008,7.385-23.448,14.04-33.784c2.033-3.168,1.584-7.324-1.08-9.984l-18.824-18.822l22.608-22.608l18.822,18.824
		c2.66,2.657,6.813,3.104,9.978,1.072c10.347-6.636,21.792-11.379,33.8-14.008c3.678-0.81,6.293-4.074,6.28-7.84V192h32v26.56
		c0.002,3.753,2.613,7.001,6.278,7.808c12.012,2.639,23.455,7.393,33.8,14.04c3.164,2.031,7.316,1.585,9.978-1.072l18.824-18.824
		l22.606,22.608l-18.824,18.823c-2.664,2.66-3.112,6.815-1.079,9.983c6.646,10.339,11.394,21.778,14.017,33.784
		c0.807,3.682,4.072,6.3,7.84,6.288H392V344z M408,319.536V304c0-4.418-3.582-8-8-8h-28.306c-2.622-9.499-6.414-18.635-11.288-27.2
		l20.048-20c3.123-3.124,3.123-8.188,0-11.312l-33.92-33.92c-3.124-3.123-8.188-3.123-11.312,0l-20.024,20.024
		c-8.563-4.872-17.7-8.664-27.198-11.288V184c0-4.418-3.582-8-8-8h-48c-4.419,0-8,3.582-8,8v28.304
		c-9.499,2.623-18.636,6.414-27.2,11.288l-20-20.048c-3.174-3.001-8.139-3.001-11.313,0l-33.92,33.92
		c-3.123,3.124-3.123,8.188,0,11.312l20.024,20.024c-4.874,8.565-8.665,17.701-11.288,27.2H112c-4.419,0-8,3.582-8,8v15.592
		c-43.957-4.467-75.97-43.723-71.502-87.678C35.541,201.97,55.133,176.269,83.2,165.4c3.451-1.312,5.558-4.816,5.096-8.48
		c-2.852-21.773,12.489-41.734,34.263-44.584c1.804-0.236,3.622-0.348,5.441-0.335c5.58-0.045,11.103,1.125,16.184,3.432
		c4.017,1.843,8.766,0.083,10.608-3.933c0.2-0.437,0.359-0.89,0.479-1.355c14.294-55.63,70.979-89.14,126.61-74.846
		c36.728,9.438,65.407,38.118,74.846,74.846c1.095,4.28,5.452,6.863,9.733,5.768c0.465-0.119,0.918-0.28,1.354-0.48
		c5.081-2.307,10.604-3.478,16.185-3.432c21.959-0.133,39.866,17.561,39.999,39.519c0.012,1.806-0.102,3.61-0.336,5.401
		c-0.462,3.664,1.645,7.168,5.098,8.48c41.201,15.844,61.758,62.088,45.914,103.291C463.837,296.871,438.044,316.541,408,319.536z"
		/>
</g>
</svg>
