<?xml version="1.0" encoding="utf-8"?>
<!-- Generator: Adobe Illustrator 16.0.0, SVG Export Plug-In . SVG Version: 6.00 Build 0)  -->
<!DOCTYPE svg PUBLIC "-//W3C//DTD SVG 1.1//EN" "http://www.w3.org/Graphics/SVG/1.1/DTD/svg11.dtd">
<svg version="1.1" id="Layer_1" xmlns="http://www.w3.org/2000/svg" xmlns:xlink="http://www.w3.org/1999/xlink" x="0px" y="0px"
	 width="512px" height="470px" viewBox="0 0 512 470" enable-background="new 0 0 512 470" xml:space="preserve">
<path fill="#FFFFFF" d="M497,410h-58.578c-6.195-17.461-22.867-30-42.422-30s-36.227,12.539-42.422,30h-55.156
	c-4.527-12.766-14.656-22.895-27.422-27.422V330h135c57.898,0,105-47.102,105-105c0-26.117-9.652-51.148-27.184-70.484
	c-14.195-15.66-32.598-26.563-52.832-31.508C429.918,54.996,374.262,0,306,0c-39.16,0-75.156,17.906-98.746,48.52
	C194.223,42.918,180.188,40,166,40C108.102,40,61,87.102,61,145c0,6.141,0.555,12.27,1.652,18.344C26.949,173.555,1,206.543,1,245
	c0,46.867,38.133,85,85,85h155v52.578c-12.766,4.527-22.895,14.656-27.422,27.422h-55.156c-6.195-17.461-22.867-30-42.422-30
	s-36.227,12.539-42.422,30H15c-8.285,0-15,6.715-15,15s6.715,15,15,15h58.578c6.195,17.461,22.867,30,42.422,30
	s36.227-12.539,42.422-30h55.156c6.195,17.461,22.867,30,42.422,30s36.227-12.539,42.422-30h55.156
	c6.195,17.461,22.867,30,42.422,30s36.227-12.539,42.422-30H497c8.285,0,15-6.715,15-15S505.285,410,497,410z M116,440
	c-8.285,0-15-6.715-15-15s6.715-15,15-15s15,6.715,15,15S124.285,440,116,440z M256,440c-8.285,0-15-6.715-15-15s6.715-15,15-15
	s15,6.715,15,15S264.285,440,256,440z M396,440c-8.285,0-15-6.715-15-15s6.715-15,15-15s15,6.715,15,15S404.285,440,396,440z"/>
</svg>
