<svg xmlns="http://www.w3.org/2000/svg" width="1467.341" height="718.847" viewBox="0 0 1467.341 718.847">
  <g id="dataops" transform="translate(-228.66 -176.657)">
    <g id="Group_53" data-name="Group 53" transform="translate(228.66 181.254)" opacity="0.3" style="mix-blend-mode: multiply;isolation: isolate">
      <g id="Group_1" data-name="Group 1" transform="translate(0 49.055)">
        <path id="Path_2" data-name="Path 2" d="M373.686,383.464l-18.259-39.1a153.033,153.033,0,1,0-22.016,43.564Z" transform="translate(-56.976 169.786)" fill="#fff"/>
        <path id="Path_3" data-name="Path 3" d="M380.443,90.089a152.772,152.772,0,1,0-40.909,269.063l35.325,19.86,7.965-42.413a152.843,152.843,0,0,0-2.381-246.51Z" transform="translate(167.421 -61.416)" fill="#fff"/>
        <path id="Path_4" data-name="Path 4" d="M513.425,145.489a152.846,152.846,0,0,0-145.68,198.874l-18.259,39.1,40.279,4.463a152.761,152.761,0,1,0,123.66-242.438Z" transform="translate(747.426 169.786)" fill="#fff"/>
        <path id="Path_5" data-name="Path 5" d="M547.756,125.114A152.774,152.774,0,1,0,332.18,336.6l7.965,42.413,35.325-19.86A152.754,152.754,0,0,0,547.756,125.114Z" transform="translate(531.201 -61.416)" fill="#fff"/>
      </g>
      <g id="Group_2" data-name="Group 2" transform="translate(0.964 48.091)">
        <path id="Path_6" data-name="Path 6" d="M373.943,383.2l-18.259-39.1a153.033,153.033,0,1,0-22.016,43.564Z" transform="translate(-57.233 170.045)" fill="#fafafa"/>
        <path id="Path_7" data-name="Path 7" d="M380.7,89.832a152.774,152.774,0,1,0-40.909,269.063l35.321,19.86,7.965-42.409A152.848,152.848,0,0,0,380.7,89.832Z" transform="translate(167.163 -61.159)" fill="#fafafa"/>
        <path id="Path_8" data-name="Path 8" d="M513.678,145.233A152.846,152.846,0,0,0,368,344.107l-18.259,39.1,40.275,4.466a152.763,152.763,0,1,0,123.66-242.437Z" transform="translate(747.17 170.045)" fill="#fafafa"/>
        <path id="Path_9" data-name="Path 9" d="M548.01,124.861A152.773,152.773,0,1,0,332.434,336.346l7.969,42.409,35.321-19.86A152.75,152.75,0,0,0,548.01,124.861Z" transform="translate(530.944 -61.159)" fill="#fafafa"/>
      </g>
      <g id="Group_3" data-name="Group 3" transform="translate(1.924 47.131)">
        <path id="Path_10" data-name="Path 10" d="M374.2,382.951l-18.259-39.1a153.033,153.033,0,1,0-22.016,43.564Z" transform="translate(-57.489 170.299)" fill="#f5f5f5"/>
        <path id="Path_11" data-name="Path 11" d="M380.956,89.576a152.772,152.772,0,1,0-40.909,269.062l35.325,19.86,7.965-42.413a152.843,152.843,0,0,0-2.381-246.51Z" transform="translate(166.908 -60.903)" fill="#f5f5f5"/>
        <path id="Path_12" data-name="Path 12" d="M513.938,144.976A152.836,152.836,0,0,0,368.261,343.85L350,382.951l40.279,4.463a152.761,152.761,0,1,0,123.66-242.438Z" transform="translate(746.914 170.299)" fill="#f5f5f5"/>
        <path id="Path_13" data-name="Path 13" d="M548.265,124.6A152.772,152.772,0,1,0,332.693,336.086l7.965,42.413,35.325-19.86A152.752,152.752,0,0,0,548.265,124.6Z" transform="translate(530.688 -60.903)" fill="#f5f5f5"/>
      </g>
      <g id="Group_4" data-name="Group 4" transform="translate(2.887 46.168)">
        <path id="Path_14" data-name="Path 14" d="M374.456,382.691l-18.259-39.1a153.033,153.033,0,1,0-22.016,43.564Z" transform="translate(-57.746 170.557)" fill="#f0f0f0"/>
        <path id="Path_15" data-name="Path 15" d="M381.214,89.322a152.772,152.772,0,1,0-40.909,269.063l35.321,19.856,7.965-42.413a152.837,152.837,0,0,0-2.378-246.506Z" transform="translate(166.65 -60.646)" fill="#f0f0f0"/>
        <path id="Path_16" data-name="Path 16" d="M514.191,144.72A152.846,152.846,0,0,0,368.515,343.594l-18.259,39.1,40.275,4.466A152.763,152.763,0,1,0,514.191,144.72Z" transform="translate(746.656 170.557)" fill="#f0f0f0"/>
        <path id="Path_17" data-name="Path 17" d="M548.523,124.347A152.773,152.773,0,1,0,332.947,335.828l7.969,42.413,35.321-19.856A152.753,152.753,0,0,0,548.523,124.347Z" transform="translate(530.431 -60.646)" fill="#f0f0f0"/>
      </g>
      <g id="Group_5" data-name="Group 5" transform="translate(3.847 45.207)">
        <path id="Path_18" data-name="Path 18" d="M374.712,382.438l-18.259-39.1A153.033,153.033,0,1,0,334.437,386.9Z" transform="translate(-58.002 170.812)" fill="#ebebeb"/>
        <path id="Path_19" data-name="Path 19" d="M381.469,89.063A152.772,152.772,0,1,0,340.56,358.126l35.325,19.86,7.965-42.412a152.843,152.843,0,0,0-2.381-246.51Z" transform="translate(166.395 -60.39)" fill="#ebebeb"/>
        <path id="Path_20" data-name="Path 20" d="M514.451,144.463a152.846,152.846,0,0,0-145.68,198.874l-18.259,39.1,40.279,4.463a152.761,152.761,0,1,0,123.66-242.437Z" transform="translate(746.401 170.812)" fill="#ebebeb"/>
        <path id="Path_21" data-name="Path 21" d="M548.782,124.088A152.774,152.774,0,1,0,333.206,335.573l7.965,42.412,35.325-19.86A152.754,152.754,0,0,0,548.782,124.088Z" transform="translate(530.176 -60.39)" fill="#ebebeb"/>
      </g>
      <g id="Group_6" data-name="Group 6" transform="translate(4.811 44.244)">
        <path id="Path_22" data-name="Path 22" d="M374.969,382.178l-18.259-39.1a153.033,153.033,0,1,0-22.016,43.564Z" transform="translate(-58.259 171.071)" fill="#e6e6e6"/>
        <path id="Path_23" data-name="Path 23" d="M381.727,88.806a152.774,152.774,0,1,0-40.909,269.063l35.321,19.86L384.1,335.32a152.848,152.848,0,0,0-2.378-246.514Z" transform="translate(166.137 -60.133)" fill="#e6e6e6"/>
        <path id="Path_24" data-name="Path 24" d="M514.7,144.207A152.846,152.846,0,0,0,369.028,343.081l-18.259,39.1,40.275,4.466A152.763,152.763,0,1,0,514.7,144.207Z" transform="translate(746.144 171.071)" fill="#e6e6e6"/>
        <path id="Path_25" data-name="Path 25" d="M549.036,123.835A152.773,152.773,0,1,0,333.46,335.32l7.969,42.409,35.321-19.86A152.75,152.75,0,0,0,549.036,123.835Z" transform="translate(529.918 -60.133)" fill="#e6e6e6"/>
      </g>
      <g id="Group_7" data-name="Group 7" transform="translate(5.771 43.284)">
        <path id="Path_26" data-name="Path 26" d="M375.225,381.925l-18.259-39.1a153.033,153.033,0,1,0-22.016,43.564Z" transform="translate(-58.515 171.325)" fill="#e1e1e1"/>
        <path id="Path_27" data-name="Path 27" d="M381.982,88.55a152.772,152.772,0,1,0-40.909,269.062l35.325,19.86,7.965-42.412a152.843,152.843,0,0,0-2.381-246.51Z" transform="translate(165.882 -59.877)" fill="#e1e1e1"/>
        <path id="Path_28" data-name="Path 28" d="M514.964,143.95A152.836,152.836,0,0,0,369.287,342.824l-18.262,39.1,40.279,4.462A152.761,152.761,0,1,0,514.964,143.95Z" transform="translate(745.887 171.325)" fill="#e1e1e1"/>
        <path id="Path_29" data-name="Path 29" d="M549.291,123.575A152.772,152.772,0,1,0,333.719,335.06l7.965,42.412,35.325-19.86A152.752,152.752,0,0,0,549.291,123.575Z" transform="translate(529.662 -59.877)" fill="#e1e1e1"/>
      </g>
      <g id="Group_8" data-name="Group 8" transform="translate(6.735 42.321)">
        <path id="Path_30" data-name="Path 30" d="M375.482,381.665l-18.259-39.1a153.033,153.033,0,1,0-22.016,43.564Z" transform="translate(-58.772 171.583)" fill="#dcdcdc"/>
        <path id="Path_31" data-name="Path 31" d="M382.24,88.3a152.772,152.772,0,1,0-40.909,269.062l35.321,19.856,7.965-42.412A152.836,152.836,0,0,0,382.24,88.3Z" transform="translate(165.624 -59.62)" fill="#dcdcdc"/>
        <path id="Path_32" data-name="Path 32" d="M515.217,143.694A152.846,152.846,0,0,0,369.541,342.568l-18.259,39.1,40.275,4.466a152.763,152.763,0,1,0,123.66-242.437Z" transform="translate(745.631 171.583)" fill="#dcdcdc"/>
        <path id="Path_33" data-name="Path 33" d="M549.549,123.321A152.772,152.772,0,1,0,333.973,334.8l7.969,42.412,35.321-19.856A152.753,152.753,0,0,0,549.549,123.321Z" transform="translate(529.405 -59.62)" fill="#dcdcdc"/>
      </g>
      <g id="Group_9" data-name="Group 9" transform="translate(7.695 41.36)">
        <path id="Path_34" data-name="Path 34" d="M375.738,381.412l-18.259-39.1a153.033,153.033,0,1,0-22.016,43.564Z" transform="translate(-59.028 171.838)" fill="#d7d7d7"/>
        <path id="Path_35" data-name="Path 35" d="M382.5,88.037A152.772,152.772,0,1,0,341.586,357.1l35.325,19.86,7.965-42.413A152.843,152.843,0,0,0,382.5,88.037Z" transform="translate(165.369 -59.364)" fill="#d7d7d7"/>
        <path id="Path_36" data-name="Path 36" d="M515.477,143.437A152.846,152.846,0,0,0,369.8,342.311l-18.259,39.1,40.279,4.463a152.761,152.761,0,1,0,123.66-242.438Z" transform="translate(745.375 171.838)" fill="#d7d7d7"/>
        <path id="Path_37" data-name="Path 37" d="M549.8,123.062A152.772,152.772,0,1,0,334.232,334.547L342.2,376.96l35.325-19.86A152.752,152.752,0,0,0,549.8,123.062Z" transform="translate(529.149 -59.364)" fill="#d7d7d7"/>
      </g>
      <g id="Group_10" data-name="Group 10" transform="translate(8.659 40.396)">
        <path id="Path_38" data-name="Path 38" d="M375.995,381.152l-18.259-39.1a153.033,153.033,0,1,0-22.016,43.564Z" transform="translate(-59.285 172.097)" fill="#d2d2d2"/>
        <path id="Path_39" data-name="Path 39" d="M382.753,87.78a152.774,152.774,0,1,0-40.909,269.063l35.321,19.86,7.965-42.409A152.848,152.848,0,0,0,382.753,87.78Z" transform="translate(165.111 -59.107)" fill="#d2d2d2"/>
        <path id="Path_40" data-name="Path 40" d="M515.73,143.181A152.846,152.846,0,0,0,370.054,342.055l-18.259,39.1,40.275,4.466A152.763,152.763,0,1,0,515.73,143.181Z" transform="translate(745.117 172.097)" fill="#d2d2d2"/>
        <path id="Path_41" data-name="Path 41" d="M550.063,122.809A152.773,152.773,0,1,0,334.487,334.294l7.969,42.409,35.321-19.86A152.75,152.75,0,0,0,550.063,122.809Z" transform="translate(528.891 -59.107)" fill="#d2d2d2"/>
      </g>
      <g id="Group_11" data-name="Group 11" transform="translate(9.619 39.436)">
        <path id="Path_42" data-name="Path 42" d="M376.251,380.9l-18.259-39.1a153.033,153.033,0,1,0-22.016,43.564Z" transform="translate(-59.541 172.351)" fill="#cdcdcd"/>
        <path id="Path_43" data-name="Path 43" d="M383.008,87.524A152.772,152.772,0,1,0,342.1,356.587l35.325,19.86,7.965-42.413a152.843,152.843,0,0,0-2.381-246.51Z" transform="translate(164.856 -58.851)" fill="#cdcdcd"/>
        <path id="Path_44" data-name="Path 44" d="M515.99,142.924A152.836,152.836,0,0,0,370.313,341.8l-18.262,39.1,40.279,4.463A152.761,152.761,0,1,0,515.99,142.924Z" transform="translate(744.861 172.351)" fill="#cdcdcd"/>
        <path id="Path_45" data-name="Path 45" d="M550.317,122.549A152.772,152.772,0,1,0,334.745,334.034l7.965,42.413,35.325-19.86A152.752,152.752,0,0,0,550.317,122.549Z" transform="translate(528.636 -58.851)" fill="#cdcdcd"/>
      </g>
      <g id="Group_12" data-name="Group 12" transform="translate(10.582 38.473)">
        <path id="Path_46" data-name="Path 46" d="M376.508,380.639l-18.259-39.1a153.033,153.033,0,1,0-22.016,43.564Z" transform="translate(-59.798 172.609)" fill="#c8c8c8"/>
        <path id="Path_47" data-name="Path 47" d="M383.266,87.27a152.772,152.772,0,1,0-40.909,269.059l35.321,19.86,7.965-42.409a152.845,152.845,0,0,0-2.378-246.51Z" transform="translate(164.598 -58.594)" fill="#c8c8c8"/>
        <path id="Path_48" data-name="Path 48" d="M516.243,142.668A152.846,152.846,0,0,0,370.567,341.542l-18.259,39.1,40.275,4.466a152.763,152.763,0,1,0,123.66-242.438Z" transform="translate(744.605 172.609)" fill="#c8c8c8"/>
        <path id="Path_49" data-name="Path 49" d="M550.575,122.3A152.773,152.773,0,1,0,335,333.78l7.969,42.409,35.321-19.86A152.75,152.75,0,0,0,550.575,122.3Z" transform="translate(528.379 -58.594)" fill="#c8c8c8"/>
      </g>
      <g id="Group_13" data-name="Group 13" transform="translate(11.542 37.512)">
        <path id="Path_50" data-name="Path 50" d="M376.764,380.386l-18.259-39.1a153.021,153.021,0,1,0-22.016,43.568Z" transform="translate(-60.054 172.864)" fill="#c3c3c3"/>
        <path id="Path_51" data-name="Path 51" d="M383.521,87.011a152.772,152.772,0,1,0-40.909,269.063l35.325,19.86,7.965-42.412a152.843,152.843,0,0,0-2.381-246.51Z" transform="translate(164.343 -58.338)" fill="#c3c3c3"/>
        <path id="Path_52" data-name="Path 52" d="M516.5,142.411a152.846,152.846,0,0,0-145.68,198.874l-18.259,39.1,40.279,4.466A152.762,152.762,0,1,0,516.5,142.411Z" transform="translate(744.348 172.864)" fill="#c3c3c3"/>
        <path id="Path_53" data-name="Path 53" d="M550.83,122.036A152.772,152.772,0,1,0,335.258,333.521l7.965,42.412,35.325-19.86A152.752,152.752,0,0,0,550.83,122.036Z" transform="translate(528.123 -58.338)" fill="#c3c3c3"/>
      </g>
      <g id="Group_14" data-name="Group 14" transform="translate(12.506 36.551)">
        <path id="Path_54" data-name="Path 54" d="M377.021,380.126l-18.259-39.1a153.033,153.033,0,1,0-22.016,43.564Z" transform="translate(-60.311 173.121)" fill="#bebebe"/>
        <path id="Path_55" data-name="Path 55" d="M383.779,86.756A152.772,152.772,0,1,0,342.87,355.818l35.321,19.856,7.965-42.409a152.845,152.845,0,0,0-2.378-246.51Z" transform="translate(164.085 -58.081)" fill="#bebebe"/>
        <path id="Path_56" data-name="Path 56" d="M516.756,142.155A152.846,152.846,0,0,0,371.08,341.029l-18.259,39.1,40.275,4.466a152.763,152.763,0,1,0,123.66-242.437Z" transform="translate(744.091 173.121)" fill="#bebebe"/>
        <path id="Path_57" data-name="Path 57" d="M551.089,121.781A152.772,152.772,0,1,0,335.513,333.266l7.969,42.409L378.8,355.818A152.753,152.753,0,0,0,551.089,121.781Z" transform="translate(527.865 -58.081)" fill="#bebebe"/>
      </g>
      <g id="Group_15" data-name="Group 15" transform="translate(13.466 35.589)">
        <path id="Path_58" data-name="Path 58" d="M377.277,379.873l-18.259-39.1A153.033,153.033,0,1,0,337,384.336Z" transform="translate(-60.567 173.377)" fill="#b9b9b9"/>
        <path id="Path_59" data-name="Path 59" d="M384.034,86.5a152.772,152.772,0,1,0-40.909,269.062l35.325,19.86,7.965-42.412A152.843,152.843,0,0,0,384.034,86.5Z" transform="translate(163.83 -57.825)" fill="#b9b9b9"/>
        <path id="Path_60" data-name="Path 60" d="M517.016,141.9A152.835,152.835,0,0,0,371.34,340.772l-18.263,39.1,40.279,4.462A152.761,152.761,0,1,0,517.016,141.9Z" transform="translate(743.836 173.377)" fill="#b9b9b9"/>
        <path id="Path_61" data-name="Path 61" d="M551.343,121.523A152.772,152.772,0,1,0,335.771,333.008l7.965,42.412,35.325-19.86A152.752,152.752,0,0,0,551.343,121.523Z" transform="translate(527.61 -57.825)" fill="#b9b9b9"/>
      </g>
      <g id="Group_16" data-name="Group 16" transform="translate(14.43 34.628)">
        <path id="Path_62" data-name="Path 62" d="M377.534,379.613l-18.259-39.1a153.033,153.033,0,1,0-22.016,43.564Z" transform="translate(-60.824 173.634)" fill="#b4b4b4"/>
        <path id="Path_63" data-name="Path 63" d="M384.292,86.243a152.772,152.772,0,1,0-40.909,269.062L378.7,375.162l7.965-42.409a152.845,152.845,0,0,0-2.377-246.51Z" transform="translate(163.572 -57.568)" fill="#b4b4b4"/>
        <path id="Path_64" data-name="Path 64" d="M517.269,141.642A152.846,152.846,0,0,0,371.593,340.516l-18.259,39.1,40.275,4.466a152.763,152.763,0,1,0,123.66-242.438Z" transform="translate(743.578 173.634)" fill="#b4b4b4"/>
        <path id="Path_65" data-name="Path 65" d="M551.6,121.268A152.773,152.773,0,1,0,336.025,332.753l7.969,42.409,35.321-19.856A152.753,152.753,0,0,0,551.6,121.268Z" transform="translate(527.353 -57.568)" fill="#b4b4b4"/>
      </g>
      <g id="Group_17" data-name="Group 17" transform="translate(15.39 33.665)">
        <path id="Path_66" data-name="Path 66" d="M377.79,379.36l-18.259-39.1a153.021,153.021,0,1,0-22.016,43.568Z" transform="translate(-61.08 173.89)" fill="#afafaf"/>
        <path id="Path_67" data-name="Path 67" d="M384.547,85.985a152.774,152.774,0,1,0-40.909,269.062l35.325,19.86,7.965-42.413a152.843,152.843,0,0,0-2.381-246.51Z" transform="translate(163.317 -57.312)" fill="#afafaf"/>
        <path id="Path_68" data-name="Path 68" d="M517.529,141.385a152.846,152.846,0,0,0-145.68,198.874l-18.259,39.1,40.279,4.466a152.762,152.762,0,1,0,123.66-242.441Z" transform="translate(743.322 173.89)" fill="#afafaf"/>
        <path id="Path_69" data-name="Path 69" d="M551.856,121.01A152.772,152.772,0,1,0,336.284,332.5l7.965,42.412,35.325-19.86A152.751,152.751,0,0,0,551.856,121.01Z" transform="translate(527.097 -57.312)" fill="#afafaf"/>
      </g>
      <g id="Group_18" data-name="Group 18" transform="translate(16.354 32.704)">
        <path id="Path_70" data-name="Path 70" d="M378.047,379.1,359.788,340a153.033,153.033,0,1,0-22.016,43.564Z" transform="translate(-61.337 174.147)" fill="#aaa"/>
        <path id="Path_71" data-name="Path 71" d="M384.8,85.73a152.772,152.772,0,1,0-40.912,269.062l35.325,19.856,7.965-42.409A152.845,152.845,0,0,0,384.8,85.73Z" transform="translate(163.059 -57.055)" fill="#aaa"/>
        <path id="Path_72" data-name="Path 72" d="M517.782,141.129A152.846,152.846,0,0,0,372.106,340l-18.259,39.1,40.275,4.466a152.763,152.763,0,1,0,123.66-242.437Z" transform="translate(743.065 174.147)" fill="#aaa"/>
        <path id="Path_73" data-name="Path 73" d="M552.115,120.755A152.773,152.773,0,1,0,336.539,332.24l7.965,42.409,35.325-19.856A152.753,152.753,0,0,0,552.115,120.755Z" transform="translate(526.839 -57.055)" fill="#aaa"/>
      </g>
      <g id="Group_19" data-name="Group 19" transform="translate(17.314 31.741)">
        <path id="Path_74" data-name="Path 74" d="M378.3,378.847l-18.259-39.1a153.02,153.02,0,1,0-22.016,43.568Z" transform="translate(-61.593 174.403)" fill="#a5a5a5"/>
        <path id="Path_75" data-name="Path 75" d="M385.06,85.472a152.772,152.772,0,1,0-40.909,269.063l35.325,19.86,7.965-42.413a152.843,152.843,0,0,0-2.381-246.51Z" transform="translate(162.804 -56.799)" fill="#a5a5a5"/>
        <path id="Path_76" data-name="Path 76" d="M518.042,140.872a152.846,152.846,0,0,0-145.68,198.874l-18.259,39.1,40.279,4.466a152.762,152.762,0,1,0,123.66-242.441Z" transform="translate(742.81 174.403)" fill="#a5a5a5"/>
        <path id="Path_77" data-name="Path 77" d="M552.373,120.5A152.774,152.774,0,1,0,336.8,331.982l7.965,42.413,35.325-19.86A152.754,152.754,0,0,0,552.373,120.5Z" transform="translate(526.585 -56.799)" fill="#a5a5a5"/>
      </g>
      <g id="Group_20" data-name="Group 20" transform="translate(18.277 30.78)">
        <path id="Path_78" data-name="Path 78" d="M378.56,378.587,360.3,339.49a153.033,153.033,0,1,0-22.016,43.564Z" transform="translate(-61.85 174.66)" fill="#a0a0a0"/>
        <path id="Path_79" data-name="Path 79" d="M385.318,85.217a152.772,152.772,0,1,0-40.913,269.062l35.325,19.856,7.965-42.409a152.845,152.845,0,0,0-2.377-246.51Z" transform="translate(162.546 -56.542)" fill="#a0a0a0"/>
        <path id="Path_80" data-name="Path 80" d="M518.295,140.616A152.846,152.846,0,0,0,372.619,339.49l-18.259,39.1,40.275,4.466a152.763,152.763,0,1,0,123.66-242.438Z" transform="translate(742.552 174.66)" fill="#a0a0a0"/>
        <path id="Path_81" data-name="Path 81" d="M552.628,120.242A152.773,152.773,0,1,0,337.052,331.727l7.965,42.409,35.325-19.856A152.753,152.753,0,0,0,552.628,120.242Z" transform="translate(526.326 -56.542)" fill="#a0a0a0"/>
      </g>
      <g id="Group_21" data-name="Group 21" transform="translate(19.237 29.817)">
        <path id="Path_82" data-name="Path 82" d="M378.816,378.334l-18.259-39.1A153.033,153.033,0,1,0,338.541,382.8Z" transform="translate(-62.106 174.916)" fill="#9b9b9b"/>
        <path id="Path_83" data-name="Path 83" d="M385.573,84.959a152.772,152.772,0,1,0-40.909,269.063l35.325,19.86,7.965-42.412a152.843,152.843,0,0,0-2.381-246.51Z" transform="translate(162.291 -56.286)" fill="#9b9b9b"/>
        <path id="Path_84" data-name="Path 84" d="M518.555,140.359a152.846,152.846,0,0,0-145.68,198.874l-18.259,39.1,40.279,4.463a152.761,152.761,0,1,0,123.66-242.437Z" transform="translate(742.297 174.916)" fill="#9b9b9b"/>
        <path id="Path_85" data-name="Path 85" d="M552.882,119.984A152.772,152.772,0,1,0,337.31,331.469l7.965,42.412,35.325-19.86A152.752,152.752,0,0,0,552.882,119.984Z" transform="translate(526.072 -56.286)" fill="#9b9b9b"/>
      </g>
      <g id="Group_22" data-name="Group 22" transform="translate(20.201 28.855)">
        <path id="Path_86" data-name="Path 86" d="M379.073,378.074l-18.259-39.1A153.033,153.033,0,1,0,338.8,382.541Z" transform="translate(-62.363 175.174)" fill="#969696"/>
        <path id="Path_87" data-name="Path 87" d="M385.831,84.705a152.772,152.772,0,1,0-40.913,269.062l35.325,19.856,7.965-42.409a152.845,152.845,0,0,0-2.377-246.51Z" transform="translate(162.033 -56.029)" fill="#969696"/>
        <path id="Path_88" data-name="Path 88" d="M518.808,140.1A152.846,152.846,0,0,0,373.132,338.977l-18.259,39.1,40.275,4.466A152.763,152.763,0,1,0,518.808,140.1Z" transform="translate(742.039 175.174)" fill="#969696"/>
        <path id="Path_89" data-name="Path 89" d="M553.141,119.73A152.773,152.773,0,1,0,337.565,331.215l7.965,42.409,35.325-19.856A152.753,152.753,0,0,0,553.141,119.73Z" transform="translate(525.813 -56.029)" fill="#969696"/>
      </g>
      <g id="Group_23" data-name="Group 23" transform="translate(21.161 27.894)">
        <path id="Path_90" data-name="Path 90" d="M379.329,377.821l-18.259-39.1a153.026,153.026,0,1,0-22.016,43.564Z" transform="translate(-62.619 175.429)" fill="#919191"/>
        <path id="Path_91" data-name="Path 91" d="M386.086,84.446a152.772,152.772,0,1,0-40.909,269.063l35.321,19.86,7.969-42.412a152.851,152.851,0,0,0-2.381-246.51Z" transform="translate(161.778 -55.773)" fill="#919191"/>
        <path id="Path_92" data-name="Path 92" d="M519.068,139.846a152.849,152.849,0,0,0-145.68,198.878l-18.259,39.1,40.279,4.466a152.762,152.762,0,1,0,123.66-242.441Z" transform="translate(741.783 175.429)" fill="#919191"/>
        <path id="Path_93" data-name="Path 93" d="M553.4,119.471A152.772,152.772,0,1,0,337.823,330.956l7.965,42.412,35.325-19.86A152.752,152.752,0,0,0,553.4,119.471Z" transform="translate(525.559 -55.773)" fill="#919191"/>
      </g>
      <g id="Group_24" data-name="Group 24" transform="translate(22.125 26.932)">
        <path id="Path_94" data-name="Path 94" d="M379.586,377.565l-18.259-39.1a153.033,153.033,0,1,0-22.016,43.564Z" transform="translate(-62.876 175.686)" fill="#8c8c8c"/>
        <path id="Path_95" data-name="Path 95" d="M386.344,84.191a152.772,152.772,0,1,0-40.913,269.063l35.325,19.856,7.965-42.409a152.845,152.845,0,0,0-2.377-246.51Z" transform="translate(161.52 -55.516)" fill="#8c8c8c"/>
        <path id="Path_96" data-name="Path 96" d="M519.321,139.59A152.846,152.846,0,0,0,373.645,338.464l-18.259,39.1,40.275,4.463A152.763,152.763,0,1,0,519.321,139.59Z" transform="translate(741.526 175.686)" fill="#8c8c8c"/>
        <path id="Path_97" data-name="Path 97" d="M553.654,119.216A152.772,152.772,0,1,0,338.078,330.7l7.969,42.409,35.321-19.856A152.753,152.753,0,0,0,553.654,119.216Z" transform="translate(525.3 -55.516)" fill="#8c8c8c"/>
      </g>
      <g id="Group_25" data-name="Group 25" transform="translate(23.085 25.97)">
        <path id="Path_98" data-name="Path 98" d="M379.842,377.308l-18.259-39.1a153.02,153.02,0,1,0-22.016,43.568Z" transform="translate(-63.132 175.942)" fill="#878787"/>
        <path id="Path_99" data-name="Path 99" d="M386.6,83.933A152.774,152.774,0,1,0,345.69,353l35.321,19.86,7.969-42.412A152.852,152.852,0,0,0,386.6,83.933Z" transform="translate(161.265 -55.26)" fill="#878787"/>
        <path id="Path_100" data-name="Path 100" d="M519.581,139.333A152.846,152.846,0,0,0,373.9,338.207l-18.259,39.1,40.275,4.466A152.764,152.764,0,1,0,519.581,139.333Z" transform="translate(741.271 175.942)" fill="#878787"/>
        <path id="Path_101" data-name="Path 101" d="M553.908,118.958A152.772,152.772,0,1,0,338.336,330.443l7.965,42.412L381.626,353A152.751,152.751,0,0,0,553.908,118.958Z" transform="translate(525.046 -55.26)" fill="#878787"/>
      </g>
      <g id="Group_26" data-name="Group 26" transform="translate(24.049 25.007)">
        <path id="Path_102" data-name="Path 102" d="M380.1,377.052l-18.259-39.1a153.05,153.05,0,1,0-22.02,43.564Z" transform="translate(-63.389 176.2)" fill="#828282"/>
        <path id="Path_103" data-name="Path 103" d="M386.857,83.679a152.772,152.772,0,1,0-40.912,269.062L381.269,372.6l7.965-42.409a152.845,152.845,0,0,0-2.378-246.51Z" transform="translate(161.007 -55.003)" fill="#828282"/>
        <path id="Path_104" data-name="Path 104" d="M519.834,139.077A152.846,152.846,0,0,0,374.158,337.951l-18.259,39.1,40.275,4.463a152.763,152.763,0,1,0,123.66-242.437Z" transform="translate(741.013 176.2)" fill="#828282"/>
        <path id="Path_105" data-name="Path 105" d="M554.167,118.7A152.772,152.772,0,1,0,338.591,330.189l7.965,42.409,35.325-19.856A152.753,152.753,0,0,0,554.167,118.7Z" transform="translate(524.787 -55.003)" fill="#828282"/>
      </g>
      <g id="Group_27" data-name="Group 27" transform="translate(25.009 24.046)">
        <path id="Path_106" data-name="Path 106" d="M380.355,376.795,362.1,337.7a153.026,153.026,0,1,0-22.016,43.564Z" transform="translate(-63.645 176.455)" fill="#7d7d7d"/>
        <path id="Path_107" data-name="Path 107" d="M387.112,83.42A152.774,152.774,0,1,0,346.2,352.483l35.321,19.86,7.969-42.413a152.851,152.851,0,0,0-2.381-246.51Z" transform="translate(160.752 -54.747)" fill="#7d7d7d"/>
        <path id="Path_108" data-name="Path 108" d="M520.094,138.82A152.849,152.849,0,0,0,374.414,337.7l-18.259,39.1,40.275,4.466A152.764,152.764,0,1,0,520.094,138.82Z" transform="translate(740.757 176.455)" fill="#7d7d7d"/>
        <path id="Path_109" data-name="Path 109" d="M554.421,118.445A152.772,152.772,0,1,0,338.849,329.93l7.965,42.413,35.325-19.86A152.751,152.751,0,0,0,554.421,118.445Z" transform="translate(524.533 -54.747)" fill="#7d7d7d"/>
      </g>
      <g id="Group_28" data-name="Group 28" transform="translate(25.972 23.085)">
        <path id="Path_110" data-name="Path 110" d="M380.612,376.539l-18.259-39.1A153.05,153.05,0,1,0,340.333,381Z" transform="translate(-63.902 176.712)" fill="#787878"/>
        <path id="Path_111" data-name="Path 111" d="M387.37,83.165a152.772,152.772,0,1,0-40.909,269.062l35.321,19.856,7.965-42.409a152.845,152.845,0,0,0-2.378-246.51Z" transform="translate(160.494 -54.49)" fill="#787878"/>
        <path id="Path_112" data-name="Path 112" d="M520.347,138.564A152.846,152.846,0,0,0,374.671,337.438l-18.259,39.1L396.687,381a152.763,152.763,0,1,0,123.66-242.438Z" transform="translate(740.5 176.712)" fill="#787878"/>
        <path id="Path_113" data-name="Path 113" d="M554.68,118.19A152.772,152.772,0,1,0,339.1,329.675l7.969,42.409,35.321-19.856A152.753,152.753,0,0,0,554.68,118.19Z" transform="translate(524.274 -54.49)" fill="#787878"/>
      </g>
      <g id="Group_29" data-name="Group 29" transform="translate(26.932 22.122)">
        <path id="Path_114" data-name="Path 114" d="M380.868,376.282l-18.259-39.1a153.038,153.038,0,1,0-22.016,43.56Z" transform="translate(-64.158 176.968)" fill="#737373"/>
        <path id="Path_115" data-name="Path 115" d="M387.625,82.907A152.774,152.774,0,1,0,346.716,351.97l35.321,19.86,7.969-42.412a152.852,152.852,0,0,0-2.381-246.51Z" transform="translate(160.239 -54.234)" fill="#737373"/>
        <path id="Path_116" data-name="Path 116" d="M520.607,138.307a152.849,152.849,0,0,0-145.68,198.878l-18.259,39.1,40.275,4.463A152.763,152.763,0,1,0,520.607,138.307Z" transform="translate(740.245 176.968)" fill="#737373"/>
        <path id="Path_117" data-name="Path 117" d="M554.934,117.932A152.772,152.772,0,1,0,339.362,329.417l7.965,42.412,35.325-19.86A152.751,152.751,0,0,0,554.934,117.932Z" transform="translate(524.02 -54.234)" fill="#737373"/>
      </g>
      <g id="Group_30" data-name="Group 30" transform="translate(27.896 21.16)">
        <path id="Path_118" data-name="Path 118" d="M381.125,376.022l-18.259-39.1a153.049,153.049,0,1,0-22.02,43.564Z" transform="translate(-64.415 177.226)" fill="#6e6e6e"/>
        <path id="Path_119" data-name="Path 119" d="M387.884,82.653a152.772,152.772,0,1,0-40.912,269.062L382.3,371.572l7.965-42.409a152.845,152.845,0,0,0-2.378-246.51Z" transform="translate(159.98 -53.977)" fill="#6e6e6e"/>
        <path id="Path_120" data-name="Path 120" d="M520.86,138.051A152.846,152.846,0,0,0,375.184,336.925l-18.259,39.1,40.275,4.466A152.763,152.763,0,1,0,520.86,138.051Z" transform="translate(739.987 177.226)" fill="#6e6e6e"/>
        <path id="Path_121" data-name="Path 121" d="M555.194,117.678A152.774,152.774,0,1,0,339.617,329.163l7.965,42.409,35.325-19.856A152.753,152.753,0,0,0,555.194,117.678Z" transform="translate(523.76 -53.977)" fill="#6e6e6e"/>
      </g>
      <g id="Group_31" data-name="Group 31" transform="translate(28.856 20.199)">
        <path id="Path_122" data-name="Path 122" d="M381.381,375.769l-18.259-39.1a153.026,153.026,0,1,0-22.016,43.564Z" transform="translate(-64.671 177.481)" fill="#696969"/>
        <path id="Path_123" data-name="Path 123" d="M388.138,82.394a152.774,152.774,0,1,0-40.909,269.063l35.321,19.86,7.969-42.412a152.851,152.851,0,0,0-2.381-246.51Z" transform="translate(159.726 -53.721)" fill="#696969"/>
        <path id="Path_124" data-name="Path 124" d="M521.12,137.794A152.849,152.849,0,0,0,375.44,336.671l-18.259,39.1,40.279,4.466A152.762,152.762,0,1,0,521.12,137.794Z" transform="translate(739.732 177.481)" fill="#696969"/>
        <path id="Path_125" data-name="Path 125" d="M555.447,117.419A152.772,152.772,0,1,0,339.875,328.9l7.965,42.412,35.325-19.86A152.751,152.751,0,0,0,555.447,117.419Z" transform="translate(523.507 -53.721)" fill="#696969"/>
      </g>
      <g id="Group_32" data-name="Group 32" transform="translate(29.82 19.238)">
        <path id="Path_126" data-name="Path 126" d="M381.638,375.513l-18.259-39.1a153.05,153.05,0,1,0-22.02,43.564Z" transform="translate(-64.928 177.738)" fill="#646464"/>
        <path id="Path_127" data-name="Path 127" d="M388.4,82.139A152.772,152.772,0,1,0,347.485,351.2l35.325,19.856,7.965-42.409A152.845,152.845,0,0,0,388.4,82.139Z" transform="translate(159.466 -53.464)" fill="#646464"/>
        <path id="Path_128" data-name="Path 128" d="M521.373,137.538A152.846,152.846,0,0,0,375.7,336.412l-18.259,39.1,40.275,4.463a152.763,152.763,0,1,0,123.66-242.438Z" transform="translate(739.474 177.738)" fill="#646464"/>
        <path id="Path_129" data-name="Path 129" d="M555.706,117.164A152.772,152.772,0,1,0,340.13,328.649l7.969,42.409L383.42,351.2A152.753,152.753,0,0,0,555.706,117.164Z" transform="translate(523.248 -53.464)" fill="#646464"/>
      </g>
      <g id="Group_33" data-name="Group 33" transform="translate(30.78 18.275)">
        <path id="Path_130" data-name="Path 130" d="M381.894,375.256l-18.259-39.1a153.02,153.02,0,1,0-22.016,43.568Z" transform="translate(-65.184 177.994)" fill="#5f5f5f"/>
        <path id="Path_131" data-name="Path 131" d="M388.651,81.881a152.772,152.772,0,1,0-40.909,269.063l35.321,19.86,7.969-42.413a152.852,152.852,0,0,0-2.381-246.51Z" transform="translate(159.213 -53.208)" fill="#5f5f5f"/>
        <path id="Path_132" data-name="Path 132" d="M521.633,137.281a152.846,152.846,0,0,0-145.68,198.874l-18.259,39.1,40.275,4.466A152.764,152.764,0,1,0,521.633,137.281Z" transform="translate(739.219 177.994)" fill="#5f5f5f"/>
        <path id="Path_133" data-name="Path 133" d="M555.96,116.906A152.772,152.772,0,1,0,340.388,328.391l7.965,42.413,35.321-19.86A152.753,152.753,0,0,0,555.96,116.906Z" transform="translate(522.994 -53.208)" fill="#5f5f5f"/>
      </g>
      <g id="Group_34" data-name="Group 34" transform="translate(31.744 17.314)">
        <path id="Path_134" data-name="Path 134" d="M382.151,375l-18.259-39.1a153.05,153.05,0,1,0-22.02,43.564Z" transform="translate(-65.441 178.251)" fill="#5a5a5a"/>
        <path id="Path_135" data-name="Path 135" d="M388.91,81.626A152.772,152.772,0,1,0,348,350.689l35.325,19.856,7.965-42.409a152.845,152.845,0,0,0-2.378-246.51Z" transform="translate(158.954 -52.951)" fill="#5a5a5a"/>
        <path id="Path_136" data-name="Path 136" d="M521.886,137.025A152.846,152.846,0,0,0,376.21,335.9L357.951,375l40.275,4.466a152.763,152.763,0,1,0,123.66-242.437Z" transform="translate(738.962 178.251)" fill="#5a5a5a"/>
        <path id="Path_137" data-name="Path 137" d="M556.22,116.651A152.774,152.774,0,1,0,340.643,328.136l7.965,42.409,35.325-19.856A152.753,152.753,0,0,0,556.22,116.651Z" transform="translate(522.734 -52.951)" fill="#5a5a5a"/>
      </g>
      <g id="Group_35" data-name="Group 35" transform="translate(32.704 16.351)">
        <path id="Path_138" data-name="Path 138" d="M382.407,374.74l-18.259-39.1a153.026,153.026,0,1,0-22.016,43.564Z" transform="translate(-65.697 178.509)" fill="#555"/>
        <path id="Path_139" data-name="Path 139" d="M389.164,81.368a152.774,152.774,0,1,0-40.909,269.063l35.321,19.86,7.969-42.412a152.852,152.852,0,0,0-2.381-246.51Z" transform="translate(158.7 -52.695)" fill="#555"/>
        <path id="Path_140" data-name="Path 140" d="M522.146,136.769a152.846,152.846,0,0,0-145.68,198.874l-18.259,39.1,40.279,4.466a152.761,152.761,0,1,0,123.66-242.438Z" transform="translate(738.706 178.509)" fill="#555"/>
        <path id="Path_141" data-name="Path 141" d="M556.473,116.393A152.772,152.772,0,1,0,340.9,327.878l7.965,42.412,35.325-19.86A152.751,152.751,0,0,0,556.473,116.393Z" transform="translate(522.481 -52.695)" fill="#555"/>
      </g>
      <g id="Group_36" data-name="Group 36" transform="translate(33.668 15.39)">
        <path id="Path_142" data-name="Path 142" d="M382.664,374.487l-18.259-39.1a153.05,153.05,0,1,0-22.02,43.564Z" transform="translate(-65.954 178.764)" fill="#505050"/>
        <path id="Path_143" data-name="Path 143" d="M389.423,81.113a152.772,152.772,0,1,0-40.912,269.063l35.325,19.856,7.965-42.409a152.845,152.845,0,0,0-2.378-246.51Z" transform="translate(158.441 -52.438)" fill="#505050"/>
        <path id="Path_144" data-name="Path 144" d="M522.4,136.512A152.846,152.846,0,0,0,376.723,335.386l-18.259,39.1,40.275,4.462A152.763,152.763,0,1,0,522.4,136.512Z" transform="translate(738.448 178.764)" fill="#505050"/>
        <path id="Path_145" data-name="Path 145" d="M556.732,116.138A152.772,152.772,0,1,0,341.156,327.623l7.969,42.409,35.321-19.856A152.753,152.753,0,0,0,556.732,116.138Z" transform="translate(522.222 -52.438)" fill="#505050"/>
      </g>
      <g id="Group_37" data-name="Group 37" transform="translate(34.627 14.427)">
        <path id="Path_146" data-name="Path 146" d="M382.92,374.227l-18.259-39.1a153.021,153.021,0,1,0-22.016,43.568Z" transform="translate(-66.21 179.022)" fill="#4b4b4b"/>
        <path id="Path_147" data-name="Path 147" d="M389.677,80.855a152.772,152.772,0,1,0-40.909,269.063l35.321,19.86,7.969-42.412a152.843,152.843,0,0,0-2.381-246.51Z" transform="translate(158.187 -52.182)" fill="#4b4b4b"/>
        <path id="Path_148" data-name="Path 148" d="M522.659,136.256a152.843,152.843,0,0,0-145.68,198.87l-18.259,39.1,40.275,4.466A152.763,152.763,0,1,0,522.659,136.256Z" transform="translate(738.193 179.022)" fill="#4b4b4b"/>
        <path id="Path_149" data-name="Path 149" d="M556.986,115.88A152.772,152.772,0,1,0,341.414,327.365l7.965,42.412,35.321-19.86A152.753,152.753,0,0,0,556.986,115.88Z" transform="translate(521.968 -52.182)" fill="#4b4b4b"/>
      </g>
      <g id="Group_38" data-name="Group 38" transform="translate(35.591 13.466)">
        <path id="Path_150" data-name="Path 150" d="M383.177,373.97l-18.259-39.1a153.05,153.05,0,1,0-22.02,43.564Z" transform="translate(-66.467 179.277)" fill="#464646"/>
        <path id="Path_151" data-name="Path 151" d="M389.936,80.6a152.772,152.772,0,1,0-40.912,269.063l35.325,19.856,7.965-42.409A152.845,152.845,0,0,0,389.936,80.6Z" transform="translate(157.928 -51.925)" fill="#464646"/>
        <path id="Path_152" data-name="Path 152" d="M522.912,136A152.846,152.846,0,0,0,377.236,334.873l-18.259,39.1,40.275,4.466A152.763,152.763,0,1,0,522.912,136Z" transform="translate(737.935 179.277)" fill="#464646"/>
        <path id="Path_153" data-name="Path 153" d="M557.246,115.625A152.774,152.774,0,1,0,341.669,327.11l7.965,42.409,35.325-19.856A152.753,152.753,0,0,0,557.246,115.625Z" transform="translate(521.708 -51.925)" fill="#464646"/>
      </g>
      <g id="Group_39" data-name="Group 39" transform="translate(36.551 12.504)">
        <path id="Path_154" data-name="Path 154" d="M383.433,373.714l-18.259-39.1a153.033,153.033,0,1,0-22.016,43.564Z" transform="translate(-66.723 179.535)" fill="#414141"/>
        <path id="Path_155" data-name="Path 155" d="M390.19,80.342A152.774,152.774,0,1,0,349.281,349.4l35.325,19.86,7.965-42.412a152.851,152.851,0,0,0-2.381-246.51Z" transform="translate(157.674 -51.669)" fill="#414141"/>
        <path id="Path_156" data-name="Path 156" d="M523.172,135.743a152.846,152.846,0,0,0-145.68,198.874l-18.259,39.1,40.279,4.466a152.761,152.761,0,1,0,123.66-242.438Z" transform="translate(737.68 179.535)" fill="#414141"/>
        <path id="Path_157" data-name="Path 157" d="M557.5,115.367A152.772,152.772,0,1,0,341.927,326.852l7.965,42.412,35.325-19.86A152.751,152.751,0,0,0,557.5,115.367Z" transform="translate(521.455 -51.669)" fill="#414141"/>
      </g>
      <g id="Group_40" data-name="Group 40" transform="translate(37.515 11.542)">
        <path id="Path_158" data-name="Path 158" d="M383.69,373.461l-18.259-39.1a153.05,153.05,0,1,0-22.02,43.564Z" transform="translate(-66.98 179.79)" fill="#3c3c3c"/>
        <path id="Path_159" data-name="Path 159" d="M390.449,80.087A152.772,152.772,0,1,0,349.537,349.15l35.325,19.856,7.965-42.409a152.845,152.845,0,0,0-2.378-246.51Z" transform="translate(157.414 -51.412)" fill="#3c3c3c"/>
        <path id="Path_160" data-name="Path 160" d="M523.425,135.486A152.846,152.846,0,0,0,377.749,334.36l-18.259,39.1,40.275,4.463a152.763,152.763,0,1,0,123.66-242.438Z" transform="translate(737.423 179.79)" fill="#3c3c3c"/>
        <path id="Path_161" data-name="Path 161" d="M557.759,115.112A152.774,152.774,0,1,0,342.182,326.6l7.965,42.409,35.325-19.856A152.753,152.753,0,0,0,557.759,115.112Z" transform="translate(521.195 -51.412)" fill="#3c3c3c"/>
      </g>
      <g id="Group_41" data-name="Group 41" transform="translate(38.475 10.58)">
        <path id="Path_162" data-name="Path 162" d="M383.946,373.2l-18.259-39.1a153.02,153.02,0,1,0-22.016,43.568Z" transform="translate(-67.236 180.048)" fill="#373737"/>
        <path id="Path_163" data-name="Path 163" d="M390.7,79.829a152.774,152.774,0,1,0-40.909,269.063l35.321,19.86,7.969-42.413A152.852,152.852,0,0,0,390.7,79.829Z" transform="translate(157.16 -51.156)" fill="#373737"/>
        <path id="Path_164" data-name="Path 164" d="M523.685,135.23A152.843,152.843,0,0,0,378,334.1l-18.259,39.1,40.275,4.466A152.763,152.763,0,1,0,523.685,135.23Z" transform="translate(737.167 180.048)" fill="#373737"/>
        <path id="Path_165" data-name="Path 165" d="M558.012,114.854A152.772,152.772,0,1,0,342.44,326.339l7.965,42.413,35.321-19.86A152.752,152.752,0,0,0,558.012,114.854Z" transform="translate(520.942 -51.156)" fill="#373737"/>
      </g>
      <g id="Group_42" data-name="Group 42" transform="translate(39.439 9.619)">
        <path id="Path_166" data-name="Path 166" d="M384.2,372.948l-18.259-39.1a153.05,153.05,0,1,0-22.02,43.564Z" transform="translate(-67.493 180.303)" fill="#323232"/>
        <path id="Path_167" data-name="Path 167" d="M390.962,79.574A152.772,152.772,0,1,0,350.05,348.637l35.325,19.856,7.965-42.409a152.845,152.845,0,0,0-2.378-246.51Z" transform="translate(156.902 -50.899)" fill="#323232"/>
        <path id="Path_168" data-name="Path 168" d="M523.938,134.973A152.846,152.846,0,0,0,378.262,333.847L360,372.948l40.275,4.463a152.763,152.763,0,1,0,123.66-242.437Z" transform="translate(736.909 180.303)" fill="#323232"/>
        <path id="Path_169" data-name="Path 169" d="M558.272,114.6A152.774,152.774,0,1,0,342.7,326.084l7.965,42.409,35.325-19.856A152.753,152.753,0,0,0,558.272,114.6Z" transform="translate(520.682 -50.899)" fill="#323232"/>
      </g>
      <g id="Group_43" data-name="Group 43" transform="translate(40.399 8.656)">
        <path id="Path_170" data-name="Path 170" d="M384.459,372.691l-18.259-39.1a153.033,153.033,0,1,0-22.016,43.564Z" transform="translate(-67.749 180.559)" fill="#2d2d2d"/>
        <path id="Path_171" data-name="Path 171" d="M391.216,79.316a152.774,152.774,0,1,0-40.909,269.063l35.321,19.86,7.969-42.413a152.852,152.852,0,0,0-2.381-246.51Z" transform="translate(156.647 -50.643)" fill="#2d2d2d"/>
        <path id="Path_172" data-name="Path 172" d="M524.2,134.716a152.849,152.849,0,0,0-145.68,198.878l-18.259,39.1,40.275,4.466A152.764,152.764,0,1,0,524.2,134.716Z" transform="translate(736.654 180.559)" fill="#2d2d2d"/>
        <path id="Path_173" data-name="Path 173" d="M558.525,114.341A152.772,152.772,0,1,0,342.953,325.826l7.965,42.413,35.325-19.86A152.751,152.751,0,0,0,558.525,114.341Z" transform="translate(520.429 -50.643)" fill="#2d2d2d"/>
      </g>
      <g id="Group_44" data-name="Group 44" transform="translate(41.362 7.695)">
        <path id="Path_174" data-name="Path 174" d="M384.716,372.435l-18.259-39.1a153.05,153.05,0,1,0-22.02,43.564Z" transform="translate(-68.006 180.816)" fill="#282828"/>
        <path id="Path_175" data-name="Path 175" d="M391.475,79.061a152.772,152.772,0,1,0-40.912,269.063l35.325,19.856,7.965-42.409a152.845,152.845,0,0,0-2.378-246.51Z" transform="translate(156.389 -50.386)" fill="#282828"/>
        <path id="Path_176" data-name="Path 176" d="M524.451,134.46A152.846,152.846,0,0,0,378.775,333.334l-18.259,39.1,40.275,4.462A152.763,152.763,0,1,0,524.451,134.46Z" transform="translate(736.396 180.816)" fill="#282828"/>
        <path id="Path_177" data-name="Path 177" d="M558.785,114.086A152.774,152.774,0,1,0,343.208,325.571l7.965,42.409L386.5,348.124A152.753,152.753,0,0,0,558.785,114.086Z" transform="translate(520.169 -50.386)" fill="#282828"/>
      </g>
      <g id="Group_45" data-name="Group 45" transform="translate(42.322 6.732)">
        <path id="Path_178" data-name="Path 178" d="M384.972,372.175l-18.259-39.1A153.026,153.026,0,1,0,344.7,376.642Z" transform="translate(-68.262 181.074)" fill="#232323"/>
        <path id="Path_179" data-name="Path 179" d="M391.729,78.8A152.774,152.774,0,1,0,350.82,347.866l35.321,19.86,7.969-42.413A152.852,152.852,0,0,0,391.729,78.8Z" transform="translate(156.134 -50.13)" fill="#232323"/>
        <path id="Path_180" data-name="Path 180" d="M524.711,134.2a152.846,152.846,0,0,0-145.68,198.874l-18.259,39.1,40.275,4.466A152.763,152.763,0,1,0,524.711,134.2Z" transform="translate(736.141 181.074)" fill="#232323"/>
        <path id="Path_181" data-name="Path 181" d="M559.038,113.828A152.773,152.773,0,1,0,343.466,325.313l7.965,42.413,35.321-19.86A152.752,152.752,0,0,0,559.038,113.828Z" transform="translate(519.916 -50.13)" fill="#232323"/>
      </g>
      <g id="Group_46" data-name="Group 46" transform="translate(43.286 5.771)">
        <path id="Path_182" data-name="Path 182" d="M385.229,371.922l-18.259-39.1a153.05,153.05,0,1,0-22.02,43.564Z" transform="translate(-68.519 181.329)" fill="#1e1e1e"/>
        <path id="Path_183" data-name="Path 183" d="M391.988,78.548a152.772,152.772,0,1,0-40.913,269.063L386.4,367.467l7.965-42.409a152.845,152.845,0,0,0-2.378-246.51Z" transform="translate(155.876 -49.873)" fill="#1e1e1e"/>
        <path id="Path_184" data-name="Path 184" d="M524.964,133.947A152.846,152.846,0,0,0,379.288,332.821l-18.259,39.1,40.275,4.463a152.763,152.763,0,1,0,123.66-242.437Z" transform="translate(735.883 181.329)" fill="#1e1e1e"/>
        <path id="Path_185" data-name="Path 185" d="M559.3,113.573A152.774,152.774,0,1,0,343.721,325.058l7.965,42.409,35.325-19.856A152.753,152.753,0,0,0,559.3,113.573Z" transform="translate(519.656 -49.873)" fill="#1e1e1e"/>
      </g>
      <g id="Group_47" data-name="Group 47" transform="translate(44.246 4.809)">
        <path id="Path_186" data-name="Path 186" d="M385.485,371.665l-18.259-39.1a153.026,153.026,0,1,0-22.016,43.564Z" transform="translate(-68.775 181.585)" fill="#191919"/>
        <path id="Path_187" data-name="Path 187" d="M392.242,78.29a152.774,152.774,0,1,0-40.909,269.063l35.321,19.86,7.969-42.413a152.851,152.851,0,0,0-2.381-246.51Z" transform="translate(155.621 -49.617)" fill="#191919"/>
        <path id="Path_188" data-name="Path 188" d="M525.224,133.69a152.849,152.849,0,0,0-145.68,198.877l-18.259,39.1,40.275,4.466A152.764,152.764,0,1,0,525.224,133.69Z" transform="translate(735.628 181.585)" fill="#191919"/>
        <path id="Path_189" data-name="Path 189" d="M559.551,113.315A152.773,152.773,0,1,0,343.979,324.8l7.965,42.413,35.325-19.86A152.751,152.751,0,0,0,559.551,113.315Z" transform="translate(519.403 -49.617)" fill="#191919"/>
      </g>
      <g id="Group_48" data-name="Group 48" transform="translate(45.21 3.848)">
        <path id="Path_190" data-name="Path 190" d="M385.742,371.409l-18.259-39.1a153.05,153.05,0,1,0-22.02,43.564Z" transform="translate(-69.032 181.842)" fill="#141414"/>
        <path id="Path_191" data-name="Path 191" d="M392.5,78.035A152.772,152.772,0,1,0,351.589,347.1l35.325,19.856,7.965-42.409A152.845,152.845,0,0,0,392.5,78.035Z" transform="translate(155.363 -49.36)" fill="#141414"/>
        <path id="Path_192" data-name="Path 192" d="M525.477,133.434A152.846,152.846,0,0,0,379.8,332.308l-18.259,39.1,40.275,4.463a152.763,152.763,0,1,0,123.66-242.437Z" transform="translate(735.37 181.842)" fill="#141414"/>
        <path id="Path_193" data-name="Path 193" d="M559.811,113.06A152.774,152.774,0,1,0,344.234,324.545l7.965,42.409L387.524,347.1A152.753,152.753,0,0,0,559.811,113.06Z" transform="translate(519.143 -49.36)" fill="#141414"/>
      </g>
      <g id="Group_49" data-name="Group 49" transform="translate(46.17 2.885)">
        <path id="Path_194" data-name="Path 194" d="M386,371.149l-18.259-39.1a153.033,153.033,0,1,0-22.016,43.564Z" transform="translate(-69.288 182.1)" fill="#0f0f0f"/>
        <path id="Path_195" data-name="Path 195" d="M392.755,77.777A152.774,152.774,0,1,0,351.846,346.84l35.321,19.86,7.969-42.413a152.852,152.852,0,0,0-2.381-246.51Z" transform="translate(155.108 -49.104)" fill="#0f0f0f"/>
        <path id="Path_196" data-name="Path 196" d="M525.737,133.178a152.846,152.846,0,0,0-145.68,198.874l-18.259,39.1,40.275,4.466A152.763,152.763,0,1,0,525.737,133.178Z" transform="translate(735.115 182.1)" fill="#0f0f0f"/>
        <path id="Path_197" data-name="Path 197" d="M560.065,112.8A152.773,152.773,0,1,0,344.493,324.287l7.965,42.412,35.321-19.86A152.752,152.752,0,0,0,560.065,112.8Z" transform="translate(518.889 -49.104)" fill="#0f0f0f"/>
      </g>
      <g id="Group_50" data-name="Group 50" transform="translate(47.134 1.924)">
        <path id="Path_198" data-name="Path 198" d="M386.255,370.9,368,331.795a153.05,153.05,0,1,0-22.02,43.564Z" transform="translate(-69.545 182.355)" fill="#0a0a0a"/>
        <path id="Path_199" data-name="Path 199" d="M393.015,77.522A152.772,152.772,0,1,0,352.1,346.585l35.325,19.856,7.965-42.409a152.845,152.845,0,0,0-2.378-246.51Z" transform="translate(154.849 -48.847)" fill="#0a0a0a"/>
        <path id="Path_200" data-name="Path 200" d="M525.99,132.921A152.846,152.846,0,0,0,380.314,331.795l-18.259,39.1,40.275,4.463A152.763,152.763,0,1,0,525.99,132.921Z" transform="translate(734.858 182.355)" fill="#0a0a0a"/>
        <path id="Path_201" data-name="Path 201" d="M560.324,112.547A152.774,152.774,0,1,0,344.747,324.032l7.965,42.409,35.325-19.856A152.753,152.753,0,0,0,560.324,112.547Z" transform="translate(518.63 -48.847)" fill="#0a0a0a"/>
      </g>
      <g id="Group_51" data-name="Group 51" transform="translate(48.094 0.961)">
        <path id="Path_202" data-name="Path 202" d="M386.511,370.639l-18.259-39.1a153.033,153.033,0,1,0-22.016,43.564Z" transform="translate(-69.801 182.611)" fill="#050505"/>
        <path id="Path_203" data-name="Path 203" d="M393.268,77.264a152.774,152.774,0,1,0-40.909,269.062l35.321,19.86,7.969-42.413a152.852,152.852,0,0,0-2.381-246.51Z" transform="translate(154.595 -48.591)" fill="#050505"/>
        <path id="Path_204" data-name="Path 204" d="M526.25,132.664A152.849,152.849,0,0,0,380.57,331.542l-18.259,39.1,40.275,4.466A152.764,152.764,0,1,0,526.25,132.664Z" transform="translate(734.602 182.611)" fill="#050505"/>
        <path id="Path_205" data-name="Path 205" d="M560.578,112.289A152.773,152.773,0,1,0,345.006,323.774l7.965,42.413,35.321-19.86A152.752,152.752,0,0,0,560.578,112.289Z" transform="translate(518.376 -48.591)" fill="#050505"/>
      </g>
      <g id="Group_52" data-name="Group 52" transform="translate(49.057)">
        <path id="Path_206" data-name="Path 206" d="M386.768,370.383l-18.263-39.1a153.033,153.033,0,1,0-22.016,43.564Z" transform="translate(-70.058 182.868)"/>
        <path id="Path_207" data-name="Path 207" d="M393.528,77.009a152.772,152.772,0,1,0-40.913,269.063l35.325,19.856,7.965-42.409a152.845,152.845,0,0,0-2.378-246.51Z" transform="translate(154.336 -48.334)"/>
        <path id="Path_208" data-name="Path 208" d="M526.506,132.408A152.846,152.846,0,0,0,380.83,331.282l-18.263,39.1,40.279,4.462a152.763,152.763,0,1,0,123.66-242.437Z" transform="translate(734.342 182.868)"/>
        <path id="Path_209" data-name="Path 209" d="M560.837,112.034A152.774,152.774,0,1,0,345.26,323.519l7.965,42.409,35.325-19.856A152.753,152.753,0,0,0,560.837,112.034Z" transform="translate(518.117 -48.334)"/>
      </g>
    </g>
    <g id="Group_58" data-name="Group 58" transform="translate(706.35 510.413)">
      <path id="Path_240" data-name="Path 240" d="M250.319,314.8,184.36,248.843c72.7-72.7,169.425-112.733,272.359-112.733v93.277A289.944,289.944,0,0,0,250.319,314.8Z" transform="translate(-184.36 -136.11)" fill="#004188"/>
    </g>
    <g id="Group_59" data-name="Group 59" transform="translate(978.709 510.413)">
      <path id="Path_241" data-name="Path 241" d="M463.389,314.8a289.944,289.944,0,0,0-206.4-85.414V136.11c102.937,0,199.661,40.035,272.359,112.733Z" transform="translate(-256.989 -136.11)" fill="#338ae8"/>
    </g>
    <g id="Group_60" data-name="Group 60" transform="translate(593.618 623.145)">
      <path id="Path_242" data-name="Path 242" d="M247.579,438.531H154.3c0-102.937,40.035-199.661,112.732-272.359l65.959,65.959A289.956,289.956,0,0,0,247.579,438.531Z" transform="translate(-154.298 -166.172)" fill="#338ae8"/>
    </g>
    <g id="Group_61" data-name="Group 61" transform="translate(1185.109 623.145)">
      <path id="Path_243" data-name="Path 243" d="M490.72,438.531H397.439a289.955,289.955,0,0,0-85.41-206.4l65.959-65.959C450.685,238.869,490.72,335.593,490.72,438.531Z" transform="translate(-312.029 -166.172)" fill="#004188"/>
    </g>
    <g id="Group_65" data-name="Group 65" transform="translate(887.012 295.22)">
      <g id="Group_62" data-name="Group 62" transform="translate(7.991 3.153)">
        <path id="Path_244" data-name="Path 244" d="M410.384,92.84a3.5,3.5,0,0,1-.48-.038A600.816,600.816,0,0,0,238.2,91.156a3.111,3.111,0,0,1-.836-6.165,607.162,607.162,0,0,1,173.5,1.665,3.11,3.11,0,0,1-.473,6.184Z" transform="translate(-234.667 -79.566)" fill="#00254d"/>
      </g>
      <g id="Group_63" data-name="Group 63" transform="translate(171.41 1.67)">
        <path id="Path_245" data-name="Path 245" d="M291.7,79.307a11.69,11.69,0,1,1-13.32,9.791A11.691,11.691,0,0,1,291.7,79.307Z" transform="translate(-278.246 -79.171)" fill="#00254d"/>
      </g>
      <g id="Group_64" data-name="Group 64">
        <path id="Path_246" data-name="Path 246" d="M242.66,78.833a11.69,11.69,0,1,0,13.155,10.016A11.693,11.693,0,0,0,242.66,78.833Z" transform="translate(-232.536 -78.725)" fill="#00254d"/>
      </g>
    </g>
    <g id="Group_69" data-name="Group 69" transform="translate(373.205 797.24)">
      <g id="Group_66" data-name="Group 66" transform="translate(8.44 7.982)">
        <path id="Path_247" data-name="Path 247" d="M100.885,296.994h-.06a3.111,3.111,0,0,1-3.052-3.165,606.51,606.51,0,0,1,6.27-76.444,3.11,3.11,0,0,1,6.154.9,599.624,599.624,0,0,0-6.206,75.653A3.108,3.108,0,0,1,100.885,296.994Z" transform="translate(-97.772 -214.726)" fill="#00254d"/>
      </g>
      <g id="Group_67" data-name="Group 67" transform="translate(6.135)">
        <path id="Path_248" data-name="Path 248" d="M97.28,222.612a11.69,11.69,0,1,1,9.892,13.245A11.686,11.686,0,0,1,97.28,222.612Z" transform="translate(-97.157 -212.597)" fill="#00254d"/>
      </g>
      <g id="Group_68" data-name="Group 68" transform="translate(0 74.872)">
        <path id="Path_249" data-name="Path 249" d="M95.524,244.011a11.689,11.689,0,1,0,11.929-11.445A11.691,11.691,0,0,0,95.524,244.011Z" transform="translate(-95.521 -232.563)" fill="#00254d"/>
      </g>
    </g>
    <g id="Group_73" data-name="Group 73" transform="translate(511.91 421.783)">
      <g id="Group_70" data-name="Group 70" transform="translate(8.063 8.011)">
        <path id="Path_250" data-name="Path 250" d="M137.767,202.021a3.111,3.111,0,0,1-2.381-5.108C146.707,183.4,158.7,170.3,171.048,157.978A604.717,604.717,0,0,1,218.5,115.3a3.109,3.109,0,0,1,3.908,4.838,597.231,597.231,0,0,0-46.965,42.236c-12.218,12.191-24.09,25.155-35.291,38.531A3.1,3.1,0,0,1,137.767,202.021Z" transform="translate(-134.659 -114.612)" fill="#00254d"/>
      </g>
      <g id="Group_71" data-name="Group 71" transform="translate(0 80.309)">
        <path id="Path_251" data-name="Path 251" d="M153.1,153.158a11.689,11.689,0,1,1-1.324-16.478A11.688,11.688,0,0,1,153.1,153.158Z" transform="translate(-132.509 -133.891)" fill="#00254d"/>
      </g>
      <g id="Group_72" data-name="Group 72" transform="translate(81.862)">
        <path id="Path_252" data-name="Path 252" d="M173.49,133.166a11.69,11.69,0,1,0-16.462-1.541A11.692,11.692,0,0,0,173.49,133.166Z" transform="translate(-154.339 -112.475)" fill="#00254d"/>
      </g>
    </g>
    <g id="Group_77" data-name="Group 77" transform="translate(1347.325 427.542)">
      <g id="Group_74" data-name="Group 74" transform="translate(8.267 8.046)">
        <path id="Path_253" data-name="Path 253" d="M440.591,203.045a3.106,3.106,0,0,1-2.407-1.14c-12.42-15.172-25.751-29.9-39.63-43.777-12.75-12.75-26.186-25.02-39.941-36.473a3.107,3.107,0,0,1,3.975-4.777c13.9,11.572,27.48,23.97,40.365,36.851,14.021,14.025,27.5,28.909,40.042,44.239a3.109,3.109,0,0,1-2.4,5.077Z" transform="translate(-357.491 -116.157)" fill="#00254d"/>
      </g>
      <g id="Group_75" data-name="Group 75" transform="translate(79.13 79.834)">
        <path id="Path_254" data-name="Path 254" d="M397.043,139.488a11.689,11.689,0,1,1-16.47-1.463A11.69,11.69,0,0,1,397.043,139.488Z" transform="translate(-376.388 -135.3)" fill="#00254d"/>
      </g>
      <g id="Group_76" data-name="Group 76">
        <path id="Path_255" data-name="Path 255" d="M374.537,116.785a11.691,11.691,0,1,0,1.357,16.474A11.69,11.69,0,0,0,374.537,116.785Z" transform="translate(-355.287 -114.011)" fill="#00254d"/>
      </g>
    </g>
    <g id="Group_81" data-name="Group 81" transform="translate(1555.03 799.667)">
      <g id="Group_78" data-name="Group 78" transform="translate(8.617 7.973)">
        <path id="Path_256" data-name="Path 256" d="M421.982,295.224a3.108,3.108,0,0,1-3.109-3.052A595.624,595.624,0,0,0,413,218.923a3.109,3.109,0,1,1,6.154-.885,601.518,601.518,0,0,1,5.932,74.021,3.109,3.109,0,0,1-3.052,3.165Z" transform="translate(-412.972 -215.371)" fill="#00254d"/>
      </g>
      <g id="Group_79" data-name="Group 79" transform="translate(5.804 72.445)">
        <path id="Path_257" data-name="Path 257" d="M435.6,244.018a11.689,11.689,0,1,1-11.921-11.453A11.693,11.693,0,0,1,435.6,244.018Z" transform="translate(-412.222 -232.563)" fill="#00254d"/>
      </g>
      <g id="Group_80" data-name="Group 80">
        <path id="Path_258" data-name="Path 258" d="M433.941,223.3a11.69,11.69,0,1,0-9.934,13.215A11.694,11.694,0,0,0,433.941,223.3Z" transform="translate(-410.675 -213.245)" fill="#00254d"/>
      </g>
    </g>
    <g id="Group_82" data-name="Group 82" transform="translate(273.053 491.865)">
      <path id="Path_259" data-name="Path 259" d="M386.768,370.383l-18.263-39.1a153.033,153.033,0,1,0-22.016,43.564Z" transform="translate(-65.393 -127.743)" fill="#338ae8"/>
      <path id="Path_260" data-name="Path 260" d="M226.25,446.04c-86.809,0-157.436-70.627-157.436-157.44S139.442,131.164,226.25,131.164,383.686,201.792,383.686,288.6a157.452,157.452,0,0,1-6.769,45.761l20.25,43.361-44.711,4.954A158.015,158.015,0,0,1,226.25,446.04Zm0-305.546c-81.668,0-148.11,66.439-148.11,148.106s66.442,148.11,148.11,148.11a148.651,148.651,0,0,0,119.887-61.185l1.211-1.665,35.861-3.975-16.275-34.856.547-1.732a148.106,148.106,0,0,0,6.878-44.7C374.36,206.933,307.918,140.494,226.25,140.494Z" transform="translate(-68.814 -131.164)" fill="#fff"/>
    </g>
    <g id="Group_83" data-name="Group 83" transform="translate(579.113 176.657)">
      <path id="Path_261" data-name="Path 261" d="M393.528,77.009a152.772,152.772,0,1,0-40.913,269.063l35.325,19.856,7.965-42.409a152.845,152.845,0,0,0-2.378-246.51Z" transform="translate(-147.059 -43.737)" fill="#004188"/>
      <path id="Path_262" data-name="Path 262" d="M394.693,376.552,355.48,354.509a158.024,158.024,0,0,1-139.47-22.117c-70.526-50.625-86.719-149.182-36.1-219.709S329.1,25.972,399.617,76.589h0c70.526,50.625,86.715,149.182,36.094,219.7a157.169,157.169,0,0,1-32.183,33.225Zm-38.216-32.186,31.447,17.681,7.1-37.8,1.459-1.087a148.1,148.1,0,0,0,31.646-32.3c47.625-66.345,32.392-159.067-33.953-206.689S235.116,51.775,187.491,118.124,155.1,277.188,221.447,324.813a148.652,148.652,0,0,0,133.073,20.2Z" transform="translate(-150.43 -47.109)" fill="#fff"/>
    </g>
    <g id="Group_84" data-name="Group 84" transform="translate(1367.651 491.865)">
      <path id="Path_263" data-name="Path 263" d="M526.506,132.408A152.846,152.846,0,0,0,380.83,331.282l-18.263,39.1,40.279,4.462a152.763,152.763,0,1,0,123.66-242.437Z" transform="translate(-355.592 -127.743)" fill="#004188"/>
      <path id="Path_264" data-name="Path 264" d="M531.621,446.04a158.015,158.015,0,0,1-126.206-63.364l-44.708-4.954,20.25-43.361a157.325,157.325,0,0,1-6.772-45.761c0-86.809,70.624-157.436,157.436-157.436S689.057,201.792,689.057,288.6,618.433,446.04,531.621,446.04Zm-156.96-76.155,35.861,3.975,1.211,1.665A148.651,148.651,0,0,0,531.621,436.71c81.668,0,148.11-66.439,148.11-148.11s-66.443-148.106-148.11-148.106S383.511,206.933,383.511,288.6a148,148,0,0,0,6.881,44.7l.548,1.732Z" transform="translate(-360.707 -131.164)" fill="#fff"/>
    </g>
    <g id="Group_85" data-name="Group 85" transform="translate(1075.178 176.657)">
      <path id="Path_265" data-name="Path 265" d="M560.837,112.034A152.774,152.774,0,1,0,345.26,323.519l7.965,42.409,35.325-19.856A152.753,152.753,0,0,0,560.837,112.034Z" transform="translate(-279.343 -43.737)" fill="#338ae8"/>
      <path id="Path_266" data-name="Path 266" d="M353.214,376.552l-8.835-47.033A157.355,157.355,0,0,1,312.2,296.294c-50.621-70.522-34.429-169.08,36.094-219.7S517.374,42.16,568,112.683h0c50.621,70.526,34.429,169.084-36.094,219.709a158.018,158.018,0,0,1-139.474,22.117ZM439.9,56.433a147.3,147.3,0,0,0-86.171,27.735c-66.341,47.621-81.574,140.344-33.953,206.689a148.037,148.037,0,0,0,31.65,32.3l1.455,1.087,7.1,37.8,31.455-17.681,1.954.649a148.648,148.648,0,0,0,133.073-20.2c66.345-47.625,81.581-140.344,33.96-206.689A148.043,148.043,0,0,0,439.9,56.433Z" transform="translate(-282.714 -47.109)" fill="#fff"/>
    </g>
    <text id="Data_Engineering" data-name="Data 
Engineering" transform="translate(738 311)" fill="#fff" font-size="39" font-family="Roboto-Bold, Roboto" font-weight="700"><tspan x="-45.027" y="0">Data </tspan><tspan x="-104.527" y="47">Engineering</tspan></text>
    <text id="Data_Integration" data-name="Data 
Integration" transform="translate(1233 311)" fill="#fff" font-size="39" font-family="Roboto-Bold, Roboto" font-weight="700"><tspan x="-45.027" y="0">Data </tspan><tspan x="-95.853" y="47">Integration</tspan></text>
    <text id="Data_Quality" data-name="Data 
Quality" transform="translate(1543 639)" fill="#fff" font-size="39" font-family="Roboto-Bold, Roboto" font-weight="700"><tspan x="-45.027" y="0">Data </tspan><tspan x="-61.547" y="47">Quality</tspan></text>
    <text id="Data_Security_Privacy" data-name="Data 
Security/
Privacy" transform="translate(432 616)" fill="#fff" font-size="39" font-family="Roboto-Bold, Roboto" font-weight="700"><tspan x="-45.027" y="0">Data </tspan><tspan x="-79.552" y="47">Security/</tspan><tspan x="-64.984" y="94">Privacy</tspan></text>
    <text id="Data_ops" data-name="Data ops" transform="translate(960 851)" fill="#00254d" font-size="85" font-family="Roboto-Bold, Roboto" font-weight="700"><tspan x="-167.946" y="0">Data ops</tspan></text>
  </g>
</svg>
