<?xml version="1.0" encoding="utf-8"?>
<!-- Generator: Adobe Illustrator 16.0.0, SVG Export Plug-In . SVG Version: 6.00 Build 0)  -->
<!DOCTYPE svg PUBLIC "-//W3C//DTD SVG 1.1//EN" "http://www.w3.org/Graphics/SVG/1.1/DTD/svg11.dtd">
<svg version="1.1" id="Layer_1" xmlns="http://www.w3.org/2000/svg" xmlns:xlink="http://www.w3.org/1999/xlink" x="0px" y="0px"
	 width="480px" height="480px" viewBox="16 16 480 480" enable-background="new 16 16 480 480" xml:space="preserve">
<g id="Outline">
	<path fill="#FFFFFF" d="M104,168c0-4.418,3.581-8,8-8c4.418,0,8,3.582,8,8v8h16v-8c0-13.255-10.745-24-24-24s-24,10.745-24,24v8h16
		V168z"/>
	<path fill="#FFFFFF" d="M184,168c0-4.418,3.581-8,8-8c4.418,0,8,3.582,8,8v8h16v-8c0-13.255-10.745-24-24-24s-24,10.745-24,24v8h16
		V168z"/>
	<path fill="#FFFFFF" d="M136,200h-16v8c0,17.673,14.326,32,32,32c17.673,0,32-14.327,32-32v-8h-16v8c0,8.836-7.164,16-16,16
		c-8.837,0-16-7.164-16-16V200z"/>
	<path fill="#FFFFFF" d="M480,328c-0.027-22.08-17.92-39.974-40-40H271.088c-10.441-10.23-24.47-15.973-39.088-16h-40v-8.8
		c4.495-2.064,8.825-4.472,12.952-7.2H280V144c0-70.692-57.308-128-128-128S24,73.308,24,144v112h75.048
		c4.126,2.729,8.456,5.136,12.952,7.2v8.8H72c-30.913,0.035-55.965,25.087-56,56v160c0,4.418,3.581,8,8,8h448
		c13.254,0,24-10.745,24-24v-24h-16V328z M464,328v120H240V328c0-13.255,10.745-24,24-24h176C453.254,304,464,314.745,464,328z
		 M72,128h160v48c0,44.183-35.817,80-80,80s-80-35.817-80-80V128z M248,160h8c4.418,0,8,3.582,8,8s-3.582,8-8,8h-8V160z
		 M223.352,240c12.132-13.475,20.179-30.123,23.2-48H256c2.731-0.026,5.438-0.524,8-1.472V240H223.352z M152,32
		c61.828,0.066,111.934,50.171,112,112v1.472c-2.563-0.948-5.269-1.446-8-1.472h-8v-24c0-4.418-3.582-8-8-8H64c-4.419,0-8,3.582-8,8
		v24h-8c-2.731,0.026-5.438,0.524-8,1.472V144C40.066,82.171,90.171,32.066,152,32z M56,176h-8c-4.419,0-8-3.582-8-8s3.581-8,8-8h8
		V176z M40,190.528c2.562,0.948,5.269,1.446,8,1.472h9.448c3.021,17.877,11.068,34.525,23.199,48H40V190.528z M152,272
		c8.104-0.043,16.168-1.119,24-3.2V280c0,13.255-10.745,24-24,24s-24-10.745-24-24v-11.2C135.831,270.881,143.897,271.957,152,272z
		 M32,328c0.026-22.08,17.919-39.974,40-40h40.8c4.396,21.649,25.511,35.637,47.16,31.24c15.741-3.196,28.043-15.499,31.24-31.24
		H232c5.509,0.012,10.956,1.161,16,3.376c-14.565,6.356-23.985,20.732-24,36.624v120h-16v24c0.026,2.731,0.524,5.438,1.472,8H96V376
		H80v104H32V328z M480,472c0,4.418-3.582,8-8,8H232c-4.419,0-8-3.582-8-8v-8h256V472z"/>
	<polygon fill="#FFFFFF" points="325.656,394.344 307.312,376 325.656,357.656 314.344,346.344 284.688,376 314.344,405.656 	"/>
	<polygon fill="#FFFFFF" points="389.656,405.656 419.312,376 389.656,346.344 378.344,357.656 396.688,376 378.344,394.344 	"/>
	
		<rect x="326.704" y="367.995" transform="matrix(-0.3164 0.9486 -0.9486 -0.3164 820.0521 161.029)" fill="#FFFFFF" width="50.6" height="16"/>
</g>
</svg>
