<?xml version="1.0" encoding="utf-8"?>
<!-- Generator: Adobe Illustrator 16.0.0, SVG Export Plug-In . SVG Version: 6.00 Build 0)  -->
<!DOCTYPE svg PUBLIC "-//W3C//DTD SVG 1.1//EN" "http://www.w3.org/Graphics/SVG/1.1/DTD/svg11.dtd">
<svg version="1.1" id="Capa_1" xmlns="http://www.w3.org/2000/svg" xmlns:xlink="http://www.w3.org/1999/xlink" x="0px" y="0px"
	 width="512px" height="512px" viewBox="0 0 512 512" enable-background="new 0 0 512 512" xml:space="preserve">
<g>
	<path fill="#FFFFFF" d="M61.15,512h390.047V210.963h60.77L256.18,0L0.034,210.963h61.114L61.15,512L61.15,512z M256.166,38.881
		L428.432,180.96h-7.239v301.036H91.153V180.96h-7.493L256.166,38.881z"/>
	<path fill="#FFFFFF" d="M256.173,450.992c52.271,0,105.013-13.915,105.013-45.005V225.965c0-31.09-52.742-45.005-105.013-45.005
		S151.16,194.875,151.16,225.965v180.022C151.16,437.077,203.903,450.992,256.173,450.992z M256.173,420.989
		c-44.846,0-70.595-11.063-75.009-16.273v-25.71c20.001,8.143,47.567,11.98,75.009,11.98s55.008-3.838,75.009-11.98v25.71
		C326.769,409.928,301.019,420.989,256.173,420.989z M181.164,318.998c20.001,8.142,47.567,11.98,75.009,11.98
		s55.008-3.839,75.009-11.98v25.705c-4.4,5.209-30.147,16.278-75.009,16.278c-44.862,0-70.609-11.069-75.009-16.278V318.998z
		 M181.164,258.99c20.001,8.143,47.567,11.98,75.009,11.98s55.008-3.838,75.009-11.98v25.706
		c-4.4,5.209-30.147,16.278-75.009,16.278c-44.862,0-70.609-11.069-75.009-16.278V258.99z M256.173,210.963
		c41.464,0,66.604,9.457,73.647,15.002c-7.044,5.545-32.184,15.002-73.647,15.002s-66.604-9.457-73.648-15.002
		C189.569,220.42,214.708,210.963,256.173,210.963z"/>
</g>
</svg>
