<?xml version="1.0" encoding="utf-8"?>
<!-- Generator: Adobe Illustrator 16.0.0, SVG Export Plug-In . SVG Version: 6.00 Build 0)  -->
<!DOCTYPE svg PUBLIC "-//W3C//DTD SVG 1.1//EN" "http://www.w3.org/Graphics/SVG/1.1/DTD/svg11.dtd">
<svg version="1.1" id="Capa_1" xmlns="http://www.w3.org/2000/svg" xmlns:xlink="http://www.w3.org/1999/xlink" x="0px" y="0px"
	 width="612px" height="792px" viewBox="0 0 612 792" enable-background="new 0 0 612 792" xml:space="preserve">
<g>
	<g>
		<path d="M300.466,607.318c-2.223-2.224-5.307-3.504-8.451-3.504c-3.144,0-6.228,1.279-8.451,3.504
			c-2.223,2.222-3.502,5.306-3.502,8.449c0,3.157,1.279,6.228,3.502,8.451c2.224,2.235,5.307,3.502,8.451,3.502
			c3.144,0,6.228-1.267,8.451-3.502c2.223-2.224,3.502-5.306,3.502-8.451C303.969,612.624,302.688,609.54,300.466,607.318z"/>
	</g>
</g>
<g>
	<g>
		<path d="M357.377,497.05v-87.953c0-3.971-1.972-7.684-5.263-9.905c-3.29-2.223-7.471-2.665-11.155-1.183L134.991,480.96h-66.34
			c-37.853,0-68.65,30.797-68.65,68.652s30.797,68.652,68.653,68.652h7.9v71.781c0,6.601,5.352,11.953,11.953,11.953h48.797
			c6.602,0,11.953-5.353,11.953-11.953v-66.015l191.708,77.104c1.438,0.579,2.952,0.864,4.458,0.864
			c2.353,0,4.688-0.694,6.694-2.049c3.289-2.222,5.261-5.935,5.261-9.904v-87.952c23.971-5.454,41.922-26.924,41.922-52.521
			S381.349,502.504,357.377,497.05z M125.35,678.093h-24.89v-59.829h24.891v59.829H125.35z M333.473,672.354L333.473,672.354
			l-184.209-74.089v-97.281l130.799-52.677v118.622c0,6.601,5.352,11.953,11.953,11.953s11.953-5.353,11.953-11.953V438.678
			l29.504-11.883V672.354z M357.377,577.046v-54.948c10.592,4.626,18.017,15.197,18.017,27.474
			C375.394,561.849,367.971,572.42,357.377,577.046z"/>
	</g>
</g>
<g>
	<g>
		<path d="M513.33,537.973h-67.677c-6.602,0-11.953,5.353-11.953,11.953s5.352,11.953,11.953,11.953h67.677
			c6.602,0,11.952-5.353,11.952-11.953S519.932,537.973,513.33,537.973z"/>
	</g>
</g>
<g>
	<g>
		<path d="M457.828,450.384c-4.668-4.667-12.236-4.667-16.905,0l-23.345,23.345c-4.668,4.667-4.668,12.236,0,16.904
			c2.336,2.334,5.395,3.502,8.453,3.502s6.119-1.168,8.452-3.502l23.345-23.344C462.495,462.621,462.495,455.053,457.828,450.384z"
			/>
	</g>
</g>
<g>
	<g>
		<path d="M458.705,631.447L434.58,607.32c-4.668-4.666-12.236-4.666-16.905,0c-4.668,4.668-4.668,12.236,0,16.905l24.126,24.127
			c2.335,2.333,5.394,3.501,8.452,3.501s6.119-1.168,8.452-3.501C463.373,643.685,463.373,636.115,458.705,631.447z"/>
	</g>
</g>
<g>
	<g>
		<path d="M564.188,90H341.86c-26.364,0-47.813,21.449-47.813,47.813v4.781H93.235c-15.819,0-28.688,12.87-28.688,28.688V360.14
			c0,15.817,12.869,28.688,28.688,28.688h12.351v36.657c0,4.835,2.913,9.193,7.379,11.043c1.479,0.612,3.031,0.91,4.572,0.91
			c3.11,0,6.168-1.215,8.455-3.501l45.108-45.109h237.434c15.819,0,28.688-12.87,28.688-28.688v-35.859h126.966
			c26.364,0,47.813-21.449,47.813-47.813V137.813C611.999,111.449,590.552,90,564.188,90z M413.315,360.14
			c0,2.637-2.145,4.781-4.781,4.781H166.149c-3.17,0-6.211,1.26-8.452,3.501l-28.203,28.205v-19.752
			c0-6.601-5.352-11.953-11.953-11.953H93.235c-2.637,0-4.781-2.145-4.781-4.781V171.281c0-2.637,2.145-4.781,4.781-4.781h200.812
			v109.968c0,26.364,21.449,47.813,47.813,47.813h71.455V360.14z M588.094,276.468c0,13.182-10.725,23.906-23.906,23.906H341.86
			c-13.183,0-23.906-10.724-23.906-23.906V137.813c0-13.182,10.724-23.906,23.906-23.906h222.327
			c13.182,0,23.906,10.724,23.906,23.906V276.468z"/>
	</g>
</g>
<g>
	<g>
		<path fill="#40A3FF" d="M501.045,196.789l-81.807-47.231c-3.698-2.136-8.255-2.136-11.953,0
			c-3.698,2.135-5.977,6.082-5.977,10.352v94.461c0,4.27,2.278,8.217,5.977,10.352c1.85,1.068,3.912,1.602,5.977,1.602
			s4.128-0.533,5.977-1.602l81.807-47.231c3.699-2.135,5.977-6.082,5.977-10.352S504.745,198.924,501.045,196.789z"/>
	</g>
</g>
<g>
	<g>
		<path d="M256.408,215.508H136.877c-6.602,0-11.953,5.353-11.953,11.953c0,6.6,5.352,11.953,11.953,11.953h119.531
			c6.602,0,11.953-5.353,11.953-11.953C268.361,220.86,263.01,215.508,256.408,215.508z"/>
	</g>
</g>
<g>
	<g>
		<path d="M264.858,285.947c-2.223-2.225-5.307-3.502-8.451-3.502s-6.228,1.278-8.451,3.502c-2.224,2.223-3.502,5.307-3.502,8.451
			s1.279,6.228,3.502,8.45c2.223,2.223,5.307,3.503,8.451,3.503c3.156,0,6.228-1.279,8.451-3.503
			c2.223-2.222,3.502-5.306,3.502-8.45S267.081,288.17,264.858,285.947z"/>
	</g>
</g>
<g>
	<g>
		<path d="M211.571,282.445h-74.694c-6.602,0-11.953,5.353-11.953,11.953s5.352,11.953,11.953,11.953h74.694
			c6.602,0,11.953-5.353,11.953-11.953S218.173,282.445,211.571,282.445z"/>
	</g>
</g>
<path fill="#40A3FF" d="M125.352,594.357H68.654c-24.673,0-44.747-20.072-44.747-44.745c0-24.674,20.073-44.746,44.747-44.746
	h56.703L125.352,594.357z"/>
</svg>
