<svg id="Layer_1" enable-background="new 0 0 512 512" height="512" viewBox="0 0 512 512" width="512" xmlns="http://www.w3.org/2000/svg"><path d="m241 60.086h30v30h-30z"/><path d="m61 211.086h30v30h-30z"/><path d="m361 211.086h-60v86.972l-30-20v-127.972h60v-150h-150v150h60v127.972l-30 20v-86.972h-60v-60h-151v150h151v-60h30v76.972l-30 20v103.856l105 70 105-70v-103.856l-30-20v-76.972h30v60h151v-150h-151zm-150-181h90v90h-90zm-90 241h-91v-90h91zm135 116.972-62.958-41.972 62.958-41.972 62.958 41.972zm-75-13.944 60 40v51.744l-60-40zm90 91.744v-51.744l60-40v51.745zm120-284.772h91v90h-91z"/><path d="m421 211.086h30v30h-30z"/></svg>