<?xml version="1.0" encoding="utf-8"?>
<!-- Generator: Adobe Illustrator 16.0.0, SVG Export Plug-In . SVG Version: 6.00 Build 0)  -->
<!DOCTYPE svg PUBLIC "-//W3C//DTD SVG 1.1//EN" "http://www.w3.org/Graphics/SVG/1.1/DTD/svg11.dtd">
<svg version="1.1" id="Capa_1" xmlns="http://www.w3.org/2000/svg" xmlns:xlink="http://www.w3.org/1999/xlink" x="0px" y="0px"
	 width="512px" height="512px" viewBox="0 0 512 512" enable-background="new 0 0 512 512" xml:space="preserve">
<g>
	<path fill="#FFFFFF" d="M297.225,412.432c-4.046,0.888-6.607,4.886-5.722,8.933l8.43,38.487
		c2.569,11.733,10.364,20.608,21.377,24.347c3.573,1.218,7.342,1.816,11.103,1.816c5.872,0,11.729-1.463,16.794-4.319
		c8.112-4.574,13.729-12.331,15.811-21.841l19.148-87.421c1.527-6.971,7.014-12.461,13.97-13.99l87.415-19.146
		c15.667-3.42,26.195-16.488,26.202-32.521c0.004-16.041-10.525-29.127-26.201-32.561l0,0l-87.416-19.149
		c-6.96-1.528-12.444-7.012-13.974-13.969l-19.149-87.425c-3.329-15.151-15.941-25.667-31.369-26.166
		c-13.85-0.467-29.619,7.438-33.712,26.17l-19.146,87.417c-1.528,6.96-7.021,12.445-13.989,13.972l-87.422,19.15
		c-15.665,3.434-26.188,16.52-26.183,32.561c0.006,16.033,10.529,29.103,26.185,32.521l87.419,19.15
		c6.971,1.527,12.462,7.018,13.989,13.988l4.3,19.629"/>
	<path fill="#FFFFFF" d="M80.707,164.466c3.952,0.87,7.065,3.984,7.936,7.929l13.249,60.516c1.948,8.924,7.896,15.688,16.316,18.559
		c2.768,0.944,5.638,1.41,8.492,1.41c4.423,0,8.806-1.12,12.702-3.32c6.198-3.497,10.481-9.41,12.063-16.644l13.258-60.512
		c0.765-3.472,3.197-6.281,6.507-7.516c3.881-1.448,5.854-5.767,4.406-9.648c-1.448-3.882-5.771-5.854-9.648-4.406
		c-8.1,3.021-14.049,9.878-15.913,18.352l-13.263,60.526c-0.676,3.094-2.283,5.376-4.775,6.784c-2.655,1.499-6.017,1.79-8.986,0.776
		c-2.391-0.815-5.46-2.788-6.503-7.565l-13.251-60.527c-2.121-9.642-9.722-17.243-19.371-19.365l-60.521-13.25
		c-6.008-1.315-8.148-6.093-8.149-10.126c-0.001-4.037,2.141-8.821,8.152-10.141l60.524-13.261
		c9.643-2.121,17.242-9.712,19.365-19.351l13.25-60.529c1.365-6.233,6.537-8.275,10.521-8.149c3.874,0.13,8.47,2.34,9.745,8.149
		l13.264,60.539c2.119,9.628,9.713,17.22,19.35,19.343l60.527,13.259c6.02,1.32,8.162,6.104,8.16,10.141
		c-0.002,4.033-2.146,8.811-8.157,10.126l-33.709,7.38c-4.047,0.886-6.608,4.884-5.725,8.931c0.887,4.047,4.883,6.608,8.932,5.723
		l33.708-7.38c11.932-2.61,19.947-12.567,19.951-24.776c0.005-12.214-8.014-22.179-19.949-24.797l-60.521-13.258
		c-3.94-0.868-7.051-3.976-7.917-7.91l-13.261-60.535c-2.533-11.525-12.136-19.532-23.89-19.925
		c-12.451-0.428-23.021,7.771-25.684,19.931L88.644,80.468c-0.868,3.94-3.981,7.049-7.932,7.917l-60.521,13.26
		C8.26,104.263,0.248,114.228,0.251,126.441c0.003,12.208,8.019,22.165,19.941,24.776L80.707,164.466z"/>
	<path fill="#FFFFFF" d="M195.029,388.193l-33.592-7.357c-0.924-0.204-1.651-0.934-1.854-1.85l-7.36-33.604
		c-1.739-7.921-8.339-13.419-16.409-13.681c-8.57-0.299-15.801,5.336-17.626,13.685l-7.355,33.593
		c-0.204,0.924-0.937,1.652-1.857,1.855l-33.603,7.357c-8.191,1.799-13.693,8.642-13.69,17.027
		c0.003,8.385,5.507,15.221,13.693,17.01l33.595,7.357c0.927,0.204,1.657,0.937,1.86,1.856l7.356,33.596
		c1.317,6.036,5.521,10.802,11.24,12.746c1.886,0.642,3.842,0.959,5.788,0.959c3.022,0,6.022-0.768,8.693-2.272
		c4.276-2.414,7.229-6.473,8.313-11.429l7.358-33.594c0.204-0.929,0.933-1.659,1.849-1.861l33.596-7.356
		c8.193-1.79,13.7-8.625,13.703-17.012S203.226,389.99,195.029,388.193L195.029,388.193z M191.824,407.576
		c-0.003,0-0.005,0-0.006,0.001l-33.605,7.359c-6.613,1.456-11.827,6.675-13.283,13.299l-7.36,33.602
		c-0.219,1-0.666,1.365-1.029,1.571c-0.643,0.358-1.532,0.432-2.28,0.178c-0.774-0.264-1.212-0.802-1.419-1.75l-7.36-33.604
		c-1.456-6.62-6.674-11.839-13.298-13.292l-33.603-7.36c-1.262-0.275-1.899-1.07-1.899-2.361c-0.001-1.295,0.641-2.093,1.902-2.37
		l33.604-7.358c6.617-1.454,11.835-6.667,13.294-13.29l7.36-33.602c0.34-1.558,1.431-1.904,2.347-1.904
		c0.043,0,0.085,0.002,0.127,0.002c1.229,0.041,1.988,0.682,2.257,1.902l7.361,33.608c1.457,6.61,6.67,11.825,13.289,13.282
		l33.599,7.357c1.27,0.278,1.91,1.075,1.909,2.37C193.728,406.506,193.088,407.3,191.824,407.576L191.824,407.576z"/>
	<path fill="#FFFFFF" d="M389.894,103.385h11.227v11.226c0,4.142,3.357,7.5,7.5,7.5c4.145,0,7.5-3.358,7.5-7.5v-11.226h11.228
		c4.143,0,7.5-3.358,7.5-7.5c0-4.142-3.357-7.5-7.5-7.5h-11.229V77.159c0-4.142-3.355-7.5-7.5-7.5c-4.143,0-7.5,3.358-7.5,7.5
		v11.226h-11.227c-4.143,0-7.5,3.358-7.5,7.5C382.394,100.027,385.752,103.385,389.894,103.385z"/>
	<path fill="#FFFFFF" d="M254.633,478.274h-11.226v-11.228c0-4.142-3.357-7.5-7.5-7.5c-4.145,0-7.5,3.358-7.5,7.5v11.228H217.18
		c-4.143,0-7.5,3.356-7.5,7.5c0,4.142,3.357,7.5,7.5,7.5h11.229V504.5c0,4.142,3.355,7.5,7.5,7.5c4.143,0,7.5-3.358,7.5-7.5v-11.226
		h11.226c4.143,0,7.5-3.358,7.5-7.5C262.133,481.632,258.775,478.274,254.633,478.274z"/>
	<path fill="#FFFFFF" d="M68.026,274.727c0-4.143-3.355-7.5-7.5-7.5H49.3V256c0-4.142-3.357-7.5-7.5-7.5s-7.5,3.358-7.5,7.5v11.227
		H23.074c-4.145,0-7.5,3.357-7.5,7.5s3.355,7.5,7.5,7.5H34.3v11.227c0,4.142,3.357,7.5,7.5,7.5s7.5-3.358,7.5-7.5v-11.227h11.226
		C64.669,282.227,68.026,278.869,68.026,274.727z"/>
</g>
</svg>
