<?xml version="1.0" encoding="utf-8"?>
<!-- Generator: Adobe Illustrator 16.0.0, SVG Export Plug-In . SVG Version: 6.00 Build 0)  -->
<!DOCTYPE svg PUBLIC "-//W3C//DTD SVG 1.1//EN" "http://www.w3.org/Graphics/SVG/1.1/DTD/svg11.dtd">
<svg version="1.1" id="OutlineExpand" xmlns="http://www.w3.org/2000/svg" xmlns:xlink="http://www.w3.org/1999/xlink" x="0px"
	 y="0px" width="512px" height="512px" viewBox="0 0 512 512" enable-background="new 0 0 512 512" xml:space="preserve">
<path d="M16.64,348.864c0.28,3.52,2.832,6.44,6.288,7.184l27.88,6.017c0.984,4.752,2.232,9.439,3.744,14.016L33.448,395.2
	c-2.616,2.368-3.368,6.176-1.848,9.368c3.856,8.111,8.152,15.607,12.768,22.279c2,2.896,5.664,4.145,9.032,3.064l27.096-8.729
	c3.24,3.633,6.688,7.08,10.32,10.32L82.088,458.6c-1.08,3.353,0.16,7.024,3.064,9.032c6.672,4.616,14.168,8.912,22.28,12.769
	c3.2,1.52,7,0.76,9.368-1.849l19.12-21.104c4.584,1.504,9.272,2.76,14.024,3.744l6.016,27.88c0.744,3.447,3.664,6,7.176,6.288
	c4.256,0.336,8.52,0.64,12.864,0.64s8.608-0.304,12.864-0.64c3.52-0.28,6.44-2.832,7.184-6.288l6.016-27.88
	c4.752-0.984,9.448-2.232,14.024-3.744l19.12,21.104c2.376,2.616,6.184,3.376,9.368,1.849c8.112-3.856,15.607-8.16,22.279-12.769
	c2.904-2.008,4.145-5.68,3.064-9.032l-8.729-27.096c3.633-3.24,7.08-6.688,10.32-10.312l27.096,8.728
	c3.353,1.088,7.024-0.16,9.032-3.063c4.616-6.673,8.912-14.169,12.769-22.28c1.52-3.192,0.768-7-1.848-9.368l-21.104-19.12
	c1.504-4.584,2.76-9.271,3.744-14.023l27.88-6.017c3.448-0.743,6-3.664,6.288-7.176C335.696,344.607,336,340.344,336,336
	s-0.304-8.607-0.64-12.864c-0.28-3.52-2.832-6.44-6.288-7.184l-27.881-6.017c-0.983-4.752-2.231-9.447-3.743-14.023l21.104-19.12
	c2.616-2.368,3.368-6.176,1.849-9.368c-3.856-8.111-8.16-15.608-12.769-22.28c-2.008-2.904-5.68-4.152-9.032-3.064l-27.096,8.728
	c-3.24-3.632-6.688-7.08-10.32-10.32l8.729-27.096c1.08-3.352-0.16-7.024-3.064-9.032c-6.672-4.616-14.167-8.912-22.28-12.768
	c-3.2-1.528-7-0.768-9.368,1.848l-19.12,21.104c-4.584-1.504-9.272-2.76-14.024-3.744l-6.016-27.88
	c-0.744-3.448-3.664-6-7.176-6.288c-8.52-0.688-17.216-0.672-25.736,0c-3.52,0.28-6.44,2.832-7.184,6.288l-6.016,27.88
	c-4.752,0.984-9.44,2.232-14.016,3.744l-19.12-21.104c-2.368-2.616-6.168-3.368-9.368-1.848c-8.112,3.856-15.608,8.152-22.28,12.768
	c-2.904,2.008-4.144,5.68-3.064,9.032l8.728,27.096c-3.632,3.24-7.08,6.688-10.32,10.32L53.4,242.08
	c-3.36-1.088-7.032,0.16-9.032,3.064c-4.616,6.672-8.912,14.168-12.768,22.28c-1.52,3.192-0.768,7,1.848,9.368l21.104,19.12
	c-1.504,4.584-2.76,9.271-3.744,14.023l-27.88,6.017c-3.448,0.743-6,3.664-6.288,7.176C16.304,327.393,16,331.656,16,336
	S16.304,344.607,16.64,348.864L16.64,348.864z"/>
<path d="M433.752,129.88c3.008-0.944,5.184-3.576,5.544-6.712c0.48-4.04,0.704-7.696,0.704-11.168s-0.224-7.128-0.696-11.168
	c-0.359-3.136-2.536-5.768-5.544-6.712l-22.184-6.968c-0.664-1.816-1.4-3.6-2.208-5.344l10.752-20.6
	c1.456-2.792,1.136-6.184-0.816-8.664c-4.632-5.856-9.96-11.184-15.832-15.832c-2.479-1.96-5.872-2.272-8.664-0.824L374.192,46.64
	c-1.744-0.8-3.528-1.536-5.345-2.2l-6.968-22.184c-0.944-3.008-3.576-5.184-6.712-5.544c-8.096-0.944-14.248-0.944-22.344,0
	c-3.136,0.36-5.769,2.536-6.712,5.544l-6.968,22.184c-1.816,0.664-3.601,1.4-5.345,2.208l-20.6-10.752
	c-2.792-1.448-6.177-1.136-8.664,0.816c-5.856,4.632-11.185,9.96-15.832,15.832c-1.96,2.48-2.28,5.864-0.824,8.664l10.744,20.6
	c-0.8,1.744-1.536,3.528-2.2,5.344L254.24,94.12c-3.008,0.944-5.184,3.576-5.544,6.712C248.224,104.872,248,108.528,248,112
	s0.224,7.128,0.696,11.168c0.36,3.136,2.536,5.768,5.544,6.712l22.184,6.968c0.664,1.816,1.4,3.6,2.208,5.344l-10.752,20.6
	c-1.456,2.792-1.136,6.184,0.815,8.664c4.633,5.856,9.961,11.184,15.832,15.832c2.473,1.96,5.873,2.272,8.664,0.824l20.601-10.744
	c1.744,0.8,3.528,1.536,5.344,2.2l6.968,22.184c0.944,3.008,3.576,5.184,6.713,5.544c4.056,0.48,7.712,0.704,11.184,0.704
	s7.128-0.224,11.168-0.696c3.136-0.36,5.768-2.536,6.712-5.544l6.968-22.184c1.816-0.664,3.601-1.4,5.345-2.208l20.6,10.752
	c2.792,1.456,6.184,1.144,8.664-0.816c5.855-4.632,11.184-9.96,15.832-15.832c1.96-2.48,2.28-5.864,0.824-8.664l-10.752-20.6
	c0.808-1.744,1.544-3.528,2.208-5.344L433.752,129.88z M402.872,122.808c-2.528,0.8-4.496,2.792-5.264,5.336
	c-1.089,3.616-2.528,7.096-4.272,10.352c-1.256,2.336-1.28,5.144-0.048,7.488l10.152,19.456c-1.896,2.104-3.904,4.112-6,6
	l-19.456-10.152c-2.353-1.232-5.16-1.2-7.488,0.048c-3.256,1.744-6.736,3.184-10.353,4.272c-2.535,0.76-4.535,2.736-5.336,5.264
	l-6.592,20.992c-2.92,0.176-5.504,0.176-8.432,0l-6.592-20.992c-0.801-2.528-2.792-4.496-5.336-5.264
	c-3.624-1.088-7.104-2.528-10.345-4.272c-2.336-1.256-5.144-1.28-7.496-0.048l-19.455,10.152c-2.104-1.896-4.112-3.904-6-6
	l10.151-19.456c1.224-2.344,1.208-5.16-0.048-7.488c-1.744-3.256-3.184-6.736-4.271-10.352c-0.761-2.536-2.736-4.536-5.265-5.336
	l-20.992-6.592C264.04,114.752,264,113.352,264,112s0.04-2.752,0.136-4.216l20.992-6.592c2.528-0.8,4.496-2.792,5.265-5.336
	c1.088-3.624,2.527-7.104,4.271-10.344c1.256-2.336,1.279-5.144,0.048-7.496L284.561,58.56c1.896-2.104,3.903-4.112,6-6
	l19.455,10.152c2.345,1.224,5.16,1.2,7.488-0.048c3.256-1.744,6.736-3.184,10.353-4.272c2.535-0.76,4.535-2.736,5.336-5.264
	l6.592-20.992c2.92-0.176,5.504-0.176,8.432,0l6.592,20.992c0.801,2.528,2.792,4.496,5.336,5.264
	c3.624,1.088,7.104,2.528,10.345,4.272c2.336,1.256,5.144,1.28,7.496,0.048L397.44,52.56c2.104,1.896,4.111,3.904,6,6
	l-10.152,19.456c-1.224,2.344-1.208,5.16,0.048,7.488c1.744,3.256,3.184,6.736,4.272,10.352c0.76,2.536,2.735,4.536,5.264,5.336
	l20.992,6.592C423.96,109.248,424,110.648,424,112s-0.04,2.752-0.136,4.216L402.872,122.808z"/>
<path d="M490.096,279.712l-13.744-4.88c-0.783-2.232-1.68-4.416-2.695-6.536l6.248-13.16c1.304-2.736,0.943-5.968-0.929-8.352
	c-4-5.112-8.624-9.744-13.752-13.76c-2.392-1.872-5.64-2.224-8.359-0.928l-13.168,6.248c-2.112-1.008-4.296-1.912-6.528-2.688
	l-4.888-13.744c-1.017-2.856-3.568-4.896-6.576-5.264c-7.128-0.856-12.288-0.856-19.416,0c-3.008,0.36-5.561,2.4-6.576,5.264
	l-4.88,13.744c-2.232,0.784-4.416,1.68-6.536,2.696l-13.16-6.248c-2.72-1.296-5.96-0.936-8.352,0.928
	c-5.112,4-9.744,8.624-13.76,13.752c-1.864,2.384-2.225,5.624-0.929,8.36l6.248,13.168c-1.008,2.111-1.912,4.295-2.688,6.527
	l-13.744,4.889c-2.856,1.016-4.896,3.567-5.264,6.575c-0.44,3.544-0.648,6.72-0.648,9.696s0.208,6.145,0.64,9.704
	c0.36,3.008,2.4,5.56,5.265,6.575l13.744,4.881c0.783,2.232,1.68,4.416,2.695,6.535l-6.248,13.16
	c-1.304,2.736-0.943,5.969,0.929,8.353c4,5.112,8.624,9.744,13.752,13.76c2.384,1.864,5.632,2.224,8.359,0.929l13.168-6.248
	c2.112,1.008,4.296,1.912,6.528,2.688l4.888,13.744c1.017,2.855,3.568,4.896,6.576,5.264c3.56,0.448,6.729,0.656,9.704,0.656
	s6.144-0.208,9.704-0.641c3.008-0.359,5.56-2.399,6.576-5.264l4.88-13.744c2.231-0.783,4.416-1.68,6.536-2.695l13.16,6.248
	c2.728,1.304,5.976,0.951,8.352-0.928c5.112-4,9.744-8.625,13.76-13.752c1.864-2.385,2.225-5.625,0.929-8.361l-6.248-13.168
	c1.008-2.111,1.911-4.295,2.688-6.527l13.744-4.889c2.855-1.016,4.896-3.567,5.264-6.575c0.448-3.56,0.656-6.728,0.656-9.704
	s-0.208-6.145-0.64-9.704C495,283.279,492.96,280.736,490.096,279.712L490.096,279.712z M479.92,298.92l-12.68,4.504
	c-2.456,0.872-4.336,2.889-5.032,5.4c-1.048,3.8-2.544,7.424-4.44,10.775c-1.279,2.265-1.376,5.017-0.264,7.368l5.744,12.104
	c-1.328,1.455-2.72,2.848-4.168,4.168l-12.104-5.744c-2.336-1.112-5.096-1.016-7.367,0.264c-3.36,1.904-6.984,3.393-10.769,4.44
	c-2.512,0.696-4.528,2.575-5.408,5.032l-4.504,12.68c-1.936,0.104-3.903,0.104-5.84,0l-4.504-12.68
	c-0.872-2.457-2.888-4.336-5.4-5.032c-3.8-1.048-7.424-2.544-10.775-4.44c-2.265-1.271-5.008-1.367-7.368-0.264l-12.104,5.744
	c-1.455-1.328-2.848-2.721-4.168-4.168l5.744-12.104c1.12-2.352,1.017-5.104-0.264-7.368c-1.904-3.359-3.393-6.983-4.44-10.768
	c-0.695-2.512-2.575-4.527-5.031-5.408l-12.681-4.504c-0.063-0.968-0.096-1.936-0.096-2.92s0.032-1.96,0.08-2.92l12.68-4.512
	c2.456-0.873,4.336-2.889,5.024-5.4c1.056-3.809,2.552-7.424,4.447-10.775c1.28-2.265,1.376-5.017,0.265-7.369l-5.744-12.104
	c1.328-1.456,2.72-2.848,4.168-4.168l12.104,5.744c2.353,1.12,5.104,1.024,7.368-0.264c3.36-1.904,6.984-3.392,10.769-4.44
	c2.512-0.696,4.527-2.576,5.408-5.032l4.504-12.68c1.936-0.104,3.903-0.104,5.84,0l4.504,12.68c0.872,2.456,2.888,4.336,5.4,5.032
	c3.8,1.048,7.424,2.544,10.775,4.44c2.272,1.288,5.016,1.384,7.368,0.264l12.104-5.744c1.456,1.328,2.849,2.72,4.169,4.168
	l-5.744,12.104c-1.12,2.353-1.017,5.104,0.264,7.369c1.904,3.359,3.392,6.983,4.44,10.768c0.695,2.512,2.575,4.527,5.031,5.408
	l12.681,4.504c0.063,0.976,0.096,1.943,0.096,2.928S479.968,297.952,479.92,298.92L479.92,298.92z"/>
<path d="M16.176,202.872l12.288,10.248C65.096,169.192,118.864,144,176,144c4.072,0,8.136,0.232,12.2,0.488l-9.856,9.855
	l11.312,11.313l24-24c3.128-3.128,3.128-8.184,0-11.313l-24-24l-11.312,11.313l10.872,10.872c-4.4-0.28-8.808-0.528-13.216-0.528
	C114.112,128,55.856,155.288,16.176,202.872L16.176,202.872z"/>
<path d="M344,72c-22.056,0-40,17.944-40,40s17.944,40,40,40s40-17.944,40-40S366.056,72,344,72z M344,136c-13.232,0-24-10.768-24-24
	s10.768-24,24-24s24,10.768,24,24S357.232,136,344,136z"/>
<path d="M416,264c-17.648,0-32,14.352-32,32s14.352,32,32,32s32-14.352,32-32S433.648,264,416,264z M416,312
	c-8.824,0-16-7.176-16-16s7.176-16,16-16s16,7.176,16,16S424.824,312,416,312z"/>
<path d="M489.568,40.16l-40-8c-4.353-0.88-8.553,1.944-9.416,6.272l-8,40l15.688,3.144l4.313-21.536
	C459.904,76.168,464,93.944,464,112c0,27.584-9.104,53.52-26.32,75l12.488,10.008C469.408,173,480,142.816,480,112
	c0-20.952-4.84-41.608-14.048-60.248l20.479,4.096L489.568,40.16z"/>
<path fill="#40A3FF" d="M30.168,330.328l27.216-5.88c3.216-0.696,5.68-3.288,6.208-6.536c1.2-7.376,3.136-14.616,5.752-21.528
	c1.168-3.071,0.328-6.552-2.112-8.76L46.68,269c1.792-3.432,3.664-6.721,5.6-9.832l26.368,8.496c3.12,1,6.56,0,8.648-2.544
	c4.72-5.776,10.048-11.097,15.824-15.824c2.544-2.08,3.56-5.512,2.544-8.648l-8.496-26.368c3.112-1.944,6.392-3.816,9.832-5.6
	l18.624,20.561c2.216,2.439,5.704,3.28,8.768,2.112c6.896-2.616,14.136-4.552,21.52-5.752c3.248-0.528,5.84-2.992,6.536-6.208
	l5.872-27.216c3.768-0.2,7.6-0.208,11.352,0l5.88,27.216c0.696,3.216,3.288,5.68,6.536,6.208c7.376,1.2,14.616,3.136,21.528,5.752
	c3.056,1.168,6.544,0.336,8.76-2.112L241,208.688c3.432,1.792,6.72,3.664,9.832,5.6l-8.496,26.368c-1.008,3.136,0,6.56,2.544,8.647
	c5.776,4.72,11.097,10.048,15.824,15.824c2.088,2.552,5.521,3.567,8.647,2.544l26.369-8.496c1.943,3.112,3.815,6.393,5.6,9.824
	l-20.561,18.624c-2.439,2.208-3.279,5.688-2.111,8.769c2.615,6.896,4.552,14.135,5.752,21.52c0.527,3.248,2.992,5.84,6.207,6.535
	l27.217,5.873c0.104,1.88,0.176,3.775,0.176,5.68s-0.063,3.8-0.168,5.672l-27.216,5.88c-3.216,0.696-5.681,3.288-6.208,6.536
	c-1.2,7.376-3.137,14.616-5.752,21.528c-1.168,3.071-0.328,6.552,2.111,8.76L301.32,403c-1.793,3.432-3.664,6.72-5.6,9.832
	l-26.369-8.496c-3.144-1.024-6.56-0.008-8.647,2.544c-4.712,5.76-10.04,11.088-15.824,15.824c-2.544,2.08-3.552,5.512-2.544,8.64
	l8.496,26.368c-3.112,1.944-6.392,3.816-9.824,5.601l-18.624-20.561c-2.208-2.439-5.688-3.264-8.768-2.112
	c-6.896,2.616-14.136,4.553-21.52,5.752c-3.248,0.528-5.84,2.992-6.536,6.208l-5.872,27.217c-3.768,0.199-7.6,0.208-11.352,0
	l-5.88-27.217c-0.696-3.216-3.288-5.68-6.536-6.208c-7.376-1.199-14.616-3.136-21.528-5.752c-3.064-1.168-6.552-0.336-8.76,2.112
	l-18.624,20.552c-3.432-1.792-6.72-3.664-9.832-5.6l8.496-26.368c1.008-3.136,0-6.56-2.544-8.648
	c-5.776-4.72-11.096-10.048-15.824-15.823c-2.088-2.553-5.528-3.561-8.648-2.544l-26.368,8.496c-1.944-3.112-3.816-6.393-5.6-9.832
	l20.56-18.625c2.44-2.207,3.28-5.688,2.112-8.768c-2.616-6.896-4.552-14.136-5.752-21.52c-0.528-3.248-2.992-5.84-6.208-6.536
	l-27.232-5.856C30.072,339.8,30,337.904,30,336S30.064,332.2,30.168,330.328z"/>
<path d="M176,424c48.52,0,88-39.48,88-88s-39.48-88-88-88s-88,39.48-88,88S127.48,424,176,424z"/>
</svg>
