<?xml version="1.0" encoding="utf-8"?>
<!-- Generator: Adobe Illustrator 16.0.0, SVG Export Plug-In . SVG Version: 6.00 Build 0)  -->
<!DOCTYPE svg PUBLIC "-//W3C//DTD SVG 1.1//EN" "http://www.w3.org/Graphics/SVG/1.1/DTD/svg11.dtd">
<svg version="1.1" id="Layer_1" xmlns="http://www.w3.org/2000/svg" xmlns:xlink="http://www.w3.org/1999/xlink" x="0px" y="0px"
	 width="512px" height="512px" viewBox="0 0 512 512" enable-background="new 0 0 512 512" xml:space="preserve">
<path fill="#FFFFFF" d="M447.536,478.968h-32.569V74.323c0-9.122-7.394-16.516-16.516-16.516H274.58V16.516
	C274.58,7.394,267.187,0,258.065,0H143.484c-9.122,0-16.516,7.394-16.516,16.516v41.291h-13.42c-9.122,0-16.516,7.394-16.516,16.516
	v404.645H64.463c-8.896,0-16.547,6.84-16.961,15.726C47.061,504.179,54.613,512,64,512h117.677c4.561,0,8.259-3.697,8.259-8.258
	v-94.968h-6.76c-8.893,0-16.545-6.835-16.964-15.718c-0.447-9.484,7.111-17.314,16.497-17.314c4.987,0,150.24,0,146.114,0
	c8.893,0,16.545,6.834,16.964,15.717c0.447,9.484-7.11,17.315-16.497,17.315h-7.226v94.968c0,4.561,3.697,8.258,8.258,8.258h117.677
	c9.388,0,16.939-7.821,16.498-17.307C464.083,485.808,456.432,478.968,447.536,478.968L447.536,478.968z M215.741,341.678h-18.58
	c-9.121,0-16.517-7.396-16.517-16.517s7.396-16.517,16.517-16.517h18.58c9.121,0,16.517,7.396,16.517,16.517
	S224.863,341.678,215.741,341.678z M215.741,279.742h-18.58c-9.121,0-16.517-7.396-16.517-16.517s7.396-16.516,16.517-16.516h18.58
	c9.121,0,16.517,7.395,16.517,16.516S224.863,279.742,215.741,279.742z M215.741,217.807h-18.58
	c-9.121,0-16.517-7.396-16.517-16.517c0-9.121,7.396-16.516,16.517-16.516h18.58c9.121,0,16.517,7.395,16.517,16.516
	C232.258,210.411,224.863,217.807,215.741,217.807z M215.741,155.871h-18.58c-9.121,0-16.517-7.396-16.517-16.516
	c0-9.121,7.396-16.516,16.517-16.516h18.58c9.121,0,16.517,7.395,16.517,16.516C232.258,148.476,224.863,155.871,215.741,155.871z
	 M313.806,341.678h-18.58c-9.122,0-16.517-7.396-16.517-16.517s7.395-16.517,16.517-16.517h18.58
	c9.122,0,16.517,7.396,16.517,16.517S322.928,341.678,313.806,341.678z M313.806,279.742h-18.58
	c-9.122,0-16.517-7.396-16.517-16.517s7.395-16.516,16.517-16.516h18.58c9.122,0,16.517,7.395,16.517,16.516
	S322.928,279.742,313.806,279.742z M313.806,217.807h-18.58c-9.122,0-16.517-7.396-16.517-16.517
	c0-9.121,7.395-16.516,16.517-16.516h18.58c9.122,0,16.517,7.395,16.517,16.516C330.323,210.411,322.928,217.807,313.806,217.807z
	 M313.806,155.871h-18.58c-9.122,0-16.517-7.396-16.517-16.516c0-9.121,7.395-16.516,16.517-16.516h18.58
	c9.122,0,16.517,7.395,16.517,16.516C330.323,148.476,322.928,155.871,313.806,155.871z M222.968,503.742v-86.71
	c0-4.561,3.697-8.258,8.258-8.258h49.548c4.561,0,8.259,3.697,8.259,8.258v86.71c0,4.561-3.698,8.258-8.259,8.258h-49.548
	C226.665,512,222.968,508.303,222.968,503.742z"/>
</svg>
