<?xml version="1.0" encoding="utf-8"?>
<!-- Generator: Adobe Illustrator 16.0.0, SVG Export Plug-In . SVG Version: 6.00 Build 0)  -->
<!DOCTYPE svg PUBLIC "-//W3C//DTD SVG 1.1//EN" "http://www.w3.org/Graphics/SVG/1.1/DTD/svg11.dtd">
<svg version="1.1" id="Capa_1" xmlns="http://www.w3.org/2000/svg" xmlns:xlink="http://www.w3.org/1999/xlink" x="0px" y="0px"
	 width="512px" height="512px" viewBox="0 0 512 512" enable-background="new 0 0 512 512" xml:space="preserve">
<g>
	<path fill="#2E4161" d="M236,151h20c8.284,0,15-6.716,15-15s-6.716-15-15-15h-20c-8.284,0-15,6.716-15,15S227.716,151,236,151z"/>
	<path fill="#37B8CB" d="M15,211h482c8.282,0,15-6.716,15-15s-6.718-15-15-15h-17.566L460.907,13.353C460.069,5.752,453.646,0,446,0
		h-60c-7.646,0-14.069,5.752-14.909,13.353L352.566,181H331V26c0-5.314-2.813-10.232-7.396-12.928
		c-4.581-2.696-10.246-2.766-14.891-0.185L241,50.507V26c0-5.314-2.813-10.232-7.396-12.928c-4.58-2.696-10.246-2.766-14.891-0.185
		L151,50.507V26c0-5.314-2.813-10.232-7.396-12.928c-4.581-2.696-10.245-2.766-14.891-0.185l-90,50C33.953,65.533,31,70.553,31,76
		v105H15c-8.284,0-15,6.716-15,15S6.716,211,15,211z M161,181h-40v-30h40V181z M399.434,30h33.133l16.687,151h-66.505L399.434,30z
		 M61,84.826l60-33.333V76c0,5.314,2.812,10.232,7.394,12.928c4.581,2.696,10.245,2.767,14.893,0.185L211,51.493V76
		c0,5.314,2.812,10.232,7.394,12.928c4.581,2.696,10.245,2.767,14.893,0.185L301,51.493V181H191v-45c0-8.284-6.716-15-15-15h-70
		c-8.284,0-15,6.716-15,15v45H61V84.826z"/>
	<path fill="#2E4161" d="M497,241h-91c-8.284,0-15,6.716-15,15c0,57.648-36.899,108.54-90,127.318v-32.433
		c36.283-17.223,60-54.104,60-94.888c0-8.284-6.718-15-15-15h-60c-8.284,0-15,6.716-15,15c0,8.271-6.729,15-15,15
		c-8.271,0-15-6.729-15-15c0-8.284-6.716-15-15-15h-60c-8.284,0-15,6.716-15,15c0,40.784,23.715,77.665,60,94.888v32.433
		c-53.103-18.778-90-69.67-90-127.318c0-8.284-6.716-15-15-15H15c-8.284,0-15,6.716-15,15s6.716,15,15,15h16.504
		c0.633,9.677,1.868,19.236,3.705,28.631l-15.879,4.255c-8.002,2.146-12.75,10.369-10.606,18.372
		c1.796,6.701,7.856,11.121,14.479,11.121c1.283,0,2.592-0.167,3.893-0.515l15.841-4.245c3.104,9.129,6.794,18.041,11.057,26.689
		l-14.203,8.199c-7.177,4.143-9.635,13.315-5.49,20.49c2.778,4.813,7.82,7.503,13.004,7.503c2.545,0,5.124-0.647,7.486-2.013
		l14.235-8.221c5.347,7.941,11.231,15.574,17.626,22.864L74.98,415.807c-5.856,5.857-5.856,15.355,0,21.213
		c2.931,2.931,6.77,4.396,10.606,4.396s7.678-1.465,10.604-4.396l11.671-11.671c7.29,6.396,14.926,12.281,22.865,17.626
		l-8.22,14.237c-4.144,7.175-1.687,16.349,5.49,20.49c2.36,1.364,4.939,2.013,7.484,2.013c5.186,0,10.228-2.689,13.004-7.503
		l8.2-14.203c8.649,4.261,17.563,7.953,26.69,11.057l-4.245,15.841c-2.146,8.003,2.604,16.228,10.604,18.372
		c1.303,0.348,2.606,0.515,3.895,0.515c6.622,0,12.684-4.42,14.479-11.121l4.256-15.879c9.396,1.836,18.953,3.072,28.632,3.705V497
		c0,8.284,6.716,15,15,15c8.282,0,15-6.716,15-15v-16.504c9.677-0.633,19.234-1.868,28.631-3.705l4.255,15.879
		c1.796,6.701,7.854,11.121,14.479,11.121c1.285,0,2.592-0.167,3.895-0.515c8.002-2.146,12.75-10.369,10.604-18.372l-4.245-15.843
		c9.129-3.103,18.041-6.794,26.69-11.055l8.2,14.203c2.776,4.813,7.818,7.503,13.004,7.503c2.545,0,5.124-0.646,7.484-2.013
		c7.177-4.144,9.635-13.315,5.49-20.49l-8.22-14.237c7.94-5.345,15.575-11.229,22.865-17.626l11.671,11.671
		c2.929,2.931,6.768,4.396,10.604,4.396s7.68-1.465,10.606-4.396c5.856-5.855,5.856-15.354,0-21.213l-11.671-11.671
		c6.395-7.29,12.279-14.924,17.626-22.864l14.235,8.221c2.362,1.363,4.941,2.013,7.486,2.013c5.184,0,10.227-2.69,13.004-7.503
		c4.145-7.175,1.687-16.35-5.49-20.49L458,355.311c4.262-8.648,7.951-17.562,11.056-26.689l15.841,4.245
		c1.301,0.348,2.606,0.515,3.895,0.515c6.62,0,12.684-4.42,14.479-11.121c2.145-8.003-2.604-16.228-10.605-18.371l-15.88-4.256
		c1.836-9.396,3.072-18.954,3.705-28.631H497c8.282,0,15-6.716,15-15S505.282,241,497,241z M91.687,271
		c3.021,32.938,15.919,64.459,37.076,90.057c24.023,29.063,57.496,49.181,94.253,56.643c4.41,0.895,8.992-0.238,12.479-3.086
		c3.483-2.852,5.507-7.112,5.507-11.614v-62.125c0-6.356-4.007-12.022-10.001-14.144c-25.097-8.871-43.279-30.312-48.481-55.729
		h31.053c6.19,17.461,22.873,30,42.432,30c19.557,0,36.239-12.539,42.43-30h31.053c-5.202,25.419-23.387,46.857-48.479,55.729
		c-5.994,2.119-10.001,7.785-10.001,14.144v62.125c0,4.502,2.021,8.765,5.507,11.614c3.485,2.849,8.066,3.979,12.478,3.086
		c36.757-7.462,70.229-27.577,94.253-56.643c21.157-25.598,34.059-57.117,37.076-90.057h30.115C442.742,371.542,358.477,451,256,451
		C153.522,451,69.256,371.542,61.57,271H91.687z"/>
</g>
</svg>
