<?xml version="1.0" encoding="utf-8"?>
<!-- Generator: Adobe Illustrator 16.0.0, SVG Export Plug-In . SVG Version: 6.00 Build 0)  -->
<!DOCTYPE svg PUBLIC "-//W3C//DTD SVG 1.1//EN" "http://www.w3.org/Graphics/SVG/1.1/DTD/svg11.dtd">
<svg version="1.1" id="Layer_1" xmlns="http://www.w3.org/2000/svg" xmlns:xlink="http://www.w3.org/1999/xlink" x="0px" y="0px"
	 width="496px" height="496px" viewBox="0 0 496 496" enable-background="new 0 0 496 496" xml:space="preserve">
<path fill="#2E4161" d="M380.14,207.347c0-95.687-77.571-173.254-173.258-173.254c-95.688,0-173.254,77.567-173.254,173.254
	c0,95.686,77.566,173.258,173.254,173.258C302.522,380.496,380.027,302.99,380.14,207.347z M50.128,207.347
	c0-86.57,70.184-156.754,156.754-156.754c86.574,0,156.754,70.184,156.754,156.754c0,86.575-70.18,156.758-156.754,156.758
	C120.351,364.004,50.226,293.883,50.128,207.347z"/>
<path fill="#2E4161" d="M445.156,398.959l-0.016-0.023l-0.023-0.02l-17.476-17.477c-3.083-3.105-7.282-4.852-11.657-4.84h-0.016
	c-1.43,0.021-2.85,0.228-4.224,0.612l-20.733-20.733c1.534-5.666-0.07-11.724-4.211-15.888l-12.685-12.737
	c62.973-87.332,48.308-208.385-33.697-278.15C258.415-20.063,136.577-15.141,60.466,61.009
	c-76.111,76.15-80.97,197.993-11.161,279.962c69.805,81.969,190.866,96.571,278.166,33.557l12.651,12.738
	c4.124,4.211,10.222,5.826,15.888,4.207l20.733,20.738c-1.614,5.666,0.004,11.766,4.22,15.883l17.49,17.487l0.017,0.023l0.022,0.016
	l40.816,40.817c8.293,8.55,20.547,11.965,32.066,8.939c11.521-3.025,20.517-12.02,23.54-23.54
	c3.024-11.517-0.394-23.773-8.939-32.063L445.156,398.959z M17.128,207.347C17.066,123.743,71.733,49.945,151.732,25.645
	c79.998-24.297,166.475,6.623,212.923,76.139c46.452,69.516,41.934,161.241-11.127,225.852c-0.198,0.246-0.4,0.484-0.601,0.728
	c-7.528,9.064-15.876,17.416-24.938,24.949c-0.296,0.246-0.593,0.496-0.89,0.74c-56.7,46.538-135.152,56.205-201.453,24.828
	C59.346,347.5,17.085,280.699,17.128,207.347z M343.885,361.35c1.571-1.399,3.109-2.832,4.64-4.281
	c2.787-2.639,5.499-5.35,8.137-8.141c1.434-1.514,2.854-3.035,4.238-4.594c0.999-1.119,2.08-2.162,3.056-3.305l11.166,11.216
	l0.017,0.022l-23.334,23.334v0.004l-11.173-11.244C341.754,363.402,342.781,362.333,343.885,361.35z M380.967,369.768l17.499,17.5
	l-11.665,11.664l-17.499-17.5L380.967,369.768z M415.969,393.098l11.669,11.672l-23.334,23.333l-11.668-11.672L415.969,393.098z"/>
<path fill="#37B8CB" d="M246.49,320.213c4.176-6.357,9.123-12.164,14.734-17.293c13.051-10.415,19.817-26.816,17.913-43.406
	c9.382-6.688,15.771-16.782,17.804-28.119c3.254-28.032-4.422-31.626-7.313-32.98c-1.741-0.815-3.638-1.252-5.563-1.28
	c0.013-1.351-0.022-2.845-0.03-4.254c18.799-8.828,30.101-21.074,30.101-35.033c0-16.914-16.297-31.486-44.665-40.547
	c-2.127-11.06-5.447-21.858-9.896-32.208c-1.998-4.437-5.851-7.77-10.529-9.108c-4.679-1.339-9.713-0.546-13.753,2.166
	c-1.308,0.878-2.731,1.928-4.288,3.063c-6.701,6.029-15.15,9.756-24.122,10.63c-8.968-0.874-17.425-4.601-24.122-10.634
	c-1.553-1.136-2.98-2.182-4.288-3.06c-4.04-2.712-9.07-3.505-13.745-2.17c-4.68,1.338-8.526,4.671-10.521,9.104
	c-4.457,10.35-7.777,21.152-9.908,32.216c-28.372,9.062-44.669,23.634-44.669,40.547c0,13.959,11.306,26.206,30.104,35.029
	c-0.008,1.405-0.047,2.896-0.034,4.246c-1.925,0.031-3.816,0.472-5.559,1.292c-2.896,1.354-10.571,4.948-7.286,33.258
	c2.097,11.231,8.465,21.214,17.776,27.837c-1.908,16.591,4.858,32.992,17.909,43.411c5.615,5.129,10.563,10.936,14.734,17.293
	c6.615,9.405,13.456,19.139,29.827,19.139h19.562C233.037,339.352,239.874,329.618,246.49,320.213z M169.288,91.863
	c1.128,0.757,2.36,1.659,3.699,2.638c9.473,8.211,21.383,13.077,33.895,13.846c12.512-0.769,24.426-5.631,33.896-13.842
	c1.335-0.983,2.568-1.885,3.771-2.603c4.711,11.173,8.032,22.884,9.89,34.869c0.293,1.792,0.522,3.567,0.745,5.343
	c0.16,1.252,0.344,2.486,0.474,3.766c0.24,2.404,0.39,4.776,0.507,7.134c0.03,0.647,0.104,1.276,0.129,1.928
	c-12.695,6.853-26.631,11.11-40.992,12.523c-2.732,0.246-5.542,0.382-8.418,0.382c-7.973-0.031-15.915-1.034-23.649-2.985
	c-8.968-2.232-17.62-5.569-25.761-9.94c0.021-0.644,0.094-1.265,0.125-1.904c0.121-2.369,0.271-4.746,0.511-7.157
	c0.129-1.272,0.313-2.498,0.474-3.743c0.223-1.776,0.456-3.555,0.74-5.347C161.179,114.763,164.528,103.036,169.288,91.863z
	 M116.132,157.847c0-7.696,9.644-15.911,25.394-22.174c-0.051,0.546-0.03,1.069-0.073,1.612c-0.335,4.063-0.569,8.16-0.569,12.313
	c0,2.759,1.378,5.334,3.672,6.865c18.779,11.481,40.317,17.663,62.328,17.885c22.011-0.223,43.549-6.404,62.328-17.885
	c2.294-1.53,3.676-4.105,3.676-6.865c0-4.152-0.238-8.25-0.569-12.316c-0.043-0.542-0.026-1.062-0.073-1.608
	c15.75,6.264,25.394,14.479,25.394,22.174c0,7.695-9.515,15.852-25.386,22.127c-1.098,0.437-2.26,0.831-3.399,1.245
	c-16.469,5.569-33.659,8.718-51.034,9.342c-0.486,0.023-0.964,0.066-1.454,0.09c-3.106,0.129-6.269,0.191-9.479,0.195
	c-3.211,0.004-6.369-0.063-9.476-0.195c-0.495-0.023-0.973-0.066-1.459-0.09c-17.375-0.624-34.565-3.773-51.034-9.342
	c-1.137-0.414-2.304-0.808-3.396-1.245C125.643,173.699,116.132,165.551,116.132,157.847z M180.77,310.718
	c-4.909-7.431-10.734-14.213-17.339-20.19c-13.253-11.649-12.792-21.012-12.147-33.969l0.065-1.334
	c0.137-2.928-1.288-5.711-3.738-7.311c-0.487-0.32-1.012-0.585-1.558-0.788c-6.619-3.758-11.298-10.186-12.844-17.636
	c-0.491-4.266-0.667-8.563-0.526-12.851c8.688,14.521,24.281,23.497,41.199,23.712c11.376,0.519,22.705-1.749,33-6.611
	c10.299,4.862,21.628,7.13,33.004,6.611c16.918-0.219,32.512-9.194,41.195-23.716c0.141,4.18-0.021,8.359-0.48,12.515
	c-1.463,7.587-6.174,14.155-12.89,17.976c-0.546,0.203-1.065,0.468-1.555,0.788c-2.453,1.6-3.875,4.383-3.737,7.311l0.065,1.334
	c0.645,12.952,1.102,22.318-12.151,33.969c-6.604,5.979-12.431,12.761-17.339,20.19c-6.476,9.218-8.888,12.134-16.332,12.134
	h-19.562C189.656,322.852,187.248,319.936,180.77,310.718z"/>
<path fill="#37B8CB" d="M237.474,275.802c-3.208-3.216-8.41-3.243-11.647-0.059c-2.89,2.989-6.615,5.034-10.693,5.858
	c-4.555,0-8.25,3.69-8.25,8.25c0,4.558,3.695,8.25,8.25,8.25c8.469-0.824,16.371-4.603,22.334-10.666
	C240.682,284.225,240.682,279.014,237.474,275.802z"/>
</svg>
