<?xml version="1.0" encoding="utf-8"?>
<!-- Generator: Adobe Illustrator 16.0.0, SVG Export Plug-In . SVG Version: 6.00 Build 0)  -->
<!DOCTYPE svg PUBLIC "-//W3C//DTD SVG 1.1//EN" "http://www.w3.org/Graphics/SVG/1.1/DTD/svg11.dtd">
<svg version="1.1" id="Capa_1" xmlns="http://www.w3.org/2000/svg" xmlns:xlink="http://www.w3.org/1999/xlink" x="0px" y="0px"
	 width="595.279px" height="841.891px" viewBox="0 0 595.279 841.891" enable-background="new 0 0 595.279 841.891"
	 xml:space="preserve">
<g>
	<g>
		<path fill="#37B8CB" d="M572.122,184.799L572.122,184.799c-0.004-10.145-4.78-29.18-36.739-42.689
			c-18.903-7.99-43.646-12.388-69.685-12.388c-0.024,0-0.055,0-0.08,0c-26.064,0.008-50.84,4.425-69.756,12.435
			c-31.949,13.529-36.715,32.566-36.711,42.712l0.017,62.589c0.004,10.146,4.78,29.181,36.739,42.689
			c18.903,7.99,43.646,12.388,69.685,12.388c0.025,0,0.055,0,0.081,0c26.064-0.008,50.839-4.425,69.756-12.435
			c31.949-13.53,36.714-32.568,36.711-42.711L572.122,184.799z M412.383,173.104c14.419-5.478,33.328-8.497,53.248-8.502
			c0.022,0,0.045,0,0.067,0c19.893,0,38.776,3.006,53.182,8.466c13.255,5.025,17.604,10.206,18.302,11.742
			c-0.697,1.536-5.041,6.72-18.291,11.753c-14.417,5.478-33.327,8.498-53.246,8.504c-0.021,0-0.042,0-0.063,0
			c-19.894,0-38.78-3.007-53.187-8.468c-13.254-5.025-17.603-10.206-18.301-11.741C394.789,183.321,399.134,178.138,412.383,173.104
			z M518.906,259.153c-14.419,5.477-33.328,8.497-53.248,8.503c-0.022,0-0.045,0-0.067,0c-19.894,0-38.779-3.006-53.185-8.467
			c-13.724-5.204-17.897-10.575-18.359-11.892l-0.007-20.648c19.813,8.8,45.75,13.297,71.541,13.297c0.022,0,0.05,0,0.071,0
			c25.812-0.009,51.771-4.524,71.597-13.343l0.007,20.646C536.798,248.566,532.628,253.94,518.906,259.153z"/>
	</g>
</g>
<g>
	<g>
		<path fill="#2E4161" d="M540.635,677.289V335.468H390.653v341.821h-45.344V416.854H195.326V677.29h-45.344V490.101H34.88V199.437
			H0v512.732h595.28v-34.88H540.635z M115.103,677.289H34.88V524.98h80.224V677.289z M310.429,677.289h-80.224V451.733h80.224
			V677.289z M505.756,677.289h-80.224V370.348h80.224V677.289z"/>
	</g>
</g>
</svg>
