<?xml version="1.0" encoding="utf-8"?>
<!-- Generator: Adobe Illustrator 16.0.0, SVG Export Plug-In . SVG Version: 6.00 Build 0)  -->
<!DOCTYPE svg PUBLIC "-//W3C//DTD SVG 1.1//EN" "http://www.w3.org/Graphics/SVG/1.1/DTD/svg11.dtd">
<svg version="1.1" id="Layer_1" xmlns="http://www.w3.org/2000/svg" xmlns:xlink="http://www.w3.org/1999/xlink" x="0px" y="0px"
	 width="512px" height="512px" viewBox="0 0 512 512" enable-background="new 0 0 512 512" xml:space="preserve">
<g>
	<path d="M511.905,225.188c-1.15-10.303-8.179-14.348-12.347-15.426c-12.418-3.433-24.473-2.989-36.133-2.559
		c-2.608,0.096-5.159,0.19-7.672,0.241c-0.9,0.018-1.506-0.869-1.267-1.668c3.388-11.287,6.431-22.699,9.398-33.826
		c0.01-0.038,0.02-0.076,0.029-0.114c2.035-8.144-1.223-16.173-7.921-19.522c-13.871-6.937-30.604,1.095-39.915,11.681
		c-11.756,12.687-19.347,28.09-28.527,42.565c-14.253,0.333-29.178,2.617-43.095-1.54c-12.73-6.338-20.437-12.185-29.328-23.378
		c-15.029-18.92-35.25-32.549-60.275-33.112c-3.423-17.282-18.694-30.354-36.967-30.354h-3.896v-14.643h165.256
		c4.106,0,7.687-3.163,7.81-7.268c0.128-4.246-3.276-7.729-7.496-7.729H33.74c-4.106,0-7.687,3.163-7.81,7.267
		c-0.128,4.246,3.277,7.729,7.495,7.729h165.57v14.643h-4.516c-18.502,0-33.922,13.406-37.084,31.024
		c-22.92,3.225-43.353,15.76-56.585,34.9c-5.514,7.975,6.822,16.502,12.336,8.528c15.342-22.192,39.686-29.619,65.427-29.249v54.106
		c0,11.398-9.261,20.672-20.644,20.672H85.933c2.416-4.512,4.93-8.952,7.632-13.298c5.004-8.304-7.841-16.044-12.846-7.74
		c-5.041,8.365-9.36,18.624-15.655,25.971c-11.899,13.73-30.216,19.023-45.758,27.238c-25.978,13.08-25.959,56.436,1.391,68.506
		c30.771,13.676,60.342,20.62,87.898,20.641c11.234,0.375,22.544,0.75,33.903,1.079v47.911H79.206
		c-13.842,0-25.102-11.275-25.102-25.135c0-9.695-14.997-9.695-14.997,0c0,22.129,17.989,40.132,40.099,40.132h250.929
		c9.694,0,9.694-14.997,0-14.997h-74.4v-47.913c11.214-0.493,22.418-1.174,33.595-2.105c29.64-2.577,47.37-27.233,62.406-50.044
		c12.583-15.722,31.182-21.93,50.868-28.502c7.229-2.414,14.707-4.91,21.809-7.907c8.932-3.771,3.098-17.587-5.833-13.815
		c-6.566,2.772-13.443,5.067-20.725,7.498c-20.997,7.01-42.709,14.258-58.066,33.657c-14.404,18.172-25.502,41.891-51.73,44.171
		c-59.55,4.962-120.318,2.938-179.086,0.978c-0.083-0.002-0.167-0.004-0.25-0.004c-25.431,0-52.938-6.483-81.765-19.273
		c-15.567-7.985-16.116-33.366-0.707-41.585c17.385-9.204,36.542-15.202,49.925-30.466h81.757c19.652,0,35.641-16,35.641-35.669
		v-54.106c0,0,55.297,0.139,60.798,0.142c20.74,1.792,36.244,11.368,49.019,27.45c9.844,12.391,20.405,23.3,36.014,28.187
		c17.055,5.338,34.799,2.349,52.264,2.35c2.506,0,4.838-1.25,6.228-3.335c9.832-14.749,17.77-30.404,29.253-44.051
		c5.835-6.936,24.665-14.767,22.232-5.964c-3.904,14.133-7.682,28.798-12.221,42.852c-1.791,5.005,0.919,10.805,6.159,11.17
		c16.723,1.223,34.01-2.402,50.491,1.58c4.945,1.195,3.101,6.056,0.04,7.281c-9.876,3.95-35.948,12.459-38.759,14.005
		c-8.308,4.57-1.101,17.719,7.229,13.139c0,0,25.628-8.632,37.098-13.221C506.529,242.121,512.856,233.695,511.905,225.188
		L511.905,225.188z M240.739,361.095v47.371h-83.245v-47.507c15.695,0.385,31.476,0.644,47.295,0.644
		C216.758,361.603,228.748,361.443,240.739,361.095z M194.481,133.173h23.407c9.892,0,18.325,6.363,21.425,15.209
		c-22.079-0.256-44.167-0.953-66.24-0.039C176.183,139.518,184.605,133.173,194.481,133.173L194.481,133.173z"/>
	<path d="M275.784,262.146H202.04c-9.694,0-9.694,14.997,0,14.997h73.744C285.479,277.143,285.479,262.146,275.784,262.146z"/>
	<path d="M275.784,293.83H134c-9.695,0-9.695,14.996,0,14.996h141.784C285.479,308.826,285.479,293.83,275.784,293.83z"/>
</g>
<path fill="#40A3FF" d="M239.934,186.816c-4.142,0-7.498,3.357-7.498,7.499v12.953h-12.934c-9.694,0-9.694,14.997,0,14.997h12.934
	v12.953c0,9.695,14.996,9.695,14.996,0v-12.953h12.933c9.695,0,9.695-14.997,0-14.997h-12.933v-12.953
	C247.432,190.173,244.074,186.816,239.934,186.816L239.934,186.816z"/>
<path fill="#40A3FF" d="M120.618,228.393c-5.372,0-9.288-6.728-6.369-11.445l15.09-24.38c5.102-8.244,17.854-0.352,12.752,7.894
	l-15.089,24.379C125.583,227.132,123.129,228.393,120.618,228.393z"/>
<path fill="#40A3FF" d="M151.112,228.393c-5.334,0-9.263-6.662-6.41-11.378l8.092-13.382c5.016-8.296,17.849-0.537,12.833,7.759
	l-8.092,13.382C156.126,227.104,153.65,228.393,151.112,228.393z"/>
<path fill="#40A3FF" d="M178.167,162.833c0,0-60.801-10.019-91.234,75.324h71.997c0,0,21.237,2.009,20.57-26.657
	S183.5,162.833,178.167,162.833z"/>
</svg>
