<?xml version="1.0" encoding="utf-8"?>
<!-- Generator: Adobe Illustrator 16.0.0, SVG Export Plug-In . SVG Version: 6.00 Build 0)  -->
<!DOCTYPE svg PUBLIC "-//W3C//DTD SVG 1.1//EN" "http://www.w3.org/Graphics/SVG/1.1/DTD/svg11.dtd">
<svg version="1.1" id="Capa_1" xmlns="http://www.w3.org/2000/svg" xmlns:xlink="http://www.w3.org/1999/xlink" x="0px" y="0px"
	 width="512px" height="512px" viewBox="0 0 512 512" enable-background="new 0 0 512 512" xml:space="preserve">
<g>
	<path fill="#FFFFFF" d="M404.758,264.059l49.555-85.229c4.376-7.523,4.405-16.889,0.076-24.441l-49.678-86.661
		c-4.346-7.578-12.471-12.285-21.205-12.285h-96.412c-8.604,0-16.666,4.6-21.041,12.005c-36.119,61.116-50.515,85.466-51.221,86.688
		h-96.541c-8.588,0-16.645,4.59-21.024,11.979l-49.465,83.445c-4.56,7.687-4.56,17.238-0.001,24.926l49.542,83.573
		c4.351,7.341,12.042,11.816,20.574,11.973c87.111,1.607,99.443,1.836,99.667,1.838l48.346,88.016
		c4.294,7.817,12.503,12.674,21.422,12.674h96.097c8.806,0,16.962-4.765,21.289-12.436l49.731-88.181
		c4.283-7.595,4.182-16.97-0.264-24.47L404.758,264.059z M287.077,79.911c0.091-0.067,102.979-0.022,96.427-0.022
		c0.082,0,49.758,86.659,49.676,86.659c0.082,0,1.166-2.002-49.603,85.321c-0.081,0.078,3.222,0.029-96.401,0.029
		c-0.184,0,2.363,4.156-51.17-85.572L287.077,79.911z M68.826,262.022c51.747-87.296,49.419-83.413,49.501-83.447
		c101.132,0,96.466-0.03,96.55,0.034c0.092,0.157-2.5-4.188,51.074,85.61l-48.042,83.213c-0.841,0,10.654,0.196-99.543-1.837
		L68.826,262.022z M383.448,448.118h-96.097l-48.418-88.144c-0.016-0.135,48.176-83.525,48.225-83.61
		c0.08-0.079-3.447-0.026,96.429-0.026c0.048,0.02,49.653,83.602,49.587,83.602C433.258,359.939,434.434,357.715,383.448,448.118
		L383.448,448.118z"/>
	<path fill="#FFFFFF" d="M146.224,207.769c-5.856-3.348-13.323-1.313-16.673,4.546l-26.069,45.623
		c-4.705,8.231,1.378,18.284,10.599,18.284c4.242,0,8.367-2.212,10.621-6.161l26.07-45.622
		C154.12,218.581,152.084,211.117,146.224,207.769L146.224,207.769z"/>
	<path fill="#FFFFFF" d="M309.614,132.836h52.141c6.748,0,12.22-5.471,12.22-12.22s-5.472-12.22-12.22-12.22h-52.141
		c-6.748,0-12.22,5.471-12.22,12.22S302.865,132.836,309.614,132.836z"/>
	<path fill="#FFFFFF" d="M361.754,395.164h-52.141c-6.748,0-12.22,5.471-12.22,12.22s5.472,12.221,12.22,12.221h52.141
		c6.748,0,12.22-5.472,12.22-12.221S368.503,395.164,361.754,395.164z"/>
</g>
</svg>
