<?xml version="1.0" encoding="utf-8"?>
<!-- Generator: Adobe Illustrator 16.0.0, SVG Export Plug-In . SVG Version: 6.00 Build 0)  -->
<!DOCTYPE svg PUBLIC "-//W3C//DTD SVG 1.1//EN" "http://www.w3.org/Graphics/SVG/1.1/DTD/svg11.dtd">
<svg version="1.1" id="Capa_1" xmlns="http://www.w3.org/2000/svg" xmlns:xlink="http://www.w3.org/1999/xlink" x="0px" y="0px"
	 width="402.5px" height="430.693px" viewBox="81 0 402.5 430.693" enable-background="new 81 0 402.5 430.693"
	 xml:space="preserve">
<path d="M472.983,367.588h-4.207V357.07c0-28.285-16.036-52.892-39.492-65.217c11.284-9.652,18.457-23.979,18.457-39.959
	c0-28.997-23.591-52.588-52.588-52.588s-52.588,23.591-52.588,52.588c0,15.979,7.173,30.307,18.456,39.959
	c-23.455,12.325-39.491,36.932-39.491,65.217v10.518h-59.031l-7.011-21.035H304c5.809,0,10.518-4.709,10.518-10.518V230.859
	c0-5.809-4.709-10.518-10.518-10.518H135.719c-5.809,0-10.518,4.709-10.518,10.518v105.176c0,5.809,4.709,10.518,10.518,10.518
	h48.512l-7.012,21.035h-42.202c-5.809,0-10.518,4.709-10.518,10.518v42.07c0,5.809,4.709,10.518,10.518,10.518h337.965
	c5.808,0,10.518-4.709,10.518-10.518v-42.07C483.5,372.297,478.79,367.588,472.983,367.588z M363.6,251.895
	c0-17.398,14.154-31.553,31.553-31.553c17.397,0,31.553,14.154,31.553,31.553c0,17.397-14.155,31.553-31.553,31.553
	C377.754,283.447,363.6,269.292,363.6,251.895z M342.565,357.07c0-28.997,23.591-52.588,52.588-52.588s52.588,23.591,52.588,52.588
	v10.518H342.565V357.07z M206.405,346.553h26.909l7.012,21.035h-40.933L206.405,346.553z M462.465,409.658h-316.93v-21.035h316.93
	V409.658z"/>
<path fill="#40A3FF" d="M116,150h125.458l56.222,37.481c2.51,1.673,5.411,2.519,8.321,2.519c2.427,0,4.858-0.588,7.076-1.775
	c4.877-2.61,7.923-7.693,7.923-13.225v-25h15c19.299,0,35-15.701,35-35V35c0-19.299-15.701-35-35-35H116C96.701,0,81,15.701,81,35
	v80C81,134.299,96.701,150,116,150z"/>
<path d="M174.118,86.118h103.765C284.023,86.118,289,81.14,289,75s-4.978-11.118-11.117-11.118H174.118
	C167.978,63.882,163,68.86,163,75S167.978,86.118,174.118,86.118z"/>
<rect x="142.5" y="239.286" fill="#40A3FF" width="153" height="87.428"/>
</svg>
