<svg xmlns="http://www.w3.org/2000/svg" width="434.185" height="486.116" viewBox="0 0 434.185 486.116">
  <path id="Icon_metro-thumbs-up" data-name="Icon metro-thumbs-up" d="M307.182,167.782c-3.443-9.19,91.613-94.072,36.19-162.852C330.4-11.146,286.4,81.942,223.905,124.086c-34.481,23.246-114.7,72.741-114.7,100.1V401.3c0,32.9,127.207,67.745,223.867,67.745,35.439,0,86.772-222,86.772-257.261,0-35.413-109.267-34.792-112.658-44.007ZM83.315,170.241c-17.034,0-77.66,10.355-77.66,80.844v125.5c0,70.437,60.626,78.2,77.66,78.2,17.007,0-25.887-14.807-25.887-58.5V231.307c0-45.768,42.894-61.066,25.887-61.066Z" transform="translate(4.344 7.066)" fill="none" stroke="#2196f3" stroke-width="20"/>
</svg>
