<?xml version="1.0" encoding="utf-8"?>
<!-- Generator: Adobe Illustrator 16.0.0, SVG Export Plug-In . SVG Version: 6.00 Build 0)  -->
<!DOCTYPE svg PUBLIC "-//W3C//DTD SVG 1.1//EN" "http://www.w3.org/Graphics/SVG/1.1/DTD/svg11.dtd">
<svg version="1.1" id="Layer_1" xmlns="http://www.w3.org/2000/svg" xmlns:xlink="http://www.w3.org/1999/xlink" x="0px" y="0px"
	 width="470px" height="470px" viewBox="0 0 470 470" enable-background="new 0 0 470 470" xml:space="preserve">
<path fill="#FFFFFF" d="M155.943,282.947c3.43,14.414,16.302,24.594,31.117,24.613c0,13.238,10.733,23.973,23.972,23.973h7.991
	c4.413,0,7.991-3.578,7.991-7.991V127.766c0-4.413-3.578-7.991-7.991-7.991c-18.928-0.086-35.265,13.25-38.971,31.811
	c-8.893,4.729-15.038,13.372-16.583,23.325c-14.768,6.243-24.362,20.723-24.354,36.759v0.168
	c-12.712,9.501-18.572,25.639-14.917,41.078c3.652,15.443,16.126,27.242,31.745,30.039V282.947z M189.911,164.685
	c3.005-1.03,5.115-3.738,5.377-6.906c0.694-9.396,6.867-17.5,15.743-20.664v80.427c-4.155-2.399-7.011-6.539-7.783-11.276
	c-0.113-0.858-0.156-1.721-0.137-2.587c0-4.413-3.578-7.991-7.991-7.991h-0.301c-7.764-0.094-14.327-5.771-15.54-13.438
	c-1.214-7.667,3.277-15.092,10.632-17.574V164.685z M151.444,222.856c2.837-1.6,4.417-4.76,3.996-7.991l-0.129-0.925
	c-0.125-0.753-0.195-1.51-0.215-2.271c0-7.932,3.925-15.354,10.484-19.817c3.917,9.563,12.216,16.649,22.279,19.017
	c2.664,11.616,11.615,20.754,23.172,23.661v81.02c-4.412,0-7.99-3.578-7.99-7.99v-9.462c0-2.595-1.265-5.025-3.383-6.524
	c-2.119-1.494-4.831-1.868-7.277-1.002c-4.132,1.561-8.731,1.299-12.661-0.723c-3.929-2.017-6.82-5.606-7.956-9.875
	c9.513-5.755,15.315-16.067,15.296-27.184v-1.166c0-4.414-3.578-7.991-7.991-7.991s-7.991,3.577-7.991,7.991v1.166
	c0.027,6.048-3.383,11.588-8.79,14.296l-0.734,0.359c-10.589-0.62-19.489-8.171-21.826-18.519
	c-2.333-10.348,2.462-20.987,11.756-26.095L151.444,222.856z"/>
<path fill="#FFFFFF" d="M250.987,331.533h7.99c13.239,0,23.973-10.734,23.973-23.973c14.815-0.02,27.688-10.199,31.117-24.613
	c15.614-2.797,28.081-14.596,31.736-30.035c3.652-15.439-2.204-31.573-14.908-41.074v-0.168
	c0.008-16.036-9.587-30.516-24.355-36.759c-1.537-9.961-7.682-18.615-16.582-23.348c-3.719-18.553-20.052-31.874-38.971-31.788
	c-4.413,0-7.991,3.578-7.991,7.991v195.776C242.995,327.955,246.573,331.533,250.987,331.533z M314.912,211.67
	c-0.022,0.757-0.101,1.51-0.229,2.251l-0.129,0.929c-0.422,3.23,1.159,6.391,3.995,7.991c9.282,5.107,14.074,15.735,11.748,26.071
	c-2.321,10.336-11.201,17.895-21.775,18.534l-0.737-0.359c-5.436-2.688-8.869-8.232-8.854-14.296v-1.166
	c0-4.414-3.577-7.991-7.99-7.991s-7.991,3.577-7.991,7.991v1.166c-0.016,11.108,5.786,21.417,15.295,27.168
	c-1.135,4.269-4.026,7.858-7.955,9.875c-3.93,2.021-8.529,2.283-12.662,0.723c-2.446-0.87-5.166-0.492-7.284,1.006
	c-2.119,1.503-3.379,3.938-3.375,6.536v9.462c0,4.412-3.578,7.99-7.991,7.99v-81.02c11.558-2.903,20.512-12.045,23.173-23.661
	c10.063-2.364,18.366-9.442,22.295-19.001C310.991,196.332,314.908,203.746,314.912,211.67z M258.977,137.115
	c8.873,3.165,15.046,11.261,15.74,20.656c0.262,3.164,2.372,5.876,5.381,6.906c7.354,2.482,11.846,9.907,10.632,17.574
	s-7.776,13.344-15.541,13.438c-2.181-0.117-4.312,0.675-5.884,2.189c-1.572,1.518-2.446,3.617-2.411,5.802
	c0.023,0.874-0.023,1.748-0.133,2.614c-0.776,4.729-3.633,8.861-7.784,11.256V137.115z"/>
<path fill="#FFFFFF" d="M91.969,212.677c-5.002,48.046,14.448,95.391,51.78,126.048c17.164,13.847,27.199,34.678,27.328,56.735
	v63.927c0,4.413,3.578,7.991,7.991,7.991h111.872c4.413,0,7.99-3.578,7.99-7.991V395.46c0.043-21.972,9.997-42.748,27.091-56.553
	c50.383-41.148,66.876-110.99,40.223-170.333c-26.652-59.342-89.814-93.409-154.042-83.081S98.676,147.97,91.969,212.677z
	 M282.949,419.433h-95.89V403.45h95.89V419.433z M187.06,451.396v-15.981h95.89v15.981H187.06z M220.365,100.598
	c56.376-6.54,110.311,24.893,132.414,77.166c22.107,52.272,7.086,112.863-36.876,148.76c-18.631,15.096-30.383,37.066-32.595,60.945
	h-96.616c-2.282-23.945-14.09-45.967-32.764-61.121c-39.692-32.533-56.064-85.656-41.577-134.889
	C126.839,142.23,169.38,106.443,220.365,100.598z"/>
<path fill="#FFFFFF" d="M227.014,3.908h15.981V19.89h-15.981V3.908z"/>
<path fill="#FFFFFF" d="M227.014,51.853h15.981v15.981h-15.981V51.853z"/>
<path fill="#FFFFFF" d="M56.295,84.222l11.3-11.307l11.303,11.299L67.603,95.518L56.295,84.222z"/>
<path fill="#FFFFFF" d="M90.198,118.125l11.304-11.304l11.3,11.304l-11.3,11.299L90.198,118.125z"/>
<path fill="#FFFFFF" d="M22.401,50.312l11.299-11.299l11.304,11.299L33.699,61.615L22.401,50.312z"/>
<path fill="#FFFFFF" d="M63.478,411.84l11.304-11.296l11.296,11.304l-11.304,11.299L63.478,411.84z"/>
<path fill="#FFFFFF" d="M97.385,377.945l11.299-11.301l11.304,11.301l-11.304,11.299L97.385,377.945z"/>
<path fill="#FFFFFF" d="M29.583,445.746l11.3-11.304l11.3,11.304l-11.3,11.3L29.583,445.746z"/>
<path fill="#FFFFFF" d="M11.261,243.634h15.981v15.981H11.261V243.634z"/>
<path fill="#FFFFFF" d="M59.205,243.634h15.982v15.981H59.205V243.634z"/>
<path fill="#FFFFFF" d="M0,155.036l6.539-14.581l71.298,31.963l-6.54,14.581L0,155.036z"/>
<path fill="#FFFFFF" d="M8.604,340.223l71.297-31.96l6.539,14.581l-71.297,31.963L8.604,340.223z"/>
<path fill="#FFFFFF" d="M123.878,7.279l14.495-6.73l33.391,71.921l-14.495,6.731L123.878,7.279z"/>
<path fill="#FFFFFF" d="M357.208,118.121l11.3-11.3l11.299,11.3l-11.299,11.299L357.208,118.121z"/>
<path fill="#FFFFFF" d="M391.103,84.218l11.308-11.295l11.296,11.303l-11.304,11.295L391.103,84.218z"/>
<path fill="#FFFFFF" d="M425.01,50.323l11.299-11.303l11.304,11.303l-11.304,11.3L425.01,50.323z"/>
<path fill="#FFFFFF" d="M417.823,445.75l11.3-11.304l11.303,11.304l-11.303,11.3L417.823,445.75z"/>
<path fill="#FFFFFF" d="M383.92,411.844l11.295-11.304l11.304,11.296l-11.296,11.303L383.92,411.844z"/>
<path fill="#FFFFFF" d="M350.021,377.938l11.304-11.301l11.3,11.301l-11.3,11.303L350.021,377.938z"/>
<path fill="#FFFFFF" d="M394.822,243.634h15.981v15.981h-15.981V243.634z"/>
<path fill="#FFFFFF" d="M442.767,243.634h15.981v15.981h-15.981V243.634z"/>
<path fill="#FFFFFF" d="M392.164,172.418l71.297-31.963l6.54,14.585l-71.302,31.963L392.164,172.418z"/>
<path fill="#FFFFFF" d="M383.557,322.848l6.539-14.585l71.298,31.964l-6.535,14.58L383.557,322.848z"/>
<path fill="#FFFFFF" d="M298.252,72.466l33.372-71.929l14.495,6.727l-33.368,71.93L298.252,72.466z"/>
</svg>
