<svg xmlns="http://www.w3.org/2000/svg" width="207.97" height="212.76" viewBox="0 0 207.97 212.76">
  <g id="Group_62" data-name="Group 62" transform="translate(-814.654 -71.324)">
    <g id="Group_21" data-name="Group 21" transform="translate(816.154 72.824)">
      <g id="Group_14" data-name="Group 14" style="mix-blend-mode: soft-light;isolation: isolate">
        <g id="Group_10" data-name="Group 10" transform="translate(106.43 11.26)">
          <path id="Path_3" data-name="Path 3" d="M490.385,192.471" transform="translate(-490.385 -144.472)" fill="none" stroke="#f8f8f8" stroke-linecap="round" stroke-linejoin="round" stroke-width="3"/>
          <path id="Path_4" data-name="Path 4" d="M490.385,172.717V137.308c0-14.409,23.041-17.076,28.408-4.737,7.168-1.6,15.4-1.741,21.06,2.937,3.452,2.852,5.428,7.084,7.054,11.257,1.691,4.341,3.1,9.327,1.085,13.527A11.252,11.252,0,0,1,557.138,175c-.419,1.3-1.982,2.623-1.87,4.047.154,1.964,2.505,2.419,3.888,3.306,6.211,3.984,9.412,12.141,6.63,19.15-1,2.515-3.49,5.047-3.453,7.846.02,1.478,1.954,2.584,2.921,3.4a9.956,9.956,0,0,1,1.331,13.509c-2.067,2.609-5.486,4.734-1.618,7.24a11.474,11.474,0,0,1,4.853,6.836c1.27,5.214-1.64,8.67-3.967,12.923-1.872,3.422-.478,6.688-.918,10.333a30.18,30.18,0,0,1-2.38,8.644c-2.227,4.992-6.141,9.752-11.775,10.81-2.849.535-5.544-.265-6.195,3.223-.487,2.616.9,5.329-.2,7.9a12.006,12.006,0,0,1-7.535,6.3c-3.791,1.153-7.217-.247-10.878.248-3.294.444-3.422,3.433-5.155,5.5a16,16,0,0,1-8.169,5.07,17.712,17.712,0,0,1-8.443.185,20.479,20.479,0,0,1-10.918-6.827c-2.7-3.188-2.755-6.7-2.893-10.771-.008-.222-.011-.443-.011-.667V262.131" transform="translate(-490.385 -124.718)" fill="none" stroke="#f8f8f8" stroke-linecap="round" stroke-linejoin="round" stroke-width="3"/>
          <path id="Path_5" data-name="Path 5" d="M505.336,164.643a10.1,10.1,0,0,1,11.56.577c4.825,3.9,4.891,13.662-.234,17.412a8.978,8.978,0,0,1-12.576-2.709" transform="translate(-494.38 -135.908)" fill="none" stroke="#f8f8f8" stroke-linecap="round" stroke-linejoin="round" stroke-width="3"/>
          <path id="Path_6" data-name="Path 6" d="M514.08,302.666c9.905-1.028,11.475-8.535,10.228-14.173a22.069,22.069,0,0,0,26.1-14.58c1.661-4.97-.361-9.578.847-14.491,1.357-5.521,8.667-8.574,13.548-5.658" transform="translate(-497.293 -162.014)" fill="none" stroke="#f8f8f8" stroke-linecap="round" stroke-linejoin="round" stroke-width="3"/>
          <path id="Path_7" data-name="Path 7" d="M552.1,172.787a16.718,16.718,0,0,1-.694,5.946,5.775,5.775,0,0,1-4.229,3.879c-1.608.243-3.194-.442-4.8-.711a9.816,9.816,0,0,0-10.823,7.382" transform="translate(-502.389 -138.733)" fill="none" stroke="#f8f8f8" stroke-linecap="round" stroke-linejoin="round" stroke-width="3"/>
          <path id="Path_8" data-name="Path 8" d="M563.141,192.51a5.914,5.914,0,0,0,.166-6.8,4.65,4.65,0,0,0-6.426-.961" transform="translate(-509.772 -141.96)" fill="none" stroke="#f8f8f8" stroke-linecap="round" stroke-linejoin="round" stroke-width="3"/>
          <path id="Path_9" data-name="Path 9" d="M555.814,205.406a19.578,19.578,0,0,1,6.331,1.817,7.177,7.177,0,0,1,3.878,5.064c.186,1.376-.138,2.905.623,4.068,1.372,2.1,4.682,1.1,6.983,2.091a4.269,4.269,0,0,1,1.608,6.247c-1.215,1.563-3.366,2.03-5.344,2.13s-4.03-.052-5.867.689c-2.714,1.1-2.984,4.068-3.828,6.512" transform="translate(-509.461 -148.243)" fill="none" stroke="#f8f8f8" stroke-linecap="round" stroke-linejoin="round" stroke-width="3"/>
          <path id="Path_10" data-name="Path 10" d="M530.91,151c3.383-2.25,8.98-2.693,12.586-.84,3.955,2.032,5.872,7.453,3.235,11.266" transform="translate(-502.2 -131.799)" fill="none" stroke="#f8f8f8" stroke-linecap="round" stroke-linejoin="round" stroke-width="3"/>
          <path id="Path_11" data-name="Path 11" d="M507.716,349.823a9.206,9.206,0,0,0,9.013,1.812c2.99-1.187,4.988-4.794,3.862-7.807,3.5.5,7.057,1,10.541.422s6.944-2.4,8.618-5.505c1.547-2.873,1.364-6.33,1.138-9.585-.024-.351,7.326-2.571,8-2.881a24.123,24.123,0,0,0,8.248-5.954,14.313,14.313,0,0,0,3.947-10.134" transform="translate(-495.438 -178.793)" fill="none" stroke="#f8f8f8" stroke-linecap="round" stroke-linejoin="round" stroke-width="3"/>
          <path id="Path_12" data-name="Path 12" d="M578.454,291.107c2.278-2.426,3.617-6.009,1.386-8.938-.927-1.216-2.1-1.325-3.231-2.119-1.24-.866-.723-1.977-.476-3.437.873-5.142-5.068-6.53-8.954-5.808" transform="translate(-512.775 -167.259)" fill="none" stroke="#f8f8f8" stroke-linecap="round" stroke-linejoin="round" stroke-width="3"/>
          <path id="Path_13" data-name="Path 13" d="M555.54,313.535c-1.568,2.679-4.75,3.731-7.718,3.386a9.633,9.633,0,0,1-7.5-4.945c-1.367-2.724-1.051-7.37,2.035-8.841" transform="translate(-504.719 -176.737)" fill="none" stroke="#f8f8f8" stroke-linecap="round" stroke-linejoin="round" stroke-width="3"/>
          <path id="Path_14" data-name="Path 14" d="M511.7,334.357c2.7-1.5,5.974-2.282,8.907-1.311s5.257,4.05,4.664,7.082a9.655,9.655,0,0,1,11.552,8.708" transform="translate(-496.599 -185.332)" fill="none" stroke="#f8f8f8" stroke-linecap="round" stroke-linejoin="round" stroke-width="3"/>
          <path id="Path_15" data-name="Path 15" d="M515.082,137.441c-2.273-.666-4.909-.808-6.841.563-2.257,1.6-2.83,4.866-1.973,7.5s2.849,4.729,4.942,6.54a45.135,45.135,0,0,1,6.091,5.617" transform="translate(-494.905 -128.284)" fill="none" stroke="#f8f8f8" stroke-linecap="round" stroke-linejoin="round" stroke-width="3"/>
        </g>
        <g id="Group_11" data-name="Group 11" transform="translate(19.093 11.26)">
          <path id="Path_16" data-name="Path 16" d="M479.668,192.471" transform="translate(-399.924 -144.472)" fill="none" stroke="#f8f8f8" stroke-linecap="round" stroke-linejoin="round" stroke-width="3"/>
          <path id="Path_17" data-name="Path 17" d="M446.849,172.717V137.308c0-14.409-23.042-17.076-28.409-4.737-7.168-1.6-15.4-1.741-21.059,2.937-3.452,2.852-5.429,7.084-7.054,11.257-1.691,4.341-3.1,9.327-1.085,13.527A11.251,11.251,0,0,0,380.1,175c.419,1.3,1.981,2.623,1.869,4.047-.154,1.964-2.5,2.419-3.887,3.306-6.212,3.984-9.412,12.141-6.63,19.15,1,2.515,3.49,5.047,3.452,7.846-.02,1.478-1.953,2.584-2.921,3.4a9.957,9.957,0,0,0-1.331,13.509c2.067,2.609,5.487,4.734,1.619,7.24a11.468,11.468,0,0,0-4.853,6.836c-1.27,5.214,1.64,8.67,3.966,12.923,1.872,3.422.478,6.688.918,10.333a30.182,30.182,0,0,0,2.38,8.644c2.227,4.992,6.141,9.752,11.776,10.81,2.849.535,5.544-.265,6.194,3.223.488,2.616-.9,5.329.2,7.9a12,12,0,0,0,7.535,6.3c3.791,1.153,7.217-.247,10.877.248,3.294.444,3.422,3.433,5.155,5.5a16,16,0,0,0,8.17,5.07,17.709,17.709,0,0,0,8.443.185,20.476,20.476,0,0,0,10.918-6.827c2.7-3.188,2.756-6.7,2.893-10.771.007-.222.011-.443.011-.667V262.131" transform="translate(-367.105 -124.718)" fill="none" stroke="#f8f8f8" stroke-linecap="round" stroke-linejoin="round" stroke-width="3"/>
          <path id="Path_18" data-name="Path 18" d="M457.956,164.643a10.094,10.094,0,0,0-11.559.577c-4.824,3.9-4.892,13.662.233,17.412a8.979,8.979,0,0,0,12.577-2.709" transform="translate(-389.17 -135.908)" fill="none" stroke="#f8f8f8" stroke-linecap="round" stroke-linejoin="round" stroke-width="3"/>
          <path id="Path_19" data-name="Path 19" d="M435.1,302.666a15.271,15.271,0,0,1-10.227-14.173c-5.949,1.418-13.907,1.421-18.733-2.335-9.76-7.6-7-21.824-8.212-26.737-1.357-5.521-8.667-8.574-13.548-5.658" transform="translate(-372.142 -162.014)" fill="none" stroke="#f8f8f8" stroke-linecap="round" stroke-linejoin="round" stroke-width="3"/>
          <path id="Path_20" data-name="Path 20" d="M409.494,172.787a16.735,16.735,0,0,0,.694,5.946,5.776,5.776,0,0,0,4.229,3.879c1.609.243,3.194-.442,4.8-.711a9.816,9.816,0,0,1,10.824,7.382" transform="translate(-379.464 -138.733)" fill="none" stroke="#f8f8f8" stroke-linecap="round" stroke-linejoin="round" stroke-width="3"/>
          <path id="Path_21" data-name="Path 21" d="M403.857,192.51a5.912,5.912,0,0,1-.165-6.8,4.65,4.65,0,0,1,6.425-.961" transform="translate(-377.482 -141.96)" fill="none" stroke="#f8f8f8" stroke-linecap="round" stroke-linejoin="round" stroke-width="3"/>
          <path id="Path_22" data-name="Path 22" d="M405.929,205.406a19.578,19.578,0,0,0-6.331,1.817,7.18,7.18,0,0,0-3.878,5.064c-.185,1.376.138,2.905-.622,4.068-1.373,2.1-4.682,1.1-6.984,2.091a4.269,4.269,0,0,0-1.608,6.247c1.215,1.563,3.367,2.03,5.344,2.13s4.03-.052,5.866.689c2.715,1.1,2.985,4.068,3.829,6.512" transform="translate(-372.538 -148.243)" fill="none" stroke="#f8f8f8" stroke-linecap="round" stroke-linejoin="round" stroke-width="3"/>
          <path id="Path_23" data-name="Path 23" d="M432.131,151c-3.383-2.25-8.979-2.693-12.586-.84-3.955,2.032-5.872,7.453-3.235,11.266" transform="translate(-381.097 -131.799)" fill="none" stroke="#f8f8f8" stroke-linecap="round" stroke-linejoin="round" stroke-width="3"/>
          <path id="Path_24" data-name="Path 24" d="M440.37,349.823a9.207,9.207,0,0,1-9.014,1.812c-2.99-1.187-4.989-4.794-3.862-7.807-3.5.5-7.057,1-10.542.422s-6.943-2.4-8.618-5.505c-1.547-2.873-1.363-6.33-1.138-9.585.024-.351-7.325-2.571-8-2.881a24.123,24.123,0,0,1-8.248-5.954A14.313,14.313,0,0,1,387,310.189" transform="translate(-372.905 -178.793)" fill="none" stroke="#f8f8f8" stroke-linecap="round" stroke-linejoin="round" stroke-width="3"/>
          <path id="Path_25" data-name="Path 25" d="M385.917,291.107c-2.278-2.426-3.617-6.009-1.385-8.938.927-1.216,2.1-1.325,3.23-2.119,1.241-.866.724-1.977.476-3.437-.873-5.142,5.068-6.53,8.954-5.808" transform="translate(-371.852 -167.259)" fill="none" stroke="#f8f8f8" stroke-linecap="round" stroke-linejoin="round" stroke-width="3"/>
          <path id="Path_26" data-name="Path 26" d="M407.774,313.479a7.048,7.048,0,0,0,7.035,3.087,8.783,8.783,0,0,0,6.84-4.508c1.246-2.484.959-6.718-1.855-8.06" transform="translate(-378.963 -176.989)" fill="none" stroke="#f8f8f8" stroke-linecap="round" stroke-linejoin="round" stroke-width="3"/>
          <path id="Path_27" data-name="Path 27" d="M448.014,334.357c-2.7-1.5-5.974-2.282-8.906-1.311s-5.257,4.05-4.665,7.082a9.656,9.656,0,0,0-11.552,8.708" transform="translate(-383.37 -185.332)" fill="none" stroke="#f8f8f8" stroke-linecap="round" stroke-linejoin="round" stroke-width="3"/>
          <path id="Path_28" data-name="Path 28" d="M450.274,137.441c2.274-.666,4.909-.808,6.842.563,2.257,1.6,2.829,4.866,1.972,7.5s-2.849,4.729-4.941,6.54a45.1,45.1,0,0,0-6.092,5.617" transform="translate(-390.707 -128.284)" fill="none" stroke="#f8f8f8" stroke-linecap="round" stroke-linejoin="round" stroke-width="3"/>
        </g>
        <g id="Group_12" data-name="Group 12" transform="translate(124.636)">
          <line id="Line_1" data-name="Line 1" x1="6.945" transform="translate(49.132 57.482)" fill="none" stroke="#f8f8f8" stroke-linecap="round" stroke-linejoin="round" stroke-width="3"/>
          <line id="Line_2" data-name="Line 2" y1="6.945" transform="translate(16.764 10.946)" fill="none" stroke="#f8f8f8" stroke-linecap="round" stroke-linejoin="round" stroke-width="3"/>
          <path id="Path_29" data-name="Path 29" d="M595.24,209.882h11.055a2.366,2.366,0,0,0,2.366-2.366v-4.44a2.366,2.366,0,0,1,2.366-2.366h3.432" transform="translate(-539.163 -135.614)" fill="none" stroke="#f8f8f8" stroke-linecap="round" stroke-linejoin="round" stroke-width="3"/>
          <path id="Path_30" data-name="Path 30" d="M571.676,158.4h16.353a2.366,2.366,0,0,1,2.365,2.366v3.624" transform="translate(-532.292 -123.277)" fill="none" stroke="#f8f8f8" stroke-linecap="round" stroke-linejoin="round" stroke-width="3"/>
          <line id="Line_3" data-name="Line 3" x1="11.552" transform="translate(58.9 101.883)" fill="none" stroke="#f8f8f8" stroke-linecap="round" stroke-linejoin="round" stroke-width="3"/>
          <line id="Line_4" data-name="Line 4" x1="11.552" transform="translate(53.362 160.763)" fill="none" stroke="#f8f8f8" stroke-linecap="round" stroke-linejoin="round" stroke-width="3"/>
          <line id="Line_5" data-name="Line 5" x1="6.945" transform="translate(60.419 106.53)" fill="none" stroke="#f8f8f8" stroke-linecap="round" stroke-linejoin="round" stroke-width="3"/>
          <line id="Line_6" data-name="Line 6" y1="11.552" transform="translate(4.646 198.208)" fill="none" stroke="#f8f8f8" stroke-linecap="round" stroke-linejoin="round" stroke-width="3"/>
          <line id="Line_7" data-name="Line 7" y1="6.945" transform="translate(0 198.738)" fill="none" stroke="#f8f8f8" stroke-linecap="round" stroke-linejoin="round" stroke-width="3"/>
          <line id="Line_8" data-name="Line 8" x1="20.125" transform="translate(54.657 117.696)" fill="none" stroke="#f8f8f8" stroke-linecap="round" stroke-linejoin="round" stroke-width="3"/>
          <path id="Path_31" data-name="Path 31" d="M596.307,309.4h9.186a2.366,2.366,0,0,1,2.366,2.366V316.5a2.366,2.366,0,0,0,2.366,2.366h3.563" transform="translate(-539.474 -167.305)" fill="none" stroke="#f8f8f8" stroke-linecap="round" stroke-linejoin="round" stroke-width="3"/>
          <path id="Path_32" data-name="Path 32" d="M626.021,321.729a2.519,2.519,0,1,0-2.519,2.519A2.519,2.519,0,0,0,626.021,321.729Z" transform="translate(-546.668 -170.164)" fill="none" stroke="#f8f8f8" stroke-linecap="round" stroke-linejoin="round" stroke-width="3"/>
          <path id="Path_33" data-name="Path 33" d="M546.5,128.992v-4.761a2.366,2.366,0,0,1,2.366-2.366H553.6a2.366,2.366,0,0,0,2.366-2.366v-3.563" transform="translate(-524.952 -110.897)" fill="none" stroke="#f8f8f8" stroke-linecap="round" stroke-linejoin="round" stroke-width="3"/>
          <path id="Path_34" data-name="Path 34" d="M558.824,108.824a2.519,2.519,0,1,0,2.519,2.519A2.519,2.519,0,0,0,558.824,108.824Z" transform="translate(-527.811 -108.824)" fill="none" stroke="#f8f8f8" stroke-linecap="round" stroke-linejoin="round" stroke-width="3"/>
          <path id="Path_35" data-name="Path 35" d="M627.108,273.921a2.519,2.519,0,1,0-2.519,2.519A2.519,2.519,0,0,0,627.108,273.921Z" transform="translate(-546.985 -156.225)" fill="none" stroke="#f8f8f8" stroke-linecap="round" stroke-linejoin="round" stroke-width="3"/>
          <path id="Path_36" data-name="Path 36" d="M599.581,169.37a2.519,2.519,0,1,0-2.519,2.519A2.519,2.519,0,0,0,599.581,169.37Z" transform="translate(-538.959 -125.743)" fill="none" stroke="#f8f8f8" stroke-linecap="round" stroke-linejoin="round" stroke-width="3"/>
          <path id="Path_37" data-name="Path 37" d="M577.2,348.381v16.353a2.366,2.366,0,0,0,2.365,2.365h3.624" transform="translate(-533.904 -178.669)" fill="none" stroke="#f8f8f8" stroke-linecap="round" stroke-linejoin="round" stroke-width="3"/>
          <path id="Path_38" data-name="Path 38" d="M588.175,376.286a2.519,2.519,0,1,1,2.519-2.519A2.519,2.519,0,0,1,588.175,376.286Z" transform="translate(-536.369 -185.336)" fill="none" stroke="#f8f8f8" stroke-linecap="round" stroke-linejoin="round" stroke-width="3"/>
          <path id="Path_39" data-name="Path 39" d="M627.406,199.673a2.519,2.519,0,1,0-2.519,2.518A2.519,2.519,0,0,0,627.406,199.673Z" transform="translate(-547.072 -134.577)" fill="none" stroke="#f8f8f8" stroke-linecap="round" stroke-linejoin="round" stroke-width="3"/>
          <path id="Path_40" data-name="Path 40" d="M543.262,373.857v7.072a2.366,2.366,0,0,0,2.365,2.365h4.441a2.366,2.366,0,0,1,2.366,2.366v3.432" transform="translate(-524.008 -186.097)" fill="none" stroke="#f8f8f8" stroke-linecap="round" stroke-linejoin="round" stroke-width="3"/>
          <path id="Path_41" data-name="Path 41" d="M555.172,400.4a2.519,2.519,0,1,0-2.519-2.518A2.519,2.519,0,0,0,555.172,400.4Z" transform="translate(-526.746 -192.367)" fill="none" stroke="#f8f8f8" stroke-linecap="round" stroke-linejoin="round" stroke-width="3"/>
        </g>
        <g id="Group_13" data-name="Group 13" transform="translate(0 0)">
          <line id="Line_9" data-name="Line 9" x2="6.945" transform="translate(17.057 152.277)" fill="none" stroke="#f8f8f8" stroke-linecap="round" stroke-linejoin="round" stroke-width="3"/>
          <line id="Line_10" data-name="Line 10" y2="6.945" transform="translate(62.483 187.964)" fill="none" stroke="#f8f8f8" stroke-linecap="round" stroke-linejoin="round" stroke-width="3"/>
          <path id="Path_42" data-name="Path 42" d="M364.121,300.078h-4.013a2.366,2.366,0,0,0-2.366,2.365v4.44a2.366,2.366,0,0,1-2.366,2.366h-3.432" transform="translate(-343.591 -164.586)" fill="none" stroke="#f8f8f8" stroke-linecap="round" stroke-linejoin="round" stroke-width="3"/>
          <path id="Path_43" data-name="Path 43" d="M392.88,356.428H371.536a2.366,2.366,0,0,1-2.365-2.366v-3.623" transform="translate(-348.614 -179.269)" fill="none" stroke="#f8f8f8" stroke-linecap="round" stroke-linejoin="round" stroke-width="3"/>
          <line id="Line_11" data-name="Line 11" x2="11.552" transform="translate(8.977 107.876)" fill="none" stroke="#f8f8f8" stroke-linecap="round" stroke-linejoin="round" stroke-width="3"/>
          <line id="Line_12" data-name="Line 12" x2="11.552" transform="translate(28.343 42.403)" fill="none" stroke="#f8f8f8" stroke-linecap="round" stroke-linejoin="round" stroke-width="3"/>
          <line id="Line_13" data-name="Line 13" x2="6.945" transform="translate(14.151 103.23)" fill="none" stroke="#f8f8f8" stroke-linecap="round" stroke-linejoin="round" stroke-width="3"/>
          <line id="Line_14" data-name="Line 14" x2="6.945" transform="translate(33.573 38.14)" fill="none" stroke="#f8f8f8" stroke-linecap="round" stroke-linejoin="round" stroke-width="3"/>
          <line id="Line_15" data-name="Line 15" y2="11.552" transform="translate(88.611)" fill="none" stroke="#f8f8f8" stroke-linecap="round" stroke-linejoin="round" stroke-width="3"/>
          <line id="Line_16" data-name="Line 16" y2="6.945" transform="translate(85.091 4.076)" fill="none" stroke="#f8f8f8" stroke-linecap="round" stroke-linejoin="round" stroke-width="3"/>
          <line id="Line_17" data-name="Line 17" x2="20.125" transform="translate(5.34 92.064)" fill="none" stroke="#f8f8f8" stroke-linecap="round" stroke-linejoin="round" stroke-width="3"/>
          <path id="Path_44" data-name="Path 44" d="M382.013,197.37h-5.055A2.366,2.366,0,0,1,374.592,195v-4.733a2.366,2.366,0,0,0-2.366-2.366h-3.563" transform="translate(-348.466 -131.881)" fill="none" stroke="#f8f8f8" stroke-linecap="round" stroke-linejoin="round" stroke-width="3"/>
          <path id="Path_45" data-name="Path 45" d="M361.551,186.868a2.519,2.519,0,1,0,2.519-2.519A2.519,2.519,0,0,0,361.551,186.868Z" transform="translate(-346.393 -130.844)" fill="none" stroke="#f8f8f8" stroke-linecap="round" stroke-linejoin="round" stroke-width="3"/>
          <path id="Path_46" data-name="Path 46" d="M417.7,373.857v4.761a2.366,2.366,0,0,1-2.366,2.365H410.6a2.366,2.366,0,0,0-2.366,2.366v3.563" transform="translate(-360.004 -186.097)" fill="none" stroke="#f8f8f8" stroke-linecap="round" stroke-linejoin="round" stroke-width="3"/>
          <path id="Path_47" data-name="Path 47" d="M407.2,397.325a2.519,2.519,0,1,0-2.518-2.518A2.519,2.519,0,0,0,407.2,397.325Z" transform="translate(-358.968 -191.47)" fill="none" stroke="#f8f8f8" stroke-linecap="round" stroke-linejoin="round" stroke-width="3"/>
          <path id="Path_48" data-name="Path 48" d="M340.154,237.74a2.519,2.519,0,1,0,2.519-2.518A2.519,2.519,0,0,0,340.154,237.74Z" transform="translate(-340.154 -145.677)" fill="none" stroke="#f8f8f8" stroke-linecap="round" stroke-linejoin="round" stroke-width="3"/>
          <path id="Path_49" data-name="Path 49" d="M365.615,345.846a2.519,2.519,0,1,0,2.519-2.519A2.519,2.519,0,0,0,365.615,345.846Z" transform="translate(-347.577 -177.196)" fill="none" stroke="#f8f8f8" stroke-linecap="round" stroke-linejoin="round" stroke-width="3"/>
          <path id="Path_50" data-name="Path 50" d="M408.208,135.115v-6.729a2.366,2.366,0,0,0-2.366-2.366h-3.623" transform="translate(-358.25 -113.838)" fill="none" stroke="#f8f8f8" stroke-linecap="round" stroke-linejoin="round" stroke-width="3"/>
          <path id="Path_51" data-name="Path 51" d="M397.627,122.463a2.519,2.519,0,1,1-2.518,2.519A2.519,2.519,0,0,1,397.627,122.463Z" transform="translate(-356.176 -112.801)" fill="none" stroke="#f8f8f8" stroke-linecap="round" stroke-linejoin="round" stroke-width="3"/>
          <path id="Path_52" data-name="Path 52" d="M344.833,311.988a2.519,2.519,0,1,0,2.519-2.519A2.519,2.519,0,0,0,344.833,311.988Z" transform="translate(-341.518 -167.324)" fill="none" stroke="#f8f8f8" stroke-linecap="round" stroke-linejoin="round" stroke-width="3"/>
          <path id="Path_53" data-name="Path 53" d="M444.107,124.169H434.032a2.366,2.366,0,0,1-2.365-2.365v-3.432" transform="translate(-366.835 -111.608)" fill="none" stroke="#f8f8f8" stroke-linecap="round" stroke-linejoin="round" stroke-width="3"/>
          <path id="Path_54" data-name="Path 54" d="M430.63,111.26a2.519,2.519,0,1,0,2.518,2.519A2.519,2.519,0,0,0,430.63,111.26Z" transform="translate(-365.799 -109.534)" fill="none" stroke="#f8f8f8" stroke-linecap="round" stroke-linejoin="round" stroke-width="3"/>
        </g>
      </g>
      <g id="Group_20" data-name="Group 20" transform="translate(53.091 62.247)">
        <g id="Group_19" data-name="Group 19">
          <rect id="Rectangle_4" data-name="Rectangle 4" width="38.899" height="38.899" rx="3.892" transform="translate(29.894 23.155)" fill="none" stroke="#f8f8f8" stroke-linecap="round" stroke-linejoin="round" stroke-width="3"/>
          <rect id="Rectangle_5" data-name="Rectangle 5" width="47.086" height="47.086" rx="4.712" transform="translate(25.801 19.062)" fill="none" stroke="#f8f8f8" stroke-linecap="round" stroke-linejoin="round" stroke-width="3"/>
          <g id="Group_15" data-name="Group 15" transform="translate(73.086 12.652)">
            <line id="Line_18" data-name="Line 18" x1="6.945" transform="translate(0 47.921)" fill="none" stroke="#f8f8f8" stroke-linecap="round" stroke-linejoin="round" stroke-width="3"/>
            <path id="Path_55" data-name="Path 55" d="M518.259,273.736h11.055a2.367,2.367,0,0,1,2.366,2.366v4.441a2.366,2.366,0,0,0,2.365,2.366h3.432" transform="translate(-518.259 -231.805)" fill="none" stroke="#f8f8f8" stroke-linecap="round" stroke-linejoin="round" stroke-width="3"/>
            <path id="Path_56" data-name="Path 56" d="M518.259,262.817h16.352a2.366,2.366,0,0,0,2.366-2.366v-3.623" transform="translate(-518.259 -226.875)" fill="none" stroke="#f8f8f8" stroke-linecap="round" stroke-linejoin="round" stroke-width="3"/>
            <line id="Line_19" data-name="Line 19" x1="11.552" transform="translate(0 29.953)" fill="none" stroke="#f8f8f8" stroke-linecap="round" stroke-linejoin="round" stroke-width="3"/>
            <line id="Line_20" data-name="Line 20" x1="6.945" transform="translate(0 23.963)" fill="none" stroke="#f8f8f8" stroke-linecap="round" stroke-linejoin="round" stroke-width="3"/>
            <line id="Line_21" data-name="Line 21" x1="20.125" transform="translate(0 17.974)" fill="none" stroke="#f8f8f8" stroke-linecap="round" stroke-linejoin="round" stroke-width="3"/>
            <path id="Path_57" data-name="Path 57" d="M518.259,227.569h9.186a2.366,2.366,0,0,0,2.366-2.366V220.47a2.366,2.366,0,0,1,2.365-2.366h3.563" transform="translate(-518.259 -215.585)" fill="none" stroke="#f8f8f8" stroke-linecap="round" stroke-linejoin="round" stroke-width="3"/>
            <path id="Path_58" data-name="Path 58" d="M547.972,217.067a2.519,2.519,0,1,1-2.518-2.519A2.519,2.519,0,0,1,547.972,217.067Z" transform="translate(-525.453 -214.548)" fill="none" stroke="#f8f8f8" stroke-linecap="round" stroke-linejoin="round" stroke-width="3"/>
            <path id="Path_59" data-name="Path 59" d="M552.131,238.882a2.519,2.519,0,1,1-2.519-2.519A2.519,2.519,0,0,1,552.131,238.882Z" transform="translate(-526.666 -220.909)" fill="none" stroke="#f8f8f8" stroke-linecap="round" stroke-linejoin="round" stroke-width="3"/>
            <path id="Path_60" data-name="Path 60" d="M546.163,252.236a2.519,2.519,0,1,1-2.519-2.519A2.519,2.519,0,0,1,546.163,252.236Z" transform="translate(-524.925 -224.802)" fill="none" stroke="#f8f8f8" stroke-linecap="round" stroke-linejoin="round" stroke-width="3"/>
            <path id="Path_61" data-name="Path 61" d="M550.424,285.647a2.519,2.519,0,1,1-2.518-2.519A2.519,2.519,0,0,1,550.424,285.647Z" transform="translate(-526.168 -234.543)" fill="none" stroke="#f8f8f8" stroke-linecap="round" stroke-linejoin="round" stroke-width="3"/>
          </g>
          <g id="Group_16" data-name="Group 16" transform="translate(0 15.793)">
            <line id="Line_22" data-name="Line 22" x2="6.945" transform="translate(18.52 5.702)" fill="none" stroke="#f8f8f8" stroke-linecap="round" stroke-linejoin="round" stroke-width="3"/>
            <path id="Path_62" data-name="Path 62" d="M443.131,231.71H432.075a2.366,2.366,0,0,1-2.365-2.365V224.9a2.366,2.366,0,0,0-2.366-2.366h-3.432" transform="translate(-417.665 -220.019)" fill="none" stroke="#f8f8f8" stroke-linecap="round" stroke-linejoin="round" stroke-width="3"/>
            <path id="Path_63" data-name="Path 63" d="M443.336,243.94H426.983a2.366,2.366,0,0,0-2.365,2.365v3.624" transform="translate(-417.871 -226.259)" fill="none" stroke="#f8f8f8" stroke-linecap="round" stroke-linejoin="round" stroke-width="3"/>
            <line id="Line_23" data-name="Line 23" x2="11.552" transform="translate(13.913 23.67)" fill="none" stroke="#f8f8f8" stroke-linecap="round" stroke-linejoin="round" stroke-width="3"/>
            <line id="Line_24" data-name="Line 24" x2="6.945" transform="translate(18.52 29.66)" fill="none" stroke="#f8f8f8" stroke-linecap="round" stroke-linejoin="round" stroke-width="3"/>
            <line id="Line_25" data-name="Line 25" x2="20.125" transform="translate(5.34 35.649)" fill="none" stroke="#f8f8f8" stroke-linecap="round" stroke-linejoin="round" stroke-width="3"/>
            <path id="Path_64" data-name="Path 64" d="M443.846,277.757h-9.186a2.366,2.366,0,0,0-2.365,2.365v4.734a2.367,2.367,0,0,1-2.366,2.366h-3.563" transform="translate(-418.38 -236.118)" fill="none" stroke="#f8f8f8" stroke-linecap="round" stroke-linejoin="round" stroke-width="3"/>
            <path id="Path_65" data-name="Path 65" d="M419.253,290.081a2.519,2.519,0,1,1,2.518,2.518A2.519,2.519,0,0,1,419.253,290.081Z" transform="translate(-416.307 -238.977)" fill="none" stroke="#f8f8f8" stroke-linecap="round" stroke-linejoin="round" stroke-width="3"/>
            <circle id="Ellipse_1" data-name="Ellipse 1" cx="2.519" cy="2.519" r="2.519" transform="translate(0 33.13)" fill="none" stroke="#f8f8f8" stroke-linecap="round" stroke-linejoin="round" stroke-width="3"/>
            <path id="Path_66" data-name="Path 66" d="M421.062,254.913a2.519,2.519,0,1,1,2.519,2.519A2.519,2.519,0,0,1,421.062,254.913Z" transform="translate(-416.834 -228.724)" fill="none" stroke="#f8f8f8" stroke-linecap="round" stroke-linejoin="round" stroke-width="3"/>
            <path id="Path_67" data-name="Path 67" d="M416.8,221.5a2.519,2.519,0,1,1,2.518,2.518A2.519,2.519,0,0,1,416.8,221.5Z" transform="translate(-415.592 -218.982)" fill="none" stroke="#f8f8f8" stroke-linecap="round" stroke-linejoin="round" stroke-width="3"/>
          </g>
          <g id="Group_17" data-name="Group 17" transform="translate(20.873)">
            <line id="Line_26" data-name="Line 26" y2="3.576" transform="translate(47.92 15.171)" fill="none" stroke="#f8f8f8" stroke-linecap="round" stroke-linejoin="round" stroke-width="3"/>
            <path id="Path_68" data-name="Path 68" d="M503.746,219.27V212.2a2.366,2.366,0,0,1,2.365-2.365h7.607" transform="translate(-461.815 -200.523)" fill="none" stroke="#f8f8f8" stroke-linecap="round" stroke-linejoin="round" stroke-width="3"/>
            <path id="Path_69" data-name="Path 69" d="M492.826,217.588V206.433a2.366,2.366,0,0,0-2.365-2.366h-3.624" transform="translate(-456.885 -198.84)" fill="none" stroke="#f8f8f8" stroke-linecap="round" stroke-linejoin="round" stroke-width="3"/>
            <line id="Line_27" data-name="Line 27" y2="6.785" transform="translate(29.952 11.963)" fill="none" stroke="#f8f8f8" stroke-linecap="round" stroke-linejoin="round" stroke-width="3"/>
            <line id="Line_28" data-name="Line 28" y2="6.785" transform="translate(23.963 11.963)" fill="none" stroke="#f8f8f8" stroke-linecap="round" stroke-linejoin="round" stroke-width="3"/>
            <line id="Line_29" data-name="Line 29" y2="13.407" transform="translate(17.973 5.34)" fill="none" stroke="#f8f8f8" stroke-linecap="round" stroke-linejoin="round" stroke-width="3"/>
            <path id="Path_70" data-name="Path 70" d="M457.578,218.945v-1.927a2.366,2.366,0,0,0-2.366-2.365h-4.733a2.366,2.366,0,0,1-2.366-2.366v-3.563" transform="translate(-445.595 -200.198)" fill="none" stroke="#f8f8f8" stroke-linecap="round" stroke-linejoin="round" stroke-width="3"/>
            <path id="Path_71" data-name="Path 71" d="M447.077,201.612a2.519,2.519,0,1,1-2.518,2.519A2.519,2.519,0,0,1,447.077,201.612Z" transform="translate(-444.558 -198.124)" fill="none" stroke="#f8f8f8" stroke-linecap="round" stroke-linejoin="round" stroke-width="3"/>
            <path id="Path_72" data-name="Path 72" d="M468.892,196.689a2.519,2.519,0,1,1-2.519,2.519A2.519,2.519,0,0,1,468.892,196.689Z" transform="translate(-450.918 -196.689)" fill="none" stroke="#f8f8f8" stroke-linecap="round" stroke-linejoin="round" stroke-width="3"/>
            <path id="Path_73" data-name="Path 73" d="M482.245,200.512a2.519,2.519,0,1,1-2.519,2.519A2.519,2.519,0,0,1,482.245,200.512Z" transform="translate(-454.812 -197.804)" fill="none" stroke="#f8f8f8" stroke-linecap="round" stroke-linejoin="round" stroke-width="3"/>
            <path id="Path_74" data-name="Path 74" d="M520.341,206.283a2.519,2.519,0,1,1-2.518,2.519A2.519,2.519,0,0,1,520.341,206.283Z" transform="translate(-465.919 -199.486)" fill="none" stroke="#f8f8f8" stroke-linecap="round" stroke-linejoin="round" stroke-width="3"/>
          </g>
          <g id="Group_18" data-name="Group 18" transform="translate(27.375 66.148)">
            <line id="Line_30" data-name="Line 30" y1="3.576" transform="translate(2.519 0.224)" fill="none" stroke="#f8f8f8" stroke-linecap="round" stroke-linejoin="round" stroke-width="3"/>
            <path id="Path_75" data-name="Path 75" d="M464.318,290.06v10.381a2.366,2.366,0,0,1-2.366,2.366h-1.1" transform="translate(-455.809 -290.06)" fill="none" stroke="#f8f8f8" stroke-linecap="round" stroke-linejoin="round" stroke-width="3"/>
            <path id="Path_76" data-name="Path 76" d="M474.2,290.377v11.154a2.366,2.366,0,0,0,2.366,2.366h3.624" transform="translate(-459.702 -290.152)" fill="none" stroke="#f8f8f8" stroke-linecap="round" stroke-linejoin="round" stroke-width="3"/>
            <line id="Line_31" data-name="Line 31" y1="6.785" transform="translate(20.487 0.224)" fill="none" stroke="#f8f8f8" stroke-linecap="round" stroke-linejoin="round" stroke-width="3"/>
            <line id="Line_32" data-name="Line 32" y1="6.785" transform="translate(26.477 0.224)" fill="none" stroke="#f8f8f8" stroke-linecap="round" stroke-linejoin="round" stroke-width="3"/>
            <line id="Line_33" data-name="Line 33" y1="17.851" transform="translate(32.466 0.224)" fill="none" stroke="#f8f8f8" stroke-linecap="round" stroke-linejoin="round" stroke-width="3"/>
            <path id="Path_77" data-name="Path 77" d="M508.018,290.377V292.3a2.366,2.366,0,0,0,2.365,2.366h.385a2.366,2.366,0,0,1,2.366,2.365v5.581" transform="translate(-469.562 -290.152)" fill="none" stroke="#f8f8f8" stroke-linecap="round" stroke-linejoin="round" stroke-width="3"/>
            <path id="Path_78" data-name="Path 78" d="M514.2,312.691a2.519,2.519,0,1,1,2.519-2.519A2.519,2.519,0,0,1,514.2,312.691Z" transform="translate(-470.632 -295.189)" fill="none" stroke="#f8f8f8" stroke-linecap="round" stroke-linejoin="round" stroke-width="3"/>
            <path id="Path_79" data-name="Path 79" d="M498.526,320.612a2.519,2.519,0,1,1,2.519-2.519A2.519,2.519,0,0,1,498.526,320.612Z" transform="translate(-466.061 -297.499)" fill="none" stroke="#f8f8f8" stroke-linecap="round" stroke-linejoin="round" stroke-width="3"/>
            <path id="Path_80" data-name="Path 80" d="M485.173,310.943a2.519,2.519,0,1,1,2.519-2.518A2.518,2.518,0,0,1,485.173,310.943Z" transform="translate(-462.168 -294.68)" fill="none" stroke="#f8f8f8" stroke-linecap="round" stroke-linejoin="round" stroke-width="3"/>
            <path id="Path_81" data-name="Path 81" d="M456.255,309.182a2.519,2.519,0,1,1,2.518-2.519A2.519,2.519,0,0,1,456.255,309.182Z" transform="translate(-453.736 -294.166)" fill="none" stroke="#f8f8f8" stroke-linecap="round" stroke-linejoin="round" stroke-width="3"/>
          </g>
        </g>
        <text id="A.I." transform="translate(47.826 47.393)" fill="#fff" font-size="18" font-family="Quicksand-Bold, Quicksand" font-weight="700" letter-spacing="-0.02em"><tspan x="-12.168" y="0">A.I.</tspan></text>
      </g>
    </g>
  </g>
</svg>
