<?xml version="1.0" encoding="utf-8"?>
<!-- Generator: Adobe Illustrator 16.0.0, SVG Export Plug-In . SVG Version: 6.00 Build 0)  -->
<!DOCTYPE svg PUBLIC "-//W3C//DTD SVG 1.1//EN" "http://www.w3.org/Graphics/SVG/1.1/DTD/svg11.dtd">
<svg version="1.1" id="Capa_1" xmlns="http://www.w3.org/2000/svg" xmlns:xlink="http://www.w3.org/1999/xlink" x="0px" y="0px"
	 width="476.242px" height="595.278px" viewBox="59.519 123.305 476.242 595.278"
	 enable-background="new 59.519 123.305 476.242 595.278" xml:space="preserve">
<g>
	<g>
		<path fill="#FFFFFF" d="M412.365,333.529h-26.409c-1.611-5.118-3.662-10.073-6.139-14.828l18.673-18.673
			c2.333-2.333,3.618-5.437,3.618-8.737c0-3.302-1.285-6.405-3.618-8.738l-21.976-21.977c-4.818-4.814-12.657-4.817-17.477,0.001
			l-18.674,18.673c-4.754-2.475-9.71-4.527-14.827-6.139v-26.41c-0.001-6.813-5.545-12.358-12.358-12.358H282.1
			c-6.813,0-12.357,5.543-12.357,12.358v26.41c-5.117,1.613-10.073,3.664-14.828,6.139l-18.675-18.674
			c-4.817-4.816-12.656-4.814-17.475,0.001l-21.975,21.974c-2.335,2.333-3.621,5.438-3.621,8.739c0,3.301,1.286,6.404,3.619,8.737
			l18.674,18.673c-2.476,4.754-4.526,9.71-6.139,14.827h-26.41c-6.813,0-12.355,5.543-12.355,12.358v31.079
			c0,6.813,5.544,12.356,12.355,12.356h26.41c1.612,5.117,3.663,10.074,6.139,14.828l-18.674,18.674
			c-4.816,4.817-4.816,12.657,0,17.476l21.977,21.977c4.817,4.818,12.658,4.817,17.476,0l18.674-18.675
			c4.754,2.477,9.712,4.527,14.828,6.141v26.409c0,6.813,5.544,12.355,12.357,12.355h31.078c6.813,0,12.357-5.543,12.357-12.355
			v-26.409c5.115-1.612,10.073-3.664,14.827-6.141l18.673,18.675c4.819,4.818,12.659,4.817,17.479,0l21.974-21.977
			c2.334-2.333,3.618-5.437,3.618-8.737c0-3.3-1.284-6.402-3.618-8.737l-18.673-18.674c2.477-4.755,4.527-9.71,6.139-14.828h26.41
			c6.813,0,12.357-5.543,12.357-12.356v-31.079C424.722,339.073,419.177,333.529,412.365,333.529z M407.283,371.882H379.31
			c-4.051,0-7.567,2.789-8.49,6.734c-1.858,7.947-4.979,15.484-9.275,22.4c-2.139,3.441-1.623,7.901,1.24,10.769l19.777,19.777
			l-14.786,14.786l-19.778-19.777c-2.863-2.864-7.323-3.381-10.769-1.241c-6.918,4.296-14.455,7.416-22.399,9.276
			c-3.944,0.922-6.733,4.438-6.733,8.49v27.975h-20.91v-27.975c0-4.051-2.789-7.566-6.733-8.49
			c-7.944-1.857-15.481-4.979-22.401-9.276c-3.439-2.135-7.9-1.623-10.768,1.241l-19.777,19.777l-14.787-14.786l19.778-19.777
			c2.864-2.865,3.379-7.325,1.241-10.769c-4.296-6.917-7.416-14.455-9.275-22.4c-0.922-3.945-4.439-6.734-8.49-6.734H188v-20.911
			h27.973c4.051,0,7.567-2.789,8.49-6.734c1.859-7.946,4.979-15.483,9.275-22.401c2.138-3.441,1.623-7.901-1.241-10.768
			l-19.777-19.778l14.786-14.787l19.777,19.778c2.863,2.865,7.325,3.38,10.768,1.242c6.917-4.296,14.454-7.417,22.401-9.275
			c3.944-0.922,6.733-4.439,6.733-8.491v-27.973h20.91v27.973c0,4.051,2.789,7.568,6.733,8.491c7.945,1.859,15.482,4.979,22.4,9.275
			c3.439,2.136,7.902,1.621,10.768-1.242l19.778-19.778l14.786,14.787l-19.777,19.778c-2.864,2.865-3.379,7.325-1.24,10.768
			c4.295,6.916,7.416,14.453,9.275,22.401c0.923,3.945,4.438,6.734,8.49,6.734h27.973L407.283,371.882L407.283,371.882z"/>
	</g>
</g>
<g>
	<g>
		<path fill="#FFFFFF" d="M297.64,314.71c-25.761,0-46.717,20.957-46.717,46.715c0,25.759,20.957,46.716,46.717,46.716
			c25.758,0,46.715-20.957,46.715-46.716C344.355,335.667,323.399,314.71,297.64,314.71z M297.64,390.702
			c-16.144,0-29.276-13.133-29.276-29.276c0-16.142,13.134-29.275,29.276-29.275c16.142,0,29.274,13.133,29.274,29.275
			C326.915,377.568,313.781,390.702,297.64,390.702z"/>
	</g>
</g>
<g>
	<g>
		<path fill="#FFFFFF" d="M97.167,352.706H68.239c-4.815,0-8.72,3.904-8.72,8.72c0,4.816,3.903,8.72,8.72,8.72h28.929
			c4.816,0,8.722-3.904,8.722-8.72C105.888,356.61,101.984,352.706,97.167,352.706z"/>
	</g>
</g>
<g>
	<g>
		<path fill="#FFFFFF" d="M527.042,352.706h-28.93c-4.816,0-8.72,3.904-8.72,8.72c0,4.816,3.902,8.72,8.72,8.72h28.93
			c4.816,0,8.72-3.904,8.72-8.72C535.761,356.61,531.858,352.706,527.042,352.706z"/>
	</g>
</g>
<g>
	<g>
		<path fill="#FFFFFF" d="M162.05,497.016c-3.403-3.404-8.926-3.404-12.333,0l-20.454,20.456c-3.406,3.405-3.406,8.928,0,12.332
			c3.404,3.405,8.927,3.405,12.332,0l20.455-20.456C165.455,505.942,165.455,500.421,162.05,497.016z"/>
	</g>
</g>
<g>
	<g>
		<path fill="#FFFFFF" d="M466.017,193.05c-3.406-3.405-8.927-3.405-12.333,0l-20.456,20.456c-3.405,3.406-3.405,8.927,0,12.333
			c3.407,3.405,8.927,3.404,12.334,0l20.455-20.456C469.424,201.976,469.424,196.455,466.017,193.05z"/>
	</g>
</g>
<g>
	<g>
		<path fill="#FFFFFF" d="M297.641,123.305c-4.817,0-8.721,3.904-8.721,8.72v28.929c0,4.815,3.902,8.72,8.721,8.72
			c4.815,0,8.72-3.904,8.72-8.72v-28.929C306.361,127.209,302.457,123.305,297.641,123.305z"/>
	</g>
</g>
<g>
	<g>
		<path fill="#FFFFFF" d="M466.017,517.472l-20.455-20.456c-3.407-3.404-8.927-3.404-12.334,0c-3.405,3.405-3.405,8.929,0,12.332
			l20.456,20.456c3.406,3.405,8.927,3.405,12.333,0C469.424,526.399,469.424,520.877,466.017,517.472z"/>
	</g>
</g>
<g>
	<g>
		<path fill="#FFFFFF" d="M162.05,213.506l-20.455-20.456c-3.405-3.405-8.928-3.405-12.332,0c-3.406,3.405-3.406,8.927,0,12.332
			l20.454,20.456c3.405,3.405,8.928,3.405,12.333,0C165.455,222.432,165.455,216.91,162.05,213.506z"/>
	</g>
</g>
<g>
	<g>
		<path fill="#FFFFFF" d="M471.606,340.064c-9.384-80.078-72.86-143.561-152.563-153.276c-4.772-0.587-9.13,2.821-9.714,7.601
			c-0.582,4.781,2.821,9.129,7.603,9.713c72.384,8.822,128.865,65.567,137.352,137.993c0.521,4.438,4.288,7.705,8.649,7.705
			c0.339,0,0.681-0.02,1.025-0.059C468.743,349.181,472.166,344.849,471.606,340.064z"/>
	</g>
</g>
<g>
	<g>
		<path fill="#FFFFFF" d="M463.856,373.122c-4.785-0.609-9.142,2.778-9.746,7.556c-5.945,46.958-32.449,88.391-72.716,113.671
			c-17.36,10.9-27.723,29.555-27.723,49.898v35.888H241.611v-36.683c0-19.699-10.296-38.313-26.867-48.569
			c-46.861-29.009-74.84-79.185-74.841-134.224c0-79.47,59.525-146.771,138.462-156.549c4.779-0.592,8.173-4.947,7.581-9.727
			c-0.592-4.778-4.944-8.182-9.727-7.582c-87.218,10.805-153.762,85.808-153.761,173.858c0,30.383,7.902,60.318,22.855,86.572
			c14.495,25.449,35.328,47.055,60.246,62.479c11.477,7.104,18.604,20.033,18.604,33.74v37.953
			c-8.867,3.081-15.261,11.501-15.261,21.402v12.432c0,5.264,1.819,10.102,4.838,13.953c-3.021,3.852-4.838,8.688-4.838,13.953
			v12.43c0,12.502,10.173,22.673,22.674,22.673h27.415v19.713c0,11.372,9.251,20.623,20.622,20.623h36.038
			c11.372,0,20.622-9.251,20.622-20.623v-19.713h27.416c12.502,0,22.673-10.172,22.673-22.673v-12.43
			c0-5.265-1.817-10.103-4.839-13.953c3.021-3.853,4.839-8.688,4.839-13.953V602.81c0-9.902-6.393-18.321-15.26-21.402v-37.159
			c0-14.306,7.31-27.438,19.556-35.126c44.709-28.071,74.141-74.089,80.742-126.252C472.016,378.09,468.634,373.727,463.856,373.122
			z M318.841,697.961c0,1.725-1.457,3.182-3.182,3.182H279.62c-1.724,0-3.181-1.455-3.181-3.182v-19.713h42.4L318.841,697.961
			L318.841,697.961z M368.93,655.575c0,2.836-2.396,5.23-5.232,5.23c-15.394,0-117.588,0-132.114,0c-2.836,0-5.23-2.396-5.23-5.23
			v-12.431c0-2.836,2.396-5.231,5.23-5.231h132.114c2.836,0,5.232,2.396,5.232,5.231V655.575z M368.93,615.239
			c0,2.836-2.396,5.23-5.232,5.23H231.583c-2.836,0-5.23-2.396-5.23-5.23v-12.432c0-2.836,2.396-5.231,5.23-5.231h132.114
			c2.836,0,5.232,2.396,5.232,5.231L368.93,615.239L368.93,615.239z"/>
	</g>
</g>
</svg>
