<?xml version="1.0" encoding="utf-8"?>
<!-- Generator: Adobe Illustrator 16.0.0, SVG Export Plug-In . SVG Version: 6.00 Build 0)  -->
<!DOCTYPE svg PUBLIC "-//W3C//DTD SVG 1.1//EN" "http://www.w3.org/Graphics/SVG/1.1/DTD/svg11.dtd">
<svg version="1.1" id="Capa_1" xmlns="http://www.w3.org/2000/svg" xmlns:xlink="http://www.w3.org/1999/xlink" x="0px" y="0px"
	 width="603.28px" height="603.28px" viewBox="-4 119.305 603.28 603.28" enable-background="new -4 119.305 603.28 603.28"
	 xml:space="preserve">
<g>
	<g>
		<path fill="#FFFFFF" stroke="#FFFFFF" stroke-width="8" stroke-miterlimit="10" d="M585.359,222.519H347.246
			c-5.479,0-9.921,4.442-9.921,9.921v89.292c0.004,5.479,4.449,9.918,9.93,9.914c1.063,0,2.118-0.172,3.128-0.508l12.471-4.156
			c13.54-4.433,28.108,2.951,32.54,16.492c4.431,13.539-2.952,28.107-16.492,32.539c-5.214,1.707-10.835,1.707-16.049,0
			l-12.472-4.156c-5.198-1.731-10.816,1.078-12.549,6.276c-0.336,1.009-0.507,2.065-0.508,3.128v79.371h-79.371
			c-5.479,0.003-9.917,4.449-9.914,9.929c0.002,1.063,0.173,2.119,0.509,3.127l4.157,12.473c4.434,13.54-2.952,28.107-16.492,32.539
			c-13.54,4.433-28.107-2.951-32.539-16.491c-1.707-5.214-1.707-10.836,0-16.049l4.157-12.473c1.73-5.197-1.079-10.815-6.277-12.548
			c-1.009-0.336-2.064-0.507-3.129-0.509h-89.29c-5.479,0-9.922,4.442-9.922,9.922v238.112c0,5.479,4.442,9.921,9.922,9.921h476.225
			c5.479,0,9.921-4.442,9.921-9.921V232.439C595.28,226.96,590.839,222.519,585.359,222.519z M337.833,616.244
			c-0.336,1.008-0.507,2.063-0.508,3.128v79.37h-218.27V480.472h65.609c-7.582,24.039,5.76,49.672,29.798,57.252
			c24.039,7.581,49.673-5.761,57.252-29.799c2.817-8.935,2.817-18.52,0-27.454h65.609v79.371c0.004,5.479,4.449,9.917,9.93,9.914
			c1.063-0.002,2.118-0.173,3.128-0.509l12.471-4.157c13.54-4.431,28.108,2.952,32.54,16.492
			c4.431,13.54-2.952,28.108-16.492,32.539c-5.214,1.707-10.835,1.707-16.049,0l-12.472-4.157
			C345.183,608.235,339.565,611.045,337.833,616.244z M575.438,698.742h-218.27v-65.609c24.037,7.581,49.671-5.761,57.251-29.799
			s-5.762-49.671-29.8-57.251c-8.935-2.817-18.52-2.817-27.454,0v-65.61h79.371c5.479-0.003,9.918-4.448,9.914-9.929
			c-0.001-1.063-0.173-2.119-0.509-3.127l-4.157-12.472c-4.431-13.54,2.952-28.108,16.492-32.539
			c13.54-4.433,28.108,2.951,32.539,16.491c1.707,5.214,1.707,10.836,0,16.049l-4.156,12.472c-1.73,5.198,1.078,10.816,6.277,12.548
			c1.008,0.336,2.063,0.507,3.128,0.509h79.37v218.269L575.438,698.742L575.438,698.742z M575.438,460.631h-65.61
			c7.581-24.039-5.761-49.672-29.799-57.252c-24.038-7.581-49.671,5.761-57.251,29.799c-2.816,8.936-2.816,18.521,0,27.454H357.17
			v-65.609c13.778,4.465,28.863,2.056,40.567-6.479c20.521-14.637,25.289-43.137,10.652-63.657
			c-11.559-16.203-32.285-23.048-51.221-16.914V242.36h218.27V460.631z"/>
	</g>
</g>
<g>
	<g>
		<path fill="#FFFFFF" stroke="#FFFFFF" stroke-width="8" stroke-miterlimit="10" d="M285.408,208.757
			c-8.935-2.817-18.52-2.817-27.454,0v-75.531c0-5.479-4.44-9.921-9.921-9.921H9.921c-5.479,0-9.921,4.442-9.921,9.921v238.112
			c0,5.479,4.442,9.921,9.921,9.921h75.531c-7.581,24.038,5.761,49.671,29.799,57.251s49.671-5.761,57.251-29.799
			c2.817-8.934,2.817-18.519,0-27.454h75.531c5.479,0,9.921-4.441,9.921-9.921v-75.531c24.039,7.581,49.671-5.761,57.251-29.799
			C322.786,241.97,309.447,216.338,285.408,208.757z M279.689,276.798c-5.214,1.707-10.835,1.707-16.049,0l-12.473-4.157
			c-5.197-1.731-10.815,1.079-12.548,6.277c-0.336,1.008-0.507,2.065-0.508,3.128v79.371h-79.371
			c-5.479,0.004-9.918,4.45-9.914,9.93c0.001,1.063,0.173,2.119,0.509,3.127l4.157,12.471c4.432,13.541-2.952,28.108-16.492,32.541
			c-13.54,4.431-28.107-2.952-32.539-16.492c-1.707-5.214-1.707-10.835,0-16.049l4.156-12.471
			c1.731-5.199-1.078-10.816-6.277-12.549c-1.008-0.336-2.063-0.507-3.128-0.508h-79.37v-218.27h218.271v79.371
			c0.003,5.479,4.449,9.917,9.929,9.914c1.063-0.001,2.119-0.172,3.127-0.508l12.473-4.157c13.54-4.431,28.107,2.952,32.539,16.492
			C300.612,257.797,293.228,272.367,279.689,276.798z"/>
	</g>
</g>
</svg>
