<?xml version="1.0" encoding="utf-8"?>
<!-- Generator: Adobe Illustrator 16.0.0, SVG Export Plug-In . SVG Version: 6.00 Build 0)  -->
<!DOCTYPE svg PUBLIC "-//W3C//DTD SVG 1.1//EN" "http://www.w3.org/Graphics/SVG/1.1/DTD/svg11.dtd">
<svg version="1.1" id="Capa_1" xmlns="http://www.w3.org/2000/svg" xmlns:xlink="http://www.w3.org/1999/xlink" x="0px" y="0px"
	 width="512px" height="512px" viewBox="0 0 512 512" enable-background="new 0 0 512 512" xml:space="preserve">
<g>
	<g>
		<path fill="#40A3FF" d="M307.134,327.285c-8.225,0-14.915-6.691-14.915-14.916v-10.876l-5.454-1.547
			c-10.167-2.883-20.027-6.97-29.306-12.146l-4.95-2.762l-7.697,7.698c-2.805,2.82-6.543,4.366-10.541,4.366
			c-3.997,0-7.741-1.553-10.544-4.372l-24.572-24.572c-2.803-2.802-4.346-6.545-4.346-10.539c0-3.996,1.543-7.739,4.346-10.541
			l7.697-7.699l-2.762-4.949c-5.174-9.272-9.26-19.125-12.144-29.282l-1.548-5.451h-10.875c-8.225,0-14.916-6.691-14.916-14.916
			v-34.781c0-8.224,6.691-14.915,14.916-14.915H190.4l1.548-5.451c2.884-10.158,6.97-20.009,12.144-29.281l2.762-4.95l-7.696-7.697
			c-2.803-2.803-4.347-6.546-4.347-10.541c0-3.996,1.543-7.739,4.346-10.541l24.575-24.576c2.805-2.822,6.543-4.367,10.54-4.367
			c3.999,0,7.744,1.553,10.548,4.373l7.691,7.691l4.949-2.762c9.271-5.173,19.134-9.267,29.313-12.166l5.446-1.551V22.416
			c0-8.225,6.69-14.916,14.915-14.916h34.751c3.975,0,7.718,1.554,10.54,4.376c2.821,2.822,4.375,6.565,4.375,10.539v10.852
			l5.445,1.551c10.185,2.901,20.038,6.992,29.286,12.159l4.951,2.767l7.695-7.696c2.805-2.821,6.542-4.367,10.54-4.367
			s7.743,1.553,10.546,4.372l24.599,24.57c2.802,2.802,4.347,6.547,4.347,10.542c0,3.996-1.544,7.739-4.347,10.541l-7.696,7.697
			l2.759,4.949c5.155,9.248,9.239,19.102,12.139,29.288l1.551,5.446h10.854c3.975,0,7.718,1.554,10.539,4.376
			s4.375,6.564,4.375,10.539v34.782c0,8.225-6.69,14.916-14.915,14.916h-10.853l-1.551,5.446
			c-2.902,10.189-6.986,20.043-12.14,29.289l-2.759,4.949l7.697,7.696c2.803,2.802,4.346,6.545,4.346,10.54
			c0,3.995-1.544,7.738-4.347,10.542l-24.604,24.578c-2.805,2.82-6.541,4.364-10.54,4.364c-3.997,0-7.742-1.553-10.544-4.371
			l-7.69-7.69l-4.951,2.766c-9.257,5.172-19.107,9.257-29.278,12.141l-5.454,1.547v10.876c0,8.225-6.69,14.916-14.915,14.916
			H307.134z M281.808,98.042c-0.855,0.506-1.75,1.078-2.659,1.698c-20.899,14.287-33.376,37.791-33.376,62.876
			c0,31.646,20.02,60.333,49.816,71.384c0.975,0.362,1.63,1.304,1.63,2.344v76.024c0,5.468,4.448,9.916,9.916,9.916h34.751
			c5.468,0,9.916-4.448,9.916-9.916l-0.002-76.025c0-1.04,0.655-1.981,1.63-2.343c29.78-11.055,49.789-39.742,49.789-71.385
			c0-25.085-12.479-48.591-33.379-62.877c-0.911-0.623-1.804-1.195-2.65-1.696l-11.685-6.917l0.366,13.573
			c0.04,1.484,0.143,2.878,0.192,3.548c0.065,0.886,0.112,1.528,0.112,2.043v47.196c0,17.728-13.837,32.532-31.501,33.704
			c-0.057,0.003-0.11,0.005-0.166,0.005c-0.054,0-0.108-0.002-0.163-0.005c-17.682-1.172-31.531-15.977-31.531-33.704v-47.196
			c0-0.514,0.048-1.155,0.113-2.042c0.051-0.666,0.154-2.046,0.196-3.542l0.378-13.583L281.808,98.042z"/>
		<path d="M341.886,15c2.66,0,4.423,1.365,5.236,2.179s2.179,2.576,2.179,5.236v5.189v11.324l10.891,3.102
			c9.628,2.742,18.94,6.609,27.682,11.494l9.903,5.534l8.021-8.022l3.716-3.717c1.391-1.399,3.19-2.138,5.205-2.138
			s3.822,0.747,5.227,2.16l0.02,0.019l0.019,0.019l24.572,24.543c1.409,1.41,2.154,3.222,2.154,5.243s-0.743,3.831-2.151,5.239
			l-3.689,3.69l-8.012,8.013l5.518,9.897c4.873,8.743,8.734,18.059,11.477,27.689l3.101,10.893h11.326h5.19
			c2.659,0,4.422,1.365,5.235,2.179c0.813,0.813,2.179,2.576,2.179,5.236v34.781c0,4.089-3.326,7.416-7.415,7.416h-5.19h-11.325
			l-3.102,10.892c-2.743,9.634-6.604,18.95-11.477,27.691l-5.518,9.898l8.013,8.012l3.691,3.691
			c1.405,1.405,2.148,3.215,2.148,5.235c0,2.021-0.743,3.832-2.144,5.232l-24.607,24.581l-0.019,0.019l-0.019,0.018
			c-1.388,1.396-3.188,2.135-5.203,2.135c-2.015,0-3.821-0.746-5.257-2.19l-3.664-3.664l-8.021-8.021l-9.902,5.532
			c-8.748,4.888-18.057,8.747-27.666,11.473l-0.908,0.257v-53.247c30.896-12.974,51.419-43.533,51.419-77.127
			c0-27.564-13.699-53.384-36.641-69.065c-1.049-0.717-2.081-1.377-3.068-1.962l-23.367-13.833l0.731,27.145
			c0.044,1.656,0.156,3.17,0.209,3.895c0.046,0.617,0.093,1.255,0.093,1.495v47.196c0,13.681-10.588,25.124-24.166,26.196
			c-13.594-1.073-24.195-12.516-24.195-26.196v-47.196c0-0.237,0.047-0.875,0.092-1.478c0.055-0.721,0.168-2.222,0.215-3.897
			l0.756-27.165l-23.389,13.839c-0.993,0.588-2.026,1.247-3.074,1.963c-22.944,15.684-36.642,41.502-36.642,69.066
			c0,33.598,20.535,64.158,51.446,77.128v53.245l-0.908-0.257c-9.607-2.725-18.927-6.587-27.697-11.481l-9.901-5.523l-8.016,8.018
			l-3.717,3.718c-1.393,1.4-3.194,2.141-5.209,2.141c-2.013,0-3.819-0.747-5.256-2.191l-24.557-24.557
			c-1.406-1.405-2.148-3.216-2.148-5.235c0-2.021,0.743-3.832,2.151-5.239l3.688-3.689l8.015-8.016l-5.523-9.898
			c-4.891-8.766-8.753-18.078-11.479-27.676l-3.096-10.902h-11.333h-5.209c-4.089,0-7.416-3.327-7.416-7.416v-34.781
			c0-4.089,3.327-7.415,7.416-7.415h5.209h11.334l3.096-10.903c2.726-9.599,6.587-18.91,11.479-27.675l5.524-9.898l-8.015-8.017
			l-3.69-3.69c-1.406-1.405-2.149-3.216-2.149-5.236c0-2.021,0.743-3.831,2.151-5.238l24.605-24.606
			c1.392-1.399,3.191-2.139,5.208-2.139c2.014,0,3.821,0.748,5.256,2.19l3.668,3.668l8.016,8.017l9.9-5.524
			c8.765-4.891,18.089-8.761,27.713-11.502l10.892-3.102V27.604v-5.189c0-4.089,3.326-7.416,7.415-7.416H341.886 M341.886,0h-34.751
			c-12.359,0-22.415,10.056-22.415,22.416v5.189c-10.766,3.066-21.113,7.36-30.914,12.83l-3.668-3.668
			c-4.223-4.246-9.855-6.584-15.862-6.584c-0.001,0-0.002,0-0.004,0c-6.009,0-11.643,2.339-15.843,6.564l-24.574,24.575
			c-4.221,4.219-6.544,9.846-6.544,15.845s2.323,11.625,6.543,15.844l3.688,3.689c-5.471,9.804-9.759,20.143-12.81,30.887h-5.209
			c-12.36,0-22.416,10.056-22.416,22.415v34.781c0,12.36,10.056,22.416,22.416,22.416h5.209c3.051,10.743,7.339,21.083,12.81,30.887
			l-3.688,3.689c-4.221,4.219-6.544,9.846-6.544,15.845c0,5.997,2.323,11.624,6.543,15.843l24.556,24.556
			c4.221,4.246,9.854,6.585,15.862,6.585h0.001c6.009,0,11.644-2.339,15.845-6.563l3.688-3.689
			c9.811,5.474,20.158,9.763,30.914,12.813v5.207c0,12.359,10.056,22.416,22.415,22.416h34.751
			c12.359,0,22.415-10.057,22.415-22.416v-5.207c10.759-3.051,21.099-7.338,30.891-12.809l3.664,3.664
			c4.221,4.246,9.854,6.584,15.863,6.584c6.01,0,11.645-2.338,15.841-6.559l24.607-24.581c4.22-4.22,6.543-9.847,6.543-15.845
			c0-5.999-2.323-11.625-6.543-15.843l-3.69-3.69c5.448-9.774,9.733-20.111,12.802-30.886h5.19
			c12.359,0,22.415-10.056,22.415-22.416v-34.781c0.001-12.359-10.054-22.415-22.414-22.415h-5.19
			c-3.067-10.775-7.354-21.113-12.802-30.886l3.689-3.69c4.221-4.219,6.544-9.846,6.544-15.845s-2.323-11.625-6.547-15.849
			l-24.579-24.55c-4.222-4.247-9.855-6.585-15.865-6.585c-6.009,0-11.644,2.338-15.844,6.564l-3.685,3.685
			c-9.78-5.465-20.122-9.759-30.89-12.826v-5.189C364.302,10.056,354.246,0,341.886,0L341.886,0z M324.51,198.693
			c0.221,0,0.441-0.007,0.661-0.022c21.592-1.432,38.505-19.523,38.505-41.187v-47.196c0-0.791-0.059-1.587-0.133-2.596
			c-0.048-0.648-0.14-1.891-0.175-3.197c0.652,0.386,1.396,0.857,2.239,1.434c18.854,12.888,30.111,34.079,30.111,56.686
			c0,28.522-18.044,54.385-44.899,64.354c-3.919,1.455-6.52,5.194-6.52,9.375v63.042v12.983h0.002c0,1.31-1.106,2.416-2.416,2.416
			h-34.751c-1.31,0-2.416-1.106-2.416-2.416v-12.983v-63.041c0-4.182-2.602-7.921-6.521-9.375
			c-26.871-9.966-44.925-35.827-44.925-64.353c0-22.606,11.257-43.798,30.106-56.683c0.846-0.578,1.594-1.05,2.248-1.437
			c-0.036,1.3-0.129,2.536-0.178,3.181c-0.075,1.015-0.135,1.816-0.135,2.611v47.196c0,21.663,16.927,39.754,38.533,41.187
			C324.069,198.686,324.289,198.693,324.51,198.693L324.51,198.693z"/>
	</g>
	<path d="M382.776,440.31c-3.904,3.905-3.904,10.237,0,14.143c1.953,1.952,4.513,2.93,7.071,2.93s5.118-0.978,7.071-2.93
		l0.027-0.027c3.905-3.905,3.891-10.223-0.015-14.128C393.025,436.392,386.681,436.407,382.776,440.31L382.776,440.31z"/>
	<path d="M429.101,343.441l-79.389,40.77c-6.73-6.97-16.16-11.317-26.591-11.317h-54.395c-3.046,0-3.789-0.242-3.84-0.259
		c-0.44-0.232-1.835-1.542-2.954-2.594l-0.495-0.467c-44.007-41.426-81.182-38.801-123.455-22.117
		c-6.84,2.7-6.972,2.706-13.841,2.999l-12.3,0.009c-3.504-10.57-13.476-18.221-25.206-18.221H46.641
		c-14.627,0-26.525,11.913-26.525,26.555v104.967c0,14.625,11.898,26.525,26.525,26.525h39.995c11.729,0,21.7-7.642,25.205-18.199
		h22.499c1.987,0,1.987,0,4.299,0.651c0.84,0.236,1.861,0.524,3.182,0.88l103.491,27.688c4.562,1.231,8.746,2.444,12.793,3.616
		c13.26,3.843,24.405,7.072,36.021,7.072c13.13,0,26.858-4.126,44.915-16.159c0.087-0.059,0.174-0.118,0.26-0.18l19.758-14.089
		c4.497-3.206,5.543-9.45,2.336-13.947c-3.207-4.498-9.453-5.543-13.947-2.336l-19.626,13.995
		c-26.203,17.428-37.33,14.206-64.151,6.435c-4.132-1.197-8.403-2.435-13.164-3.721l-103.5-27.688
		c-1.212-0.326-2.163-0.594-2.942-0.814c-3.776-1.063-5.188-1.399-9.722-1.399h-21.151v-81.622h10.807
		c0.144,0,0.285-0.003,0.43-0.01l0.57-0.023c8.383-0.357,10.728-0.587,20.329-4.378c37.128-14.651,65.787-16.393,102.416,18.09
		l0.495,0.465c6.26,5.883,9.865,8.278,20.49,8.278h54.395c6.384,0,11.951,3.545,14.853,8.766c0.031,0.058,0.067,0.112,0.1,0.171
		c1.296,2.396,2.034,5.139,2.034,8.051c0,9.351-7.619,16.957-16.985,16.957h-88.154c-5.521,0-10,4.478-10,10s4.479,10,10,10h88.154
		c20.394,0,36.984-16.579,36.984-36.957c0-2.771-0.316-5.466-0.896-8.063l79.025-40.584c7.479-3.84,17.708-3.428,22.785,4.813
		c4.492,7.263,2.021,16.916-5.743,22.452l-34.666,24.689c-4.499,3.204-5.549,9.448-2.346,13.946c1.951,2.739,5.029,4.2,8.154,4.2
		c2.007,0,4.033-0.603,5.792-1.854l34.67-24.692c16.466-11.739,21.258-32.917,11.155-49.247
		C468.106,339.42,447.069,334.218,429.101,343.441L429.101,343.441z M93.19,463.766c0,3.537-3.001,6.525-6.554,6.525H46.641
		c-3.538,0-6.526-2.989-6.526-6.525V358.8c0-3.614,2.929-6.555,6.526-6.555h39.995c3.553,0,6.554,3.001,6.554,6.555V463.766z"/>
</g>
</svg>
