<?xml version="1.0" encoding="utf-8"?>
<!-- Generator: Adobe Illustrator 16.0.0, SVG Export Plug-In . SVG Version: 6.00 Build 0)  -->
<!DOCTYPE svg PUBLIC "-//W3C//DTD SVG 1.1//EN" "http://www.w3.org/Graphics/SVG/1.1/DTD/svg11.dtd">
<svg version="1.1" id="Capa_1" xmlns="http://www.w3.org/2000/svg" xmlns:xlink="http://www.w3.org/1999/xlink" x="0px" y="0px"
	 width="595.279px" height="841.891px" viewBox="0 0 595.279 841.891" enable-background="new 0 0 595.279 841.891"
	 xml:space="preserve">
<g>
	<g>
		<path d="M6.82,437.404c0.008,0.008,0.014,0.016,0.021,0.022l121.502,120.916c9.102,9.058,23.825,9.026,32.886-0.079
			c9.06-9.102,9.024-23.824-0.078-32.884l-81.574-81.182h492.451c12.843,0,23.253-10.41,23.253-23.253s-10.41-23.253-23.253-23.253
			H79.575l81.576-81.182c9.103-9.06,9.138-23.782,0.078-32.885c-9.061-9.104-23.783-9.137-32.886-0.079L6.842,404.463
			c-0.009,0.008-0.015,0.016-0.021,0.022C-2.259,413.545-2.288,428.315,6.82,437.404z"/>
	</g>
</g>
</svg>
