<?xml version="1.0" encoding="utf-8"?>
<!-- Generator: Adobe Illustrator 16.0.0, SVG Export Plug-In . SVG Version: 6.00 Build 0)  -->
<!DOCTYPE svg PUBLIC "-//W3C//DTD SVG 1.1//EN" "http://www.w3.org/Graphics/SVG/1.1/DTD/svg11.dtd">
<svg version="1.1" id="Capa_1" xmlns="http://www.w3.org/2000/svg" xmlns:xlink="http://www.w3.org/1999/xlink" x="0px" y="0px"
	 width="436.548px" height="409.5px" viewBox="37.725 -7.5 436.548 409.5" enable-background="new 37.725 -7.5 436.548 409.5"
	 xml:space="preserve">
<g>
	<path fill="#40A3FF" d="M227.021,220.667c-0.926,0-1.838-0.244-2.637-0.706l-44.265-25.557c-1.222-0.705-2.095-1.843-2.459-3.205
		c-0.365-1.362-0.178-2.785,0.527-4.006l10.731-18.587c1.448-2.508,1.323-5.626-0.322-8.01c-2.479-3.592-4.687-7.423-6.564-11.388
		c-1.24-2.62-3.88-4.291-6.779-4.291h-21.476c-2.91,0-5.277-2.368-5.277-5.278V88.529c0-2.91,2.367-5.278,5.277-5.278h21.476
		c2.899,0,5.539-1.671,6.779-4.292c1.876-3.964,4.084-7.796,6.563-11.388c1.645-2.384,1.771-5.501,0.322-8.01l-10.731-18.588
		c-0.705-1.221-0.892-2.644-0.527-4.005c0.365-1.362,1.238-2.5,2.458-3.204l44.264-25.557c0.801-0.462,1.714-0.707,2.64-0.707
		c0.461,0,0.921,0.061,1.367,0.18c1.358,0.364,2.497,1.238,3.203,2.46l10.713,18.555c1.347,2.333,3.831,3.75,6.493,3.75
		c0.211,0,0.423-0.009,0.637-0.027c2.196-0.187,4.405-0.281,6.565-0.281c2.161,0,4.369,0.095,6.565,0.281
		c0.213,0.018,0.426,0.027,0.637,0.027c2.662,0,5.146-1.417,6.493-3.75l10.715-18.557c0.705-1.222,1.843-2.095,3.206-2.46
		c0.441-0.119,0.901-0.179,1.362-0.179c0.927,0,1.84,0.245,2.641,0.707l44.263,25.555c1.221,0.705,2.095,1.843,2.459,3.205
		c0.365,1.362,0.178,2.784-0.527,4.005l-10.731,18.587c-1.448,2.508-1.322,5.626,0.322,8.01c2.479,3.591,4.688,7.423,6.563,11.388
		c1.24,2.621,3.88,4.292,6.779,4.292h21.476c2.91,0,5.278,2.368,5.278,5.279v51.109c0,2.911-2.367,5.278-5.277,5.278h-21.476
		c-2.899,0-5.539,1.671-6.779,4.292c-1.877,3.966-4.085,7.797-6.563,11.386c-1.646,2.384-1.771,5.502-0.323,8.011l10.731,18.587
		c0.705,1.221,0.893,2.644,0.527,4.005c-0.364,1.362-1.238,2.5-2.459,3.204l-44.263,25.557c-0.801,0.462-1.714,0.707-2.64,0.707
		c-0.462,0-0.922-0.061-1.369-0.18c-1.357-0.364-2.496-1.238-3.201-2.458l-10.715-18.558c-1.348-2.333-3.831-3.75-6.493-3.75
		c-0.213,0-0.426,0.009-0.641,0.027c-2.194,0.188-4.402,0.283-6.561,0.283c-2.159,0-4.367-0.095-6.562-0.283
		c-0.214-0.019-0.428-0.027-0.64-0.027c-2.662,0-5.146,1.417-6.494,3.75l-10.714,18.559c-0.705,1.221-1.843,2.094-3.206,2.46
		C227.945,220.607,227.483,220.667,227.021,220.667z M256,69.083c-24.813,0-45,20.187-45,45s20.187,45,45,45
		c24.813,0,45-20.187,45-45S280.814,69.083,256,69.083z"/>
	<path d="M285.793,15.813l40.413,23.333l-9.62,16.663c-2.896,5.017-2.646,11.253,0.646,16.021c2.248,3.258,4.252,6.736,5.956,10.335
		c2.479,5.242,7.76,8.585,13.559,8.585H356v10.554v25.556v10.556h-19.253c-5.799,0-11.079,3.343-13.559,8.585
		c-1.704,3.6-3.707,7.077-5.955,10.333c-3.292,4.768-3.543,11.005-0.646,16.022l9.62,16.663l-40.414,23.334l-9.604-16.633
		c-2.694-4.667-7.662-7.5-12.986-7.5c-0.425,0-0.853,0.018-1.281,0.055c-1.983,0.169-3.977,0.255-5.922,0.255
		c-1.946,0-3.939-0.086-5.923-0.255c-0.429-0.037-0.855-0.055-1.281-0.055c-5.324,0-10.293,2.834-12.987,7.5l-9.603,16.634
		l-40.414-23.333l9.62-16.664c2.896-5.017,2.646-11.252-0.645-16.02c-2.25-3.259-4.254-6.737-5.958-10.336
		c-2.48-5.241-7.759-8.583-13.558-8.583H156V90.751h19.253c5.799,0,11.078-3.342,13.558-8.583c1.704-3.599,3.708-7.077,5.958-10.336
		c3.29-4.768,3.541-11.003,0.645-16.02l-9.62-16.663l40.414-23.334l9.603,16.632c2.694,4.667,7.662,7.5,12.986,7.5
		c0.422,0,0.848-0.018,1.273-0.054c1.986-0.168,3.981-0.254,5.93-0.254c1.95,0,3.945,0.086,5.93,0.254
		c0.426,0.036,0.851,0.054,1.273,0.054c5.323,0,10.292-2.834,12.986-7.5L285.793,15.813 M256,166.583
		c28.948,0,52.5-23.551,52.5-52.5s-23.552-52.5-52.5-52.5c-28.949,0-52.5,23.551-52.5,52.5S227.052,166.583,256,166.583 M284.978,0
		c-1.107,0-2.218,0.144-3.306,0.435c-3.273,0.878-6.064,3.019-7.758,5.954l-10.715,18.557c-2.418-0.206-4.809-0.308-7.2-0.308
		s-4.782,0.103-7.2,0.308L238.086,6.389c-1.695-2.935-4.486-5.076-7.758-5.954C229.241,0.144,228.129,0,227.022,0
		c-2.225,0-4.431,0.58-6.39,1.712l-44.263,25.556c-6.112,3.528-8.206,11.343-4.678,17.455l10.731,18.588
		c-2.72,3.941-5.114,8.096-7.17,12.44h-21.476c-7.057,0-12.777,5.721-12.777,12.778v51.111c0,7.057,5.721,12.778,12.777,12.778
		h21.476c2.056,4.343,4.45,8.498,7.17,12.439l-10.731,18.588c-3.528,6.112-1.435,13.927,4.678,17.455l44.263,25.556
		c1.958,1.131,4.165,1.711,6.389,1.711c1.107,0,2.219-0.144,3.308-0.435c3.272-0.878,6.063-3.019,7.758-5.954L248.8,203.22
		c2.417,0.207,4.809,0.31,7.2,0.31s4.782-0.103,7.2-0.31l10.715,18.557c1.694,2.935,4.485,5.076,7.758,5.954
		c1.088,0.291,2.2,0.435,3.308,0.435c2.225,0,4.431-0.581,6.39-1.712l44.263-25.556c6.111-3.528,8.206-11.343,4.677-17.455
		l-10.731-18.587c2.721-3.941,5.114-8.095,7.17-12.44h21.476c7.057,0,12.777-5.721,12.777-12.778V126.86v-25.556V88.528
		c-0.001-7.057-5.722-12.778-12.778-12.778h-21.476c-2.056-4.345-4.449-8.499-7.17-12.441l10.731-18.587
		c3.529-6.112,1.435-13.927-4.677-17.455L291.368,1.712C289.408,0.581,287.201,0,284.978,0L284.978,0z M256,151.583
		c-20.68,0-37.5-16.821-37.5-37.5s16.82-37.5,37.5-37.5c20.679,0,37.5,16.821,37.5,37.5S276.679,151.583,256,151.583L256,151.583z"
		/>
</g>
<path d="M105.936,185.648v-27.986h26.432v-25.579H93.147c-7.063,0-12.79,5.726-12.79,12.79v40.776
	c-9.916,2.331-19.018,7.361-26.399,14.745c-10.468,10.467-16.232,24.384-16.232,39.188c0,14.803,5.764,28.722,16.232,39.189
	c4.993,4.994,13.092,4.994,18.087,0c4.994-4.994,4.994-13.093,0-18.088c-11.636-11.635-11.636-30.568,0-42.204
	c5.636-5.636,13.13-8.74,21.102-8.74c7.971,0,15.465,3.104,21.102,8.74c11.635,11.635,11.635,30.569,0,42.204
	c-4.995,4.994-4.995,13.094,0,18.088c2.497,2.497,5.771,3.747,9.043,3.747c3.272,0,6.547-1.25,9.043-3.747
	c10.467-10.468,16.232-24.386,16.232-39.189c0-14.804-5.765-28.722-16.232-39.189C124.953,193.01,115.851,187.979,105.936,185.648z"
	/>
<path d="M458.042,200.392c-7.382-7.383-16.483-12.413-26.399-14.745v-40.775c0-7.063-5.727-12.79-12.789-12.79h-39.222v25.579
	h26.432v27.986c-9.916,2.332-19.018,7.362-26.399,14.745c-10.468,10.468-16.232,24.385-16.232,39.189
	c0,14.803,5.765,28.722,16.232,39.189c4.994,4.994,13.093,4.994,18.088,0c4.994-4.994,4.994-13.093,0-18.088
	c-11.636-11.635-11.636-30.568,0-42.204c5.636-5.636,13.13-8.74,21.102-8.74c7.971,0,15.465,3.104,21.101,8.74
	c11.636,11.635,11.636,30.569,0,42.204c-4.994,4.994-4.994,13.094,0,18.088c2.498,2.497,5.771,3.747,9.044,3.747
	s6.546-1.25,9.043-3.747c10.468-10.468,16.232-24.386,16.232-39.189C474.274,224.777,468.51,210.86,458.042,200.392L458.042,200.392
	z"/>
<path fill="#40A3FF" d="M293.5,312h-75c-8.284,0-15,6.716-15,15v75h105v-75C308.5,318.716,301.784,312,293.5,312z"/>
<path fill="#40A3FF" d="M143.5,312h-75c-8.284,0-15,6.716-15,15v75h105v-75C158.5,318.716,151.784,312,143.5,312z"/>
<path fill="#40A3FF" d="M368.5,312c-8.284,0-15,6.716-15,15v75h105v-75c0-8.284-6.717-15-15-15H368.5z"/>
</svg>
