<?xml version="1.0" encoding="utf-8"?>
<!-- Generator: Adobe Illustrator 16.0.0, SVG Export Plug-In . SVG Version: 6.00 Build 0)  -->
<!DOCTYPE svg PUBLIC "-//W3C//DTD SVG 1.1//EN" "http://www.w3.org/Graphics/SVG/1.1/DTD/svg11.dtd">
<svg version="1.1" id="Capa_1" xmlns="http://www.w3.org/2000/svg" xmlns:xlink="http://www.w3.org/1999/xlink" x="0px" y="0px"
	 width="612px" height="792px" viewBox="0 0 612 792" enable-background="new 0 0 612 792" xml:space="preserve">
<g>
	<g>
		<path d="M150.246,240.602c-6.598,0-11.953,5.355-11.953,11.953s5.355,11.953,11.953,11.953s11.953-5.355,11.953-11.953
			S156.844,240.602,150.246,240.602z"/>
	</g>
</g>
<g>
	<g>
		<path d="M580.418,474.871c-26.423-45.764-84.845-61.426-130.617-34.997l-48.551,28.03V364.108
			c0-12.832-4.244-25.565-11.952-35.857l-59.762-79.681v-33.93c13.91-4.934,23.904-18.219,23.904-33.802v-54.981
			C353.438,106.085,337.354,90,317.581,90H102.436c-19.772,0-35.858,16.085-35.858,35.857v54.982
			c0,15.581,9.994,28.868,23.905,33.802v33.93l-59.767,79.686c-7.705,10.287-11.948,23.02-11.948,35.851v231.484
			c0,32.954,26.81,59.763,59.762,59.763h192.089c26.8,44.923,84.588,59.958,129.887,33.802l144.915-83.668
			C590.789,579.289,606.973,520.885,580.418,474.871z M90.483,125.857c0-6.591,5.362-11.953,11.952-11.953H317.58
			c6.591,0,11.953,5.362,11.953,11.953v54.982c0,6.591-5.362,11.952-11.953,11.952H102.436c-6.591,0-11.952-5.362-11.952-11.952
			L90.483,125.857L90.483,125.857z M49.846,342.592l62.151-82.866c1.552-2.068,2.391-4.585,2.391-7.172v-35.857h191.241v23.905
			H198.056c-6.601,0-11.953,5.353-11.953,11.953c0,6.601,5.353,11.953,11.953,11.953h113.548l58.563,78.081
			c3.827,5.11,6.205,11.224,6.923,17.54H42.927C43.645,353.812,46.022,347.697,49.846,342.592z M78.531,631.449
			c-19.771,0-35.857-16.086-35.857-35.857v-12.071h217.158c-3.79,15.497-3.765,32.05,0.575,47.93L78.531,631.449L78.531,631.449z
			 M388.556,668.453c-34.302,19.808-78.134,8.094-97.955-26.231c-19.915-34.657-7.846-78.291,26.239-97.979l64.879-37.458
			l71.715,124.211L388.556,668.453z"/>
	</g>
</g>
<path fill="#40A3FF" d="M269.207,559.734H42.673V384.031h334.671v97.673l-72.459,41.838
	C289.777,532.27,277.566,544.692,269.207,559.734z"/>
<g>
	<g>
		<path d="M257.818,464.113h-35.857v-35.856c0-6.601-5.353-11.953-11.953-11.953c-6.6,0-11.952,5.353-11.952,11.953v35.856h-35.857
			c-6.601,0-11.953,5.354-11.953,11.952c0,6.6,5.353,11.953,11.953,11.953h35.857v35.857c0,6.601,5.353,11.953,11.952,11.953
			c6.6,0,11.953-5.353,11.953-11.953v-35.857h35.857c6.6,0,11.953-5.353,11.953-11.953S264.42,464.113,257.818,464.113z"/>
	</g>
</g>
<path fill="#40A3FF" d="M533.468,584.786l-59.331,34.257L402.42,494.83l59.333-34.253c34.324-19.816,78.141-8.082,97.962,26.245
	C579.623,521.321,567.517,565.125,533.468,584.786z"/>
</svg>
