<?xml version="1.0" encoding="utf-8"?>
<!-- Generator: Adobe Illustrator 16.0.0, SVG Export Plug-In . SVG Version: 6.00 Build 0)  -->
<!DOCTYPE svg PUBLIC "-//W3C//DTD SVG 1.1//EN" "http://www.w3.org/Graphics/SVG/1.1/DTD/svg11.dtd">
<svg version="1.1" id="Capa_1" xmlns="http://www.w3.org/2000/svg" xmlns:xlink="http://www.w3.org/1999/xlink" x="0px" y="0px"
	 width="612px" height="792px" viewBox="0 0 612 792" enable-background="new 0 0 612 792" xml:space="preserve">
<g>
	<g>
		<path d="M427.53,339.822l-0.805-0.001c-6.601,0-11.953,5.351-11.953,11.953c0,6.602,5.353,11.953,11.953,11.953l0.692,0.001
			c0.019,0,0.037,0,0.058,0c6.575,0,11.921-5.314,11.951-11.897C439.457,345.23,434.131,339.854,427.53,339.822z"/>
	</g>
</g>
<g>
	<g>
		<path d="M390.869,626.695l-0.692-0.002c-6.632-0.012-11.977,5.294-12.007,11.896c-0.031,6.602,5.298,11.979,11.898,12.01
			l0.801,0.002c6.601,0,11.953-5.353,11.953-11.953S397.47,626.695,390.869,626.695z"/>
	</g>
</g>
<g>
	<g>
		<path d="M463.074,299.38c-1.455-3.466-3.237-6.733-5.311-9.763h31.118c30.318,0,54.984-24.667,54.984-54.984
			c0-30.318-24.666-54.984-54.984-54.984h-95.721c6.086-8.848,9.658-19.552,9.658-31.078c0-30.318-24.666-54.984-54.984-54.984
			H54.984C24.667,93.586,0,118.252,0,148.57s24.667,54.984,54.984,54.984h95.72c-6.085,8.848-9.658,19.552-9.658,31.078
			s3.572,22.23,9.658,31.078h-31.173c-30.318,0-54.984,24.667-54.984,54.984c0,17.412,8.145,32.95,20.816,43.031
			c-12.672,10.081-20.816,25.619-20.816,43.031c0,17.412,8.145,32.95,20.816,43.031c-12.672,10.081-20.816,25.619-20.816,43.031
			s8.145,32.95,20.816,43.031c-12.672,10.081-20.816,25.619-20.816,43.031c0,30.318,24.667,54.984,54.984,54.984h140.867
			c37.109,39.692,89.901,64.548,148.398,64.548C520.844,698.414,612,607.258,612,495.211
			C612,401.957,548.852,323.185,463.074,299.38z M488.882,203.555c17.138,0,31.078,13.942,31.078,31.078
			c0,17.136-13.94,31.078-31.078,31.078h-76.5H196.031c-17.137,0-31.078-13.942-31.078-31.078c0-17.136,13.941-31.078,31.078-31.078
			H488.882z M54.984,179.648c-17.137,0-31.078-13.942-31.078-31.078c0-17.136,13.941-31.078,31.078-31.078h292.851
			c17.138,0,31.078,13.942,31.078,31.078c0,17.136-13.94,31.078-31.078,31.078H54.984z M119.531,289.617h292.851
			c4.814,0,9.425,1.119,13.561,3.122c-5.653-0.474-11.369-0.73-17.146-0.73c-56.113,0-106.986,22.865-143.794,59.764H119.531
			c-17.136,0-31.078-13.942-31.078-31.078C88.453,303.559,102.395,289.617,119.531,289.617z M119.531,375.679h125.047
			c-13.569,18.591-24.061,39.559-30.723,62.156h-94.324c-17.137,0-31.078-13.94-31.078-31.078
			C88.453,389.621,102.394,375.679,119.531,375.679z M119.531,461.741h88.835c-1.813,10.894-2.772,22.07-2.772,33.47
			c0,9.737,0.704,19.312,2.034,28.687h-88.098c-17.137,0-31.078-13.94-31.078-31.078
			C88.453,475.683,102.394,461.741,119.531,461.741z M119.531,609.96c-17.137,0-31.078-13.94-31.078-31.078
			c0-17.137,13.941-31.078,31.078-31.078h92.978c6.032,22.487,15.83,43.445,28.679,62.156H119.531z"/>
	</g>
</g>
<path fill="#40A3FF" d="M408.797,674.508c-98.863,0-179.296-80.433-179.296-179.297c0-98.863,80.433-179.296,179.296-179.296
	c98.864,0,179.297,80.433,179.297,179.296C588.094,594.075,507.661,674.508,408.797,674.508z"/>
<g>
	<g>
		<path d="M408.741,482.489c-14.5,0-26.297-10.21-26.297-22.76c0-12.551,11.797-22.761,26.297-22.761s26.297,10.21,26.297,22.761
			c0,6.601,5.353,11.953,11.953,11.953s11.953-5.353,11.953-11.953c0-21.903-16.321-40.321-38.25-45.32v-6.217
			c0-6.601-5.353-11.953-11.953-11.953s-11.953,5.353-11.953,11.953v6.217c-21.93,4.999-38.25,23.417-38.25,45.32
			c0,25.731,22.521,46.666,50.203,46.666c14.5,0,26.297,10.211,26.297,22.762s-11.797,22.761-26.297,22.761
			s-26.297-10.21-26.297-22.761c0-6.601-5.353-11.953-11.953-11.953s-11.953,5.353-11.953,11.953c0,21.904,16.32,40.321,38.25,45.32
			v5.163c0,6.601,5.353,11.953,11.953,11.953s11.953-5.353,11.953-11.953v-5.163c21.929-4.999,38.25-23.416,38.25-45.32
			C458.944,503.425,436.423,482.489,408.741,482.489z"/>
	</g>
</g>
<g>
	<g>
		<path d="M539.661,411.391c-15.614-24.331-37.613-43.8-63.617-56.301c-5.951-2.861-13.093-0.356-15.952,5.594
			c-2.86,5.95-0.356,13.091,5.594,15.951c45.315,21.784,74.595,68.328,74.595,118.576c0,21.502-5.3,42.825-15.325,61.668
			c-3.101,5.827-0.891,13.065,4.938,16.166c1.789,0.952,3.711,1.403,5.604,1.403c4.277,0,8.414-2.302,10.563-6.341
			c11.858-22.285,18.127-47.493,18.127-72.896C564.187,465.376,555.706,436.392,539.661,411.391z"/>
	</g>
</g>
<g>
	<g>
		<path d="M351.908,613.787c-45.314-21.784-74.594-68.328-74.594-118.576c0-21.501,5.3-42.824,15.325-61.667
			c3.101-5.827,0.89-13.065-4.938-16.166c-5.826-3.101-13.067-0.891-16.167,4.938c-11.859,22.286-18.127,47.493-18.127,72.896
			c0,29.835,8.48,58.819,24.525,83.821c15.614,24.331,37.613,43.8,63.617,56.302c1.67,0.804,3.434,1.183,5.171,1.183
			c4.451,0,8.723-2.497,10.781-6.776C360.361,623.79,357.858,616.647,351.908,613.787z"/>
	</g>
</g>
</svg>
