<?xml version="1.0" encoding="utf-8"?>
<!-- Generator: Adobe Illustrator 16.0.0, SVG Export Plug-In . SVG Version: 6.00 Build 0)  -->
<!DOCTYPE svg PUBLIC "-//W3C//DTD SVG 1.1//EN" "http://www.w3.org/Graphics/SVG/1.1/DTD/svg11.dtd">
<svg version="1.1" id="bold" xmlns="http://www.w3.org/2000/svg" xmlns:xlink="http://www.w3.org/1999/xlink" x="0px" y="0px"
	 width="512px" height="512px" viewBox="0 0 512 512" enable-background="new 0 0 512 512" xml:space="preserve">
<circle fill="#FFFFFF" cx="426.666" cy="64" r="42.667"/>
<circle fill="#FFFFFF" cx="85.333" cy="64" r="42.667"/>
<circle fill="#FFFFFF" cx="256" cy="64" r="64"/>
<path fill="#FFFFFF" d="M16,213.333h37.333V416c0,35.285,28.715,64,64,64h85.333v16c0,8.832,7.168,16,16,16h74.667
	c8.832,0,16-7.168,16-16v-16h85.333c35.285,0,64-28.715,64-64V213.333H496c8.746,0,16-7.253,16-16v-10.667
	C512,154.24,485.76,128,453.333,128H400c-13.867,0-26.454,4.693-36.48,12.587c26.88,14.933,46.293,41.387,51.2,72.747H416V416
	c0,11.755-9.579,21.333-21.334,21.333h-85.333v-16c0-8.832-7.168-16-16-16h-16V277.334h80c8.832,0,16-7.168,16-16v-32
	c0-32.363-26.304-58.667-58.667-58.667H197.333c-32.362,0-58.667,26.304-58.667,58.667v32c0,8.832,7.168,16,16,16h80v127.999h-16
	c-8.832,0-16,7.168-16,16v16h-85.333C105.578,437.333,96,427.755,96,416V213.333h1.279c4.907-31.36,24.32-57.813,51.2-72.747
	C138.453,132.693,125.866,128,112,128H58.666C26.24,128,0,154.24,0,186.667v10.667C0,206.08,7.253,213.333,16,213.333z"/>
</svg>
