<?xml version="1.0" encoding="utf-8"?>
<!-- Generator: Adobe Illustrator 16.0.0, SVG Export Plug-In . SVG Version: 6.00 Build 0)  -->
<!DOCTYPE svg PUBLIC "-//W3C//DTD SVG 1.1//EN" "http://www.w3.org/Graphics/SVG/1.1/DTD/svg11.dtd">
<svg version="1.1" id="Capa_1" xmlns="http://www.w3.org/2000/svg" xmlns:xlink="http://www.w3.org/1999/xlink" x="0px" y="0px"
	 width="512px" height="512px" viewBox="0 0 512 512" enable-background="new 0 0 512 512" xml:space="preserve">
<g>
	<path d="M10,511.991h491.983c5.522,0,10-4.479,10-10v-65.997c0-18.604-12.767-34.281-29.999-38.733v-56.263c0-5.521-4.478-10-10-10
		s-10,4.479-10,10v56.263c-17.232,4.452-29.999,20.13-29.999,38.733v55.997H355.14l-28.042-316.037l84.628-21.942l12.961,48.368
		c1.438,5.369,6.963,8.501,12.27,7.063l25.028-6.768v48.322c0,5.522,4.478,10,10,10s10-4.478,10-10v-53.738l12.378-3.345
		c3.043-0.822,5.521-3.031,6.684-5.959c0.809-2.032,19.618-50.34,6.057-100.979C493.549,36.42,453.708,3.619,452.018,2.247
		c-2.506-2.034-5.839-2.735-8.951-1.879l-57.958,15.919c-5.302,1.456-8.434,6.92-7.011,12.23l12.922,48.22L29.647,170.435
		C12.191,175.119,0,191.007,0,209.073c0,26.406,25.063,45.404,50.269,38.658l9.729-2.523v60.791h-20
		c-3.788,0-7.25,2.141-8.944,5.527L1.056,371.523C0.361,372.912,0,374.443,0,375.996v125.995C0,507.514,4.477,511.991,10,511.991
		L10,511.991z M149.995,385.996v105.995H79.997V385.996H149.995z M332.761,466.049l-73.78-104.053h64.548L332.761,466.049z
		 M320.197,324.457L270.924,272h44.62L320.197,324.457z M309.236,341.997h-59.028l5.088-57.423L309.236,341.997z M246.884,379.513
		l79.755,112.479h-89.722L246.884,379.513z M313.77,252h-55.586l5.275-59.546l44.016-11.413L313.77,252z M45.171,228.391
		C32.473,231.789,20,222.229,20,209.073c0-9.033,6.099-16.979,14.75-19.3l361.446-93.718l10.354,38.64
		C325.771,155.639,120.022,208.984,45.171,228.391z M79.997,240.022l162.913-42.239c-0.038,0.43-26.062,294.108-26.07,294.208
		h-46.845V375.996c0-5.521-4.477-10-10-10h-19.999v-49.998c0-5.521-4.477-10-10-10H79.997V240.022z M20,378.356l26.179-52.358
		h73.817v39.999H69.998c-5.523,0-10,4.478-10,9.999v115.997H20V378.356z"/>
	<circle cx="471.983" cy="295.999" r="10"/>
</g>
<path fill="#40A3FF" d="M443.144,21.086c9.594,8.92,35.028,35.212,44.641,71.066c9.58,35.776,0.214,71.44-3.745,83.837
	c-57.134,15.458-38.972,10.544-42.629,11.534L399.987,32.939L443.144,21.086z"/>
<path fill="#40A3FF" d="M451.984,435.994c0-11.028,8.972-20,19.999-20s19.999,8.972,19.999,20v55.997h-39.998V435.994z"/>
</svg>
