<?xml version="1.0" encoding="utf-8"?>
<!-- Generator: Adobe Illustrator 16.0.0, SVG Export Plug-In . SVG Version: 6.00 Build 0)  -->
<!DOCTYPE svg PUBLIC "-//W3C//DTD SVG 1.1//EN" "http://www.w3.org/Graphics/SVG/1.1/DTD/svg11.dtd">
<svg version="1.1" id="Layer_5" xmlns="http://www.w3.org/2000/svg" xmlns:xlink="http://www.w3.org/1999/xlink" x="0px" y="0px"
	 width="464px" height="464px" viewBox="24 24 464 464" enable-background="new 24 24 464 464" xml:space="preserve">
<g>
	<path fill="#FFFFFF" d="M424,376c-10.416,0-19.218,6.712-22.528,16H232v16h169.472c3.312,9.288,12.112,16,22.528,16
		c13.23,0,24-10.768,24-24S437.232,376,424,376z"/>
	<path fill="#FFFFFF" d="M360,440c-10.416,0-19.218,6.712-22.528,16h-14.16l-32-32H232v16h52.688l32,32h20.784
		c3.312,9.288,12.112,16,22.528,16c13.23,0,24-10.768,24-24S373.232,440,360,440z"/>
	<path fill="#FFFFFF" d="M337.472,344c3.312,9.288,12.112,16,22.528,16c13.23,0,24-10.768,24-24s-10.77-24-24-24
		c-10.416,0-19.218,6.712-22.528,16h-20.784l-32,32H232v16h59.312l32-32H337.472z"/>
	<path fill="#FFFFFF" d="M24,307.313V488h192V248H83.312L24,307.313z M40,328h16v16H40V328z M200,472H40v-16h16v-48h16v48h16v-32h16
		v32h16v-16h16v16h16v-48h16v48h16v-64h16V472z M200,376H40v-16h160V376z M200,344H72v-16h128V344z M112,272h80v32h-80V272z M96,312
		H40l56-56V312z"/>
	<path fill="#FFFFFF" d="M464.448,217.256l-16.96,16.96l-19.912-11.832c-2.536,1.176-5.096,2.248-7.646,3.2L414.216,248h-60.44
		l-5.704-22.416c-2.552-0.952-5.11-2.024-7.646-3.2l-19.912,11.832l-42.736-42.736l11.842-19.912
		c-1.178-2.536-2.248-5.104-3.2-7.648L264,158.216v-60.44l22.416-5.704c0.128-0.353,0.304-0.704,0.438-1.048
		C279.44,89.032,271.792,88,264,88c-48.521,0-88,39.48-88,88v8h-8c-26.474,0-48,21.528-48,48h112v48h224c17.646,0,32-14.352,32-32
		C488,233.552,478.078,221.024,464.448,217.256L464.448,217.256z M208,176c0,2.376,0.15,4.712,0.432,7.008l-15.872,1.984
		c-0.376-2.952-0.56-5.976-0.56-8.992c0-25.624,13.792-49.52,36-62.36l8.008,13.84C218.728,137.48,208,156.072,208,176L208,176z"/>
	<path fill="#FFFFFF" d="M469.168,105.44l-1.354-4.224c-1.432-4.48-3.32-9.008-5.632-13.488l-2.032-3.936l9.968-16.76
		l-25.144-25.144l-16.77,9.968l-3.942-2.048c-4.464-2.304-8.992-4.2-13.464-5.632l-4.226-1.344L401.782,24h-35.56l-4.792,18.832
		l-4.232,1.344c-4.472,1.432-9,3.328-13.464,5.632l-3.942,2.048l-16.77-9.968L297.88,67.032l9.968,16.76l-2.032,3.936
		c-2.312,4.48-4.2,9.008-5.632,13.488l-1.352,4.224L280,110.216v35.56l18.832,4.784l1.352,4.224c1.434,4.48,3.32,9.008,5.632,13.488
		l2.032,3.936l-9.968,16.76l25.144,25.144l16.77-9.968l3.942,2.048c4.464,2.304,8.992,4.2,13.464,5.632l4.226,1.344L366.216,232
		h35.56l4.792-18.832l4.224-1.344c4.474-1.432,9-3.328,13.466-5.632l3.942-2.048l16.77,9.968l25.144-25.144l-9.968-16.76
		l2.032-3.936c2.312-4.48,4.2-9.008,5.632-13.488l1.352-4.224l18.84-4.776v-35.56L469.168,105.44z M384,192
		c-35.346,0-64-28.656-64-64s28.654-64,64-64c35.344,0,64,28.656,64,64S419.344,192,384,192z"/>
	<circle fill="#FFFFFF" cx="384" cy="128" r="32"/>
</g>
</svg>
