<svg xmlns="http://www.w3.org/2000/svg" xmlns:xlink="http://www.w3.org/1999/xlink" width="1920.394" height="661" viewBox="0 0 1920.394 661">
  <defs>
    <linearGradient id="linear-gradient" x1="0.042" y1="0.5" x2="0.635" y2="0.5" gradientUnits="objectBoundingBox">
      <stop offset="0" stop-color="#14aae3"/>
      <stop offset="1" stop-color="#132437"/>
    </linearGradient>
    <linearGradient id="linear-gradient-2" x1="0.289" y1="0.5" x2="0.744" y2="0.5" xlink:href="#linear-gradient"/>
    <linearGradient id="linear-gradient-3" x1="0.042" y1="0.5" x2="0.635" y2="0.5" gradientUnits="objectBoundingBox">
      <stop offset="0" stop-color="#14a7df"/>
      <stop offset="1" stop-color="#005474"/>
    </linearGradient>
  </defs>
  <g id="our_journey" data-name="our journey" transform="translate(0.394 -221)">
    <g id="Group_160" data-name="Group 160" transform="translate(1436 349)">
      <path id="Path_689" data-name="Path 689" d="M1052.985,230.7H821.293L705.446,431.358,821.293,632.009h231.693l115.847-200.651Z" transform="translate(-705.446 -230.704)" fill="#fff"/>
    </g>
    <g id="Group_162" data-name="Group 162" transform="translate(957 349)">
      <path id="Path_692" data-name="Path 692" d="M893.945,230.7H662.252L546.405,431.358,662.252,632.009H893.945l115.847-200.651Z" transform="translate(-546.405 -230.704)" fill="#fff"/>
    </g>
    <path id="Path_699" data-name="Path 699" d="M880.632,612.914a25.278,25.278,0,0,1-21.892,12.639H684.708a25.282,25.282,0,0,1-21.892-12.639L601.323,506.393a25.282,25.282,0,0,0-43.82.057l-.012.021a25.285,25.285,0,0,0,.033,25.223l76.083,131.8a25.293,25.293,0,0,0,21.9,12.638H887.95a25.282,25.282,0,0,0,21.892-12.638c143.133-247.88,105.467-182.846,217.8-377.312a25.274,25.274,0,0,1,21.889-12.635h174.035a25.278,25.278,0,0,1,21.892,12.638l87.029,150.727a25.275,25.275,0,0,1,0,25.28l-87.029,150.727a25.282,25.282,0,0,1-21.892,12.635H1149.534a25.273,25.273,0,0,1-21.889-12.639l-61.31-106.2a25.279,25.279,0,0,0-43.817.057l-.012.018a25.285,25.285,0,0,0,.033,25.222l75.9,131.479a25.285,25.285,0,0,0,21.892,12.641h232.448a25.279,25.279,0,0,0,21.889-12.638l116.212-201.3a25.283,25.283,0,0,0,0-25.277l-116.212-201.3a25.266,25.266,0,0,0-21.889-12.638H1120.328a25.272,25.272,0,0,0-21.892,12.638C594.924,1107.81,1161.456,126.479,880.632,612.914Z" transform="translate(425.739 102.628)" fill="url(#linear-gradient)"/>
    <g id="Group_168" data-name="Group 168" transform="translate(490 349)">
      <path id="Path_704" data-name="Path 704" d="M584.085,230.7H352.39L236.544,431.358,352.39,632.009H584.085L699.931,431.358Z" transform="translate(-236.544 -230.704)" fill="#fff"/>
    </g>
    <path id="Path_706" data-name="Path 706" d="M596.964,663.5a25.3,25.3,0,0,1-21.892,12.647H342.609A25.358,25.358,0,0,1,320.72,663.5L244.691,531.768a25.3,25.3,0,0,1,0-25.268v-.024a25.275,25.275,0,0,1,43.784,0l61.448,106.443a25.309,25.309,0,0,0,21.892,12.647H545.868a25.309,25.309,0,0,0,21.892-12.647C656.22,459.464,690.184,400.7,785.468,235.61a25.3,25.3,0,0,1,21.889-12.644h232.411a25.246,25.246,0,0,1,21.892,12.644L1138.328,368.4a25.289,25.289,0,0,1-9.657,34.777h0a25.291,25.291,0,0,1-34.148-9.489l-62.042-107.494a25.247,25.247,0,0,0-21.892-12.644H836.563a25.247,25.247,0,0,0-21.892,12.644S683.255,514.049,596.964,663.5Z" transform="translate(263.302 102.62)" fill="url(#linear-gradient-2)"/>
    <g id="Group_170" data-name="Group 170" transform="translate(27 349)">
      <path id="Path_707" data-name="Path 707" d="M430.164,230.7H198.471L82.623,431.358,198.471,632.009H430.164L546.012,431.358Z" transform="translate(-82.623 -230.704)" fill="#fff"/>
    </g>
    <path id="Path_709" data-name="Path 709" d="M687.235,286.186a25.278,25.278,0,0,1,21.892-12.641H883.158a25.275,25.275,0,0,1,21.892,12.641l61.5,106.518a25.281,25.281,0,0,0,43.82-.057l.009-.018a25.277,25.277,0,0,0-.03-25.223l-76.086-131.8a25.275,25.275,0,0,0-21.892-12.638H679.92a25.279,25.279,0,0,0-21.892,12.635c-.03.054-166.208,287.979-217.8,377.312a25.264,25.264,0,0,1-21.889,12.635H244.3a25.282,25.282,0,0,1-21.892-12.635L135.38,462.19a25.274,25.274,0,0,1,0-25.28l87.029-150.727A25.278,25.278,0,0,1,244.3,273.545H418.332a25.278,25.278,0,0,1,21.892,12.641l61.307,106.2a25.281,25.281,0,0,0,43.82-.054l.012-.021a25.286,25.286,0,0,0-.033-25.22l-75.9-131.482a25.287,25.287,0,0,0-21.9-12.638H215.095A25.272,25.272,0,0,0,193.2,235.608L76.994,436.91a25.269,25.269,0,0,0,0,25.277L193.2,663.492a25.285,25.285,0,0,0,21.892,12.638H447.539a25.293,25.293,0,0,0,21.9-12.638C493.163,622.4,512.98,588.068,687.235,286.186Z" transform="translate(-74 102.628)" fill="url(#linear-gradient-3)"/>
    <text id="Owner_in_Data_Warehouse_since_20_Years" data-name="Owner in Data Warehouse
since 20+ Years" transform="translate(258 250)" fill="#132437" font-size="30" font-family="Roboto-Bold, Roboto" font-weight="700"><tspan x="-173.291" y="0">Owner in Data Warehouse</tspan><tspan x="-107.021" y="37">since 20+ Years</tspan></text>
    <text id="On-Site_Off-Shore_Model_To_Optimize_The_Cost_" data-name="On-Site Off-Shore Model
To Optimize The Cost " transform="translate(1188 250)" fill="#132437" font-size="30" font-family="Roboto-Bold, Roboto" font-weight="700"><tspan x="-167.036" y="0">On-Site Off-Shore Model</tspan><tspan x="-148.03" y="37">To Optimize The Cost </tspan></text>
    <text id="Cloud_Security_Data_Analytics_is_in_our_DNA" data-name="Cloud Security, Data 
&amp; Analytics is in our DNA" transform="translate(722 837)" fill="#132437" font-size="30" font-family="Roboto-Bold, Roboto" font-weight="700"><tspan x="-139.255" y="0">Cloud Security, Data </tspan><tspan x="-167.769" y="37">&amp; Analytics is in our DNA</tspan></text>
    <text id="Global_COE_to_Support_The_Project" data-name="Global COE to Support
The Project" transform="translate(1667 837)" fill="#132437" font-size="30" font-family="Roboto-Bold, Roboto" font-weight="700"><tspan x="-150.176" y="0">Global COE to Support</tspan><tspan x="-77.776" y="37">The Project</tspan></text>
    <g id="Icon_feather-database" data-name="Icon feather-database" transform="translate(211.012 498.568)">
      <path id="Path_710" data-name="Path 710" d="M91.2,17.45c0,7.981-19.409,14.45-43.351,14.45S4.5,25.431,4.5,17.45,23.909,3,47.851,3,91.2,9.47,91.2,17.45Z" transform="translate(0 0)" fill="none" stroke="#132437" stroke-linecap="round" stroke-linejoin="round" stroke-width="5"/>
      <path id="Path_711" data-name="Path 711" d="M91.2,18c0,8-19.267,14.45-43.351,14.45S4.5,26,4.5,18" transform="translate(0 33.168)" fill="none" stroke="#132437" stroke-linecap="round" stroke-linejoin="round" stroke-width="5"/>
      <path id="Path_712" data-name="Path 712" d="M4.5,7.5V74.935c0,8,19.267,14.45,43.351,14.45S91.2,82.931,91.2,74.935V7.5" transform="translate(0 9.95)" fill="none" stroke="#132437" stroke-linecap="round" stroke-linejoin="round" stroke-width="5"/>
    </g>
    <path id="Icon_ionic-md-globe" data-name="Icon ionic-md-globe" d="M45.515,3.375a42.14,42.14,0,1,0,42.14,42.14A42.139,42.139,0,0,0,45.515,3.375Zm-4.366,78A36.124,36.124,0,0,1,18.026,22.083a40.024,40.024,0,0,1,.408,4.9c-.332,4.821-.808,7.838,2.014,11.9,1.1,1.584,1.369,3.855,1.9,5.688.523,1.794,2.614,2.735,4.056,3.84,2.909,2.23,5.692,4.823,8.777,6.786,2.036,1.3,3.308,1.94,2.711,4.424a15.7,15.7,0,0,1-1.647,5.009c-.315.543,1.191,4.035,1.692,4.536,1.519,1.519,3.026,2.912,4.682,4.28C45.19,75.57,42.373,78.325,41.149,81.373ZM71.055,71.055A35.862,35.862,0,0,1,52.3,81a14.983,14.983,0,0,1,4.436-5.949,15.091,15.091,0,0,0,3.99-4.934,34.271,34.271,0,0,1,2.751-4.7c1.431-2.208-3.529-5.538-5.136-6.236-3.617-1.57-6.34-3.689-9.555-5.951-2.29-1.611-6.94.842-9.526-.287-3.542-1.546-6.459-4.233-9.538-6.552-3.177-2.392-3.023-5.182-3.023-8.711,2.488.092,6.028-.689,7.68,1.312.521.631,2.314,3.453,3.513,2.45.98-.819-.726-4.1-1.056-4.874-1.014-2.373,2.31-3.3,4.012-4.908,2.22-2.1,6.983-5.393,6.607-6.9s-4.766-5.769-7.344-5.1c-.386.1-3.788,3.666-4.445,4.226q.026-1.746.053-3.492c.011-.735-1.371-1.489-1.307-1.964.162-1.2,3.5-3.373,4.327-4.327-.581-.363-2.565-2.067-3.165-1.817-1.453.606-3.095,1.023-4.548,1.629a9.251,9.251,0,0,0-.134-1.445A35.775,35.775,0,0,1,40.074,9.8l2.853,1.147,2.015,2.391,2.011,2.073,1.757.566L51.5,13.344l-.72-1.879V9.775a35.725,35.725,0,0,1,15.3,6.037c-.817.073-1.715.193-2.727.322a9.078,9.078,0,0,0-1.411-.531c1.323,2.845,2.7,5.65,4.105,8.457,1.5,3,4.82,6.215,5.4,9.38.688,3.731.21,7.12.587,11.51.362,4.227,4.766,9.03,4.766,9.03a9.543,9.543,0,0,0,3.724.451A35.9,35.9,0,0,1,71.055,71.055Z" transform="translate(1142.543 504.414)" fill="#132437"/>
    <path id="Icon_open-chat" data-name="Icon open-chat" d="M0,0V59.925L11.985,47.94H23.97V11.985H59.925V0ZM35.955,23.97V71.91h47.94L95.879,83.895V23.97Z" transform="translate(1620.198 508.173)" fill="#132437" stroke="#132437" stroke-width="1"/>
    <path id="Icon_ionic-ios-cloud-done" data-name="Icon ionic-ios-cloud-done" d="M115.12,41.989a39.5,39.5,0,0,0-71.769-18.2,18.669,18.669,0,0,0-7.085-1.4c-10.3,0-18.647,9.06-18.8,19.332C6.953,45.071,0,55.342,0,66.14,0,79.362,10.719,91.029,23.941,91.029h86.992c13.221,0,23.941-11.667,23.941-24.889C134.847,54.368,126.34,43.991,115.12,41.989Z" transform="translate(654.97 501.039)" fill="none" stroke="#132437" stroke-width="5"/>
    <path id="Icon_material-security" data-name="Icon material-security" d="M24.786,1.5,4.5,10.516V24.04c0,12.51,8.655,24.208,20.286,27.048C36.417,48.248,45.072,36.55,45.072,24.04V10.516Zm0,24.772H40.564c-1.195,9.287-7.393,17.559-15.778,20.151V26.294H9.008V13.446l15.778-7.01Z" transform="translate(697.775 525.184)" fill="#132437"/>
  </g>
</svg>
