<svg xmlns="http://www.w3.org/2000/svg" width="480.014" height="400" viewBox="0 0 480.014 400">
  <g id="Out_line" data-name="Out line" transform="translate(-15.992 -56)">
    <path id="Path_160" data-name="Path 160" d="M152,376V360H96A64,64,0,0,1,71.6,236.839,134.682,134.682,0,0,0,81,257.9l13.99-7.764a119.98,119.98,0,1,1,222.9-35.625l15.72,2.982a136.951,136.951,0,0,0,2.354-22.739,48.041,48.041,0,0,1,43.455,5.847l9.154-13.123a64.024,64.024,0,0,0-53.272-9.261C328.375,109.674,270.338,56,200,56,125.009,56,64,117.009,64,192a136.413,136.413,0,0,0,3.213,29.376A79.99,79.99,0,0,0,96,376Z" fill="#2196f3"/>
    <path id="Path_161" data-name="Path 161" d="M424,232H408v16h16a56.008,56.008,0,0,1,27.994,104.513l8.012,13.85A72.008,72.008,0,0,0,424,232Z" fill="#2196f3"/>
    <path id="Path_162" data-name="Path 162" d="M440,296a8,8,0,0,0-8-8H368a8,8,0,0,0-8,8V440H344V344a8,8,0,0,0-8-8H272a8,8,0,0,0-8,8v96H248V328a8,8,0,0,0-8-8H176a8,8,0,0,0-8,8V440H152V400a8,8,0,0,0-8-8H80a8,8,0,0,0-8,8v40H56v16H456V440H440ZM88,440V408h48v32Zm96,0V336h48V440Zm96,0V352h48v88Zm96,0V304h48V440Z" fill="#2196f3"/>
    <path id="Path_163" data-name="Path 163" d="M302.42,302.266l-90.843-45.421a8,8,0,0,0-8.7,1.01l-96,80,10.243,12.291,91.98-76.65,91.32,45.66a8,8,0,0,0,9.234-1.5L440,187.313V216h16V168a8,8,0,0,0-8-8H400v16h28.686Z" fill="#2196f3"/>
  </g>
</svg>
