<svg xmlns="http://www.w3.org/2000/svg" width="480" height="480" viewBox="0 0 480 480">
  <g id="Outline" transform="translate(-16 -16)">
    <path id="Path_79" data-name="Path 79" d="M202.168,202.465A36.323,36.323,0,0,0,263.216,168H296a8,8,0,0,0,8-8V58a42.047,42.047,0,0,0-42-42H58A42.047,42.047,0,0,0,16,58V262a42.047,42.047,0,0,0,42,42H160a8,8,0,0,0,8-8V250.667a8,8,0,0,0-12.806-6.4,20.333,20.333,0,1,1,0-32.534,8,8,0,0,0,12.8-6.4V168h24.786a36.5,36.5,0,0,0-1.115,8.463A36.053,36.053,0,0,0,202.168,202.465ZM32,58A26.029,26.029,0,0,1,58,32h94V69.333a8,8,0,0,0,12.8,6.4,20.333,20.333,0,1,1,0,32.542,8,8,0,0,0-12.806,6.4V152H121.55a36.386,36.386,0,0,0-35.217-45.333c-19.948,0-36.62,16.951-36.329,36.871A36.491,36.491,0,0,0,51.119,152H32ZM143.537,191.671A36.335,36.335,0,1,0,152,263.216V288H58a26.029,26.029,0,0,1-26-26V168H63.666a8,8,0,0,0,6.4-12.8A20.173,20.173,0,0,1,66,143.306a20.616,20.616,0,0,1,20.333-20.639A20.355,20.355,0,0,1,106.667,143a20.147,20.147,0,0,1-4.063,12.194A8,8,0,0,0,109,168h43v24.786a36.5,36.5,0,0,0-8.463-1.115ZM168,152V127.216a36.33,36.33,0,1,0,8.463-71.546h0A36.49,36.49,0,0,0,168,56.786V32h94a26.029,26.029,0,0,1,26,26v94H250.667a8,8,0,0,0-6.4,12.806,20.333,20.333,0,1,1-32.534,0,8,8,0,0,0-6.4-12.8Z" fill="#2196f3"/>
    <path id="Path_80" data-name="Path 80" d="M298.675,236.634a15.713,15.713,0,0,1,.631-9.992,8,8,0,0,0-9.461-10.737l-36.87,9.75a8,8,0,0,0-5.689,9.782l6.652,25.128a32.221,32.221,0,0,0-5.79.891,31.838,31.838,0,1,0,15.829,61.677,32.27,32.27,0,0,0,5.924-2.213l6.645,25.125A8,8,0,0,0,284.28,352c.685,0,37.766-9.713,37.766-9.713l-4.092-15.469-27.985,7.4-7.7-29.136a8,8,0,0,0-14.019-2.9,15.836,15.836,0,1,1-6.468-24.505,8,8,0,0,0,10.736-9.462L264.8,239.078l17.394-4.6a31.839,31.839,0,1,0,60.363-15.96l17.385-4.6,19.9,75.226a20.623,20.623,0,0,1,.662,6.421l15.974.884a36.5,36.5,0,0,0-1.17-11.4l-21.95-82.96a8,8,0,0,0-9.78-5.688l-36.87,9.76a8,8,0,0,0-2.9,14.023,15.614,15.614,0,0,1,5.421,8.127,15.838,15.838,0,1,1-30.561,8.328Z" fill="#2196f3"/>
    <rect id="Rectangle_36" data-name="Rectangle 36" width="96" height="16" transform="translate(264 448)" fill="#2196f3"/>
    <path id="Path_81" data-name="Path 81" d="M480.223,337.472,432,277.194V104a40.045,40.045,0,0,0-40-40H320V96h32a8,8,0,0,0,7.155-4.422L364.944,80H392a24.028,24.028,0,0,1,24,24V348.765l-26.343-26.192A30.423,30.423,0,0,0,368,313.6c-25.719,0-40.015,32.274-23.111,51.6l37.09,43.393c-14.886,24.887-9.589,55.346-5.058,71.409H232a24.028,24.028,0,0,1-24-24V224H192V456a40.045,40.045,0,0,0,40,40H388.03a8.006,8.006,0,0,0,7.388-11.07c-.182-.44-17.936-44.24,2.982-72.13a8,8,0,0,0-.319-10L356.99,354.73c-8.09-9.467-1.562-25.13,11.01-25.13a14.544,14.544,0,0,1,10.359,4.3l63.984,63.755,11.314-11.314L432,364.686V302.807l35.729,44.66A56.206,56.206,0,0,1,480,382.45V496h16V382.45a72.267,72.267,0,0,0-15.777-44.978Z" fill="#2196f3"/>
    <rect id="Rectangle_37" data-name="Rectangle 37" width="40" height="16" transform="translate(104 320)" fill="#2196f3"/>
    <rect id="Rectangle_38" data-name="Rectangle 38" width="40" height="16" transform="translate(115.199 369.599) rotate(-36.867)" fill="#2196f3"/>
    <rect id="Rectangle_39" data-name="Rectangle 39" width="16" height="40" transform="translate(160 368)" fill="#2196f3"/>
    <path id="Path_82" data-name="Path 82" d="M392,200h16a40.045,40.045,0,0,0-40-40v16a24.028,24.028,0,0,1,24,24Z" fill="#2196f3"/>
    <path id="Path_83" data-name="Path 83" d="M280,368a24.028,24.028,0,0,1-24-24H240a40.045,40.045,0,0,0,40,40Z" fill="#2196f3"/>
  </g>
</svg>
