<?xml version="1.0" encoding="utf-8"?>
<!-- Generator: Adobe Illustrator 16.0.0, SVG Export Plug-In . SVG Version: 6.00 Build 0)  -->
<!DOCTYPE svg PUBLIC "-//W3C//DTD SVG 1.1//EN" "http://www.w3.org/Graphics/SVG/1.1/DTD/svg11.dtd">
<svg version="1.1" id="Layer_1" xmlns="http://www.w3.org/2000/svg" xmlns:xlink="http://www.w3.org/1999/xlink" x="0px" y="0px"
	 width="496px" height="496px" viewBox="0 0 496 496" enable-background="new 0 0 496 496" xml:space="preserve">
<path fill="#2E4161" d="M466.991,428.984L440,421.273v-4.074c14.487-10.137,24-26.91,24-45.887v-16c0-30.871-25.121-56-56-56
	c-30.88,0-56,25.129-56,56v16c0,18.977,9.512,35.758,24,45.887v4.074l-26.992,7.719c-8.603,2.457-15.888,7.703-21.008,14.559
	c-5.121-6.854-12.406-12.102-21.009-14.565L280,421.273v-4.074c14.487-10.137,24-26.91,24-45.887v-16c0-30.871-25.121-56-56-56
	s-56,25.129-56,56v16c0,18.977,9.512,35.758,24,45.887v4.074l-26.992,7.719c-8.603,2.457-15.887,7.703-21.008,14.559
	c-5.121-6.854-12.406-12.102-21.008-14.565L120,421.273v-4.074c14.487-10.137,24-26.91,24-45.887v-16c0-30.871-25.121-56-56-56
	s-56,25.129-56,56v16c0,18.977,9.512,35.758,24,45.887v4.074l-26.992,7.719C11.93,433.871,0,449.695,0,467.457v23.855h496v-23.855
	C496,449.695,484.071,433.871,466.991,428.984z M392,424.953c5.069,1.52,10.44,2.359,16,2.359c5.559,0,10.93-0.841,16-2.359v2.359
	c0,8.823-7.177,16-16,16c-8.824,0-16-7.177-16-16V424.953z M368,371.313v-16c0-22.055,17.944-40,40-40c22.055,0,40,17.945,40,40v16
	c0,22.056-17.945,40-40,40C385.945,411.313,368,393.367,368,371.313z M232,424.953c5.069,1.52,10.44,2.359,16,2.359
	c5.559,0,10.93-0.841,16-2.359v2.359c0,8.823-7.176,16-16,16s-16-7.177-16-16V424.953z M208,371.313v-16c0-22.055,17.944-40,40-40
	c22.055,0,40,17.945,40,40v16c0,22.056-17.945,40-40,40C225.945,411.313,208,393.367,208,371.313z M72,424.953
	c5.069,1.52,10.44,2.359,16,2.359c5.559,0,10.93-0.841,16-2.359v2.359c0,8.823-7.176,16-16,16s-16-7.177-16-16V424.953z M48,371.313
	v-16c0-22.055,17.944-40,40-40c22.055,0,40,17.945,40,40v16c0,22.056-17.945,40-40,40C65.945,411.313,48,393.367,48,371.313z
	 M160,475.313H16v-7.854c0-10.656,7.16-20.152,17.405-23.082l24.388-6.969c4.246,12.69,16.108,21.905,30.207,21.905
	c14.098,0,25.961-9.223,30.207-21.905l24.387,6.961C152.84,447.305,160,456.801,160,467.457V475.313z M320,475.313H176v-7.854
	c0-10.656,7.16-20.152,17.405-23.082l24.388-6.969c4.246,12.69,16.108,21.905,30.207,21.905c14.098,0,25.961-9.223,30.207-21.905
	l24.387,6.961C312.84,447.305,320,456.801,320,467.457V475.313z M480,475.313H336v-7.854c0-10.656,7.159-20.152,17.405-23.082
	l24.388-6.969c4.245,12.69,16.108,21.905,30.207,21.905c14.098,0,25.961-9.223,30.206-21.905l24.388,6.961
	C472.84,447.305,480,456.801,480,467.457V475.313z"/>
<path fill="#37B8CB" d="M248,283.313c57.344,0,104-46.655,104-104s-46.656-104-104-104c-57.345,0-104,46.656-104,104
	S190.656,283.313,248,283.313z M182.031,121.266l3.656,7.309c5.777,11.563,17.392,18.738,30.313,18.738
	c6.824,0,12.953,3.793,16,9.887l2.688,5.387c5.16,10.316,15.527,16.727,27.066,16.727c14.367,0,26.848-10.223,29.66-24.32
	c1.823-9.09,9.867-15.68,19.129-15.68h15.737c2.599,5.07,4.72,10.414,6.306,16h-2.173c-14.215,0-27.413,7.063-35.292,18.887
	c-4.656,6.992-7.121,15.137-7.121,23.84c0,16.168,8.983,30.703,23.448,37.945l2.59,1.297c-6.815,7.758-14.917,14.367-24.055,19.352
	l-12.672-16.898c-5.824-7.781-15.112-12.422-24.832-12.422h-2.487c-6.923,0-12.923-4.688-14.603-11.402l-0.565-2.262
	c-2.587-10.352-10.168-18.543-20.298-21.922c-4.901-1.637-8.582-5.605-9.84-10.629l-0.565-2.266
	c-3.457-13.848-15.84-23.52-30.113-23.52h-10.602C167.039,142.535,173.481,130.969,182.031,121.266z"/>
<path fill="#2E4161" d="M240,30.625v28.688h16V30.625l10.344,10.344l11.313-11.313L248,0l-29.656,29.656l11.313,11.313L240,30.625z"
	/>
<path fill="#2E4161" d="M93.656,197.656l-10.344-10.344H128v-16H83.313l10.345-10.344l-11.313-11.313l-29.656,29.656l29.656,29.656
	L93.656,197.656z"/>
<path fill="#2E4161" d="M368,171.313v16h44.688l-10.344,10.344l11.313,11.313l29.656-29.656l-29.656-29.656l-11.313,11.313
	l10.344,10.344H368V171.313z"/>
<path fill="#2E4161" d="M341.656,96.969L360,78.625v12.688h16v-40h-40v16h12.688l-18.344,18.344L341.656,96.969z"/>
<path fill="#2E4161" d="M136,78.625l18.344,18.344l11.313-11.313l-18.345-18.344H160v-16h-40v40h16V78.625z"/>
</svg>
