<svg id="Page-1" xmlns="http://www.w3.org/2000/svg" width="495.333" height="495.333" viewBox="0 0 495.333 495.333">
  <g id="_017---Customer-Support" data-name="017---Customer-Support" transform="translate(0 0)">
    <path id="Shape" d="M230.133,0H65.022A33.022,33.022,0,0,0,32,33.022v99.067a33.022,33.022,0,0,0,33.022,33.022h5.094l-5.028,40.254A8.256,8.256,0,0,0,78.71,212.6l54.3-47.494h97.118a33.022,33.022,0,0,0,33.022-33.022V33.022A33.022,33.022,0,0,0,230.133,0Zm16.511,132.089A16.511,16.511,0,0,1,230.133,148.6H129.911a8.256,8.256,0,0,0-5.432,2.039l-40.32,35.268,3.5-28.028a8.256,8.256,0,0,0-8.19-9.279H65.022a16.511,16.511,0,0,1-16.511-16.511V33.022A16.511,16.511,0,0,1,65.022,16.511H230.133a16.511,16.511,0,0,1,16.511,16.511Z" transform="translate(232.177 0)" fill="#2196f3"/>
    <path id="Shape-2" data-name="Shape" d="M60.767,7A24.767,24.767,0,1,0,85.533,31.767,24.767,24.767,0,0,0,60.767,7Zm0,33.022a8.256,8.256,0,1,1,8.256-8.256A8.256,8.256,0,0,1,60.767,40.022Z" transform="translate(261.199 50.789)" fill="#2196f3"/>
    <path id="Shape-3" data-name="Shape" d="M67.767,7A24.767,24.767,0,1,0,92.533,31.767,24.767,24.767,0,0,0,67.767,7Zm0,33.022a8.256,8.256,0,1,1,8.256-8.256A8.256,8.256,0,0,1,67.767,40.022Z" transform="translate(311.988 50.789)" fill="#2196f3"/>
    <path id="Shape-4" data-name="Shape" d="M74.767,7A24.767,24.767,0,1,0,99.533,31.767,24.767,24.767,0,0,0,74.767,7Zm0,33.022a8.256,8.256,0,1,1,8.256-8.256A8.256,8.256,0,0,1,74.767,40.022Z" transform="translate(362.777 50.789)" fill="#2196f3"/>
    <path id="Shape-5" data-name="Shape" d="M208.366,78.531H136.015L81.71,31.037a8.256,8.256,0,0,0-13.622,7.24l5.028,40.254H68.022A33.022,33.022,0,0,0,35,111.553v74.3a33.022,33.022,0,0,0,33.022,33.022H208.366a33.022,33.022,0,0,0,33.022-33.022v-74.3a33.022,33.022,0,0,0-33.022-33.022Zm16.511,107.322a16.511,16.511,0,0,1-16.511,16.511H68.022a16.511,16.511,0,0,1-16.511-16.511v-74.3A16.511,16.511,0,0,1,68.022,95.042H82.469a8.256,8.256,0,0,0,8.19-9.279l-3.5-28.028L127.462,93a8.256,8.256,0,0,0,5.449,2.039h75.456a16.511,16.511,0,0,1,16.511,16.511Z" transform="translate(253.944 210.413)" fill="#2196f3"/>
    <path id="Shape-6" data-name="Shape" d="M33.022,194.62H54.685a99.489,99.489,0,0,0,20.944,25.312A132.014,132.014,0,0,0,8.256,334.964v41.278a24.767,24.767,0,0,0,24.767,24.767H247.666a24.767,24.767,0,0,0,24.767-24.767V334.964A132.435,132.435,0,0,0,205.1,219.89,99.594,99.594,0,0,0,226,194.62h21.663A33.022,33.022,0,0,0,280.688,161.6V128.575a32.923,32.923,0,0,0-16.206-28.267,131.907,131.907,0,0,0-248.277,0A32.923,32.923,0,0,0,0,128.575V161.6A33.022,33.022,0,0,0,33.022,194.62Zm0-16.511A16.511,16.511,0,0,1,16.511,161.6V128.575a16.511,16.511,0,0,1,16.511-16.511H47.057a97.242,97.242,0,0,0,0,66.044Zm24.767-33.022a82.555,82.555,0,1,1,161.454,24.271,169.114,169.114,0,0,1-47.544,8.256A24.767,24.767,0,0,0,148.6,161.6H132.089a24.767,24.767,0,0,0,0,49.533H148.6a24.7,24.7,0,0,0,23.388-16.982,214.648,214.648,0,0,0,38.033-4.953A82.473,82.473,0,0,1,57.788,145.087Zm99.067,41.278a8.256,8.256,0,0,1-8.256,8.256H132.089a8.256,8.256,0,1,1,0-16.511H148.6A8.256,8.256,0,0,1,156.855,186.364ZM222.025,253.3a114.488,114.488,0,0,1,33.9,81.664v41.278a8.256,8.256,0,0,1-8.256,8.256H206.389V334.964a8.256,8.256,0,0,0-16.511,0V384.5H90.811V334.964a8.256,8.256,0,0,0-16.511,0V384.5H33.022a8.256,8.256,0,0,1-8.256-8.256V334.964A115.578,115.578,0,0,1,90.7,230.688a98.241,98.241,0,0,0,99.248,0A113.027,113.027,0,0,1,222.025,253.3Zm42.153-91.7a16.511,16.511,0,0,1-16.511,16.511H233.632a97.242,97.242,0,0,0,0-66.044h14.034a16.511,16.511,0,0,1,16.511,16.511ZM140.344,29.509a115.3,115.3,0,0,1,104.3,66.044H226a98.835,98.835,0,0,0-171.319,0H36.044A115.3,115.3,0,0,1,140.344,29.509Z" transform="translate(0 94.324)" fill="#2196f3"/>
    <path id="Shape-7" data-name="Shape" d="M47.256,56.511H72.022a8.256,8.256,0,0,0,0-16.511H47.256a8.256,8.256,0,1,0,0,16.511Z" transform="translate(282.966 290.222)" fill="#2196f3"/>
    <path id="Shape-8" data-name="Shape" d="M120.3,40H54.256a8.256,8.256,0,0,0,0,16.511H120.3A8.256,8.256,0,1,0,120.3,40Z" transform="translate(333.755 290.222)" fill="#2196f3"/>
    <path id="Shape-9" data-name="Shape" d="M84.022,45H59.256a8.256,8.256,0,1,0,0,16.511H84.022a8.256,8.256,0,1,0,0-16.511Z" transform="translate(370.033 326.499)" fill="#2196f3"/>
    <path id="Shape-10" data-name="Shape" d="M113.3,45H47.256a8.256,8.256,0,1,0,0,16.511H113.3A8.256,8.256,0,0,0,113.3,45Z" transform="translate(282.966 326.499)" fill="#2196f3"/>
  </g>
</svg>
