<?xml version="1.0" encoding="utf-8"?>
<!-- Generator: Adobe Illustrator 16.0.0, SVG Export Plug-In . SVG Version: 6.00 Build 0)  -->
<!DOCTYPE svg PUBLIC "-//W3C//DTD SVG 1.1//EN" "http://www.w3.org/Graphics/SVG/1.1/DTD/svg11.dtd">
<svg version="1.1" id="Layer_1" xmlns="http://www.w3.org/2000/svg" xmlns:xlink="http://www.w3.org/1999/xlink" x="0px" y="0px"
	 width="480px" height="480px" viewBox="0 0 480 480" enable-background="new 0 0 480 480" xml:space="preserve">
<path d="M400,345.887l-20.375-12.207c-6.211-3.715-13.316-5.676-20.555-5.68h-30.664c-6.277-0.012-12.527,0.797-18.598,2.398
	l-92.391,24.801c-10.102,2.789-18.215,10.313-21.754,20.176l-81.266-43.965c-6.59-3.75-14.305-5.023-21.75-3.594
	c-2.809,0.496-5.531,1.391-8.09,2.656c-5.777,2.766-10.57,7.234-13.742,12.801c-2.773,4.848-4.23,10.336-4.23,15.918
	c-0.086,11.398,5.953,21.961,15.813,27.672l145.648,87.145c6.328,3.918,13.617,5.992,21.059,5.992h112.719
	c5.035,0.004,10.023-0.949,14.703-2.801L400,467.93V480h80V320h-80V345.887z M370.648,462.32c-2.801,1.105-5.789,1.676-8.801,1.68
	H249.105c-4.508-0.004-8.926-1.273-12.746-3.664L90.512,373.09c-4.957-2.863-7.992-8.168-7.953-13.891
	c0.012-2.805,0.75-5.563,2.145-8c1.594-2.762,3.992-4.977,6.871-6.344c1.27-0.617,2.613-1.055,4-1.297
	c1.012-0.188,2.039-0.285,3.066-0.285c2.75-0.008,5.453,0.711,7.84,2.078l88.121,47.617c0.102,0.488,0.102,0.969,0.23,1.457
	c3.789,13.965,16.457,23.664,30.93,23.68c4.453-0.406,8.863-1.195,13.184-2.352l83.117-22.242l-4.125-15.457l-82.848,22.145
	c-3.648,0.84-8.355,1.801-9.328,1.883c-7.227,0.012-13.563-4.816-15.465-11.785c-0.258-0.969-0.41-1.961-0.465-2.961
	c0,0-0.063-1.938,0-2.617c0.609-6.691,5.297-12.309,11.77-14.109l92.352-24.707c4.715-1.262,9.574-1.902,14.453-1.902h30.664
	c4.344,0,8.605,1.18,12.328,3.41L400,364.535v86.184L370.648,462.32z M416,336h48v128h-48V336z"/>
<path d="M329.953,64l-42.914-42.91C273.566,7.539,255.234-0.055,236.129,0H135.551c-6.207,0.008-12.328,1.457-17.887,4.223
	l-17.93,8.969c-3.594,1.809-7.586,2.672-11.605,2.512L80,15.418V0H0v176h80v-24h13.602l4.84,3.199
	c13.543,8.992,29.313,14.07,45.559,14.664V272h336V64H329.953z M64,160H16V16h48V160z M107.297,141.887L98.398,136H80V31.426
	l7.543,0.27c6.699,0.238,13.348-1.203,19.344-4.191l17.914-8.969c3.336-1.668,7.02-2.535,10.75-2.535h100.578
	c14.859-0.043,29.121,5.863,39.598,16.398L307.328,64h-66.016l-19.418-19.414l-11.309,11.309l56.512,56.516
	c6.277,6.25,6.297,16.406,0.047,22.688c-6.254,6.277-16.41,6.297-22.688,0.047l-47.199-47.199l-5.602,4.801
	c-15.465,13.133-38.07,13.469-53.922,0.797l-4.637-3.758l-10.082,12.43l4.688,3.801c4.902,3.918,10.406,7.02,16.297,9.184v38.656
	C130.906,153.273,118.215,149.137,107.297,141.887z M221.098,134.398l12.07,12.074c12.531,12.344,32.648,12.363,45.199,0.039
	c-11.742,18.184-7.109,42.383,10.52,54.941s42.016,9.031,55.363-8.004c13.348-17.039,10.938-41.563-5.477-55.672
	c-16.41-14.109-41.02-12.816-55.859,2.934c5.465-8.582,6.441-19.277,2.621-28.711h107.129c3.441,20.129,19.207,35.895,39.336,39.336
	v33.328c-20.129,3.441-35.895,19.207-39.336,39.336H231.336c-3.441-20.129-19.207-35.895-39.336-39.336v-33.328
	C203.434,149.41,213.773,143.391,221.098,134.398z"/>
<circle fill="#40A3FF" cx="312" cy="168" r="41.25"/>
<path fill="#40A3FF" d="M464,256H160V118.551c12.684,0.953,25.328-2.281,36-9.199L209.648,123c-6.004,8.156-15.52,12.98-25.648,13
	h-8v64h8c17.672,0,32,14.328,32,32v8h192v-8c0-17.672,14.328-32,32-32h8v-64h-8c-17.672,0-32-14.328-32-32v-8H273.313l-16-16H464
	V256z"/>
</svg>
