<?xml version="1.0" encoding="utf-8"?>
<!-- Generator: Adobe Illustrator 16.0.0, SVG Export Plug-In . SVG Version: 6.00 Build 0)  -->
<!DOCTYPE svg PUBLIC "-//W3C//DTD SVG 1.1//EN" "http://www.w3.org/Graphics/SVG/1.1/DTD/svg11.dtd">
<svg version="1.1" id="Layer_1" xmlns="http://www.w3.org/2000/svg" xmlns:xlink="http://www.w3.org/1999/xlink" x="0px" y="0px"
	 width="512px" height="512px" viewBox="0 0 512 512" enable-background="new 0 0 512 512" xml:space="preserve">
<path d="M457.734,101.076c-44.378-4.514-79.915-39.757-84.499-83.798c-0.135-1.29-1.201-2.263-2.481-2.263H136.748
	c-1.28,0-2.347,0.973-2.481,2.263c-4.584,44.041-40.121,79.284-84.498,83.798c-1.29,0.13-2.263,1.197-2.263,2.481V215.53
	c0,63.632,20.053,124.265,57.988,175.343c37.198,50.088,88.205,86.741,147.505,106c0.484,0.157,1.019,0.157,1.504,0
	c59.298-19.259,110.305-55.912,147.504-106c37.937-51.078,57.988-111.711,57.988-175.343V103.557
	C459.995,102.274,459.023,101.207,457.734,101.076z M440.995,219.259c0,57.77-18.204,112.817-52.646,159.189
	c-33.772,45.474-80.08,78.75-133.915,96.235c-0.44,0.143-0.926,0.143-1.365,0c-53.837-17.485-100.145-50.762-133.917-96.235
	c-34.44-46.372-52.646-101.42-52.646-159.189V117.601c0-1.166,0.883-2.135,2.054-2.253c40.289-4.098,72.552-36.094,76.714-76.078
	c0.123-1.171,1.09-2.055,2.253-2.055h212.448c1.162,0,2.13,0.883,2.253,2.055c4.161,39.984,36.425,71.98,76.714,76.078
	c1.171,0.119,2.054,1.088,2.054,2.253V219.259z"/>
<g>
	<path fill-rule="evenodd" clip-rule="evenodd" fill="#40A3FF" d="M264.619,240.071c24.077,0,48.155-0.013,72.232,0.007
		c11.826,0.013,14.963,3.178,14.976,15.197c0.026,25.993,0.039,51.986-0.016,77.982c-0.034,15.586-7.007,22.818-22.446,22.857
		c-44.053,0.112-88.105,0.132-132.157,0.022c-14.039-0.032-21.383-7.394-21.453-21.319c-0.138-27.088-0.126-54.176-0.036-81.264
		c0.033-9.897,3.499-13.368,13.384-13.409c25.172-0.109,50.344-0.039,75.516-0.039C264.619,240.097,264.619,240.084,264.619,240.071
		z M263.428,267.699c-15.735,0.051-25.499,17.383-18.042,31.341c2.292,4.289,3.807,9.391,4.175,14.234
		c0.767,10.064,5.278,15.98,13.628,16.058c8.748,0.084,13.701-5.997,14.499-16.212c0.381-4.86,2.027-9.829,4.07-14.305
		c3.199-7.005,3.61-13.771-0.152-20.407C277.684,271.487,271.477,267.892,263.428,267.699z"/>
	<path fill-rule="evenodd" clip-rule="evenodd" d="M218.554,229.742c-8.461,0-16.007,0-23.547,0
		c-3.638-40.836-3.42-66.707,27.384-89.524c21.552-15.963,45.502-18.333,69.68-5.969c24.38,12.468,37.797,32.579,38.364,60.421
		c0.232,11.462,0.038,22.934,0.038,35c-8.393,0-16.172,0-24.833,0c0-10.919,0.02-21.518-0.005-32.118
		c-0.054-25.001-19.265-45.489-43.006-45.887c-23.761-0.398-43.803,20.366-44.058,45.75
		C218.465,208.018,218.554,218.622,218.554,229.742z"/>
</g>
</svg>
