<?xml version="1.0" encoding="utf-8"?>
<!-- Generator: Adobe Illustrator 16.0.0, SVG Export Plug-In . SVG Version: 6.00 Build 0)  -->
<!DOCTYPE svg PUBLIC "-//W3C//DTD SVG 1.1//EN" "http://www.w3.org/Graphics/SVG/1.1/DTD/svg11.dtd">
<svg version="1.1" id="Layer_1" xmlns="http://www.w3.org/2000/svg" xmlns:xlink="http://www.w3.org/1999/xlink" x="0px" y="0px"
	 width="595.279px" height="841.891px" viewBox="0 0 595.279 841.891" enable-background="new 0 0 595.279 841.891"
	 xml:space="preserve">
<g>
	<g>
		<path fill="#FFFFFF" d="M382.332,552.015c-6.259-3.761-12.682-7.542-19.105-11.248c1.51-12.871,1.514-25.891,0.007-38.735
			c6.448-3.721,12.868-7.499,19.097-11.244c10.487-6.302,14.858-19.598,10.166-30.931c0,0,0,0-0.001-0.001l-13.686-33.04
			c-4.694-11.329-17.181-17.644-29.059-14.685c-7.059,1.757-14.271,3.625-21.457,5.553c-8.023-10.152-17.23-19.356-27.396-27.385
			c1.928-7.188,3.798-14.403,5.556-21.464c2.959-11.872-3.354-24.364-14.684-29.057l-33.04-13.686
			c-11.329-4.694-24.629-0.327-30.933,10.163c-3.754,6.248-7.536,12.672-11.247,19.106c-12.867-1.51-25.885-1.514-38.735-0.008
			c-3.723-6.454-7.503-12.875-11.243-19.098c-6.306-10.487-19.603-14.856-30.933-10.163l-33.04,13.686
			c-11.326,4.692-17.643,17.185-14.684,29.057c1.762,7.075,3.629,14.288,5.553,21.457c-10.15,8.021-19.356,17.231-27.384,27.396
			c-7.203-1.934-14.419-3.801-21.466-5.557c-11.875-2.961-24.364,3.357-29.059,14.686L1.878,459.855
			c-4.691,11.33-0.321,24.628,10.163,30.93c6.25,3.755,12.673,7.536,19.106,11.248c-1.509,12.866-1.513,25.883-0.007,38.735
			c-6.439,3.715-12.859,7.494-19.102,11.245c-10.484,6.303-14.855,19.599-10.163,30.93l13.688,33.041
			c4.692,11.328,17.178,17.645,29.058,14.685c7.051-1.756,14.264-3.623,21.455-5.554c8.023,10.151,17.23,19.355,27.396,27.385
			c-1.93,7.195-3.799,14.411-5.556,21.464c-2.959,11.872,3.354,24.364,14.684,29.057l33.041,13.687
			c3.07,1.271,6.282,1.878,9.461,1.878c8.56,0,16.875-4.394,21.476-12.039c3.727-6.2,7.506-12.622,11.247-19.104
			c12.865,1.508,25.886,1.51,38.735,0.007c3.696,6.408,7.476,12.829,11.243,19.099c6.304,10.487,19.6,14.855,30.933,10.163
			l33.04-13.686c11.326-4.692,17.642-17.186,14.683-29.058c-1.747-7.014-3.614-14.228-5.552-21.457
			c10.148-8.021,19.355-17.229,27.385-27.395c7.183,1.927,14.398,3.794,21.462,5.555c11.872,2.961,24.365-3.354,29.059-14.685
			l13.686-33.042C397.188,571.613,392.818,558.316,382.332,552.015z M354.745,604.452c-6.787-1.7-13.705-3.497-20.583-5.351
			c-9.738-2.62-20.015,0.805-26.182,8.728c-7.088,9.104-15.29,17.308-24.379,24.385c-7.914,6.164-11.333,16.438-8.711,26.17
			c1.863,6.923,3.659,13.836,5.349,20.574l-30.371,12.579c-3.612-6.027-7.229-12.186-10.765-18.329
			c-5.03-8.736-14.713-13.578-24.667-12.346c-11.43,1.42-23.032,1.419-34.478-0.005c-9.981-1.24-19.655,3.602-24.686,12.34
			c-3.578,6.213-7.196,12.375-10.77,18.339l-30.371-12.58c1.699-6.774,3.496-13.691,5.352-20.58
			c2.622-9.737-0.804-20.016-8.728-26.184c-9.104-7.086-17.307-15.287-24.385-24.375c-6.162-7.916-16.435-11.334-26.171-8.714
			c-6.887,1.854-13.801,3.652-20.573,5.35l-12.58-30.37c5.999-3.597,12.16-7.214,18.329-10.766
			c8.737-5.031,13.583-14.711,12.347-24.666c-1.422-11.432-1.419-23.032,0.003-34.479c1.242-9.964-3.601-19.655-12.343-24.687
			c-6.166-3.551-12.328-7.169-18.337-10.772l12.58-30.37c6.767,1.697,13.682,3.494,20.581,5.351
			c9.733,2.623,20.012-0.804,26.183-8.728c7.087-9.104,15.289-17.308,24.375-24.384c7.916-6.163,11.335-16.437,8.714-26.173
			c-1.849-6.864-3.646-13.777-5.35-20.572l30.371-12.579c3.585,5.983,7.203,12.143,10.765,18.33
			c5.032,8.737,14.723,13.59,24.667,12.345c11.426-1.422,23.025-1.422,34.48,0.006c9.97,1.242,19.655-3.606,24.685-12.344
			c3.55-6.167,7.169-12.329,10.769-18.336l30.371,12.579c-1.7,6.782-3.497,13.698-5.352,20.583
			c-2.622,9.736,0.805,20.014,8.728,26.182c9.103,7.086,17.307,15.287,24.385,24.375c6.162,7.914,16.432,11.333,26.172,8.713
			c6.882-1.854,13.795-3.651,20.572-5.35l12.579,30.37c-5.991,3.591-12.151,7.208-18.329,10.766
			c-8.737,5.031-13.585,14.712-12.347,24.667c1.422,11.426,1.42,23.027-0.006,34.481c-1.239,9.965,3.605,19.653,12.344,24.684
			c6.158,3.545,12.319,7.163,18.338,10.77L354.745,604.452z"/>
	</g>
</g>
<g>
	<g>
		<path fill="#FFFFFF" d="M281.086,486.648c0,0,0,0-0.001-0.002c-19.161-46.261-72.383-68.309-118.65-49.146
			c-46.26,19.163-68.309,72.39-49.146,118.65c9.281,22.411,26.737,39.864,49.146,49.147c11.205,4.641,22.978,6.961,34.751,6.961
			c11.772,0,23.546-2.32,34.753-6.961C278.199,586.136,300.246,532.91,281.086,486.648z M221.741,580.68
			c-15.833,6.559-33.271,6.558-49.109,0c-15.833-6.558-28.165-18.892-34.725-34.726c-13.542-32.688,2.038-70.297,34.727-83.836
			c8.005-3.315,16.301-4.886,24.47-4.886c25.191,0,49.14,14.929,59.365,39.612C270.008,529.531,254.429,567.14,221.741,580.68z"/>
	</g>
</g>
<g>
	<g>
		<path fill="#FFFFFF" d="M577.321,240.659c-4.6-0.688-9.323-1.357-14.081-1.992c-2.397-7.972-5.6-15.701-9.55-23.042
			c2.911-3.808,5.78-7.623,8.554-11.37c6.156-8.326,5.266-20.134-2.069-27.465l-18.38-18.377
			c-7.335-7.336-19.143-8.226-27.467-2.067c-3.76,2.782-7.573,5.651-11.369,8.551c-7.34-3.951-15.068-7.152-23.043-9.551
			c-0.636-4.757-1.302-9.481-1.99-14.08c-1.531-10.238-10.51-17.961-20.883-17.961H431.05c-10.373,0-19.352,7.723-20.883,17.96
			c-0.687,4.596-1.354,9.321-1.99,14.08c-7.975,2.398-15.704,5.601-23.043,9.551c-3.793-2.902-7.609-5.771-11.368-8.551
			c-8.325-6.159-20.134-5.269-27.467,2.066l-18.377,18.376c-7.336,7.334-8.228,19.143-2.069,27.47
			c2.771,3.746,5.641,7.562,8.551,11.369c-3.949,7.34-7.152,15.068-9.551,23.042c-4.756,0.636-9.481,1.304-14.079,1.992
			c-10.239,1.533-17.962,10.509-17.962,20.884v25.991c0,10.373,7.72,19.351,17.959,20.884c4.6,0.688,9.323,1.357,14.081,1.992
			c2.398,7.973,5.601,15.702,9.55,23.042c-2.907,3.804-5.777,7.618-8.554,11.37c-6.154,8.323-5.266,20.134,2.07,27.464
			l18.379,18.379c7.334,7.336,19.142,8.225,27.467,2.067c3.76-2.78,7.573-5.65,11.368-8.55c7.342,3.951,15.071,7.153,23.044,9.55
			c0.634,4.756,1.302,9.481,1.99,14.081c1.532,10.238,10.511,17.961,20.884,17.961h25.992c10.373,0,19.352-7.72,20.883-17.962
			c0.688-4.6,1.354-9.323,1.99-14.081c7.974-2.396,15.702-5.601,23.043-9.551c3.794,2.902,7.609,5.771,11.368,8.552
			c8.323,6.159,20.134,5.269,27.467-2.066l18.379-18.377c7.336-7.334,8.227-19.143,2.067-27.469
			c-2.774-3.751-5.644-7.567-8.55-11.368c3.948-7.34,7.151-15.067,9.55-23.042c4.757-0.636,9.481-1.303,14.08-1.992
			c10.239-1.532,17.962-10.509,17.962-20.884v-25.991C595.28,251.169,587.559,242.191,577.321,240.659z M569.967,283.917
			c-4.177,0.606-8.438,1.194-12.713,1.751c-8.456,1.104-15.379,7.105-17.632,15.288c-2.159,7.835-5.292,15.396-9.312,22.472
			c-4.198,7.386-3.551,16.527,1.649,23.291c2.622,3.409,5.223,6.84,7.754,10.23l-13.259,13.26c-3.4-2.538-6.832-5.138-10.233-7.754
			c-6.76-5.203-15.903-5.846-23.291-1.652c-7.077,4.021-14.638,7.154-22.468,9.313c-8.188,2.256-14.189,9.178-15.289,17.632
			c-0.557,4.275-1.145,8.538-1.751,12.713h-18.754c-0.605-4.176-1.192-8.437-1.751-12.709c-1.104-8.457-7.104-15.379-15.289-17.635
			c-7.832-2.158-15.391-5.292-22.471-9.312c-7.387-4.197-16.53-3.552-23.289,1.65c-3.402,2.617-6.831,5.216-10.234,7.754
			l-13.259-13.26c2.53-3.394,5.131-6.822,7.756-10.235c5.197-6.761,5.845-15.902,1.647-23.288
			c-4.02-7.076-7.152-14.638-9.312-22.471c-2.255-8.185-9.176-14.186-17.632-15.289c-4.275-0.558-8.537-1.144-12.714-1.752v-18.751
			c4.177-0.606,8.438-1.194,12.713-1.751c8.456-1.104,15.378-7.105,17.631-15.288c2.159-7.834,5.292-15.395,9.313-22.472
			c4.198-7.386,3.551-16.528-1.647-23.289c-2.627-3.414-5.227-6.844-7.755-10.231l13.259-13.26c3.4,2.538,6.83,5.138,10.231,7.752
			c6.757,5.203,15.899,5.852,23.292,1.653c7.075-4.019,14.637-7.152,22.469-9.313c8.188-2.256,14.189-9.178,15.289-17.632
			c0.558-4.275,1.146-8.536,1.752-12.712h18.754c0.605,4.175,1.192,8.436,1.75,12.709c1.103,8.457,7.104,15.379,15.288,17.634
			c7.834,2.159,15.396,5.293,22.473,9.313c7.389,4.198,16.53,3.546,23.288-1.651c3.402-2.616,6.831-5.216,10.234-7.754l13.259,13.26
			c-2.528,3.389-5.128,6.82-7.755,10.235c-5.198,6.76-5.845,15.9-1.649,23.287c4.019,7.078,7.152,14.64,9.312,22.472
			c2.254,8.186,9.176,14.186,17.632,15.289c4.274,0.558,8.537,1.146,12.714,1.752V283.917L569.967,283.917z"/>
	</g>
</g>
<g>
	<g>
		<path fill="#FFFFFF" d="M444.046,220.59c-29.746,0-53.948,24.201-53.948,53.948c0,29.749,24.2,53.95,53.948,53.95
			s53.948-24.201,53.948-53.95C497.994,244.791,473.794,220.59,444.046,220.59z M444.046,304.506
			c-16.522,0-29.968-13.444-29.968-29.969s13.444-29.968,29.968-29.968s29.967,13.444,29.968,29.968
			C474.014,291.063,460.57,304.506,444.046,304.506z"/>
	</g>
</g>
</svg>
