<?xml version="1.0" encoding="utf-8"?>
<!-- Generator: Adobe Illustrator 16.0.0, SVG Export Plug-In . SVG Version: 6.00 Build 0)  -->
<!DOCTYPE svg PUBLIC "-//W3C//DTD SVG 1.1//EN" "http://www.w3.org/Graphics/SVG/1.1/DTD/svg11.dtd">
<svg version="1.1" id="Layer_1" xmlns="http://www.w3.org/2000/svg" xmlns:xlink="http://www.w3.org/1999/xlink" x="0px" y="0px"
	 width="595.16px" height="595.281px" viewBox="0.06 123.305 595.16 595.281" enable-background="new 0.06 123.305 595.16 595.281"
	 xml:space="preserve">
<g>
	<g>
		<path fill="#FFFFFF" d="M367.873,232.421c12.88-28.434,7.776-63.186-15.675-86.516c-30.135-30.134-79.104-30.134-109.238,0
			c-30.135,30.135-30.135,79.104,0,109.238c23.452,23.452,58.082,28.555,86.516,15.675l90.282,90.282
			c4.739-7.777,10.328-15.067,16.89-21.629s13.853-12.151,21.508-16.769L367.873,232.421z M319.39,222.093
			c-12.029,12.03-31.471,12.03-43.5,0c-12.029-12.029-12.029-31.471,0-43.5c12.029-12.03,31.471-12.03,43.5,0
			C331.42,190.622,331.42,210.063,319.39,222.093z"/>
	</g>
</g>
<g>
	<g>
		<path fill="#FFFFFF" d="M352.198,586.746c-23.452-23.451-58.082-28.555-86.516-15.675l-90.282-90.282
			c-4.617,7.655-10.207,14.945-16.769,21.508c-6.562,6.562-13.853,12.15-21.508,16.768l90.283,90.283
			c-13.002,28.555-7.777,63.186,15.553,86.637c30.135,30.135,79.104,30.135,109.238,0
			C382.332,665.85,382.332,616.881,352.198,586.746z M319.39,663.177c-12.029,12.029-31.471,12.029-43.5,0
			c-12.029-12.03-12.029-31.472,0-43.501s31.471-12.029,43.5,0C331.42,631.705,331.42,651.146,319.39,663.177z"/>
	</g>
</g>
<g>
	<g>
		<path fill="#FFFFFF" d="M572.618,366.083c-30.014-30.013-78.982-30.013-109.116,0.122c-23.452,23.452-28.556,58.083-15.675,86.515
			l-90.283,90.282c7.655,4.618,14.946,10.207,21.508,16.769s12.151,13.853,16.769,21.508l90.282-90.282
			c28.434,12.88,63.186,7.776,86.516-15.675C602.753,445.187,602.753,396.218,572.618,366.083z M539.811,442.635
			c-12.03,12.029-31.472,12.029-43.501,0s-12.029-31.472,0-43.501s31.471-12.029,43.501,0
			C551.84,411.163,551.84,430.605,539.811,442.635z"/>
	</g>
</g>
<g>
	<g>
		<path fill="#FFFFFF" d="M237.736,298.766c-7.655-4.617-14.946-10.207-21.508-16.769c-6.562-6.562-12.15-13.852-16.769-21.507
			l-90.282,90.282c-28.434-12.88-63.186-7.776-86.516,15.675c-30.135,30.134-30.135,79.103,0,109.238
			c30.014,30.013,78.982,30.013,109.117-0.121c23.451-23.452,28.555-58.082,15.675-86.516L237.736,298.766z M98.97,442.635
			c-12.029,12.029-31.471,12.029-43.5,0c-12.03-12.029-12.03-31.472,0-43.501c12.029-12.029,31.471-12.029,43.5,0
			C111,411.163,111,430.605,98.97,442.635z"/>
	</g>
</g>
</svg>
