<?xml version="1.0" encoding="utf-8"?>
<!-- Generator: Adobe Illustrator 16.0.0, SVG Export Plug-In . SVG Version: 6.00 Build 0)  -->
<!DOCTYPE svg PUBLIC "-//W3C//DTD SVG 1.1//EN" "http://www.w3.org/Graphics/SVG/1.1/DTD/svg11.dtd">
<svg version="1.1" id="Layer_1" xmlns="http://www.w3.org/2000/svg" xmlns:xlink="http://www.w3.org/1999/xlink" x="0px" y="0px"
	 width="612px" height="792px" viewBox="0 0 612 792" enable-background="new 0 0 612 792" xml:space="preserve">
<g>
	<g>
		<circle cx="97.013" cy="566.77" r="11.953"/>
	</g>
</g>
<g>
	<g>
		<path d="M551.278,201.104h-70.33c-15.876,0-30.455,5.658-41.829,15.063v-3.11v-32.826c0-46.941-38.187-85.128-85.126-85.128
			h-79.746c-6.602,0-11.953,5.353-11.953,11.953v32.827c0,46.94,38.187,85.127,85.126,85.127h67.792v41.829v32.25v47.092
			c-3.152-0.202-6.324-0.313-9.511-0.313c-31.414,0-61.447,9.685-86.848,28.005c-5.354,3.861-6.564,11.332-2.703,16.687
			c3.862,5.354,11.333,6.567,16.687,2.703c21.305-15.365,46.502-23.487,72.864-23.487c6.372,0,12.672,0.504,18.859,1.452
			c0.513,0.114,1.038,0.195,1.573,0.242c37.197,6.185,70.09,29.022,88.733,62.671c2.183,3.938,6.261,6.162,10.466,6.162
			c1.959,0,3.947-0.482,5.781-1.5c5.775-3.2,7.862-10.475,4.662-16.249c-20.684-37.332-56.095-63.487-96.659-72.86v-38.65h58.378
			c36.246,0,65.735-29.488,65.735-65.735v-32.25C563.231,206.457,557.88,201.104,551.278,201.104z"/>
	</g>
</g>
<g>
	<g>
		<path d="M608.01,483.032c-10.433-23.628-38.144-34.358-61.771-23.932c-0.06,0.026-0.118,0.054-0.178,0.08l-78.098,36.016
			c-5.996,2.765-8.614,9.866-5.851,15.861c2.765,5.995,9.866,8.612,15.861,5.85l78.002-35.972
			c11.551-5.047,25.067,0.21,30.164,11.753c5.107,11.569-0.149,25.137-11.718,30.245l-159.82,70.565
			c-25.324,11.183-54.069,10.533-78.863-1.787l-58.503-29.063c-31.174-15.488-67.316-16.306-99.156-2.247l-1.15,0.509
			l-43.723-99.027l60.703-26.801c28.917-12.769,61.186-13.798,90.858-2.902l117.646,43.205
			c10.732,3.941,16.453,15.948,12.752,26.767c-3.771,11.025-15.818,16.954-26.854,13.224l-90.976-30.771
			c-6.254-2.115-13.037,1.24-15.153,7.494s1.24,13.037,7.494,15.152l90.975,30.771c4.764,1.611,9.615,2.376,14.391,2.376
			c18.765,0,36.349-11.813,42.744-30.506c7.874-23.015-4.297-48.562-27.13-56.947L293.011,409.74
			c-35.518-13.042-74.141-11.81-108.754,3.471l-61.094,26.975c-3.437-5.28-8.398-9.365-14.388-11.688
			c-7.542-2.921-15.772-2.731-23.141,0.522L7.155,463.406C2.809,465.312,0,469.608,0,474.355v210.588
			c0,4.15,2.154,8.005,5.689,10.182c1.915,1.177,4.086,1.771,6.264,1.771c1.843,0,3.69-0.426,5.389-1.284l152.354-76.965
			c7.245-3.296,12.809-9.188,15.688-16.621c2.399-6.191,2.7-12.846,0.924-19.125l1.425-0.629
			c25.326-11.182,54.07-10.529,78.864,1.788l58.504,29.064c31.172,15.487,67.313,16.307,99.155,2.246l159.822-70.565
			C607.706,534.372,618.441,506.659,608.01,483.032z M163.093,593.389c-0.616,1.589-1.812,2.843-3.371,3.53
			c-0.19,0.084-0.377,0.173-0.562,0.267L23.906,665.512v-52.323l35.355-17.362c5.926-2.91,8.371-10.072,5.46-15.999
			c-2.91-5.927-10.075-8.371-15.998-5.46l-24.817,12.186V482.166l71.346-31.263c1.559-0.688,3.292-0.729,4.879-0.114
			c1.588,0.616,2.842,1.813,3.531,3.371l56.225,127.339c0.005,0.013,0.01,0.023,0.015,0.034l3.08,6.976
			C163.669,590.067,163.709,591.801,163.093,593.389z"/>
	</g>
</g>
<path fill="#40A3FF" d="M415.213,201.104h-67.792c-33.757,0-61.22-27.464-61.22-61.221V119.01h67.792
	c33.757,0,61.22,27.463,61.22,61.222V201.104L415.213,201.104z"/>
<path fill="#40A3FF" d="M539.325,245.308c0,23.063-18.765,41.829-41.829,41.829h-58.377V266.84
	c0-23.063,18.765-41.829,41.829-41.829h58.377V245.308z"/>
</svg>
