<?xml version="1.0" encoding="utf-8"?>
<!-- Generator: Adobe Illustrator 16.0.0, SVG Export Plug-In . SVG Version: 6.00 Build 0)  -->
<!DOCTYPE svg PUBLIC "-//W3C//DTD SVG 1.1//EN" "http://www.w3.org/Graphics/SVG/1.1/DTD/svg11.dtd">
<svg version="1.1" id="Capa_1" xmlns="http://www.w3.org/2000/svg" xmlns:xlink="http://www.w3.org/1999/xlink" x="0px" y="0px"
	 width="535.278px" height="535.754px" viewBox="60.003 153.069 535.278 535.754"
	 enable-background="new 60.003 153.069 535.278 535.754" xml:space="preserve">
<g>
	<g>
		<path fill="#FFFFFF" d="M555.595,153.069H159.216c-21.917,0-39.687,17.768-39.687,39.686v317.483H69.924
			c-5.479,0-9.921,4.441-9.921,9.921c0,21.918,17.768,39.686,39.686,39.686h227.715v119.057c0.002,5.479,4.444,9.921,9.924,9.919
			c2.632,0,5.152-1.045,7.014-2.904l52.514-52.514l52.513,52.514c1.86,1.86,4.384,2.907,7.016,2.907
			c1.305,0.004,2.596-0.252,3.8-0.754c3.707-1.537,6.123-5.155,6.122-9.168V559.844h29.764c21.918,0,39.687-17.768,39.687-39.686
			V202.676h49.605c5.479,0,9.921-4.442,9.921-9.921C595.28,170.837,577.512,153.069,555.595,153.069z M515.908,192.754v317.483
			h-39.686v19.843h37.017c-3.543,6.136-10.089,9.917-17.174,9.921h-29.764v-9.921H446.46v124.87l-42.594-42.593
			c-3.874-3.873-10.153-3.873-14.027,0l-42.594,42.593V530.08h-19.843v9.921H99.689c-7.086-0.004-13.631-3.785-17.174-9.921h46.938
			h188.029v-19.843H139.373V192.754c0-10.959,8.884-19.843,19.843-19.843h362.21C517.855,178.918,515.949,185.767,515.908,192.754z
			 M538.421,182.833c5.487-9.485,17.628-12.724,27.112-7.234c3.003,1.737,5.497,4.233,7.234,7.234H538.421z"/>
	</g>
</g>
<g>
	<g>
		<path fill="#FFFFFF" d="M490.382,463.558l-12.71-22.77l12.759-22.75c2.688-4.774,0.999-10.824-3.774-13.513
			c-0.24-0.137-0.486-0.263-0.738-0.377l-23.684-10.845l-3.056-25.895c-0.646-5.441-5.582-9.328-11.022-8.682
			c-0.253,0.03-0.505,0.069-0.754,0.119l-25.577,5.069l-17.688-19.158c-3.96-4.022-10.432-4.073-14.452-0.112
			c-0.038,0.037-0.075,0.074-0.113,0.112l-17.688,19.158l-25.577-5.069c-5.375-1.063-10.595,2.434-11.657,7.809
			c-0.05,0.25-0.09,0.501-0.119,0.754l-3.056,25.895l-23.684,10.864c-4.98,2.281-7.171,8.169-4.891,13.15
			c0.115,0.252,0.24,0.499,0.377,0.738l12.759,22.73l-12.759,22.749c-2.688,4.774-0.998,10.824,3.774,13.513
			c0.24,0.136,0.486,0.262,0.738,0.377l23.684,10.864l3.056,25.915c0.646,5.44,5.582,9.327,11.022,8.681
			c0.253-0.028,0.505-0.068,0.754-0.118l25.577-5.069l17.688,19.158c3.724,4.021,9.999,4.265,14.021,0.544
			c0.188-0.175,0.369-0.355,0.545-0.544l17.688-19.158l25.577,5.069c2.711,0.555,5.53-0.065,7.759-1.706
			c2.218-1.636,3.654-4.119,3.969-6.855l3.056-25.896l23.683-10.863c4.981-2.281,7.173-8.169,4.893-13.151
			C490.644,464.045,490.517,463.798,490.382,463.558z M457.652,445.629l10.209,18.216l-18.97,8.701
			c-3.146,1.443-5.312,4.421-5.715,7.857l-2.44,20.766l-20.508-4.058c-3.379-0.702-6.878,0.429-9.207,2.977l-14.167,15.358
			l-14.168-15.339c-1.878-2.03-4.517-3.186-7.282-3.186c-0.646-0.004-1.292,0.063-1.925,0.198l-20.508,4.058l-2.44-20.765
			c-0.403-3.438-2.568-6.415-5.715-7.858l-18.97-8.701l10.209-18.215c1.707-3.025,1.748-6.701,0-9.703v0.039l-10.209-18.215
			l18.97-8.701c3.146-1.442,5.312-4.422,5.715-7.857l2.44-20.765l20.508,4.058c3.378,0.692,6.873-0.437,9.207-2.978l14.168-15.388
			l14.167,15.338c2.328,2.548,5.828,3.679,9.207,2.976l20.508-4.058l2.44,20.767c0.403,3.437,2.568,6.414,5.715,7.856l18.97,8.701
			l-10.209,18.216C455.962,438.939,455.962,442.616,457.652,445.629z"/>
	</g>
</g>
<g>
	<g>
		<path fill="#FFFFFF" d="M396.854,391.181c-27.397,0-49.607,22.21-49.607,49.607c0.032,27.383,22.225,49.573,49.607,49.605
			c27.396,0,49.606-22.21,49.606-49.605C446.46,413.392,424.25,391.181,396.854,391.181z M396.854,470.552
			c-16.438,0-29.765-13.325-29.765-29.764c0-16.439,13.325-29.765,29.765-29.765c16.438,0,29.764,13.325,29.764,29.765
			C426.617,457.227,413.29,470.552,396.854,470.552z"/>
	</g>
</g>
<g>
	<g>
		<rect x="218.27" y="212.597" fill="#FFFFFF" width="158.741" height="19.842"/>
	</g>
</g>
<g>
	<g>
		<rect x="179.059" y="272.125" fill="#FFFFFF" width="297.165" height="19.843"/>
	</g>
</g>
<g>
	<g>
		<rect x="179.059" y="311.812" fill="#FFFFFF" width="297.165" height="19.842"/>
	</g>
</g>
<g>
	<g>
		<rect x="188.981" y="440.788" fill="#FFFFFF" width="68.975" height="19.843"/>
	</g>
</g>
</svg>
