<?xml version="1.0" encoding="utf-8"?>
<!-- Generator: Adobe Illustrator 16.0.0, SVG Export Plug-In . SVG Version: 6.00 Build 0)  -->
<!DOCTYPE svg PUBLIC "-//W3C//DTD SVG 1.1//EN" "http://www.w3.org/Graphics/SVG/1.1/DTD/svg11.dtd">
<svg version="1.1" id="Outline" xmlns="http://www.w3.org/2000/svg" xmlns:xlink="http://www.w3.org/1999/xlink" x="0px" y="0px"
	 width="512px" height="512px" viewBox="0 0 512 512" enable-background="new 0 0 512 512" xml:space="preserve">
<path d="M90.771,225.445l-15.737-2.89C73.014,233.589,71.999,244.783,72,256h16C87.998,245.752,88.926,235.525,90.771,225.445z"/>
<path d="M197.456,430.488c13.553,4.54,27.59,7.48,41.826,8.762l1.436-15.936c-12.993-1.171-25.804-3.855-38.174-8L197.456,430.488z"
	/>
<path d="M423.829,248.357l15.984-0.714c-0.756-17.082-3.895-33.974-9.324-50.187l-15.17,5.088
	C420.275,217.344,423.14,232.764,423.829,248.357z"/>
<path d="M256,88c15.492-0.011,30.912,2.117,45.823,6.323l4.354-15.4c-32.813-9.236-67.54-9.236-100.354,0l4.354,15.4
	C225.087,90.117,240.507,87.989,256,88z"/>
<path d="M328,184h128c4.418,0,8-3.582,8-8V96c-0.001-1.242-0.292-2.466-0.851-3.575h0.006l-16-32C445.801,57.714,443.03,56,440,56
	h-96c-3.03,0-5.8,1.712-7.155,4.422l-16,32h0.006C320.292,93.532,320,94.757,320,96v80C320,180.418,323.582,184,328,184z M448,168
	H336v-64h24v24c0,4.418,3.582,8,8,8h48c4.418,0,8-3.582,8-8v-24h24V168z"/>
<path d="M64,208v-16H32V32h80v32h16V24c0-4.418-3.582-8-8-8H24c-4.418,0-8,3.582-8,8v176c0,4.418,3.582,8,8,8H64z"/>
<path d="M184,80H88c-4.418,0-8,3.582-8,8v112c0,4.418,3.582,8,8,8h96c4.418,0,8-3.582,8-8V88C192,83.582,188.418,80,184,80z"/>
<rect x="96" y="96" fill="#40A3FF" width="80" height="96"/>
<path d="M48,48h16v16H48V48z"/>
<path d="M80,48h16v16H80V48z"/>
<path d="M48,80h16v16H48V80z"/>
<path d="M48,112h16v16H48V112z"/>
<path d="M48,144h16v16H48V144z"/>
<path d="M112,144h16v16h-16V144z"/>
<path d="M144,144h16v16h-16V144z"/>
<path d="M112,112h16v16h-16V112z"/>
<path d="M144,112h16v16h-16V112z"/>
<path d="M144,344h-4.261c17.697-19.738,16.042-50.085-3.696-67.781c-19.738-17.697-50.085-16.042-67.781,3.696
	c-16.348,18.233-16.348,45.851,0,64.085H64c-22.081,0.025-39.975,17.919-40,40v72c0.015,13.249,10.751,23.985,24,24v16h16v-16
	c13.249-0.015,23.985-10.751,24-24v-16c0-2.122-0.843-4.156-2.343-5.657L72,420.687V400H56v24c0,2.122,0.843,4.156,2.343,5.657
	L72,443.313V456c-0.005,4.416-3.584,7.995-8,8H48c-4.416-0.005-7.995-3.584-8-8v-72c0.015-13.248,10.751-23.985,24-24h80
	c13.249,0.015,23.985,10.752,24,24v72c-0.005,4.416-3.584,7.995-8,8h-16c-4.416-0.005-7.995-3.584-8-8v-12.688l13.657-13.655
	c1.5-1.501,2.343-3.535,2.343-5.657v-24h-16v20.687l-13.657,13.656c-1.5,1.501-2.343,3.535-2.343,5.657v16
	c0.015,13.249,10.751,23.985,24,24v16h16v-16c13.249-0.015,23.985-10.751,24-24v-72C183.975,361.919,166.081,344.025,144,344z"/>
<path d="M116.009,222.124c-2.667,11.094-4.013,22.465-4.009,33.876h16c-0.005-10.146,1.191-20.258,3.563-30.124L116.009,222.124z"/>
<path d="M196.7,387.261c13.432,6.078,27.723,10.043,42.367,11.753l1.862-15.891c-13.008-1.52-25.702-5.041-37.633-10.439
	L196.7,387.261z"/>
<path d="M383.782,248.463l15.973-0.926c-1-17.57-5.235-34.805-12.494-50.837l-14.577,6.6
	C379.132,217.543,382.895,232.854,383.782,248.463z"/>
<path d="M256,128c15.431-0.023,30.738,2.755,45.176,8.2l5.648-14.97c-32.766-12.304-68.882-12.304-101.648,0l5.648,14.97
	C225.262,130.755,240.569,127.977,256,128L256,128z"/>
<rect x="376" y="104" fill="#40A3FF" width="32" height="16"/>
<polygon fill="#40A3FF" points="378.246,88 382.246,72 401.754,72 405.754,88 "/>
<polygon fill="#40A3FF" points="443.056,88 422.246,88 418.246,72 435.056,72 "/>
<polygon fill="#40A3FF" points="348.944,72 365.754,72 361.754,88 340.944,88 "/>
<path d="M265.37,382.557c0.191,2.394,1.928,4.379,4.276,4.886l18.963,4.092c0.668,3.231,1.518,6.419,2.546,9.531l-14.354,13.004
	c-1.778,1.611-2.291,4.201-1.257,6.372c2.623,5.516,5.544,10.614,8.685,15.153c1.36,1.969,3.852,2.818,6.144,2.084l18.427-5.938
	c2.204,2.472,4.548,4.815,7.021,7.02l-5.938,18.429c-0.734,2.279,0.108,4.775,2.085,6.143c4.538,3.139,9.636,6.061,15.151,8.684
	c2.177,1.034,4.761,0.517,6.372-1.258l13.004-14.353c3.118,1.022,6.306,1.877,9.537,2.547l4.092,18.962
	c0.506,2.345,2.492,4.08,4.881,4.277c2.896,0.227,5.795,0.434,8.749,0.434s5.854-0.207,8.749-0.434
	c2.395-0.191,4.381-1.927,4.885-4.277l4.094-18.962c3.231-0.67,6.425-1.519,9.536-2.547l13.005,14.353
	c1.616,1.779,4.206,2.296,6.371,1.258c5.516-2.623,10.614-5.551,15.152-8.684c1.977-1.367,2.819-3.863,2.084-6.143l-5.937-18.429
	c2.472-2.204,4.816-4.548,7.02-7.014l18.428,5.936c2.28,0.74,4.777-0.109,6.144-2.083c3.141-4.539,6.061-9.637,8.685-15.153
	c1.033-2.17,0.521-4.761-1.258-6.371l-14.353-13.004c1.022-3.118,1.877-6.306,2.546-9.537l18.961-4.092
	c2.347-0.507,4.081-2.492,4.277-4.881c0.223-2.901,0.43-5.8,0.43-8.755c0-2.954-0.207-5.854-0.435-8.75
	c-0.191-2.393-1.926-4.38-4.276-4.884l-18.963-4.093c-0.668-3.232-1.518-6.425-2.546-9.537l14.354-13.005
	c1.778-1.61,2.291-4.2,1.257-6.37c-2.623-5.518-5.55-10.616-8.685-15.153c-1.366-1.977-3.862-2.823-6.144-2.084l-18.427,5.936
	c-2.204-2.471-4.548-4.815-7.021-7.018l5.938-18.429c0.734-2.28-0.108-4.777-2.084-6.145c-4.539-3.139-9.637-6.06-15.152-8.684
	c-2.177-1.038-4.761-0.521-6.372,1.258l-13.003,14.354c-3.119-1.023-6.307-1.878-9.538-2.548l-4.092-18.96
	c-0.506-2.345-2.492-4.081-4.881-4.277c-5.795-0.468-11.709-0.457-17.503,0c-2.396,0.19-4.382,1.927-4.887,4.277l-4.091,18.96
	c-3.233,0.67-6.421,1.52-9.532,2.548l-13.005-14.354c-1.61-1.779-4.195-2.291-6.371-1.258c-5.516,2.624-10.614,5.545-15.152,8.684
	c-1.977,1.367-2.819,3.864-2.084,6.145l5.937,18.429c-2.472,2.202-4.816,4.547-7.02,7.018l-18.422-5.936
	c-2.286-0.739-4.783,0.107-6.144,2.084c-3.141,4.537-6.062,9.636-8.685,15.153c-1.034,2.17-0.521,4.76,1.257,6.37l14.354,13.005
	c-1.022,3.117-1.878,6.305-2.546,9.537l-18.963,4.093c-2.344,0.504-4.08,2.491-4.276,4.88c-0.229,2.9-0.435,5.8-0.435,8.754
	C264.936,376.762,265.142,379.66,265.37,382.557L265.37,382.557z"/>
<path fill="#40A3FF" d="M279.899,370.159l17.502-3.78c2.067-0.45,3.653-2.115,3.992-4.204c0.771-4.743,2.017-9.4,3.699-13.844
	c0.75-1.976,0.21-4.215-1.358-5.634l-13.217-11.977c1.153-2.208,2.355-4.322,3.6-6.323l16.958,5.464
	c2.006,0.644,4.219,0,5.562-1.636c3.035-3.716,6.462-7.136,10.176-10.176c1.636-1.339,2.289-3.545,1.636-5.562l-5.464-16.957
	c2.002-1.25,4.111-2.453,6.323-3.602l11.977,13.222c1.426,1.569,3.669,2.11,5.639,1.358c4.436-1.683,9.09-2.928,13.84-3.699
	c2.088-0.339,3.755-1.924,4.202-3.99l3.776-17.504c2.423-0.128,4.887-0.134,7.3,0l3.781,17.504c0.447,2.066,2.114,3.651,4.204,3.99
	c4.743,0.771,9.398,2.017,13.843,3.699c1.965,0.752,4.208,0.216,5.634-1.358l11.977-13.216c2.206,1.153,4.321,2.354,6.323,3.602
	l-5.464,16.956c-0.648,2.016,0,4.218,1.636,5.561c3.714,3.036,7.137,6.463,10.176,10.177c1.344,1.641,3.551,2.294,5.562,1.636
	l16.958-5.464c1.248,2.002,2.453,4.11,3.602,6.318l-13.223,11.977c-1.569,1.419-2.109,3.658-1.358,5.639
	c1.682,4.435,2.927,9.09,3.698,13.839c0.34,2.089,1.925,3.754,3.991,4.203l17.504,3.775c0.066,1.21,0.112,2.429,0.112,3.653
	c0,1.226-0.04,2.443-0.108,3.647l-17.501,3.781c-2.067,0.446-3.654,2.115-3.992,4.203c-0.772,4.743-2.017,9.398-3.7,13.844
	c-0.75,1.976-0.209,4.213,1.359,5.635l13.218,11.976c-1.153,2.206-2.357,4.321-3.602,6.324l-16.958-5.464
	c-2.022-0.659-4.218-0.006-5.562,1.635c-3.03,3.703-6.457,7.13-10.176,10.175c-1.636,1.339-2.284,3.545-1.636,5.558l5.464,16.955
	c-2.002,1.251-4.111,2.455-6.318,3.604l-11.976-13.223c-1.421-1.568-3.659-2.1-5.64-1.358c-4.434,1.683-9.09,2.928-13.839,3.699
	c-2.088,0.341-3.756,1.924-4.202,3.991l-3.777,17.504c-2.423,0.127-4.887,0.134-7.3,0l-3.78-17.504
	c-0.448-2.067-2.114-3.65-4.204-3.991c-4.743-0.771-9.398-2.017-13.844-3.699c-1.97-0.751-4.213-0.215-5.633,1.358l-11.978,13.216
	c-2.207-1.151-4.322-2.355-6.322-3.602l5.464-16.955c0.647-2.017,0-4.219-1.637-5.562c-3.715-3.036-7.136-6.463-10.175-10.175
	c-1.344-1.643-3.557-2.291-5.563-1.638l-16.956,5.464c-1.251-2.002-2.453-4.11-3.603-6.323l13.223-11.976
	c1.569-1.421,2.109-3.658,1.358-5.64c-1.683-4.436-2.926-9.09-3.7-13.839c-0.339-2.088-1.922-3.755-3.989-4.202l-17.514-3.767
	c-0.063-1.209-0.108-2.427-0.108-3.652C279.791,372.582,279.833,371.363,279.899,370.159z"/>
<path d="M373.754,419.403c25.14,0,45.597-20.456,45.597-45.597c0-25.14-20.457-45.596-45.597-45.596s-45.597,20.456-45.597,45.596
	C328.157,398.947,348.614,419.403,373.754,419.403z"/>
<path fill="#40A3FF" d="M72,312c0-17.674,14.327-32,32-32s32,14.326,32,32s-14.327,32-32,32C86.335,343.98,72.02,329.665,72,312z"/>
</svg>
