<?xml version="1.0" encoding="utf-8"?>
<!-- Generator: Adobe Illustrator 16.0.0, SVG Export Plug-In . SVG Version: 6.00 Build 0)  -->
<!DOCTYPE svg PUBLIC "-//W3C//DTD SVG 1.1//EN" "http://www.w3.org/Graphics/SVG/1.1/DTD/svg11.dtd">
<svg version="1.1" id="Capa_1" xmlns="http://www.w3.org/2000/svg" xmlns:xlink="http://www.w3.org/1999/xlink" x="0px" y="0px"
	 width="512px" height="512px" viewBox="0 0 512 512" enable-background="new 0 0 512 512" xml:space="preserve">
<g>
	<circle fill="#40A3FF" cx="256" cy="256.25" r="160.084"/>
	<path d="M507.479,219.117l-31.122-13.474c-1.239-5.433-2.691-10.861-4.34-16.213l20.213-27.229c1.781-2.401,1.968-5.631,0.473-8.22
		l-30-51.961c-1.496-2.591-4.385-4.044-7.36-3.7l-33.732,3.915c-3.794-4.084-7.76-8.049-11.844-11.843l3.915-33.733
		c0.346-2.972-1.108-5.864-3.699-7.36l-51.961-30c-2.59-1.495-5.819-1.309-8.221,0.473L322.57,39.983
		c-5.354-1.648-10.78-3.101-16.213-4.339L292.883,4.521C291.695,1.776,288.99,0,286,0h-60c-2.99,0-5.695,1.776-6.883,4.521
		l-13.474,31.123c-5.433,1.239-10.861,2.691-16.213,4.339l-27.229-20.212c-2.4-1.783-5.63-1.968-8.22-0.473l-51.962,30
		c-2.591,1.496-4.045,4.388-3.7,7.36l3.915,33.733c-4.083,3.794-8.048,7.759-11.843,11.843l-33.733-3.915
		c-2.974-0.345-5.864,1.109-7.36,3.7l-30,51.961c-1.495,2.589-1.309,5.819,0.473,8.22l20.212,27.229
		c-1.648,5.354-3.101,10.781-4.339,16.213L4.521,219.117C1.776,220.305,0,223.01,0,226v60c0,2.99,1.776,5.695,4.521,6.883
		l31.123,13.475c1.239,5.432,2.691,10.859,4.339,16.213l-20.212,27.229c-1.782,2.401-1.968,5.631-0.473,8.221l30,51.962
		c1.496,2.59,4.389,4.047,7.36,3.699l33.733-3.915c3.795,4.083,7.76,8.049,11.843,11.844l-3.915,33.732
		c-0.345,2.973,1.109,5.864,3.7,7.36l51.962,30c2.59,1.496,5.819,1.309,8.22-0.474l27.229-20.212
		c5.354,1.648,10.781,3.102,16.213,4.34l13.474,31.122C220.305,510.224,223.01,512,226,512h60c2.99,0,5.695-1.776,6.883-4.521
		l13.475-31.122c5.432-1.239,10.859-2.691,16.213-4.34l27.229,20.212c2.4,1.783,5.631,1.97,8.221,0.474l51.961-30
		c2.591-1.496,4.045-4.388,3.699-7.36l-3.915-33.732c4.084-3.795,8.05-7.761,11.844-11.844l33.732,3.915
		c2.976,0.346,5.864-1.109,7.36-3.699l30-51.962c1.495-2.59,1.309-5.819-0.473-8.221l-20.213-27.229
		c1.648-5.354,3.102-10.78,4.34-16.213l31.122-13.475C510.224,291.695,512,288.99,512,286v-60
		C512,223.01,510.224,220.305,507.479,219.117z M497,281.074l-30.128,13.043c-2.236,0.968-3.862,2.961-4.361,5.346
		c-1.557,7.432-3.552,14.891-5.931,22.165c-0.756,2.313-0.344,4.849,1.105,6.802l19.563,26.354l-25.073,43.428l-32.65-3.789
		c-2.419-0.278-4.822,0.63-6.447,2.441c-5.088,5.67-10.544,11.125-16.214,16.214c-1.813,1.625-2.722,4.029-2.441,6.447l3.789,32.65
		l-43.428,25.073l-26.356-19.563c-1.953-1.449-4.487-1.862-6.801-1.105c-7.276,2.379-14.734,4.375-22.165,5.93
		c-2.385,0.499-4.378,2.125-5.346,4.361L281.074,497h-50.148l-13.043-30.129c-0.968-2.236-2.961-3.862-5.346-4.361
		c-7.431-1.556-14.888-3.551-22.165-5.93c-2.312-0.756-4.848-0.344-6.801,1.105l-26.355,19.563l-43.428-25.073l3.789-32.65
		c0.28-2.417-0.629-4.821-2.44-6.446c-5.67-5.089-11.126-10.545-16.215-16.215c-1.625-1.813-4.028-2.718-6.446-2.44l-32.651,3.789
		L34.75,354.785l19.563-26.355c1.45-1.953,1.863-4.488,1.106-6.801c-2.379-7.275-4.375-14.734-5.93-22.165
		c-0.499-2.385-2.125-4.378-4.361-5.346L15,281.074v-50.148l30.129-13.043c2.236-0.968,3.862-2.961,4.361-5.346
		c1.556-7.431,3.551-14.888,5.93-22.165c0.756-2.313,0.344-4.848-1.106-6.801L34.75,157.215l25.073-43.428l32.651,3.789
		c2.42,0.276,4.822-0.63,6.447-2.441c5.089-5.67,10.544-11.126,16.214-16.214c1.812-1.625,2.721-4.029,2.441-6.447l-3.789-32.651
		l43.428-25.073l26.355,19.563c1.953,1.45,4.488,1.864,6.801,1.106c7.275-2.379,14.733-4.374,22.165-5.931
		c2.385-0.5,4.378-2.125,5.346-4.361L230.926,15h50.148l13.043,30.128c0.968,2.236,2.961,3.862,5.346,4.361
		c7.432,1.557,14.891,3.552,22.165,5.931c2.313,0.758,4.848,0.344,6.801-1.106l26.356-19.563l43.428,25.073l-3.789,32.651
		c-0.28,2.418,0.63,4.821,2.441,6.447c5.671,5.088,11.126,10.543,16.214,16.214c1.625,1.811,4.026,2.72,6.447,2.441l32.65-3.789
		l25.073,43.428l-19.563,26.356c-1.45,1.953-1.863,4.489-1.106,6.801c2.379,7.275,4.374,14.733,5.931,22.165
		c0.5,2.385,2.125,4.378,4.361,5.346L497,230.926V281.074z"/>
	<path d="M256,60c-46.574,0-91.72,16.63-127.122,46.826c-3.151,2.688-3.527,7.422-0.839,10.573s7.422,3.527,10.573,0.839
		C171.302,90.356,212.991,75,256,75c99.804,0,181,81.196,181,181c0,99.805-81.196,181-181,181c-99.804,0-181-81.195-181-181
		c0-43.009,15.356-84.698,43.238-117.388c2.688-3.151,2.313-7.885-0.839-10.573s-7.886-2.313-10.573,0.839
		C76.63,164.28,60,209.426,60,256c0,108.075,87.925,196,196,196s196-87.925,196-196S364.075,60,256,60z"/>
	<path d="M256,422c91.533,0,166-74.467,166-166S347.533,90,256,90S90,164.467,90,256S164.467,422,256,422z M248.5,172.5
		c0-4.136,3.364-7.5,7.5-7.5c4.136,0,7.5,3.364,7.5,7.5s-3.364,7.5-7.5,7.5S248.5,176.636,248.5,172.5z M256,105
		c83.262,0,151,67.738,151,151c0,64.809-41.043,120.206-98.5,141.581v-48.474l27.803-27.803c1.407-1.406,2.197-3.314,2.197-5.304
		v-38.79c8.729-3.096,15-11.432,15-21.21c0-12.407-10.093-22.5-22.5-22.5s-22.5,10.093-22.5,22.5c0,9.778,6.271,18.114,15,21.21
		v35.684l-27.803,27.803c-1.407,1.406-2.197,3.314-2.197,5.304v56.285c-9.664,2.479-19.698,4.021-30,4.528V193.71
		c8.729-3.096,15-11.432,15-21.21c0-12.407-10.093-22.5-22.5-22.5s-22.5,10.093-22.5,22.5c0,9.778,6.271,18.114,15,21.21v213.103
		c-10.302-0.506-20.336-2.049-30-4.527V346c0-1.989-0.79-3.896-2.197-5.303L188.5,312.895V277.21c8.729-3.097,15-11.433,15-21.21
		c0-12.407-10.093-22.5-22.5-22.5s-22.5,10.093-22.5,22.5c0,9.777,6.271,18.114,15,21.21V316c0,1.988,0.79,3.896,2.197,5.303
		l27.803,27.803v48.475C146.043,376.206,105,320.809,105,256C105,172.738,172.738,105,256,105z M323.5,256
		c0-4.136,3.364-7.5,7.5-7.5s7.5,3.364,7.5,7.5s-3.364,7.5-7.5,7.5S323.5,260.136,323.5,256z M173.5,256c0-4.136,3.364-7.5,7.5-7.5
		s7.5,3.364,7.5,7.5s-3.364,7.5-7.5,7.5S173.5,260.136,173.5,256z"/>
</g>
</svg>
