<?xml version="1.0" encoding="utf-8"?>
<!-- Generator: Adobe Illustrator 16.0.0, SVG Export Plug-In . SVG Version: 6.00 Build 0)  -->
<!DOCTYPE svg PUBLIC "-//W3C//DTD SVG 1.1//EN" "http://www.w3.org/Graphics/SVG/1.1/DTD/svg11.dtd">
<svg version="1.1" id="Capa_1" xmlns="http://www.w3.org/2000/svg" xmlns:xlink="http://www.w3.org/1999/xlink" x="0px" y="0px"
	 width="612px" height="792px" viewBox="0 0 612 792" enable-background="new 0 0 612 792" xml:space="preserve">
<g>
	<path d="M133.875,515.531c-5.281,0-9.563,4.281-9.563,9.563c0,5.272-4.29,9.563-9.563,9.563s-9.563-4.29-9.563-9.563
		s4.29-9.563,9.563-9.563c5.281,0,9.563-4.281,9.563-9.563s-4.282-9.563-9.563-9.563c-15.819,0-28.688,12.87-28.688,28.688
		s12.869,28.688,28.688,28.688s28.688-12.87,28.688-28.688C143.438,519.813,139.156,515.531,133.875,515.531z"/>
	<path d="M516.375,515.531c-5.281,0-9.563,4.281-9.563,9.563c0,5.272-4.29,9.563-9.563,9.563s-9.563-4.29-9.563-9.563
		s4.29-9.563,9.563-9.563c5.281,0,9.563-4.281,9.563-9.563s-4.281-9.563-9.563-9.563c-15.818,0-28.688,12.87-28.688,28.688
		s12.869,28.688,28.688,28.688s28.688-12.87,28.688-28.688C525.938,519.813,521.656,515.531,516.375,515.531z"/>
	<path d="M612,391.219c0-2.667-1.094-5.077-2.854-6.811c-4.089-11.302-12.374-20.791-23.575-26.393
		c-0.299-0.149-0.604-0.282-0.917-0.399l-31.603-11.864l-19.252-73.147c-0.027-0.105-0.056-0.21-0.088-0.314
		c-6.113-20.379-24.518-34.072-45.795-34.072H420.75v-19.125c0-10.545-8.58-19.125-19.125-19.125h-382.5
		C8.58,199.969,0,208.549,0,219.094v267.75c0,10.545,8.58,19.125,19.125,19.125h31.486c-0.926,3.101-1.635,6.293-2.105,9.563H9.563
		c-5.281,0-9.563,4.281-9.563,9.563s4.282,9.563,9.563,9.563h38.944c4.656,32.396,32.582,57.375,66.243,57.375
		s61.588-24.979,66.243-57.375h19.819c0,15.817,12.869,28.688,28.688,28.688h57.375c15.819,0,28.688-12.87,28.688-28.688h115.444
		c4.656,32.396,32.582,57.375,66.243,57.375s61.589-24.979,66.243-57.375h38.944c5.281,0,9.563-4.281,9.563-9.563
		s-4.281-9.563-9.563-9.563h-38.944c-0.47-3.27-1.179-6.462-2.105-9.563h31.487c10.545,0,19.125-8.58,19.125-19.125v-86.063
		c0-2.247-0.156-4.465-0.458-6.644C611.838,393.217,612,392.237,612,391.219z M592.875,448.594h-9.563v-9.563h9.563V448.594z
		 M585.582,381.656H420.75v-19.125h122.578l34.104,12.802C580.573,376.967,583.311,379.124,585.582,381.656z M57.376,486.844H19.125
		v-47.813h296.442c5.281,0,9.563-4.281,9.563-9.563s-4.281-9.563-9.563-9.563H19.125V219.094h382.5v267.75h-114.75H229.5h-57.373
		c-0.79,0-1.554,0.106-2.289,0.287c-12.087-17.487-32.268-28.975-55.088-28.975s-43,11.487-55.088,28.975
		C58.928,486.95,58.165,486.844,57.376,486.844z M180.993,515.531c-0.47-3.27-1.179-6.462-2.105-9.563h23.569
		c-1.061,2.993-1.645,6.211-1.645,9.563H180.993z M296.438,534.656c0,5.272-4.29,9.563-9.563,9.563H229.5
		c-5.272,0-9.563-4.29-9.563-9.563v-9.54c0-0.008,0.001-0.016,0.001-0.022s-0.001-0.016-0.001-0.022v-9.54
		c0-5.272,4.29-9.563,9.563-9.563h57.375c5.272,0,9.563,4.29,9.563,9.563V534.656z M313.918,505.969h97.27h21.923
		c-0.926,3.101-1.635,6.293-2.104,9.563H315.563C315.563,512.18,314.979,508.962,313.918,505.969z M497.25,572.906
		c-26.364,0-47.813-21.448-47.813-47.813s21.448-47.813,47.813-47.813s47.813,21.448,47.813,47.813S523.614,572.906,497.25,572.906z
		 M554.625,486.844c-0.789,0-1.553,0.106-2.287,0.287c-12.088-17.487-32.267-28.975-55.088-28.975s-43,11.487-55.088,28.975
		c-0.734-0.181-1.497-0.287-2.286-0.287h-19.125v-86.063h172.125v19.125h-9.563c-10.545,0-19.125,8.58-19.125,19.125v9.563
		c0,10.545,8.58,19.125,19.125,19.125h9.563v19.125H554.625z"/>
	<path d="M239.063,515.531c-2.522,0-4.984,1.026-6.766,2.797c-1.781,1.781-2.797,4.256-2.797,6.766c0,2.521,1.016,4.984,2.797,6.766
		c1.781,1.779,4.244,2.797,6.766,2.797s4.984-1.018,6.766-2.797c1.781-1.781,2.797-4.257,2.797-6.766
		c0-2.512-1.016-4.984-2.797-6.766C244.047,516.558,241.584,515.531,239.063,515.531z"/>
	<path d="M353.817,439.031h19.12c5.281,0,9.563-4.281,9.563-9.563s-4.281-9.563-9.563-9.563h-19.12
		c-5.281,0-9.563,4.281-9.563,9.563S348.535,439.031,353.817,439.031z"/>
</g>
<path fill="#40A3FF" d="M114.75,572.906c-26.364,0-47.813-21.448-47.813-47.813s21.449-47.813,47.813-47.813
	s47.813,21.448,47.813,47.813S141.114,572.906,114.75,572.906z"/>
<path fill="#40A3FF" d="M497.25,572.906c-26.363,0-47.813-21.448-47.813-47.813s21.449-47.813,47.813-47.813
	s47.813,21.448,47.813,47.813S523.613,572.906,497.25,572.906z"/>
<path fill="#40A3FF" d="M487.916,257.344c12.716,0,23.722,8.151,27.434,20.299l17.308,65.764H420.75v-86.063H487.916z"/>
</svg>
