<?xml version="1.0" encoding="utf-8"?>
<!-- Generator: Adobe Illustrator 16.0.0, SVG Export Plug-In . SVG Version: 6.00 Build 0)  -->
<!DOCTYPE svg PUBLIC "-//W3C//DTD SVG 1.1//EN" "http://www.w3.org/Graphics/SVG/1.1/DTD/svg11.dtd">
<svg version="1.1" id="Bold" xmlns="http://www.w3.org/2000/svg" xmlns:xlink="http://www.w3.org/1999/xlink" x="0px" y="0px"
	 width="512px" height="512px" viewBox="0 0 512 512" enable-background="new 0 0 512 512" xml:space="preserve">
<path fill="#FFFFFF" d="M256,234.667c-23.531,0-42.667-19.136-42.667-42.667s19.136-42.667,42.667-42.667
	c23.529,0,42.666,19.136,42.666,42.667S279.531,234.667,256,234.667z"/>
<path fill="#FFFFFF" d="M325.332,362.666H186.666c-8.832,0-16-7.168-16-16v-21.332c0-32.363,26.305-58.668,58.667-58.668h53.333
	c32.362,0,58.666,26.305,58.666,58.668v21.332C341.332,355.498,334.164,362.666,325.332,362.666z"/>
<path fill="#FFFFFF" d="M256,512c-11.798,0-21.334-9.558-21.334-21.333v-51.009c0-11.775,9.536-21.333,21.334-21.333
	c11.797,0,21.333,9.558,21.333,21.333v51.009C277.333,502.442,267.797,512,256,512z"/>
<path fill="#FFFFFF" d="M256,93.675c-11.798,0-21.334-9.558-21.334-21.333V21.333C234.666,9.557,244.202,0,256,0
	c11.797,0,21.333,9.557,21.333,21.333v51.008C277.333,84.117,267.797,93.675,256,93.675z"/>
<path fill="#FFFFFF" d="M72.363,277.334H21.333C9.536,277.334,0,267.775,0,256c0-11.776,9.536-21.333,21.333-21.333h51.028
	c11.799,0,21.333,9.558,21.333,21.333C93.696,267.775,84.139,277.334,72.363,277.334z"/>
<path fill="#FFFFFF" d="M490.665,277.334h-51.028c-11.797,0-21.333-9.559-21.333-21.334c0-11.776,9.536-21.333,21.333-21.333h51.028
	c11.799,0,21.335,9.558,21.335,21.333C512,267.775,502.464,277.334,490.665,277.334z"/>
<path fill="#FFFFFF" d="M256,474.667c-120.576,0-218.667-98.091-218.667-218.667S135.424,37.333,256,37.333
	c120.574,0,218.666,98.09,218.666,218.667S376.574,474.667,256,474.667z M256,67C151.786,67,67,151.787,67,256s84.786,189,189,189
	c104.213,0,189-84.787,189-189S360.213,67,256,67z"/>
</svg>
