<?xml version="1.0" encoding="utf-8"?>
<!-- Generator: Adobe Illustrator 16.0.0, SVG Export Plug-In . SVG Version: 6.00 Build 0)  -->
<!DOCTYPE svg PUBLIC "-//W3C//DTD SVG 1.1//EN" "http://www.w3.org/Graphics/SVG/1.1/DTD/svg11.dtd">
<svg version="1.1" id="Layer_1" xmlns="http://www.w3.org/2000/svg" xmlns:xlink="http://www.w3.org/1999/xlink" x="0px" y="0px"
	 width="480.007px" height="480.017px" viewBox="15.993 16 480.007 480.017" enable-background="new 15.993 16 480.007 480.017"
	 xml:space="preserve">
<g id="Vdo_maketing">
	<path fill="#FFFFFF" d="M472,16H104c-13.255,0-24,10.745-24,24v280H65.672c-24.527-0.354-45.556,17.44-49.264,41.688
		c-3.46,26.311,15.063,50.443,41.373,53.902c2.063,0.271,4.139,0.408,6.219,0.41v55.056c-0.209,11.679,7.808,21.9,19.2,24.48
		c13.014,2.629,25.694-5.79,28.323-18.804c0.315-1.559,0.475-3.144,0.477-4.732v-50.52l74.399,40.567
		c2.352,1.282,4.986,1.953,7.664,1.952H208c13.255,0,24-10.745,24-24l0,0v-8h240c13.254,0,24-10.745,24-24V40
		C496,26.745,485.254,16,472,16z M32,368c0-17.674,14.326-32,32-32h32v64H64C46.326,400,32,385.674,32,368z M96,472
		c0,4.418-3.582,8-8,8c-4.419,0-8-3.582-8-8v-56h16V472z M112,400v-67.248l72-39.271V442.52l-72-39.271V400z M216,440
		c0,4.418-3.582,8-8,8h-8V288h8c4.418,0,8,3.582,8,8V440z M480,408c0,4.418-3.582,8-8,8H232v-32h10.224
		c4.345,7.608,14.035,10.254,21.643,5.909c2.463-1.406,4.503-3.446,5.909-5.909H440c4.418,0,8-3.582,8-8s-3.582-8-8-8H269.776
		c-4.345-7.608-14.034-10.254-21.643-5.909c-2.462,1.406-4.503,3.446-5.909,5.909H232v-16h208c4.418,0,8-3.582,8-8V152
		c0-4.418-3.582-8-8-8H136c-4.419,0-8,3.582-8,8v152c0.049,0.544,0.158,1.08,0.328,1.6l-26.4,14.4H96V112h384V408z M96,96V40
		c0-4.418,3.581-8,8-8h368c4.418,0,8,3.582,8,8v56H96z"/>
	<path fill="#FFFFFF" d="M440,40H280c-13.255,0-24,10.745-24,24s10.745,24,24,24h160c13.254,0,24-10.745,24-24S453.254,40,440,40
		L440,40z M440,72H280c-4.419,0-8-3.582-8-8s3.581-8,8-8h160c4.418,0,8,3.582,8,8S444.418,72,440,72z"/>
	<circle fill="#FFFFFF" cx="128" cy="64" r="16"/>
	<circle fill="#FFFFFF" cx="176" cy="64" r="16"/>
	<circle fill="#FFFFFF" cx="224" cy="64" r="16"/>
</g>
</svg>
