<svg xmlns="http://www.w3.org/2000/svg" xmlns:xlink="http://www.w3.org/1999/xlink" width="1155.748" height="1022" viewBox="0 0 1155.748 1022">
  <defs>
    <linearGradient id="linear-gradient" y1="0.5" x2="1" y2="0.5" gradientUnits="objectBoundingBox">
      <stop offset="0" stop-color="#320c7c"/>
      <stop offset="0.005"/>
      <stop offset="1" stop-color="#0078ff"/>
    </linearGradient>
    <radialGradient id="radial-gradient" cx="0.5" cy="0.5" r="0.5" gradientTransform="matrix(-0.001, 1, -1, 0, 21.692, 2.998)" gradientUnits="objectBoundingBox">
      <stop offset="0"/>
      <stop offset="0.076" stop-color="#2c2c2c"/>
      <stop offset="0.183" stop-color="#636363"/>
      <stop offset="0.29" stop-color="#939393"/>
      <stop offset="0.396" stop-color="#b9b9b9"/>
      <stop offset="0.5" stop-color="#d8d8d8"/>
      <stop offset="0.602" stop-color="#ededed"/>
      <stop offset="0.7" stop-color="#fafafa"/>
      <stop offset="0.792" stop-color="#fff"/>
    </radialGradient>
    <radialGradient id="radial-gradient-2" cx="0.5" cy="0.5" r="0.5" gradientTransform="matrix(-0.001, 1, -1, 0, 12.757, 1.972)" xlink:href="#radial-gradient"/>
    <radialGradient id="radial-gradient-3" cx="0.5" cy="0.5" r="0.5" gradientTransform="matrix(-0.001, 1, -1, 0, 14.116, 0.493)" xlink:href="#radial-gradient"/>
    <linearGradient id="linear-gradient-2" x1="0.432" y1="1.037" x2="0.573" y2="-0.138" gradientUnits="objectBoundingBox">
      <stop offset="0" stop-color="#2c517b"/>
      <stop offset="0.812" stop-color="#0078ff"/>
      <stop offset="1" stop-color="#a6cbf5"/>
    </linearGradient>
    <clipPath id="clip-path">
      <path id="Path_3" data-name="Path 3" d="M583.808,436.69,332.8,400.47a28.042,28.042,0,0,1-16.863-8.618c-4.305-4.536-7.416-10.545-9.724-17.447a125.808,125.808,0,0,1-4.91-22.817c-1.093-8.117-1.776-16.548-2.438-24.72-.839-10.426-1.7-19.854-2.9-28.168a110.36,110.36,0,0,0-4.889-21.5c-2.166-5.983-4.97-10.737-8.717-14.154a24.377,24.377,0,0,0-14.4-6.123l248.132,26.088a25.271,25.271,0,0,1,15.128,6.533c3.931,3.656,6.865,8.745,9.122,15.154a119.833,119.833,0,0,1,5.071,23.035c1.231,8.909,2.108,19.013,2.958,30.183.667,8.756,1.355,17.79,2.48,26.486a136.518,136.518,0,0,0,5.087,24.44c2.4,7.39,5.656,13.819,10.169,18.667A29.091,29.091,0,0,0,583.808,436.69Z" transform="translate(-267.961 -256.92)" fill="url(#linear-gradient)"/>
    </clipPath>
    <linearGradient id="linear-gradient-4" x1="0.432" y1="1.037" x2="0.573" y2="-0.138" gradientUnits="objectBoundingBox">
      <stop offset="0" stop-color="#2c517b"/>
      <stop offset="0.812" stop-color="#132437"/>
      <stop offset="1" stop-color="#a6cbf5"/>
    </linearGradient>
    <linearGradient id="linear-gradient-6" x1="0.56" y1="0.713" x2="0.408" y2="0.173" gradientUnits="objectBoundingBox">
      <stop offset="0" stop-color="#464465"/>
      <stop offset="0.487" stop-color="#9897a9"/>
      <stop offset="0.497" stop-color="#d9d9df"/>
      <stop offset="1" stop-color="#9897a9"/>
    </linearGradient>
    <linearGradient id="linear-gradient-8" x1="0.644" y1="0.007" x2="0.346" y2="1.026" gradientUnits="objectBoundingBox">
      <stop offset="0.503" stop-color="#d9d9df"/>
      <stop offset="1" stop-color="#464465"/>
    </linearGradient>
    <linearGradient id="linear-gradient-9" x1="0.5" y1="1" x2="0.5" gradientUnits="objectBoundingBox">
      <stop offset="0" stop-color="#211915"/>
      <stop offset="1" stop-color="#fff"/>
    </linearGradient>
    <linearGradient id="linear-gradient-10" x1="0.302" y1="1.125" x2="0.576" y2="0.253" xlink:href="#linear-gradient-9"/>
    <radialGradient id="radial-gradient-4" cx="0.5" cy="0.5" r="0.541" gradientTransform="matrix(-0.907, 0.925, -0.18, -0.031, -14.28, -87.552)" gradientUnits="objectBoundingBox">
      <stop offset="0" stop-color="#fff"/>
      <stop offset="0.025" stop-color="#e0e0e0"/>
      <stop offset="0.07" stop-color="#b1b1b1"/>
      <stop offset="0.118" stop-color="#878787"/>
      <stop offset="0.169" stop-color="#626262"/>
      <stop offset="0.224" stop-color="#444"/>
      <stop offset="0.284" stop-color="#2b2b2b"/>
      <stop offset="0.35" stop-color="#171717"/>
      <stop offset="0.427" stop-color="#0a0a0a"/>
      <stop offset="0.524" stop-color="#020202"/>
      <stop offset="0.706"/>
    </radialGradient>
  </defs>
  <g id="VisionAIze" transform="translate(-382 -58)">
    <g id="Group_6" data-name="Group 6" transform="translate(382 220.535)">
      <ellipse id="Ellipse_1" data-name="Ellipse 1" cx="36.923" cy="190.99" rx="36.923" ry="190.99" transform="translate(0 782.468) rotate(-78.371)" fill="url(#radial-gradient)" style="mix-blend-mode: multiply;isolation: isolate"/>
      <ellipse id="Ellipse_2" data-name="Ellipse 2" cx="44.539" cy="216.904" rx="44.539" ry="216.904" transform="matrix(0.159, -0.987, 0.987, 0.159, 309.621, 617.983)" fill="url(#radial-gradient-2)" style="mix-blend-mode: multiply;isolation: isolate"/>
      <ellipse id="Ellipse_3" data-name="Ellipse 3" cx="43.436" cy="185.278" rx="43.436" ry="185.278" transform="translate(681.085 470.279) rotate(-83.249)" fill="url(#radial-gradient-3)" style="mix-blend-mode: multiply;isolation: isolate"/>
      <path id="Path_1" data-name="Path 1" d="M610.6,152.406,357.926,337.461l56.331,6.546a1.434,1.434,0,0,0-.348.036c-1.314.384-1.737,4.009-2.184,5.354q-6.579,19.845-13.965,39.414c-10.976,29.2-23.074,58.134-37.537,85.8A332.285,332.285,0,0,1,336.7,513.827c-7.538,10.568-16.338,21.835-27.81,28.371-4.534,2.581-9.6,4.168-14.842,3.446l46.516,6.419q48.9,6.746,97.8,13.495l86.458,11.929q9.7,1.336,19.4,2.677c15.881,2.168,28.815-12.056,37.88-23.263,18.758-23.193,32.606-50.512,44.956-77.517,12.238-26.764,23.136-54.1,33.04-81.812q3.35-9.379,6.544-18.81,2.481-7.346,4.858-14.726l61.875,10.794Z" transform="translate(397.017 -134.734)" fill="url(#linear-gradient-2)"/>
      <g id="Group_3" data-name="Group 3" transform="translate(623.333 289.057)" style="isolation: isolate">
        <g id="Group_2" data-name="Group 2" clip-path="url(#clip-path)">
          <g id="Group_1" data-name="Group 1">
            <path id="Path_2" data-name="Path 2" d="M583.808,436.69,332.8,400.47a28.042,28.042,0,0,1-16.863-8.618c-4.305-4.536-7.416-10.545-9.724-17.447a125.808,125.808,0,0,1-4.91-22.817c-1.093-8.117-1.776-16.548-2.438-24.72-.839-10.426-1.7-19.854-2.9-28.168a110.36,110.36,0,0,0-4.889-21.5c-2.166-5.983-4.97-10.737-8.717-14.154a24.377,24.377,0,0,0-14.4-6.123l248.132,26.088a25.271,25.271,0,0,1,15.128,6.533c3.931,3.656,6.865,8.745,9.122,15.154a119.833,119.833,0,0,1,5.071,23.035c1.231,8.909,2.108,19.013,2.958,30.183.667,8.756,1.355,17.79,2.48,26.486a136.518,136.518,0,0,0,5.087,24.44c2.4,7.39,5.656,13.819,10.169,18.667a29.091,29.091,0,0,0,17.7,9.184" transform="translate(-267.961 -256.92)" fill="url(#linear-gradient)"/>
          </g>
        </g>
      </g>
      <path id="Path_4" data-name="Path 4" d="M514.246,462.213c14.8-31.051,29.243-62.3,45.444-92.653,7.45-13.962,15.325-27.735,24.05-40.941s18.3-26.083,29.957-36.859c11.848-10.955,26.9-20.158,43.655-18.823l-16.7-1.649-42.221-4.165-55.916-5.518-57.778-5.7q-23.907-2.356-47.817-4.718l-26.026-2.565c-20.552-2.028-37.789,10.709-51.065,25.107-22.882,24.819-39.064,55.812-54.254,85.694-16.754,32.964-32.03,66.653-48.775,99.62-7.824,15.4-15.943,30.695-25.073,45.369-8.618,13.853-18.353,29.171-32.165,38.43a24.643,24.643,0,0,1-19.415,3.812h0l38.106,7.582,82.55,16.424,80.932,16.1q12.787,2.544,25.569,5.089c4.5.893,9.148,2.1,13.741,2.285,9.166.366,17.281-6.11,23.393-12.248,8.639-8.681,15.743-18.859,22.279-29.173,14.445-22.791,26.564-47.056,38.319-71.314q4.639-9.574,9.213-19.184C516.593,457.288,513.5,463.784,514.246,462.213Z" transform="translate(215.16 18.543)" fill="url(#linear-gradient-4)"/>
      <path id="Path_5" data-name="Path 5" d="M442.216,520.124c-6.523-6.806-11.259-15.538-14.793-25.437s-5.871-20.981-7.582-32.461-2.807-23.383-3.869-34.925c-1.228-13.37-2.488-25.5-4.181-36.244s-3.82-20.121-6.78-27.968-6.756-14.18-11.791-18.849a35.125,35.125,0,0,0-19.241-8.891L143.673,300.267a33.747,33.747,0,0,1,18.252,8.327c4.78,4.362,8.392,10.267,11.22,17.59s4.866,16.05,6.5,26.07,2.859,21.321,4.061,33.78c1.036,10.758,2.1,21.843,3.76,32.552a160.435,160.435,0,0,0,7.273,30.272c3.378,9.236,7.891,17.39,14.092,23.751A45.666,45.666,0,0,0,233,485.618l234.671,48.37A47.588,47.588,0,0,1,442.216,520.124Z" transform="translate(156.929 101.346)" fill="url(#linear-gradient)"/>
      <g id="Group_4" data-name="Group 4" transform="translate(277.501 229.3)">
        <path id="Path_6" data-name="Path 6" d="M925.792,233.907l16.252,6.59c.428.174,2.108.561,2.327.945.439.776-1.254,4.422-1.563,5.375q-2.469,7.587-5.04,15.138c-9.01,26.465-18.87,52.665-29.9,78.356-11.43,26.623-24.042,52.964-39.575,77.466a223.943,223.943,0,0,1-22.822,30.674c-8.592,9.478-18.771,18.628-31.006,23.006-10.35,3.7-22.5,3.238-31.554-3.477-10.158-7.538-14.456-20.672-17.01-32.528-5.983-27.742-3.952-56.6-10.176-84.308-2.514-11.191-6.92-23.92-18.132-29.067-11.617-5.333-23.629-1.158-33.245,6.162-10.439,7.943-18.784,18.6-26.278,29.256a399.9,399.9,0,0,0-21.981,35.631c-28.927,51.941-51.408,107.148-79.039,159.753-12.685,24.146-26.351,49.323-45.675,68.889-8.639,8.745-19.168,16.725-31.562,18.867-11.651,2.018-24.917-1.08-34.808-7.458-22.277-14.359-28.114-44.234-31.466-68.562-3.848-27.93-3.942-56.617-10.794-84.077-2.851-11.43-7.224-23.562-16.491-31.386-8.592-7.255-20.724-9.574-31.674-7.907-24.227,3.682-43.984,24.027-59.063,41.809-17.068,20.129-31.448,42.507-44.673,65.3-14.879,25.634-28.257,52.13-40.78,78.982a1656.426,1656.426,0,0,0-64.036,159.042q-5.258,15.214-10.161,30.547-8.261-2.664-16.525-5.331c-.963-.309-4.264-.88-4.536-1.7-.19-.569.743-2.3.922-2.849q1.211-3.716,2.456-7.426,12.067-36.063,25.67-71.592c21.082-55.415,44.343-110.219,72.083-162.664,12.755-24.115,26.506-47.783,42.156-70.146,15.014-21.459,31.926-42.445,52.81-58.476,20.747-15.923,46.687-25.639,72.5-16.59,25.089,8.8,36.106,33.969,41.393,58.178,6.162,28.22,6.338,57.3,10.68,85.79,3.386,22.206,10.953,54.493,39.713,53.169,11.973-.55,21.791-11.6,28.856-20.181,8.847-10.737,16.271-22.635,23.24-34.65,14.957-25.787,27.831-52.753,40.63-79.652,12.892-27.093,25.546-54.314,39.386-80.942,13.16-25.315,27.234-50.819,45.555-72.828,16.008-19.228,38.1-37.989,64.872-31.731,26.992,6.312,36.181,34.447,40.045,58.79,2.35,14.819,3.08,29.8,4.422,44.727,1.062,11.8,2.122,24,5.463,35.413,1.329,4.534,3.168,9.9,7.439,12.472,5.144,3.09,12.145,1.641,17.239-.745,11.469-5.375,20.324-16.055,27.8-25.943,17.133-22.648,30.108-48.5,41.9-74.227,12.29-26.805,23.1-54.3,32.972-82.077Q920.632,249.891,925.792,233.907Z" transform="translate(-134.776 -233.907)" fill="url(#linear-gradient-6)"/>
      </g>
      <g id="Group_5" data-name="Group 5" transform="translate(64.476 714.77)">
        <path id="Path_7" data-name="Path 7" d="M289.519,489.054,72.724,427.3l-19.987-6.434,215.649,61.37Z" transform="translate(-52.737 -420.868)" fill="gray"/>
      </g>
      <path id="Path_8" data-name="Path 8" d="M293.626,292.041c-21.412-3.108-41.474,5.8-58.211,18.576C215.937,325.489,200.069,345,185.99,364.9c-29.763,42.058-53.039,88.818-73.921,135.794Q81.4,569.7,56.916,641.258c-1.623,4.731-3.228,9.467-4.778,14.219-.426,1.309-.615,1.031-.078,1.542.8.766,3.534,1,4.575,1.3l21.822,6.208q37.318,10.622,74.638,21.241,39.047,11.112,78.1,22.227,13.075,3.72,26.151,7.442l7.367,2.1c.462.132,2.132.924,2.612.743.667-.255,1.727-5.3,1.994-6.118q1.25-3.778,2.524-7.554,2.793-8.288,5.679-16.541,5.913-16.955,12.144-33.8,13.4-36.2,28.174-71.872c20.607-49.559,43.3-98.54,70.782-144.7,13.264-22.282,27.776-44.034,44.761-63.675,15.479-17.9,33.7-35.4,56.046-44.244a67.565,67.565,0,0,1,34.748-4.313L501.2,322.136l-55.152-8q-33.212-4.814-66.427-9.631-28.827-4.179-57.648-8.356Q308,294.123,294.033,292.1Z" transform="translate(10.132 87.22)" fill="url(#linear-gradient-4)"/>
      <path id="Path_9" data-name="Path 9" d="M564.086,384.169,440.864,163.083l-24.911-10.676L538.73,374.828Z" transform="translate(591.662 -134.734)" fill="url(#linear-gradient-8)"/>
      <path id="Path_10" data-name="Path 10" d="M439.407,233.907l18.729,7.6,68.5,12.54-26.326-9.315Z" transform="translate(629.11 -4.607)" fill="#86839a"/>
      <path id="Path_11" data-name="Path 11" d="M198.266,351.381h0a7.594,7.594,0,0,0-7.284,3.594c-1.41,2.441-.436,4.8,2.173,5.256h0a7.6,7.6,0,0,0,7.281-3.589C201.849,354.2,200.878,351.843,198.266,351.381Zm-11.63-6.923a7.6,7.6,0,0,0,7.284-3.591c1.41-2.444.436-4.8-2.173-5.256a7.59,7.59,0,0,0-7.281,3.591C183.055,341.643,184.029,344,186.636,344.458Zm19.29-6.346h0a7.593,7.593,0,0,0-7.281,3.589c-1.41,2.443-.439,4.8,2.173,5.258h0a7.6,7.6,0,0,0,7.281-3.589C209.512,340.924,208.541,338.574,205.926,338.112Zm17.5-21.287L199.79,312.66l-5.11,8.847,23.637,4.168ZM215,349.459a7.6,7.6,0,0,0,7.281-3.589c1.41-2.446.439-4.8-2.173-5.258a7.586,7.586,0,0,0-7.281,3.591C211.418,346.644,212.392,349,215,349.459Zm-7.663,13.272a7.6,7.6,0,0,0,7.281-3.589c1.413-2.446.439-4.8-2.173-5.258a7.59,7.59,0,0,0-7.281,3.591C203.755,359.916,204.729,362.271,207.339,362.731Zm-28.363-5a7.593,7.593,0,0,0,7.281-3.589c1.41-2.446.439-4.8-2.173-5.261a7.6,7.6,0,0,0-7.281,3.594C175.392,354.915,176.366,357.27,178.976,357.729ZM157.13,368.5a7.6,7.6,0,0,0,7.281-3.591c1.413-2.446.436-4.8-2.173-5.258a7.593,7.593,0,0,0-7.281,3.591C153.549,365.686,154.521,368.041,157.13,368.5Zm89.929-47.511-4.726-.831-5.108,8.847,4.726.833-33.2,57.508-70.906-12.5,33.2-57.508,4.726.834,5.108-8.849-4.726-.831c-5.222-.922-11.742,2.293-14.562,7.18l-33.2,57.508c-2.823,4.889-.875,9.595,4.344,10.516l70.909,12.5c5.222.922,11.739-2.3,14.562-7.182l33.2-57.508C254.229,326.622,252.281,321.914,247.059,320.992Zm-82.267,34.237a7.591,7.591,0,0,0,7.281-3.589c1.413-2.446.439-4.8-2.171-5.261a7.6,7.6,0,0,0-7.284,3.594C161.209,352.414,162.183,354.769,164.793,355.229Zm7.663-13.271a7.6,7.6,0,0,0,7.281-3.589c1.413-2.446.436-4.8-2.173-5.258a7.591,7.591,0,0,0-7.281,3.591C168.872,339.143,169.846,341.5,172.455,341.958ZM171.313,371a7.6,7.6,0,0,0,7.281-3.591c1.413-2.446.436-4.8-2.173-5.258a7.593,7.593,0,0,0-7.281,3.591C167.73,368.186,168.7,370.541,171.313,371Zm13.913-51.164a7.6,7.6,0,0,0,7.281-3.591l5.108-8.847c1.413-2.443.439-4.8-2.171-5.258a7.6,7.6,0,0,0-7.284,3.591l-5.108,8.847C181.642,317.025,182.616,319.38,185.226,319.839Zm42.546,7.5a7.6,7.6,0,0,0,7.281-3.591l5.108-8.847c1.413-2.444.434-4.8-2.173-5.258a7.6,7.6,0,0,0-7.281,3.591l-5.108,8.847C224.188,324.526,225.162,326.881,227.772,327.341Z" transform="translate(130.458 104.216)" fill="url(#linear-gradient-9)" style="mix-blend-mode: screen;isolation: isolate"/>
      <path id="Path_12" data-name="Path 12" d="M368.444,269.279l-62.706-8.813c-3.461-.486-7.683,1.784-9.431,5.069l-23.725,44.621c-1.309,2.464-.265,4.76,2.329,5.123l65.835,9.254a7.513,7.513,0,0,0,7.076-3.8l23.726-44.623C373.295,272.824,371.906,269.765,368.444,269.279Zm-26.883,47.363-59.543-8.369,21.342-40.136L362.9,276.5Zm5.4,11.7L265.8,316.935a2.51,2.51,0,0,0-2.363,1.27c-.771,1.449-1.963,3.693-2.929,5.513-1.568,2.947.317,5.775,4.207,6.32l70.216,9.87c3.89.545,8.312-1.4,9.875-4.344l2.932-5.51A1.072,1.072,0,0,0,346.957,328.342Zm-32.5,2.062a2.507,2.507,0,0,1-2.363,1.27l-19.584-2.752a1.072,1.072,0,0,1-.776-1.711,2.5,2.5,0,0,1,2.36-1.267l19.584,2.752A1.07,1.07,0,0,1,314.458,330.4Z" transform="translate(635.586 -127.306)" fill="url(#linear-gradient-10)" style="mix-blend-mode: screen;isolation: isolate"/>
      <path id="Path_13" data-name="Path 13" d="M410.506,281.078c-25.535,0-38.747-20.773-29.454-46.3s37.625-46.3,63.161-46.3,38.744,20.771,29.451,46.3S436.038,281.078,410.506,281.078Zm35.369-42.1a111.5,111.5,0,0,1-14.134,25.413,62.057,62.057,0,0,1-5.536,6.354c15.562-4.63,30.316-17.1,37.288-31.767Zm-57.708,0c-3.705,14.666,1.96,27.137,14.159,31.767a27.534,27.534,0,0,1-.911-6.359c-.262-6.9,1.285-15.878,4.365-25.408Zm26.026,0c-2.7,8.442-4.058,16.307-3.838,22.282.249,6.627,2.363,8.979,4.1,8.979s5.554-2.353,10.631-8.979a99.436,99.436,0,0,0,12.378-22.282Zm52.359-8.405c3.7-14.666-1.966-27.137-14.165-31.762a27.439,27.439,0,0,1,.911,6.354c.267,6.9-1.28,15.878-4.362,25.408Zm-26.031,0c2.7-8.449,4.064-16.317,3.838-22.277-.249-6.632-2.36-8.984-4.09-8.984s-5.56,2.353-10.636,8.982a99.412,99.412,0,0,0-12.378,22.279Zm-31.682,0a111.9,111.9,0,0,1,14.133-25.413,62.305,62.305,0,0,1,5.539-6.351c-15.567,4.627-30.313,17.1-37.285,31.765Z" transform="translate(243.188 124.848)" fill="url(#linear-gradient-9)" style="mix-blend-mode: screen;isolation: isolate"/>
      <path id="Path_14" data-name="Path 14" d="M145.973,615.642c21.082-55.415,44.343-110.219,72.083-162.664,12.755-24.115,26.506-47.783,42.156-70.146,15.014-21.459,31.926-42.445,52.81-58.476,20.747-15.923,46.688-25.639,72.5-16.59,25.089,8.8,36.106,33.969,41.393,58.178,6.162,28.22,6.338,57.3,10.68,85.79,3.386,22.206,10.953,54.493,39.713,53.169" transform="translate(160.602 107.772)" fill="none" stroke="#fff" stroke-miterlimit="10" stroke-width="1"/>
      <path id="Path_15" data-name="Path 15" d="M293.636,524.228c14.957-25.787,27.831-52.753,40.63-79.652,12.892-27.093,25.546-54.314,39.386-80.942,13.16-25.315,27.234-50.819,45.555-72.828,16.008-19.228,38.1-37.989,64.872-31.731,26.992,6.312,36.181,34.447,40.045,58.79,2.35,14.819,3.08,29.8,4.422,44.727,1.062,11.8,2.122,24,5.464,35.413" transform="translate(396.366 33.617)" fill="none" stroke="#fff" stroke-miterlimit="10" stroke-width="1"/>
      <path id="Path_18" data-name="Path 18" d="M406.487,441.377c-4.734-1.95,10.727-50.362,34.527-108.129s46.932-103.016,51.663-101.066-10.724,50.359-34.527,108.127S411.218,443.327,406.487,441.377Z" transform="translate(575.187 -7.459)" fill="url(#radial-gradient-4)" style="mix-blend-mode: color-dodge;isolation: isolate"/>
    </g>
    <text id="Discovery_Project_Overview_Audience_Definition_Features_Requirement_Platform_Selection_" data-name="Discovery

Project Overview Audience Definition Features / Requirement Platform Selection " transform="translate(564.855 398.773)" fill="#132437" font-size="20" font-family="Lato-Black, Lato" font-weight="800"><tspan x="0" y="20">Discovery</tspan><tspan x="0" y="46.28"></tspan><tspan font-family="Lato-Regular, Lato" font-weight="400"><tspan x="0" y="72.56">Project Overview </tspan><tspan x="0" y="98.84">Audience Definition </tspan><tspan x="0" y="125.12">Features / </tspan><tspan x="0" y="151.4">Requirement </tspan><tspan x="0" y="177.68">Platform Selection </tspan></tspan></text>
    <line id="Line_1" data-name="Line 1" y2="308.357" transform="translate(552.864 403.272)" fill="none" stroke="#9ccbff" stroke-miterlimit="10" stroke-width="3.5"/>
    <text id="_1" data-name="1" transform="translate(479.39 478.845)" fill="#0078ff" font-size="102" font-family="Roboto-Black, Roboto" font-weight="800"><tspan x="0" y="0">1</tspan></text>
    <line id="Line_2" data-name="Line 2" y2="249.526" transform="translate(896.283 243.736)" fill="none" stroke="#9ccbff" stroke-miterlimit="10" stroke-width="3.5"/>
    <text id="Conception_Process_Flow_Story_Board_wireframe_UI_UX_Design" data-name="Conception

Process Flow Story Board wireframe UI/UX Design" transform="translate(908.273 243.968)" fill="#132437" font-size="20" font-family="Lato-Black, Lato" font-weight="800"><tspan x="0" y="20">Conception</tspan><tspan x="0" y="46.28"></tspan><tspan font-family="Lato-Regular, Lato" font-weight="400"><tspan x="0" y="72.56">Process Flow Story </tspan><tspan x="0" y="98.84">Board wireframe UI/</tspan><tspan x="0" y="125.12">UX Design</tspan></tspan></text>
    <text id="_2" data-name="2" transform="translate(822.81 324.04)" fill="#0078ff" font-size="102" font-family="Roboto-Black, Roboto" font-weight="800"><tspan x="0" y="0">2</tspan></text>
    <line id="Line_3" data-name="Line 3" y2="249.526" transform="translate(1202.334 78.984)" fill="none" stroke="#9ccbff" stroke-miterlimit="10" stroke-width="3.5"/>
    <text id="Implementation_Develop_User_Testing_Review_Implement_Training_Roll_Out" data-name="Implementation

Develop User Testing Review Implement Training &amp; Roll Out" transform="translate(1212.546 74.93)" fill="#132437" font-size="20" font-family="Roboto-Black, Roboto" font-weight="800"><tspan x="0" y="19">Implementation</tspan><tspan x="0" y="45.28"></tspan><tspan font-family="Roboto-Regular, Roboto" font-weight="400"><tspan x="0" y="71.56">Develop User Testing </tspan><tspan x="0" y="97.84">Review Implement </tspan><tspan x="0" y="124.12">Training &amp; Roll Out</tspan></tspan></text>
    <text id="_3" data-name="3" transform="translate(1127.081 155)" fill="#0078ff" font-size="102" font-family="Roboto-Black, Roboto" font-weight="800"><tspan x="0" y="0">3</tspan></text>
  </g>
</svg>
